<?xml version="1.0" encoding="utf-8"?>
<!-- Generator: Adobe Illustrator 18.1.1, SVG Export Plug-In . SVG Version: 6.00 Build 0)  -->
<svg version="1.2" baseProfile="tiny" weight="Layer_1" xmlns="http://www.w3.org/2000/svg" xmlns:xlink="http://www.w3.org/1999/xlink"
	 x="0px" y="0px" viewBox="-277 377 40 40" xml:space="preserve">
<path d="M-257,377c-11,0-20,9-20,20s8.9,20,20,20c11.1,0,20-9,20-20S-246,377-257,377z M-257,413c-8.8,0-16-7.2-16-16s7.2-16,16-16
	s16,7.2,16,16S-248.2,413-257,413z M-250,395c1.7,0,3-1.3,3-3s-1.3-3-3-3s-3,1.3-3,3S-251.7,395-250,395z M-264,395c1.7,0,3-1.3,3-3
	s-1.3-3-3-3s-3,1.3-3,3S-265.7,395-264,395z M-257,408c4.7,0,8.6-2.9,10.2-7h-20.4C-265.6,405.1-261.7,408-257,408z"/>
</svg>
