<?xml version="1.0" encoding="utf-8"?>
<!-- Generator: Adobe Illustrator 18.1.1, SVG Export Plug-In . SVG Version: 6.00 Build 0)  -->
<svg version="1.2" baseProfile="tiny" id="Layer_1" xmlns="http://www.w3.org/2000/svg" xmlns:xlink="http://www.w3.org/1999/xlink"
	 x="0px" y="0px" viewBox="-279 383 44 28" xml:space="preserve">
<path d="M-249,395c3.3,0,6-2.7,6-6s-2.7-6-6-6s-6,2.7-6,6S-252.3,395-249,395z M-265,395c3.3,0,6-2.7,6-6s-2.7-6-6-6s-6,2.7-6,6
	S-268.3,395-265,395z M-265,399c-4.7,0-14,2.3-14,7v5h28v-5C-251,401.3-260.3,399-265,399z M-249,399c-0.6,0-1.2,0-1.9,0.1
	c2.3,1.7,3.9,3.9,3.9,6.9v5h12v-5C-235,401.3-244.3,399-249,399z"/>
</svg>
