<?xml version="1.0" encoding="utf-8"?>
<!-- Generator: Adobe Illustrator 18.1.1, SVG Export Plug-In . SVG Version: 6.00 Build 0)  -->
<svg version="1.2" baseProfile="tiny" weight="Layer_1" xmlns="http://www.w3.org/2000/svg" xmlns:xlink="http://www.w3.org/1999/xlink"
	 x="0px" y="0px" viewBox="0 0 121.8 145.4" xml:space="preserve">
<g>
	<path fill="#515151" d="M17.4,145.4C7.8,145.4,0,137.6,0,128v-67C0,27.3,27.3,0,60.9,0s60.9,27.3,60.9,60.9s-27.3,60.9-60.9,60.9
		c-6.7,0-13.2-1.1-19.5-3.2c-2.6-0.9-4.8-2.3-6.7-4.1V128C34.8,137.6,27,145.4,17.4,145.4z M60.9,34.8c-14.4,0-26.1,11.7-26.1,26.1
		v28.8c4.5-4.4,11.3-6.3,17.8-4.1c2.7,0.9,5.5,1.4,8.3,1.4C75.3,87,87,75.3,87,60.9S75.3,34.8,60.9,34.8z"/>
</g>
</svg>
