<?xml version="1.0" encoding="utf-8"?>
<!-- Generator: Adobe Illustrator 18.1.1, SVG Export Plug-In . SVG Version: 6.00 Build 0)  -->
<svg version="1.2" baseProfile="tiny" id="Layer_1" xmlns="http://www.w3.org/2000/svg" xmlns:xlink="http://www.w3.org/1999/xlink"
	 x="0px" y="0px" viewBox="-277 387 40 20" xml:space="preserve">
<path d="M-273.2,397c0-3.4,2.8-6.2,6.2-6.2h8V387h-8c-5.5,0-10,4.5-10,10s4.5,10,10,10h8v-3.8h-8
	C-270.4,403.2-273.2,400.4-273.2,397z M-265,399h16v-4h-16V399z M-247,387h-8v3.8h8c3.4,0,6.2,2.8,6.2,6.2s-2.8,6.2-6.2,6.2h-8v3.8
	h8c5.5,0,10-4.5,10-10S-241.5,387-247,387z"/>
</svg>
