<?xml version="1.0" encoding="utf-8"?>
<!-- Generator: Adobe Illustrator 19.1.0, SVG Export Plug-In . SVG Version: 6.00 Build 0)  -->
<svg version="1.1" id="Layer_1" xmlns="http://www.w3.org/2000/svg" xmlns:xlink="http://www.w3.org/1999/xlink" x="0px" y="0px"
	 viewBox="-277 377 40 40" style="enable-background:new -277 377 40 40;" xml:space="preserve">
<style type="text/css">
	.st0{fill:none;}
</style>
<path d="M-257,377c-11,0-20,9-20,20s9,20,20,20s20-9,20-20S-246,377-257,377z M-257,383c3.3,0,6,2.7,6,6s-2.7,6-6,6s-6-2.7-6-6
	S-260.3,383-257,383z M-257,411.4c-5,0-9.4-2.6-12-6.4c0.1-4,8-6.2,12-6.2c4,0,11.9,2.2,12,6.2C-247.6,408.8-252,411.4-257,411.4z"
	/>
<path class="st0" d="M-281,373h48v48h-48V373z"/>
</svg>
