<?xml version="1.0" encoding="utf-8"?>
<!-- Generator: Adobe Illustrator 19.1.0, SVG Export Plug-In . SVG Version: 6.00 Build 0)  -->
<svg version="1.2" baseProfile="tiny" id="Layer_1" xmlns="http://www.w3.org/2000/svg" xmlns:xlink="http://www.w3.org/1999/xlink"
	 x="0px" y="0px" viewBox="-248.3 287.7 98.6 219.7" xml:space="preserve">
<g>
	<path fill="#A7A9AC" d="M-222.2,498.7c-1.7,0-3.1-1.4-3.1-3.1s1.4-3.1,3.1-3.1s3.1,1.4,3.1,3.1S-220.5,498.7-222.2,498.7z"/>
	<path fill="#231F20" d="M-222.2,493.9c0.9,0,1.7,0.8,1.7,1.7s-0.8,1.7-1.7,1.7c-0.9,0-1.7-0.8-1.7-1.7S-223.2,493.9-222.2,493.9
		 M-222.2,491c-2.5,0-4.6,2-4.6,4.6c0,2.5,2,4.6,4.6,4.6s4.6-2,4.6-4.6C-217.7,493-219.7,491-222.2,491z"/>
	<path fill="#A7A9AC" d="M-227.1,505.9c-1.7,0-3.1-1.4-3.1-3.1s1.4-3.1,3.1-3.1c1.7,0,3.1,1.4,3.1,3.1S-225.4,505.9-227.1,505.9z"/>
	<path fill="#414042" d="M-227.1,501.1c0.9,0,1.7,0.8,1.7,1.7c0,0.9-0.8,1.7-1.7,1.7c-0.9,0-1.7-0.8-1.7-1.7
		C-228.8,501.9-228,501.1-227.1,501.1 M-227.1,498.2c-2.5,0-4.6,2-4.6,4.6c0,2.5,2,4.6,4.6,4.6c2.6,0,4.6-2,4.6-4.6
		C-222.6,500.2-224.6,498.2-227.1,498.2z"/>
	<circle fill="#A7A9AC" cx="-172" cy="495.5" r="3.1"/>
	<path fill="#231F20" d="M-172,493.9c0.9,0,1.7,0.8,1.7,1.7s-0.8,1.7-1.7,1.7s-1.7-0.8-1.7-1.7S-172.9,493.9-172,493.9 M-172,491
		c-2.5,0-4.6,2-4.6,4.6c0,2.5,2,4.6,4.6,4.6c2.6,0,4.6-2,4.6-4.6C-167.4,493-169.5,491-172,491z"/>
	<circle fill="#A7A9AC" cx="-175.9" cy="502.7" r="3.1"/>
	<path fill="#414042" d="M-175.9,501.1c0.9,0,1.7,0.8,1.7,1.7c0,0.9-0.8,1.7-1.7,1.7s-1.7-0.8-1.7-1.7
		C-177.6,501.9-176.8,501.1-175.9,501.1 M-175.9,498.2c-2.5,0-4.6,2-4.6,4.6c0,2.5,2,4.6,4.6,4.6c2.5,0,4.6-2,4.6-4.6
		S-173.3,498.2-175.9,498.2z"/>
	<path fill="#FBB040" d="M-152.4,491.5c0,3.9-16.7,7.1-43.7,7.1c-1.1,0-25,0-37.7,0c-4.4,0-9.6-5.4-12-8.6c-0.8-1-1.5-2.1-1.7-3.3
		c-0.2-1.8,0.8-3.5,1.9-5c0.5-0.7,1-1.5,1.8-1.9c1.8-0.9,3.1,1,4.3,1.9c1.8,1.5,4,2.6,6.4,2.6c12.9,0,36.1,0,36.9,0
		C-169.2,484.4-152.4,487.6-152.4,491.5z"/>
	<path fill="#F7941E" d="M-152.4,491.5h-0.7c0,0.2-0.1,0.5-0.5,0.9c-0.7,0.7-2.3,1.4-4.6,2.1c-6.9,2-20.2,3.4-37.8,3.4
		c-1.1,0-25,0-37.7,0c-1.9,0-4.2-1.2-6.3-3c-2.1-1.7-4-3.8-5.1-5.4c-0.8-1-1.4-2-1.5-3c0-0.1,0-0.3,0-0.4c0-0.7,0.2-1.3,0.5-2
		c0.3-0.7,0.8-1.4,1.2-2.1c0.5-0.7,1-1.4,1.6-1.7c0.2-0.1,0.4-0.2,0.6-0.2s0.4,0.1,0.6,0.2c0.3,0.2,0.7,0.5,1.1,0.8
		c0.4,0.3,0.8,0.7,1.2,1.1c1.9,1.5,4.2,2.7,6.9,2.7l0,0v-0.7v0.7l0,0v-0.7v0.7l0,0l0,0c12.9,0,36.1,0,36.9,0
		c13.4,0,24.3,0.8,31.8,2.1c3.7,0.6,6.6,1.4,8.5,2.2c0.9,0.4,1.6,0.8,2.1,1.2c0.4,0.4,0.5,0.7,0.5,0.9h0.7h0.7c0-0.8-0.4-1.4-1-2
		c-1.1-0.9-2.8-1.7-5.2-2.4c-7.2-2.1-20.5-3.5-38.2-3.5c-0.8,0-24,0-36.9,0v0.7v-0.7l0,0l0,0c-2.2,0-4.2-1-6-2.4
		c-0.4-0.3-1-0.9-1.6-1.4c-0.3-0.2-0.6-0.5-1-0.7c-0.4-0.2-0.8-0.3-1.3-0.3c-0.4,0-0.9,0.1-1.3,0.3c-1,0.5-1.6,1.4-2.1,2.2
		c-0.5,0.7-1,1.4-1.3,2.2c-0.4,0.8-0.7,1.7-0.7,2.6c0,0.2,0,0.4,0,0.6c0.2,1.5,1,2.7,1.8,3.7c1.2,1.6,3.2,3.8,5.4,5.6
		s4.7,3.3,7.2,3.3c12.7,0,36.6,0,37.7,0c13.5,0,24.4-0.8,32-2.1c3.8-0.7,6.8-1.4,8.9-2.3c1-0.4,1.9-0.9,2.5-1.5c0.6-0.5,1-1.2,1-2
		h-0.6V491.5z"/>
	<line fill="none" x1="-236.6" y1="495" x2="-233.7" y2="486.4"/>
	<path fill="#F7941E" d="M-236,495.2l2.9-8.6c0.1-0.3-0.1-0.7-0.4-0.8c-0.3-0.1-0.7,0.1-0.8,0.4l-2.9,8.6c-0.1,0.3,0.1,0.7,0.4,0.8
		C-236.5,495.7-236.1,495.5-236,495.2"/>
	<path fill="#F7941E" d="M-230.7,487.8c2.5,1.6,4.8,3.5,7.1,5.4c1.2,1,2.5,2,3.7,3.1c0.1,0.1,0.3,0.1,0.4,0s0.1-0.3,0-0.4
		c-1.2-1-2.5-2-3.7-3.1c-2.3-1.9-4.6-3.8-7.2-5.5c-0.1-0.1-0.3-0.1-0.4,0.1C-230.8,487.5-230.8,487.7-230.7,487.8L-230.7,487.8z"/>
	<path fill="#F7941E" d="M-226.4,487.8c2.5,1.6,4.8,3.5,7.1,5.4c1.2,1,2.5,2,3.7,3.1c0.1,0.1,0.3,0.1,0.4,0s0.1-0.3,0-0.4
		c-1.2-1-2.5-2-3.7-3.1c-2.3-1.9-4.6-3.8-7.2-5.5c-0.1-0.1-0.3-0.1-0.4,0.1C-226.5,487.5-226.5,487.7-226.4,487.8L-226.4,487.8z"/>
	<path fill="#F7941E" d="M-221.6,487.8c2.5,1.6,4.8,3.5,7.1,5.4c1.2,1,2.5,2,3.7,3.1c0.1,0.1,0.3,0.1,0.4,0c0.1-0.1,0.1-0.3,0-0.4
		c-1.2-1-2.5-2-3.7-3.1c-2.3-1.9-4.6-3.8-7.2-5.5c-0.1-0.1-0.3-0.1-0.4,0.1C-221.8,487.5-221.8,487.7-221.6,487.8L-221.6,487.8z"/>
	<path fill="#F7941E" d="M-217.3,487.8c2.5,1.6,4.8,3.5,7.1,5.4c1.2,1,2.5,2,3.7,3.1c0.1,0.1,0.3,0.1,0.4,0c0.1-0.1,0.1-0.3,0-0.4
		c-1.2-1-2.5-2-3.7-3.1c-2.3-1.9-4.6-3.8-7.2-5.5c-0.1-0.1-0.3-0.1-0.4,0.1C-217.5,487.5-217.4,487.7-217.3,487.8L-217.3,487.8z"/>
	<path fill="#F7941E" d="M-212.7,487.8c2.5,1.6,4.8,3.5,7.1,5.4c1.2,1,2.5,2,3.7,3.1c0.1,0.1,0.3,0.1,0.4,0s0.1-0.3,0-0.4
		c-1.2-1-2.5-2-3.7-3.1c-2.3-1.9-4.6-3.8-7.2-5.5c-0.1-0.1-0.3-0.1-0.4,0.1C-212.9,487.5-212.8,487.7-212.7,487.8L-212.7,487.8z"/>
	<path fill="#F7941E" d="M-208.4,487.8c2.5,1.6,4.8,3.5,7.1,5.4c1.2,1,2.5,2,3.7,3.1c0.1,0.1,0.3,0.1,0.4,0c0.1-0.1,0.1-0.3,0-0.4
		c-1.2-1-2.5-2-3.7-3.1c-2.3-1.9-4.6-3.8-7.2-5.5c-0.1-0.1-0.3-0.1-0.4,0.1C-208.6,487.5-208.5,487.7-208.4,487.8L-208.4,487.8z"/>
	<path fill="#F7941E" d="M-203.6,487.8c2.5,1.6,4.8,3.5,7.1,5.4c1.2,1,2.5,2,3.7,3.1c0.1,0.1,0.3,0.1,0.4,0c0.1-0.1,0.1-0.3,0-0.4
		c-1.2-1-2.5-2-3.7-3.1c-2.3-1.9-4.6-3.8-7.2-5.5c-0.1-0.1-0.3-0.1-0.4,0.1C-203.8,487.5-203.8,487.7-203.6,487.8L-203.6,487.8z"/>
	<path fill="#F7941E" d="M-199.3,487.8c2.5,1.6,4.8,3.5,7.1,5.4c1.2,1,2.5,2,3.7,3.1c0.1,0.1,0.3,0.1,0.4,0c0.1-0.1,0.1-0.3,0-0.4
		c-1.2-1-2.5-2-3.7-3.1c-2.3-1.9-4.6-3.8-7.2-5.5c-0.1-0.1-0.3-0.1-0.4,0.1C-199.5,487.5-199.5,487.7-199.3,487.8L-199.3,487.8z"/>
	<path fill="#F7941E" d="M-193.9,487.8c2.5,1.6,4.8,3.5,7.1,5.4c1.2,1,2.5,2,3.7,3.1c0.1,0.1,0.3,0.1,0.4,0c0.1-0.1,0.1-0.3,0-0.4
		c-1.2-1-2.5-2-3.7-3.1c-2.3-1.9-4.6-3.8-7.2-5.5c-0.1-0.1-0.3-0.1-0.4,0.1C-194.1,487.5-194.1,487.7-193.9,487.8L-193.9,487.8z"/>
	<path fill="#F7941E" d="M-189.6,487.8c2.5,1.6,4.8,3.5,7.1,5.4c1.2,1,2.5,2,3.7,3.1c0.1,0.1,0.3,0.1,0.4,0c0.1-0.1,0.1-0.3,0-0.4
		c-1.2-1-2.5-2-3.7-3.1c-2.3-1.9-4.6-3.8-7.2-5.5c-0.1-0.1-0.3-0.1-0.4,0.1C-189.8,487.5-189.7,487.7-189.6,487.8L-189.6,487.8z"/>
	<path fill="#F7941E" d="M-184.9,487.8c2.5,1.6,4.8,3.5,7.1,5.4c1.2,1,2.5,2,3.7,3.1c0.1,0.1,0.3,0.1,0.4,0c0.1-0.1,0.1-0.3,0-0.4
		c-1.2-1-2.5-2-3.7-3.1c-2.3-1.9-4.6-3.8-7.2-5.5c-0.1-0.1-0.3-0.1-0.4,0.1C-185,487.5-185,487.7-184.9,487.8L-184.9,487.8z"/>
	<path fill="#F7941E" d="M-180.5,487.8c2.5,1.6,4.8,3.5,7.1,5.4c1.2,1,2.5,2,3.7,3.1c0.1,0.1,0.3,0.1,0.4,0c0.1-0.1,0.1-0.3,0-0.4
		c-1.2-1-2.5-2-3.7-3.1c-2.3-1.9-4.6-3.8-7.2-5.5c-0.1-0.1-0.3-0.1-0.4,0.1C-180.7,487.5-180.7,487.7-180.5,487.8L-180.5,487.8z"/>
	<path fill="#F7941E" d="M-174.8,488c2.6,2.4,5.5,4.3,7.8,6.8c0.1,0.1,0.3,0.1,0.4,0c0.1-0.1,0.1-0.3,0-0.4
		c-2.4-2.6-5.3-4.5-7.9-6.9c-0.1-0.1-0.3-0.1-0.4,0C-175,487.7-175,487.9-174.8,488L-174.8,488z"/>
	<path fill="#F7941E" d="M-170.3,488.3c0.2,0.6,0.7,1,1.1,1.4c1.4,1.2,2.8,2.3,4.2,3.4c0.1,0.1,0.3,0.1,0.4-0.1
		c0.1-0.1,0.1-0.3-0.1-0.4c-1.4-1.1-2.8-2.2-4.2-3.4c-0.4-0.3-0.8-0.7-0.9-1.1c-0.1-0.2-0.2-0.3-0.4-0.2
		C-170.3,487.9-170.4,488.1-170.3,488.3L-170.3,488.3z"/>
	<path fill="#F7941E" d="M-165.8,489.7c1.6,1.1,3.1,2.3,4.5,3.7c0.1,0.1,0.3,0.1,0.4,0c0.1-0.1,0.1-0.3,0-0.4
		c-1.4-1.4-3-2.6-4.6-3.7c-0.1-0.1-0.3-0.1-0.4,0.1C-166,489.4-165.9,489.6-165.8,489.7L-165.8,489.7z"/>
	<path fill="#F7941E" d="M-162,489.3c1.2,0.8,2.4,1.8,3.3,2.9c0.1,0.1,0.3,0.1,0.4,0c0.1-0.1,0.1-0.3,0-0.4c-1-1.1-2.2-2.2-3.5-3
		c-0.1-0.1-0.3-0.1-0.4,0.1C-162.2,489-162.2,489.2-162,489.3L-162,489.3z"/>
	<path fill="#F7941E" d="M-157.1,490.8c0.4,0.3,0.7,0.6,1,1c0.1,0.1,0.3,0.2,0.4,0.1c0.1-0.1,0.2-0.3,0.1-0.4
		c-0.3-0.4-0.7-0.8-1.1-1.1c-0.1-0.1-0.3-0.1-0.4,0.1C-157.2,490.5-157.2,490.7-157.1,490.8L-157.1,490.8z"/>
	<path fill="#F7941E" d="M-231.7,490.7c2,1.8,4.1,3.6,6.3,5.3c0.1,0.1,0.3,0.1,0.4-0.1c0.1-0.1,0.1-0.3-0.1-0.4
		c-2.2-1.7-4.2-3.4-6.3-5.2c-0.1-0.1-0.3-0.1-0.4,0C-231.8,490.4-231.8,490.6-231.7,490.7L-231.7,490.7z"/>
	<path fill="#F7941E" d="M-233,492.4c1.4,1.3,2.7,2.6,4.1,3.9c0.1,0.1,0.3,0.1,0.4,0c0.1-0.1,0.1-0.3,0-0.4
		c-1.4-1.3-2.7-2.6-4.1-3.9c-0.1-0.1-0.3-0.1-0.4,0C-233.1,492.1-233.1,492.3-233,492.4L-233,492.4z"/>
	<path fill="#F7941E" d="M-234.2,494.3c0.9,0.9,1.7,1.7,2.5,2.7c0.1,0.1,0.3,0.1,0.4,0c0.1-0.1,0.1-0.3,0-0.4
		c-0.8-0.9-1.7-1.8-2.5-2.7c-0.1-0.1-0.3-0.1-0.4,0C-234.4,494-234.4,494.2-234.2,494.3L-234.2,494.3z"/>
	<path fill="#F7941E" d="M-235.1,495.8c0.2,0.3,0.4,0.6,0.7,0.9c0.1,0.1,0.3,0.2,0.4,0.1s0.2-0.3,0.1-0.4c-0.2-0.3-0.4-0.6-0.7-0.9
		c-0.1-0.1-0.3-0.2-0.4-0.1C-235.2,495.5-235.2,495.7-235.1,495.8L-235.1,495.8z"/>
	<path fill="#F7941E" d="M-237.3,489.3c-2-1.8-3.4-4.3-5.4-6.2c-0.1-0.1-0.3-0.1-0.4,0c-0.1,0.1-0.1,0.3,0,0.4
		c1.9,1.9,3.3,4.3,5.4,6.2c0.1,0.1,0.3,0.1,0.4,0C-237.2,489.6-237.2,489.4-237.3,489.3L-237.3,489.3z"/>
	<path fill="#F7941E" d="M-237.7,491.8c-0.3-0.1-0.5-0.3-0.8-0.6c-2.1-2.1-4.2-4.4-5.7-7c-0.1-0.1-0.3-0.2-0.4-0.1
		c-0.1,0.1-0.2,0.3-0.1,0.4c1.6,2.6,3.7,4.9,5.8,7.1c0.3,0.3,0.6,0.6,1,0.7c0.2,0.1,0.3,0,0.4-0.2
		C-237.5,492.1-237.6,491.9-237.7,491.8L-237.7,491.8z"/>
	<path fill="#F7941E" d="M-239.5,493.6c-1.6-1.9-3.2-3.9-4.8-5.8c-0.2-0.3-0.4-0.5-0.4-0.7s-0.2-0.3-0.3-0.3c-0.2,0-0.3,0.2-0.3,0.3
		c0,0.5,0.3,0.8,0.6,1.1c1.6,1.9,3.2,3.9,4.8,5.8c0.1,0.1,0.3,0.2,0.4,0C-239.4,494-239.4,493.8-239.5,493.6L-239.5,493.6z"/>
	<path fill="#F7941E" d="M-235.1,486.4c-0.5-0.4-0.9-0.9-1.4-1.3c-0.1-0.1-0.3-0.1-0.4,0c-0.1,0.1-0.1,0.3,0,0.4
		c0.5,0.4,0.9,0.9,1.4,1.3c0.1,0.1,0.3,0.1,0.4,0C-235,486.7-235,486.5-235.1,486.4L-235.1,486.4z"/>
	<path fill="#F7941E" d="M-236.3,487.6c-1.1-1.1-2.2-2.2-3.2-3.4c-0.1-0.1-0.3-0.2-0.4,0c-0.1,0.1-0.2,0.3,0,0.4
		c1,1.2,2.1,2.4,3.3,3.5c0.1,0.1,0.3,0.1,0.4,0C-236.2,487.9-236.2,487.7-236.3,487.6L-236.3,487.6z"/>
	<polygon fill="#63D371" points="-182.1,419 -182.9,485.4 -190.2,485.4 -191,419 	"/>
	<rect x="-192.7" y="417.7" fill="#16679E" width="12.3" height="13.7"/>
	<rect x="-192.2" y="475.1" fill="#1B1B1B" width="11.2" height="15.7"/>
	<path fill="#1B1B1B" d="M-168.6,492.5c0-6.4-7.5-11-13.9-11c-6.4,0-9.2,4.7-9.2,11H-168.6z"/>
	<path fill="#F1F2F2" d="M-191.4,492.9h22.2c0.7,0,1.3-0.6,1.3-1.3v-0.7c0-0.7-0.6-1.3-1.3-1.3h-22.2c-0.7,0-1.3,0.6-1.3,1.3v0.7
		C-192.7,492.3-192.1,492.9-191.4,492.9z"/>
	<path fill="#FFFFFF" d="M-189.8,486.7l4.5-1.3c0.1,0,0.2,0,0.2,0h0.2c0.5,0.1,1.1,0.4,1.6,0.7c0.9,0.6,2,1.2,3.3,1.2
		c0.2,0,0.3,0,0.5,0c0.4-0.1,0.6-0.4,0.6-0.8c-0.1-0.4-0.4-0.6-0.8-0.6c-0.1,0-0.2,0-0.3,0c-0.8,0-1.7-0.5-2.6-1
		c-0.6-0.3-1.3-0.7-2-0.9c-0.2,0-0.3-0.1-0.5-0.1s-0.4,0-0.6,0.1l-4.5,1.3c-0.4,0.1-0.6,0.5-0.5,0.8
		C-190.6,486.6-190.2,486.8-189.8,486.7L-189.8,486.7z"/>
	<path fill="#FFFFFF" d="M-191.4,479.6h7.3c0.1,0,0.2-0.1,0.2-0.2c0-0.1-0.1-0.2-0.2-0.2h-7.3c-0.1,0-0.2,0.1-0.2,0.2
		C-191.6,479.6-191.5,479.6-191.4,479.6"/>
	<path fill="#FFFFFF" d="M-191.4,478.1h7.3c0.1,0,0.2-0.1,0.2-0.2c0-0.1-0.1-0.2-0.2-0.2h-7.3c-0.1,0-0.2,0.1-0.2,0.2
		C-191.6,478-191.5,478.1-191.4,478.1"/>
	<path fill="#FFFFFF" d="M-191.4,481.2h7.3c0.1,0,0.2-0.1,0.2-0.2c0-0.1-0.1-0.2-0.2-0.2h-7.3c-0.1,0-0.2,0.1-0.2,0.2
		C-191.6,481.1-191.5,481.2-191.4,481.2"/>
	<path fill="#63D371" d="M-177.3,365c0,0,0.1,0.8,0.2,2.3c0.1,1.5,0.3,3.6,0.6,6.2c0.3,2.6,0.7,5.6,1.3,8.7c0.6,3.2,1.3,6.5,2.3,9.8
		c0.2,0.8,0.5,1.5,0.7,2.3c0.1,0.4,0.3,0.9,0.4,1.1c0.1,0.2,0.2,0.4,0.4,0.7c0.6,1,1.4,1.8,2.3,2.4c2,1.2,4.7,1.4,7,1.3
		s4.4-0.6,5.7-0.9c1.4-0.4,2.1-0.7,2.1-0.6c1.4-0.6,3.1,0.1,3.7,1.5c0.6,1.4-0.1,3.1-1.5,3.7c-0.1,0-1,0.4-2.6,1
		c-1.6,0.5-3.9,1.2-6.9,1.6c-1.5,0.2-3.1,0.2-4.9,0.1c-1.8-0.2-3.8-0.6-5.8-1.6c-1-0.5-1.9-1.1-2.8-1.9c-0.9-0.8-1.7-1.7-2.3-2.6
		c-0.3-0.5-0.6-1-0.9-1.6c-0.3-0.6-0.4-0.9-0.6-1.4l-0.1-0.2v-0.1l0,0l-0.1-0.2l-0.1-0.3l-0.2-0.7l-0.5-1.3
		c-2.4-7-3.9-14.1-4.9-19.5c-0.5-2.7-0.8-4.9-1-6.5c-0.1-0.8-0.2-1.4-0.2-1.9c0-0.4-0.1-0.7-0.1-0.7c-0.3-2.4,1.5-4.6,3.9-4.9
		c2.4-0.3,4.6,1.5,4.9,3.9V365L-177.3,365z"/>
	<polygon fill="#FFF7B0" points="-155.1,406 -153.1,390.2 -150.4,389.8 -152.6,407.5 	"/>
	<path fill="#231F20" d="M-155.1,406l0.6,0.1l1.9-15.3l1.4-0.2l-2,15.9l-1.7-1L-155.1,406l0.6,0.1L-155.1,406l-0.3,0.5l2.5,1.5
		c0.2,0.1,0.4,0.1,0.6,0c0.2-0.1,0.3-0.3,0.4-0.5l2.2-17.7c0-0.2,0-0.4-0.2-0.5c-0.1-0.1-0.3-0.2-0.5-0.2l-2.7,0.4
		c-0.3,0-0.5,0.3-0.5,0.5l-1.9,15.8c0,0.2,0.1,0.5,0.3,0.6L-155.1,406z"/>
	
		<ellipse transform="matrix(0.1224 -0.9925 0.9925 0.1224 -521.8439 195.6441)" fill="#414042" cx="-150.3" cy="392.9" rx="0.7" ry="0.5"/>
	
		<ellipse transform="matrix(0.1224 -0.9925 0.9925 0.1224 -524.0066 197.204)" fill="#414042" cx="-150.5" cy="394.9" rx="0.7" ry="0.5"/>
	
		<ellipse transform="matrix(-0.9939 -0.1099 0.1099 -0.9939 -351.5067 779.3867)" fill="#63D371" cx="-154.3" cy="399.4" rx="1.5" ry="1.1"/>
	<polygon fill="#63D371" points="-218,419 -218.8,485.4 -226.2,485.4 -226.9,419 	"/>
	<rect x="-228.6" y="419" fill="#16679E" width="12.3" height="13.7"/>
	<path fill="#1C75BC" d="M-204.2,414.1c0.1,0,0.3,0,0.4,0.1c4.3,0.6,8.6,0.9,12.8,0.9c2.1,0,4-0.5,6-0.7c2-0.2,4.1-0.1,6.1,0.1
		c0.3,0,0.7,0.1,0.9,0.4c0.5,0.7,0.3,1.5-0.1,2.1c-0.3,0.4-0.7,0.8-1.1,1.2c-3.7,3.2-9.1,4.5-13.8,5.5c-7.4,1.6-15.1,2.2-22.7,2.2
		c-6.8,0-16.3-0.3-20.1-4.3c-3.1-3.3-3.6-9.4,3.2-11.1c1.4-0.4,2.9-0.4,4.4-0.4C-219.7,410.2-212.2,412.8-204.2,414.1z"/>
	<path fill="#16679E" d="M-235.7,421.6c-3.6-3.8-3.4-11.3,6.7-11.5c4.3-0.1,6,1.3,7.3,3.5c1.9,3.1,4.4,5.6,7.9,8.2
		c0.5,0.4,1.1,0.8,1.9,1.1c0.7,0.2,1.5,0.3,2.3,0.4c10.5,0.9,20.8-0.7,29.3-4.2c-4.1,3-8.1,4.6-13.7,5.7c-6.9,1.4-14.4,1.1-21.7,1.1
		C-222.4,425.8-231.9,425.6-235.7,421.6z"/>
	<path fill="#FBB040" d="M-180.9,369.8c-0.1-1.8,0-3.5,0.2-5.3c0.2-1.5,0.9-2.8,0.5-4.3c-0.5-1.9-2.5-3.6-3.9-4.9
		c-6.2-6-15.1-8.8-23.7-8.8c-16.6,0.1-30.2,10.4-30.2,23.2c0.3,4.7,0.6,9.4,1,14.2c0.6,8,1.1,16.1,1.7,24.1c0,0.7,0,1.6,0.1,2.3
		c0.3,1,1.4,2.1,2.2,2.7c1.9,1.7,4.4,2.9,7,3c1.8,0,3.5,0,5.3,0c4.2,0,8.3,0,12.5,0c7.9,0,15.8,0,23.7,0c2.3,0,4.7,0,7,0
		c0,0,0-12.6,0-13.4c0-6.4-3-12.3-2.6-18.8C-179.8,379.2-180.7,374.5-180.9,369.8z"/>
	<path fill="#63D371" d="M-222.1,363c0-2.1,0.2-4.2-0.2-6.2c-0.1-0.6-2.2-6.4-3.1-5.9c-7.6,4.3-12.6,11.1-12.6,18.8l0.8,11.5
		c0.6,0.1,1.3,0.1,1.9,0.1c4.5,0,11.8,0.5,12.7-5.3c0.3-1.7,0.6-3.4,0.6-5.2c0.1-1.8-0.1-3.7-0.2-5.5
		C-222.1,364.6-222.1,363.8-222.1,363z"/>
	<path fill="#F7941E" d="M-220.7,416c-2.1,0.4-4.7,0.1-6.9,0.1c-2.2,0-4.8-1.4-6.4-2.8c-1.4-1.2-1.1-3.5-1.2-5.3
		c-0.2-2.2-0.3-4.5-0.5-6.7c-0.3-4.4-0.7-8.8-1-13.2c-0.3-3.8-0.6-7.5-0.9-11.3c-0.2-3.2-1.3-6.6,2.3-8c1.3-0.5,2.8-0.6,4.2-0.5
		c1,0.1,2.1,0.3,2.5,1.2c0.2,0.4,0.2,1,0.2,1.5c0,7.3,0.3,14.7,1.4,22c1.1,7.4,3.3,14.4,5.6,21.6C-221.1,415-220.9,415.5-220.7,416z
		"/>
	<path fill="#45AF4F" d="M-235.2,381.5c1.7,0,3.3-0.1,5-0.2c0.4,0,2-0.2,2.2-0.4c0.1-0.1,0.1-0.3,0.1-0.4c-0.1-1.7-0.3-3.3-0.3-5
		c0-1.9-0.1-3.9,0-5.8c0-0.6,0-1.3-0.2-1.9c-0.4-1.2-1.6-1.5-2.5-1.6c-1.4-0.1-2.9-0.1-4.2,0.6c-1.6,0.8-2.3,2.2-2.5,3.8
		c-0.2,1.2,0.1,2.7,0.2,3.9c0.1,2.3,0.3,4.5,0.4,6.8v0.1h0.2C-236.4,381.5-235.8,381.5-235.2,381.5z"/>
	<path fill="#63D371" d="M-216.9,361.5c0.2,0.9,0.4,1.8,0.7,2.6c0.9,2.9,0.4,5.9,1.9,8.7c1.4,2.7,3.7,4.9,6.4,6.2
		c5.1,2.5,15.9,4.5,19.8-1.1c0.9-1.3,1.3-3,1.6-4.6c0.7-3.7,0.6-7.5,1.8-11.1c1-3.2,0.9-6.1-1.7-8.7c-2.8-2.7-6.4-4.6-10.3-5.1
		c-4.7-0.6-9.3-1.5-14.1-1.5c-1.3,0-2.6,0-4,0.1c-0.9,0.1-2.2,0-2.8,0.7l-0.2,0.2v0.3c0,0.5-0.1,1.1,0,1.6c0.1,0.4,0.3,0.8,0.3,1.2
		c0.1,1.1-0.1,2.1-0.1,3.2C-217.6,356.7-217.4,359.1-216.9,361.5z"/>
	<path fill="#45AF4F" d="M-211.9,332.8l0.1,13.9c0,7.3,3.5,11.9,7.9,11.9c4.4,0,8-4.6,8-11.9v-13.9H-211.9z"/>
	<path fill="#FBB040" d="M-225.9,302.2c0.5-1-0.1-2.4-1.1-2.7c-0.4-0.1-0.9-0.1-1.3-0.1c-0.7,0-1.5,0.1-2.1,0.5
		c-1.1-1.2-2.3-2.5-3.6-3.5c-1.4-1-3-1.7-4.6-1.7c1.2,2.2,3.8,5.8,6.5,6.2c-2.1,1-4,2.2-5.8,3.6c-0.6,0.5-1.3,1-1.6,1.8
		c3.2,0.7,6.7-0.8,8.4-3.5c-0.3,0.5-0.1,1.1,0.3,1.5s1,0.5,1.5,0.5c1.2,0,2.5-0.7,3.1-1.8c0.2-0.3,0.2-0.6,0.2-1"/>
	<path fill="#8557C1" d="M-231,300c-0.2,0.3-0.3,0.7-0.2,1c-0.4-0.1-0.9-0.2-1.3-0.2c-0.1,0-0.3,0-0.4,0.2c-0.1,0.1-0.1,0.2-0.1,0.3
		c-0.1,0.3-0.1,0.6-0.1,1c0,0.2,0,0.4-0.1,0.6c-0.1,0.2-0.2,0.4-0.4,0.6c-0.8,0.8-2.1,1.2-2.7,2.2c0.5-0.3,1-0.6,1.5-0.8
		c-0.1,0.1-0.2,0.2-0.2,0.3c0.5-0.4,0.9-0.8,1.4-1.2c0.6-0.5,1.2-1.1,1.2-1.8c-0.1,0.1-0.2,0.2-0.4,0.3c0.3-0.2,0.5-0.4,0.8-0.5
		c0,0.2,0,0.4,0,0.6c0-0.3,0.1-0.7,0.3-1c0.2,0.1,0.2,0.5,0.2,0.7c-0.1,0.3-0.2,0.5-0.2,0.8c0.5-0.4,0.8-1.1,0.8-1.7
		c0.1-0.1,0.2-0.1,0.4-0.1c0.1,0.2,0.1,0.4,0,0.6c-0.1,0.2-0.2,0.4-0.4,0.6c-0.3,0.4-0.4,0.8-0.3,1.3c0,0.2,0.1,0.4,0.3,0.4
		c0.2,0,0.3-0.2,0.5-0.1c0,0.1-0.1,0.3,0,0.4l0.2,0.1c0.3,0,0.8,0.1,1.1,0c0.2-0.1,0.3-0.2,0.5-0.4c0.4-0.4,0.8-0.9,1.1-1.4
		c0.4-0.5,0.7-1,0.6-1.6c0-0.5-0.1-1.2-0.7-1.3h-0.2c-0.2,0.1-0.3,0.4-0.3,0.6c0,0.3-0.1,0.6-0.3,0.6h-0.1V301c0-0.3,0-0.5,0-0.8
		c0-0.1,0-0.2,0-0.3c0-0.1-0.2-0.2-0.3-0.1h-0.2c-0.3,0.4-0.1,1.1-0.2,1.6c-0.1,0.2-0.2,0.4-0.4,0.3c0.1-0.4,0.1-1.3-0.1-1.6
		C-230.1,299.6-230.7,299.6-231,300z"/>
	<path fill="#63D371" d="M-177.2,313.1c0,14-11.8,36.1-26.3,36.1s-26.3-22.1-26.3-36.1c0.1-14,11.8-25.4,26.3-25.4
		S-177.2,299.1-177.2,313.1z"/>
	<path fill="#45AF4F" d="M-197.6,345.6c-0.4,3.5-8.3,1.1-10,0.5c-3.5-1.2-6.9-3.2-9.7-6c-5.7-5.5-9.5-13.7-10.1-22.6
		c-0.4-6.2,0.9-12.8,3.1-18.2c0.5-1.3,1.9-1.4,2.9-2.2c1-0.8,1.4-2.2,2.5-2.9c0.8-0.5,2-0.8,2.9-1.2c3-1.3,6.1-2.1,9.4-2.2
		c0.4,0,1.1,0.2,1,0.6c0,0.4-0.6,0.5-1,0.5c-2.6,0-5.2,0.9-7.3,2.3c1,0,1.9,0,2.9,0c0.3,0,0.7,0.1,0.6,0.4c0,0.1-0.1,0.2-0.2,0.3
		c-1,0.7-2.4,1-3.4,1.7c-1.3,0.9-1.9,2.6-1.9,4.1c-0.1,2.6,3.1,7.3,1,9.4c-1.7,1.7-3.3,2.2-3.9,5.2c-0.5,2.6,0.2,6.5,1.5,8.6
		c1.2,1.9,3.3,1.7,4.6,3.3c0.7,0.9,0.9,2.2,1.2,3.4c0.8,3.7,3,7.1,5.4,9.5C-205.6,340.9-197.7,346.8-197.6,345.6z"/>
	<path fill="#2D7A33" d="M-199.7,326.2c0.5-0.2,1-0.5,1.4-1c0,0.4,0,0.9,0,1.3c-0.4-0.1-0.8-0.2-1.1-0.3"/>
	<path fill="#2D7A33" d="M-199.6,326.6c0.6-0.2,1.2-0.6,1.6-1.1l-0.3-0.3h-0.4c0,0.4,0,0.9,0,1.3h0.4l0.1-0.4
		c-0.4-0.1-0.8-0.2-1.1-0.3c-0.2,0-0.4,0.1-0.5,0.3C-199.9,326.4-199.8,326.6-199.6,326.6c0.4,0.2,0.8,0.2,1.2,0.3
		c0.1,0,0.2,0,0.3-0.1c0.1-0.1,0.2-0.2,0.2-0.3c0-0.4,0-0.9,0-1.3c0-0.2-0.1-0.3-0.3-0.4s-0.3,0-0.5,0.1c-0.3,0.4-0.7,0.7-1.2,0.8
		c-0.2,0.1-0.3,0.3-0.3,0.5C-200.1,326.6-199.8,326.7-199.6,326.6L-199.6,326.6z"/>
	<path fill="#2D7A33" d="M-195.3,326.2c-0.5-0.2-1-0.5-1.4-1c0,0.4,0,0.9,0,1.3c0.4-0.1,0.8-0.2,1.1-0.3"/>
	<path fill="#2D7A33" d="M-195.2,325.8c-0.4-0.1-0.9-0.4-1.2-0.8c-0.1-0.1-0.3-0.2-0.5-0.1c-0.2,0.1-0.3,0.2-0.3,0.4
		c0,0.4,0,0.9,0,1.3c0,0.1,0.1,0.2,0.2,0.3c0.1,0.1,0.2,0.1,0.3,0.1c0.4-0.1,0.8-0.2,1.1-0.3c0.2,0,0.4-0.3,0.3-0.5
		c0-0.2-0.3-0.4-0.5-0.3c-0.4,0.1-0.8,0.2-1.1,0.3l0.1,0.4h0.4c0-0.4,0-0.9,0-1.3h-0.4l-0.2,0.2c0.4,0.5,1,0.9,1.6,1.1
		c0.2,0.1,0.4,0,0.5-0.3C-194.8,326.1-194.9,325.9-195.2,325.8L-195.2,325.8z"/>
	<path fill="#2D7A33" d="M-193.7,329.7c-2.2,0-4.4,0-6.6,0h-0.1c-0.3,0-0.7,0-1.1,0.1c-0.7,0.2-1.2,0.8-1.7,1.2
		c-0.2,0.2-0.2,0.4,0,0.6c0.2,0.2,0.4,0.2,0.6,0c0.5-0.5,0.9-0.9,1.4-1c0.2-0.1,0.5-0.1,0.8-0.1h0.1c2.2,0,4.4,0,6.6,0
		c0.2,0,0.4-0.2,0.4-0.4C-193.3,329.9-193.5,329.7-193.7,329.7L-193.7,329.7z"/>
	<path fill="#231F20" d="M-212.7,310c-0.2,0.6-0.3,1.3-0.1,2c0.4,2.1,1.6,4,3.3,5c3.5,2.2,6.7,3.7,9,3.9c2,0.2-1.6-9.5-2-10.2
		c-1.1-1.9-2.7-3.8-4.8-4.1C-209.4,306.4-212,307.9-212.7,310z"/>
	<path fill="#45AF4F" d="M-210.6,317.8c0.6,1.2,1.8,1.8,2.7,2.3c1.4,0.7,2.8,1.5,4.4,1.7c0.2,0,0.4-0.1,0.5-0.3
		c0-0.2-0.1-0.4-0.3-0.5c-1.4-0.2-2.8-0.9-4.2-1.6c-1-0.5-1.9-1-2.4-2c-0.1-0.2-0.3-0.3-0.5-0.2
		C-210.6,317.4-210.7,317.6-210.6,317.8L-210.6,317.8z"/>
	<path fill="#45AF4F" d="M-213.3,306.2c0.1-1,0.7-1.9,1.5-2.4c0.1-0.1,0.2-0.1,0.4-0.1c0.3,0,0.7,0.2,1.2,0.4c0.5,0.2,1,0.5,1.6,0.6
		h0.1c0.5,0,0.8-0.3,1.1-0.5c0.3-0.2,0.6-0.4,0.7-0.4h0.1c0.6,0.3,1.1,0.7,1.4,1.3c0.1,0.2,0.3,0.3,0.5,0.2s0.3-0.3,0.2-0.5
		c-0.4-0.8-1.1-1.4-1.8-1.7c-0.1-0.1-0.3-0.1-0.4-0.1c-0.5,0-0.8,0.3-1.1,0.5c-0.3,0.2-0.6,0.4-0.7,0.4l0,0c-0.4,0-0.8-0.3-1.3-0.5
		c-0.5-0.2-1-0.5-1.6-0.5c-0.3,0-0.5,0.1-0.8,0.2c-1,0.6-1.7,1.7-1.8,3c0,0.2,0.1,0.4,0.4,0.5C-213.5,306.5-213.3,306.4-213.3,306.2
		L-213.3,306.2z"/>
	<path fill="#231F20" d="M-182.3,310c0.2,0.6,0.3,1.3,0.1,2c-0.4,2.1-1.6,4-3.3,5c-3.5,2.2-6.7,3.7-9,3.9c-2,0.2,1.6-9.5,2-10.2
		c1.1-1.9,2.7-3.8,4.8-4.1C-185.6,306.4-183,307.9-182.3,310z"/>
	<path fill="#45AF4F" d="M-185.2,317.5c-0.4,0.9-1.4,1.5-2.4,2c-1.4,0.7-2.7,1.4-4.2,1.6c-0.2,0-0.4,0.2-0.3,0.5
		c0,0.2,0.2,0.4,0.5,0.3c1.6-0.3,3-1,4.4-1.7c1-0.5,2.1-1.1,2.7-2.3c0.1-0.2,0-0.4-0.2-0.5C-184.8,317.2-185.1,317.3-185.2,317.5
		L-185.2,317.5z"/>
	<path fill="#45AF4F" d="M-182.5,306.2c-0.2-1.2-0.8-2.4-1.8-3c-0.7-0.4-1.5-0.6-2.3-0.6c-0.4,0-0.9,0-1.3,0.1
		c-0.3,0-0.5,0.2-0.7,0.4c-0.3,0.3-0.6,0.6-0.8,0.9c-0.2,0.3-0.5,0.5-0.6,0.5h-0.2c-0.1,0-0.2,0-0.4-0.1c-0.1,0-0.3-0.1-0.5-0.1
		c-0.1,0-0.3,0-0.5,0.1c-0.1,0.1-0.3,0.2-0.3,0.4c-0.1,0.2,0,0.4,0.2,0.5c0.2,0.1,0.4,0,0.5-0.2V305l0,0l0,0l0,0l0,0l0,0l0,0l0,0
		c0,0,0.2,0,0.3,0.1c0.2,0,0.3,0.1,0.6,0.1c0.2,0,0.3,0,0.5-0.1c0.3-0.1,0.4-0.3,0.6-0.5c0.3-0.3,0.5-0.6,0.8-0.8
		c0.2-0.3,0.5-0.4,0.5-0.4c0.4,0,0.8-0.1,1.2-0.1c0.7,0,1.3,0.1,1.9,0.4c0.8,0.4,1.3,1.4,1.5,2.4c0,0.2,0.2,0.4,0.5,0.4
		C-182.6,306.7-182.5,306.4-182.5,306.2L-182.5,306.2z"/>
	<path fill="#FBB040" d="M-179.4,302.6c-4.3-0.1-8.6-0.1-12.8-0.2c-9.6-0.1-19.1-0.3-28.7,1c-2,0.3-3.9,0.8-5.8,1
		c-0.5,0.1-1.6,0.4-2,0c-0.3-0.4,0-1.5,0.1-2c0.7-2.7,3.2-5.1,6.1-5.5c10.3-1.6,20.7-0.9,31-1.3c3.3-0.1,6.7-0.2,9.7,1.3
		c0.2,0.1,0.3,0.2,0.5,0.3s0.2,0.3,0.3,0.5c0.9,1.7,2,2.9,2.2,4.9"/>
	<path fill="#8557C1" d="M-231.1,300.2c-0.9-1.2-2-2.2-3.2-3.1c-1-0.8-2.1-1.5-3.3-1.5c1.7,0.8,3.2,1.9,4.4,3.2
		c-1.3-0.4-2.6-1.1-3.5-2.1c-0.1,0.3,0.1,0.6,0.3,0.8c0.4,0.5,0.7,0.9,1.1,1.4c0.2,0.2,0.3,0.4,0.5,0.6c0.8,0.8,2,1.2,3.1,1.4
		c0.2,0,0.4,0.1,0.6,0.1c0.2,0,0.4-0.2,0.4-0.3C-230.8,300.4-230.9,300.1-231.1,300.2"/>
	<path fill="#8557C1" d="M-232.5,301.5c-0.5,0.2-0.8,0.6-1.2,1c-0.9,1-2.2,1.5-3.3,2.2c-0.6,0.3-1.1,0.7-1.4,1.3
		c0.6,0.1,1.2,0.1,1.7,0c0.3,0,0.7-0.1,1-0.3c0.2-0.1,0.4-0.3,0.5-0.5c0.3-0.3,0.7-0.5,1.1-0.7c0.6-0.4,1.3-0.7,1.9-1.1
		c0.6-0.4,1.1-1,1.4-1.7v-0.3l-0.2-0.2c-0.6-0.1-1.2,0-1.7,0.3"/>
	<path fill="#8557C1" d="M-199.2,301.4c0.8,0.3,1.6,0.5,2.4,0.4c-0.5-0.7-1.2-1.2-2.1-1.6c1.5-0.1,3.1,0.1,4.5,0.5
		c-0.6-0.7-1.4-1.3-2.2-1.5c0.9,0,1.9-0.1,2.8-0.1c-0.4-0.7-1.2-1.2-2.1-1.3c-0.8-0.1-1.7,0-2.5,0.1c0.2-0.8,0.7-1.4,1.4-1.8
		c-0.8,0.5-2.5,0.1-3.4,0.2c-1,0.2-1.7,0.7-2.6,1.2c-1.6-1.2-3.1-1.1-5-1.2c0.6,0.4,1.3,0.8,1.9,1.2c-1.7,0-3.3,0-5,0.1
		c1,0.3,2,0.6,3,0.7c-0.9,0.1-1.7,0.5-2.2,1.2c1.3-0.1,2.6,0,3.9,0.3c-0.7,0.6-1.5,1.1-2.4,1.4c1,0,2,0.1,3,0.1
		c-0.1,0.4-0.2,0.8-0.2,1.1c1.4-0.5,2.9-0.6,4.3-0.5c0-0.4-0.1-0.8-0.1-1.1c-0.4,0-0.7,0.2-1,0.5c0-0.5,0.2-1,0.4-1.5
		c-1.2,0.7-2.6,1.1-4,1.3c0.5-0.5,1-1,1.6-1.5c-1-0.1-2.1-0.2-3.1-0.1c0.9-0.6,2-0.8,3-0.6c0-0.4-0.1-0.8-0.3-1.1
		c0.9,0.1,1.8,1.1,2.7,0.8c0.2-0.1,0.4-0.2,0.6-0.3c0.7-0.5,1.5-0.9,2.2-1.4c-0.3,0.5-0.5,1-0.5,1.6c0.7,0,1.4,0,2.2,0
		c-0.5,0.1-0.9,0.2-1.3,0.5c0.4,0.1,0.9,0.2,1.3,0.2c-1.1,0.5-2.4,0.7-3.6,0.4c0.9,0.4,1.8,0.9,2.7,1.3"/>
	<path fill="#8557C1" d="M-192.1,297.5c0,0.2,0,0.4-0.2,0.5c1.2,0.2,2.3,0.3,3.5,0.3c-0.6,0.3-1.3,0.6-1.9,0.9c1,0.1,2,0.3,2.9,0.7
		c-1.9,0.4-3.9,0.6-5.8,0.7c1.3,0,2.6,0.2,3.9,0.5c-0.4,0.1-0.8,0.1-1.2,0.2c0.6-0.2,1.4,0.1,1.8,0.6c2.6,0.4,5.6-0.1,8.3,0.1
		c-2.2-0.3-4.2-0.5-6.2-0.7c2.2,0,4.4,0,6.6,0c-1.9-1-4.1-1.1-6.2-1.1c1.2-0.2,2.4-0.3,3.6-0.5c0.2,0,0.4-0.1,0.6-0.2
		c0.2-0.1,0.3-0.4,0.2-0.6c-1.6-0.1-3.3-0.2-4.9-0.4c0.8-0.4,1.5-1.1,1.9-1.9c-1.8,0.1-3.6,0.2-5.5,0.3c-0.3,0-0.6,0-0.7-0.2
		c-0.2-0.2-0.1-0.5,0.1-0.6c-1.2,0-1.9,0.1-2.8,1C-193.5,297.3-192.8,297.4-192.1,297.5z"/>
	<path fill="#8557C1" d="M-211.9,297.1c-1.5-0.1-2.9,0.1-4.3,0.4c1.5,0,3,0,4.6,0.2c-0.8,0.5-1.8,0.6-2.7,0.8
		c-0.9,0.2-1.7,0.6-2.4,1.2c1.6,0,3.2,0.1,4.8,0.1c-1,0.4-1.9,0.8-2.9,1.2c-0.4,0.2-0.8,0.3-1,0.7c1.6-0.1,3.1,0,4.7,0.1
		c-3.1,0.1-6.2,0.3-9.2,0.4c-0.8,0-1.6,0.1-2.3,0.5c0.8-0.5,1.8-0.8,2.8-1c1.2-0.3,2.3-0.6,3.5-0.9c-2.3-0.1-4.5-0.2-6.8-0.3
		c1.8-0.8,4.1-0.3,5.9-1.3c-1-0.3-2.1-0.5-3.1-0.4c2.2-1.3,4.8-1.9,7.4-1.8"/>
	<path fill="#8557C1" d="M-225,298.6c0.9-0.1,1.8-0.2,2.8-0.3c-0.7,0.5-1.4,1-2.2,1.4c-0.5,0.3-1,0.5-1.5,0.8
		c0.5,0.1,1.1,0.1,1.6,0.2c-0.5,0.2-0.8,0.6-1,1c0,0.1-0.1,0.3,0,0.3c0.1,0.1,0.2,0.1,0.3,0.1c0.3,0,0.7,0.1,1,0.1
		c-1.1,1.2-2.9,1.7-4.5,1.2c0.4-0.4,1.2-0.1,1.5-0.6c-0.4-0.3-0.6-0.9-0.4-1.3c-0.2,0.1-0.4-0.1-0.4-0.3s0.1-0.4,0.2-0.6
		c0.2-0.3,0.3-0.7,0.7-0.8c0.1-0.1,0.3-0.1,0.5-0.1c0.8-0.1,1.6-0.4,2.3-0.8c-0.3,0-0.6-0.2-0.8-0.3"/>
	<path fill="#2D7A33" d="M-199.1,331.9c0.7,0.1,1.5,0.2,2.2,0.3c0.2,0,0.4-0.1,0.5-0.3c0-0.2-0.1-0.4-0.3-0.5
		c-0.7-0.1-1.5-0.2-2.2-0.3c-0.2,0-0.4,0.1-0.5,0.3C-199.5,331.6-199.3,331.8-199.1,331.9L-199.1,331.9z"/>
	<ellipse fill="#2D7A33" cx="-224.9" cy="316.5" rx="0.8" ry="2.7"/>
	<path fill="#8E61D6" d="M-195.8,387.7c3.2-0.7,6.5-1.4,9.8-2c-2.3,0.8-4.5,1.6-6.8,2.4c2.1,0.1,4.2,0.1,6.3,0.2c-2,0.1-4,0.1-6,0.2
		c2.4,0.1,4.8,0.9,6.9,2.2c-2.4,0.1-4.7,0.1-7.1,0.2c2.3,1.1,4.5,2.5,6.4,4.2c-2.4-0.1-4.9-0.2-7.3-0.3c2.4,1.2,4.4,3.1,5.9,5.3
		c-1.9-0.7-3.9-1.1-5.9-1.4c0.6,1,1.3,1.9,2.2,2.6c-0.7,0.5-1.6,0.9-2.5,1c-0.8-2.1-2.1-4-3.7-5.6c-0.1,1-0.1,2-0.2,2.9
		c0,0.7-0.1,1.4-0.7,1.8c-0.6,0.5-1.6,0.2-2.2-0.4s-0.7-1.5-0.8-2.3c-1.6,1.3-3.2,2.5-5,3.6c-0.5-1.9-0.5-3.8-0.1-5.7
		c-2.1,1.7-4.8,2.5-7.5,2.3c2.4-0.7,4.8-1.4,7.2-2.1c-2.6-0.4-5.1-1-7.6-1.7c2.9,0.2,5.8,0.1,8.6-0.4c-4.2-1.4-8.2-3.4-11.9-5.9
		c2.3,0.1,4.5,0.3,6.8,0.4c-1.8-2.8-4-5.4-6.4-7.7c3.2,1.5,6.4,3,9.7,4.6c-1.8-1.4-3.4-3.2-4.6-5.1c2.2,2,4.8,3.5,7.7,4.4
		c-1.5-1.3-2.9-2.7-4.2-4.2c2.7,1.4,5.4,2.8,8.1,4.1c-0.9-0.5-1.7-1.2-2.3-2c1.7,1,3.4,1.9,5.1,2.9c-1.3,0.2-2.6-0.1-3.7-0.8
		c0.4,0.4,0.6,1,0.6,1.6c-1.6-0.8-3.2-1.6-4.7-2.5c0.5,1.1,0.9,2.3,1.4,3.4c-1.7-0.1-3.3-1-4.1-2.4c0.7,1,1.2,2.1,1.5,3.2
		c-1.7-0.3-3.3-1.2-4.5-2.4c1.7,1.9,3.6,3.7,5.5,5.3c-1.6-0.2-3.3-0.4-4.9-0.6c1.7,0.8,3.3,1.5,5,2.1c-0.6,1.6-1.3,3.2-2.1,4.8
		c1-0.4,2-0.7,3-1.1c-0.5,1.1-1,2.2-1.5,3.4c1.1-1.2,2.2-2.4,3.2-3.6c0.5,1.1,1.2,2,2.1,2.9c0-1-0.1-2.1-0.1-3.1
		c1.1,0.7,2,1.5,2.8,2.5c0-1.2,0-2.4,0-3.7c2.4,1.4,4.4,3.4,5.9,5.7c0-1.1-0.2-2.3-0.5-3.4c0.7,0.7,1.6,1.4,2.5,1.8
		c-1.5-1.4-3.1-2.7-4.8-3.8c1.9-0.7,4.1-0.8,6.1-0.4c-2.1-1.2-4.3-2.5-6.4-3.7c1.8-0.2,3.7-0.4,5.5-0.4c-2.4-1-4.9-1.8-7.4-2.4
		c1,0,2-0.1,2.9-0.4"/>
	<path fill="#8E61D6" d="M-196,404.3c0.8,2.2,2.2,4.3,3.9,5.9c0.1-1.2,0.1-2.4,0.2-3.6c1.9,0.9,3.7,2,5.5,3.1
		c-0.3-1.8-0.9-3.6-1.8-5.2c1.5,0.8,3.3,1.3,5,1.3c-1-2-2.4-3.8-4.2-5.2c1.3,0.4,2.7,0.8,4,1.3c0.7-2.1-0.1-4.7-1.9-6
		c0.8-0.7,1.7-1.4,2.5-2.1c-0.7-0.7-1.6-1.2-2.5-1.4c0.6-1.3,2.9-1.4,3.3-2.8c0.3-0.9-0.4-1.8-1.2-2.2c-0.8-0.4-1.8-0.3-2.7-0.3
		c1.1,0,2.2,0.1,3.2-0.4s1.8-1.6,1.4-2.6c-2-0.5-4-1-6.1-1.5c0.9,0,1.8,0,2.6-0.3c0.8-0.3,1.6-1,1.7-1.9c-2,1.4-4.2,2.5-6.4,3.5
		c-2.1-0.2-4.3,0.4-5.9,1.7c0.3-0.7,0.5-1.5,0.8-2.2c-1,0.8-1.9,1.8-2.6,2.9c4-0.7,7.9-1.5,11.9-2.2c0.3,0.3,0.1,0.9-0.3,1.2
		c-0.4,0.3-0.8,0.5-1,1c-0.3,0.8,0.6,1.5,1.3,2c0.7,0.5,1.3,1.7,0.5,2.1c-0.5,0.3-1.3,0.1-1.4,0.7c0,0.3,0.2,0.5,0.3,0.7
		c0.7,0.8,1.5,1.5,2.2,2.3c-0.8,0.2-1.6,0.4-2,1.1c-0.4,0.9,0.3,1.8,1,2.5s1.6,1.2,1.9,2.1c-1.6,0.1-3.2,0.1-4.8,0.2
		c-0.3,1.4,0.1,2.8,0.9,3.9c-1.1,0-2.2,0-3.3,0c-0.5,1.2-0.3,2.5,0.3,3.6c-1.3-1.1-2.7-1.9-4.3-2.5c-0.1,0.7,0.1,1.5,0.5,2.2
		c0.3-2.2-1-4.6-3.1-5.5c-0.5,2.3-0.7,4.7-0.4,7c-1.9-1.2-3.1-3.4-3-5.7c-0.5,2.1-1.6,4.1-3.1,5.6c-1.1-1.6-1.3-3.7-0.5-5.5
		c-2,1.5-4.2,2.7-6.5,3.8c-0.4-1.8-0.1-3.7,0.9-5.3c-2.4,0.8-4.9,1.5-7.4,1.9c1.2-1,2.3-2.1,3.2-3.4c-1.6,0-3.3,0-4.9,0
		c-0.5,0-1.2-0.2-1.1-0.7c0-0.3,0.4-0.5,0.7-0.6c1.3-0.5,2.5-1,3.8-1.6c-1.9-0.7-3.7-2-5-3.6c1.7-0.1,3.4-0.3,5.1-0.4
		c-2.4-0.8-4.5-2.3-6.1-4.3c0.8,0.1,1.7,0.2,2.5,0.3c-1-1-1.8-2.2-2.3-3.4c1.8,0.1,3.7,0.3,5.5,0.4c-1.9-1.7-3.6-3.7-5-5.9
		c1.7-0.1,3.4,0.2,4.9,1c0-0.6,0.1-1.3,0.1-1.9c1.3,0.7,2.6,1.4,3.9,2.1c-1.9-1.7-3.5-3.8-4.7-6.1c0.5,0.4,0.9,0.8,1.4,1.3
		c-0.6-2.3-1.8-4.4-3.5-6c0.1,0.9,0.1,1.7,0.2,2.6c-0.2-0.3-0.5-0.6-0.7-1c0.1,1.4,0.8,2.7,1.8,3.6c-0.4,0.1-0.8,0.1-1.2,0.2
		c0,0.6,0.1,1.3,0.1,1.9c-1.1-0.2-2.2-0.4-3.3-0.6c0.4,0.8,0.8,1.7,1.1,2.5c-1,0.1-1.9,0.2-2.9,0.1c0.9,1.8,2.2,3.4,3.7,4.6
		c-1.2,0.7-2.4,1.4-3.5,2c0.9,0.8,1.8,1.6,2.7,2.4c-0.8-0.4-1.7,0.4-1.8,1.2c-0.1,0.8,0.5,1.6,1.2,2.1c-0.6,0.2-1.2,0.5-1.7,0.9
		c0.9,0.9,1.9,1.7,2.9,2.4c-0.8,0.5-1.5,1-2.3,1.6c0.4,0.3,0.7,0.5,1.1,0.8c-0.6,0.9-0.9,1.9-1.1,2.9c1.3,0.1,2.7,0.2,4,0.2
		c-0.7,1.2-1.1,2.5-1.4,3.8c1.1-0.3,2.2-0.7,3.2-1.2c-0.1,1.5,0.2,3,1,4.2c0.7-0.9,1.5-1.8,2.4-2.5c-0.2,1.5-0.1,3,0.3,4.5
		c1.7-0.6,3.1-1.8,4.1-3.2c0,2,0.7,4,2,5.5c1-0.7,2-1.7,2.7-2.7c0.3,1.1,0.8,2.1,1.6,2.9c0.2-0.6,0.5-1.3,0.7-1.9
		c0.8,1.6,2.5,2.7,4.2,2.8c0-0.9-0.1-1.8-0.1-2.7c0.9,1.6,2.5,2.8,4.3,3.2c-0.2-0.6-0.4-1.1-0.5-1.7c0.9,0.2,1.8,0.1,2.6-0.3
		c-0.1-0.5-0.2-1-0.3-1.5c0.8,1.4,2.9,1.8,4.2,0.7c-0.1-0.4-0.2-0.8-0.3-1.2c1.2,0,2.1-1.2,1.9-2.3c-1.2,1.3-3.1,2.1-4.9,2
		c-1-0.1-2.2-0.2-2.6,0.6c-0.2,0.3-0.2,0.7-0.5,1c-0.5,0.4-1.1-0.1-1.5-0.6c-0.7-0.9-1.4-1.8-2.1-2.7c-0.7-1-1.4-2.5-0.5-3.2
		c0.4,0.2,0.7,0.5,0.9,0.9"/>
	<path fill="#8557C1" d="M-199.7,388.1c0.4,0,0.7,0,1.1,0.1c0.1,0,0.3,0.1,0.3,0.2c0.1,0.2-0.2,0.5-0.4,0.6
		c-0.2,0.1-0.6,0.2-0.7,0.4c0.8,0.3,1.6,0.5,2.4,0.8c-0.5,0.3-1,0.6-1.5,0.9c0.7,0.1,1.3,0.5,1.7,1.1c-0.5,0-1.1,0.1-1.6,0.1
		c0,0.4,0.1,0.8-0.3,1c-0.4,0.2-0.8-0.1-1-0.5s-0.5-0.8-0.9-0.8c0.1,0.6-0.4,1.2-1,1.3c-0.6,0.1-1.3-0.3-1.4-0.9
		c-0.1,0.3-0.2,0.5-0.2,0.8c-0.5,0-1,0-1.5-0.3c-0.4-0.2-0.7-0.8-0.5-1.2c0.2-0.4,0.7-0.6,1-0.8c0.5-0.3,0.8-0.7,1-1.2
		c-0.1,0.2-0.3,0.3-0.5,0.2c0-0.4,0-0.7,0-1.1c0.8-0.2,1.6-0.2,2.5-0.1c-0.2,0-0.4,0-0.5,0.1c0.3-0.3,0.7-0.4,1.1-0.4
		c0,0.5,0,1,0,1.4c-0.5,0-1.2,0-1.3,0.5c0,0.2,0,0.4,0,0.7c0,0.3-0.3,0.5-0.6,0.5c0.9,0.3,1.9,0.6,2.6,0c0.8-0.7,0.6-1.9,0.3-2.9"/>
	<path fill="#8557C1" d="M-222.1,350.3c0.3-0.5,0.7-0.9,1.1-1.1c0.2,0.1,0.3,0.4,0.3,0.6c0.1-0.1,0.3-0.3,0.4-0.4
		c0,0.1,0.2,0.2,0.3,0.2c0.1-0.1,0.2-0.2,0.4-0.2c0.4-0.2,0.8,0.4,0.6,0.8s-0.6,0.5-1.1,0.6c0.2,0.1,0.4,0.2,0.6,0.3
		c-0.2,0.2-0.4,0.4-0.7,0.4c0.1,0.1,0.2,0.2,0.3,0.3c-0.1,0.2-0.6,0.3-0.6,0.5s0.2,0.4,0.4,0.4c0.2,0.1,0.5,0.1,0.6,0.2
		c0.2,0.2,0.2,0.6,0.1,0.9c-0.1,0.3-0.3,0.6-0.3,0.9c0,0.4,0.4,0.7,0.4,1c0,0.3-0.1,0.5-0.2,0.7c-0.1,0.6,0.3,1.3,1,1.5
		c0.1,0.4-0.2,0.8-0.5,1c0.2,0.9,0.5,1.7,0.7,2.6c-0.2,0-0.3,0-0.5,0c-0.3-1.2-0.7-2.4-1.3-3.5c0.2,0.1,0.3,0.2,0.5,0.3
		c-0.6-0.5-1.1-1.2-1.5-2c-0.1-0.1-0.1-0.3-0.1-0.5s0.2-0.3,0.3-0.3c-0.1-0.5-0.1-1,0-1.6c0.3,0.1,0.7,0.3,1,0.4
		c-0.4-0.7-0.8-1.4-1.2-2c-0.2-0.4-0.5-0.9-0.3-1.3c0.2-0.4,0.6-0.8,0.3-1.1c-0.2,0.4-0.8,0.6-1.2,0.4"/>
	<path fill="#8557C1" d="M-219,369c0-1,0-2,0-3c0.5,0.5,0.9,1.1,1.1,1.7c0.1-1,0-2-0.3-2.9c0.1,0.1,0.2,0.2,0.2,0.3
		c-0.4-0.5-0.9-1.1-1.3-1.6c-0.1-0.2-0.3-0.3-0.3-0.6c-0.1-0.2,0-0.5,0-0.7c0-0.6-0.1-1.1-0.4-1.6c0.6,1.2,1.6,2.2,2.8,2.8
		c0.1,1.6,0.2,3.3,0.3,4.9c0.1,1.2,0.2,2.5,0.8,3.5c-0.6-0.6-1.2-1.2-1.7-1.9c-0.1-0.2-0.2-0.3-0.4-0.4c-0.3-0.1-0.6,0.3-0.8,0.6
		c-0.1-0.4-0.3-0.7-0.4-1.1"/>
	<path fill="#8557C1" d="M-183.4,357.9c0.2-0.6-0.2-1.2-0.5-1.7c-0.2,0.1-0.2,0.3-0.2,0.5c0.1,1.5,0.5,2.9,1.1,4.3
		c0.1-0.5,0.2-1.1,0.2-1.7c1,1,1.5,2.5,1.1,3.9c0.9-1,0.9-2.7,0.1-3.8c-0.4-0.5-0.8-0.9-1.1-1.4"/>
	<path fill="#8557C1" d="M-183.1,364c0-0.3,0-0.5,0.2-0.7c0,0.6,0.1,1.2,0.1,1.8c0,0.2,0,0.4,0.2,0.6c0.1,0.1,0.4,0.1,0.5-0.1
		c0,0.7-0.1,1.3-0.1,2c-0.3,3.2,1.1,6.5,0.1,9.6c-0.5-0.6-0.6-1.4-0.7-2.2c-0.3-3.1-0.6-6.2-0.8-9.2c-0.1-0.7-0.1-1.4,0.1-2.1"/>
	<path fill="#8557C1" d="M-224.2,382.9c-1-0.5-2.1-0.7-3.2-0.6c0.4,0.2,0.7,0.4,1,0.7c0.1,0.1,0.1,0.2,0.2,0.3
		c0,0.2-0.2,0.5-0.4,0.5c-0.2,0.1-0.5,0-0.7,0c-0.9-0.1-1.8,0-2.7,0.3c0.1,0.2,0.4,0.4,0.6,0.4c0.2,0.4,0.2,1-0.2,1.3
		c-0.1,0.1-0.2,0.2-0.3,0.3c-0.1,0.2,0.1,0.4,0.2,0.5c0.7,0.6,1.9,0.7,2.2,1.6c-0.6,0-1.2,0.1-1.8,0.4c1.5,0.5,3.1,1,4.6,1.3
		c-1.4,0.5-2.8,1.1-4.2,1.7c1,0.3,1.8,0.8,2.6,1.4c0.2,0.1,0.3,0.3,0.3,0.5c0,0.4-0.5,0.5-0.9,0.6c-1,0.1-1.9,0.2-2.9,0.2
		c0.3,0.4,0.8,0.7,1.3,0.7c-0.9,0.7-1.9,1.2-3,1.7c1.5,0.7,3,1.3,4.5,1.7c-1,0.4-1.9,1-2.6,1.7c-0.5,0.5-1,1.3-0.7,1.9
		c0.3,0.8,1.2,1,2,1.1c1.1,0.1,2.3,0.1,3.4,0.1c-1,1.1-1.9,2.4-2.6,3.7c0.2,0.4,0.7,0.4,1.2,0.4c1,0,2-0.1,3-0.1
		c-0.5,0.3-1.1,0.5-1.6,0.8c-0.2,0.1-0.3,0.2-0.4,0.4c0,0.3,0.3,0.4,0.6,0.5c1.7,0.2,3.4,0.3,5,0.3c-0.6-0.1-1.2,0-1.8,0.3
		c1.7,0.3,3.5,0.2,5.2-0.2c0.1,0.5,0.6,0.8,1.1,0.7c0.3,0,0.6-0.2,1-0.2c0.4,0,0.7,0.3,0.6,0.6c0.6-0.3,0.9-0.9,0.8-1.5
		c-0.5-0.5-1.3-0.6-2.1-0.6c-1.5,0-2.9,0-4.4,0c0.4-0.7,0.6-1.4,0.6-2.2c-1.5,0.7-3,1.4-4.5,2.2c0.7-1.2,1.2-2.4,1.6-3.7
		c-1.1,0.2-2.2,0.5-3.2,0.9c0.9-1.3,2.3-2.2,3.8-2.7c-2.2-1.1-4.9-0.1-7.1-1c1.2-1.1,2.9-1.4,4.4-1c-0.5-0.7-1.2-1.2-1.9-1.6
		c0.8,0,1.7,0,2.5,0c-1.6-0.8-3.2-1.6-4.8-2.5c0.5-0.4,1.1-0.7,1.7-0.7c-0.3-0.5-0.9-0.8-1.4-1c1.8,0,3.7,0.1,5.5,0.6
		c-0.1-0.8-0.8-1.3-1.5-1.7c-0.7-0.4-1.5-0.7-1.8-1.5c0.7-0.2,1.4-0.2,2.1-0.2c-0.1-0.5-0.5-0.9-0.9-1.1c0.5,0.1,1-0.4,1-1
		c0-0.5-0.4-1-0.8-1.3c-0.3-0.2-0.6-0.4-0.9-0.4c-0.5-0.1-1.2,0.1-1.5-0.3c-0.1-0.2-0.2-0.4-0.3-0.5c-0.3-0.4-0.8-0.6-1.3-0.8
		c-0.5-0.2-1-0.6-0.9-1.1c1.4,0.3,2.8,0.7,4.1,1.3c-0.2-0.7-0.6-1.3-1.1-1.8c1-0.1,2-0.2,3-0.3c0.1,0,0.2,0,0.3-0.1
		c0.1-0.1,0-0.2-0.1-0.3c-0.5-1-1-2-1.6-3c-0.1,0-0.3,0.1-0.4,0.1c0,0.4,0,0.8,0,1.3"/>
	<path fill="#8557C1" d="M-187,413c0.7-0.1,1.4-0.3,2-0.4c0.8-0.2,1.6-0.3,2.4-0.2c0.5,0.1,0.9,0.3,1.4,0.3c0.9,0.1,1.9-0.1,2.8,0
		c0.2-0.2,0-0.6-0.2-0.8c-0.2-0.2-0.5-0.4-0.6-0.6c-0.1-0.2-0.1-0.7,0.2-0.7c0.2,0,0.5,0.1,0.6,0c0.1-0.1,0.1-0.3,0-0.5
		c-0.2-0.6-0.5-1.1-0.6-1.7c-1-3.3,0.5-7.1-0.9-10.3c-0.5-1.2-1.5-2.3-1.6-3.6c0.4,0.1,0.8-0.3,0.8-0.6c0.1-0.4-0.1-0.8-0.2-1.1
		c-0.1-0.4-0.3-0.8-0.6-1c-0.3-0.3-0.8-0.3-1.1-0.1c0.3,0.2,0.6,0.5,0.9,0.7c0.1,0.1,0.2,0.2,0.2,0.3c0,0.2-0.1,0.3-0.2,0.4
		c-0.4,0.4-0.4,0.9-0.5,1.5c-0.1,0.5-0.5,1-1.1,1c0.5,1,1.2,1.9,2,2.7c-0.3-0.3-0.8,0-0.8,0.4c0,0.4,0.3,0.7,0.6,1
		c0.3,0.2,0.7,0.5,0.8,0.8c-0.6,0.1-1.1,0.1-1.7,0.2c0.3,0.6,0.6,1.2,0.9,1.8c0.1,0.2,0.2,0.5,0,0.6c-0.1,0.1-0.3,0.1-0.4,0.1
		c-0.5,0-1,0-1.5,0c0.9,1,1.8,2,2.8,2.8c-0.8-0.1-1.5-0.3-2.2-0.5c0.6,0.5,1.1,1.2,1.6,1.9c0.1,0.2,0.2,0.5,0.1,0.7
		c-0.1,0.1-0.3,0.1-0.5,0.1c-0.5,0-0.9,0-1.4-0.1c0.9,0.6,1.7,1.4,2.2,2.3c-0.6,0.4-1.4,0.4-2,0.1c-0.6-0.3-1.1-1-1.1-1.6
		c0.3,0.3,0.2,0.8-0.1,1.1c-0.3,0.3-0.7,0.4-1.1,0.4c0.1,0.5,0.3,0.9,0.7,1.2c-1.5,0.3-2.9,0.9-4.2,1.7c0.3,0,0.5,0,0.8,0"/>
	<path fill="#8557C1" d="M-184.5,379.3c0.1-0.4,0.2-0.8,0.5-1.1s0.6-0.5,1-0.4c0,0.5,0,0.9,0,1.4c0.3,0,0.7-0.1,0.9-0.3c0,1,0,2,0,3
		c0,0.1,0,0.3,0.1,0.3l0.2,0.1c0.1,0.1,0,0.2-0.1,0.3c-0.3,0.3-0.8,0.5-1,0.2c-0.1-0.1-0.1-0.4,0-0.7c0.2-0.9,0.4-2-0.3-2.8
		c-1.1,1.5-3.2,1.9-4.4,3.3c-0.6-0.8-1.8-1-2.7-0.5c0.6-0.4,1.4-0.6,2.1-0.6c0.3,0,0.6,0,0.8-0.1c0.2-0.1,0.3-0.3,0.4-0.4
		c0.5-0.6,1.1-1.1,1.8-1.3c0.3-0.1,0.6-0.3,0.6-0.6"/>
	<path fill="#8557C1" d="M-232.4,384.3c-0.8,0.5-1.6,1-2.3,1.5c0.9,0.3,1.8,0.7,2.7,1c0.3,0.1,0.5,0.2,0.7,0.4
		c0.4,0.6-0.4,1.3-1.1,1.7c-0.7,0.4-1.4,1.2-0.8,1.7c0.8-0.3,1.6,0.6,1.5,1.4c-0.1,0.8-0.7,1.5-1.3,2.1c-0.6,0.6-1.1,1.4-1.1,2.2
		c0.3,0.2,0.6,0.4,0.8,0.5c0.3,1.4,0.7,2.9,0.5,4.4c-0.1,1.6-0.8,3.1-0.5,4.7c0.3,1.5,2.5,2.7,3.5,1.5c0.9,1-0.3,3,0.8,3.8
		c0.3,0.2,0.8,0.2,1.2,0.2c1.4,0,2.8,0,4.2,0c0,1.4,1.9,1.7,3.2,1.6c3.5-0.3,7.2-0.8,10.3,0.9c-2.4,0.2-4.9,0.4-7.3,0.6
		c-2.8,0.2-5.7,0.5-8.5,0.1s-5.6-1.5-7.6-3.5c0.8-0.2,1.6-0.7,2.1-1.3c-3.7-0.6-3.5-5.3-3.2-8.2c0.3-2.6-0.7-5.2-0.7-7.9
		c0-2.9,1-6.3-1-8.5c1.2-0.8,2.6-1.3,4.1-1.5c-0.2,0.3-0.4,0.6-0.6,1"/>
	<path fill="#63D371" d="M-231.2,366.3c0,0,0,0.2-0.1,0.6c-0.1,0.4-0.2,1-0.3,1.8c-0.3,1.6-0.6,3.9-1,6.7c-0.3,2.8-0.7,6-0.9,9.5
		c-0.1,1.7-0.2,3.5-0.2,5.4c0,0.9,0,1.8,0,2.7c0,0.9,0.1,1.8,0.1,2.8c0.1,0.9,0.1,1.9,0.2,2.8c0.1,0.9,0.2,1.8,0.3,2.7
		c0.2,1.8,0.5,3.6,0.8,5.3c0.6,3.5,1.3,6.7,2,9.4c0.7,2.8,1.3,5,1.7,6.6c0.5,1.6,0.7,2.5,0.7,2.5v0.1c0.4,1.5-0.4,3.1-1.9,3.5
		c-1.4,0.4-3-0.4-3.5-1.8c0,0-0.3-0.9-0.9-2.6c-0.6-1.6-1.3-3.9-2.2-6.7c-0.8-2.8-1.7-6.1-2.6-9.7c-0.4-1.8-0.8-3.7-1.2-5.6
		c-0.2-1-0.3-2-0.5-3c-0.1-1-0.3-2-0.4-2.9c-0.1-1-0.2-2-0.3-3c-0.1-1-0.1-2-0.2-3c-0.1-2-0.1-3.9-0.1-5.7c0-3.7,0.2-7.2,0.4-10.1
		c0.2-2.9,0.5-5.4,0.7-7.1c0.1-0.9,0.2-1.5,0.3-2c0.1-0.5,0.1-0.7,0.1-0.7c0.3-2.4,2.6-4.1,5-3.8c2.4,0.3,4.1,2.6,3.8,5
		L-231.2,366.3L-231.2,366.3z"/>
	
		<ellipse transform="matrix(-8.351835e-02 -0.9965 0.9965 -8.351835e-02 -668.6703 231.0289)" fill="#63D371" cx="-228.1" cy="423" rx="1.3" ry="1.1"/>
	<rect x="-228.1" y="475.1" fill="#1B1B1B" width="11.2" height="15.7"/>
	<path fill="#1B1B1B" d="M-204.5,492.5c0-6.4-7.5-11-13.9-11c-6.4,0-9.2,4.7-9.2,11H-204.5z"/>
	<path fill="#F1F2F2" d="M-227.3,492.9h22.2c0.7,0,1.3-0.6,1.3-1.3v-0.7c0-0.7-0.6-1.3-1.3-1.3h-22.2c-0.7,0-1.3,0.6-1.3,1.3v0.7
		C-228.6,492.3-228,492.9-227.3,492.9z"/>
	<path fill="#FFFFFF" d="M-225.8,486.7l4.5-1.3c0.1,0,0.2,0,0.2,0h0.2c0.5,0.1,1.1,0.4,1.6,0.7c0.9,0.6,2,1.2,3.3,1.2
		c0.2,0,0.3,0,0.5,0c0.4-0.1,0.6-0.4,0.6-0.8c-0.1-0.4-0.4-0.6-0.8-0.6c-0.1,0-0.2,0-0.3,0c-0.8,0-1.7-0.5-2.6-1
		c-0.6-0.3-1.3-0.7-2-0.9c-0.2,0-0.3-0.1-0.5-0.1c-0.2,0-0.4,0-0.6,0.1l-4.5,1.3c-0.4,0.1-0.6,0.5-0.5,0.8
		C-226.5,486.6-226.1,486.8-225.8,486.7L-225.8,486.7z"/>
	<path fill="#FFFFFF" d="M-227.3,479.6h7.3c0.1,0,0.2-0.1,0.2-0.2c0-0.1-0.1-0.2-0.2-0.2h-7.3c-0.1,0-0.2,0.1-0.2,0.2
		C-227.5,479.6-227.4,479.6-227.3,479.6"/>
	<path fill="#FFFFFF" d="M-227.3,478.1h7.3c0.1,0,0.2-0.1,0.2-0.2c0-0.1-0.1-0.2-0.2-0.2h-7.3c-0.1,0-0.2,0.1-0.2,0.2
		C-227.5,478-227.4,478.1-227.3,478.1"/>
	<path fill="#FFFFFF" d="M-227.3,481.2h7.3c0.1,0,0.2-0.1,0.2-0.2c0-0.1-0.1-0.2-0.2-0.2h-7.3c-0.1,0-0.2,0.1-0.2,0.2
		C-227.5,481.1-227.4,481.2-227.3,481.2"/>
	<path fill="#86BDE2" d="M-192.8,431.3c0,0.4,0,2,0,2.4c0.2,0,0.4-0.2,0.5-0.5c0.1,0.3,0.2,0.5,0.4,0.7c0.1-0.2,0.3-0.5,0.4-0.7
		c0.2,0.3,0.7,0,0.9-0.3c0.1,0.5,1,0.6,1.2,0.2c0.2,0.5,0.9,0.6,1.2,0.1c-0.1,0.3,0.3,0.5,0.6,0.5s0.5-0.3,0.7-0.5
		c0.2,0.3,0.4,0.6,0.7,0.7c0.2,0.1,0.5,0,0.6-0.2c0.1-0.2,0.2-0.4,0.4-0.6h0.1l0.1,0.1c0.1,0.2,0.1,0.3,0.2,0.5
		c0.2-0.2,0.3-0.4,0.5-0.5s0.4-0.2,0.7-0.1c0.1,0.2,0.3,0.5,0.4,0.7c0.2-0.3,0.5-0.5,0.8-0.6c0.1,0.1,0.1,0.3,0.2,0.4
		c0.1-0.1,0.2-0.2,0.3-0.3l0.2-0.1l0.1,0.1c0.2,0.4,0.4,0.9,0.6,1.3c0-0.4,0.1-0.8,0.1-1.2c0.3,0.2,0.5,0.5,0.6,0.9
		c0-0.6,0.1-2.3,0.1-2.9C-184.5,431.4-188.7,431.4-192.8,431.3"/>
	<path fill="#86BDE2" d="M-216.2,431.3c0,0.4,0,2,0,2.4c-0.2,0-0.4-0.2-0.5-0.5c-0.1,0.3-0.2,0.5-0.4,0.7c-0.1-0.2-0.3-0.5-0.4-0.7
		c-0.2,0.3-0.7,0-0.9-0.3c-0.1,0.5-1,0.6-1.2,0.2c-0.2,0.5-0.9,0.6-1.2,0.1c0.1,0.3-0.3,0.5-0.6,0.5s-0.5-0.3-0.7-0.5
		c-0.2,0.3-0.4,0.6-0.7,0.7c-0.2,0.1-0.5,0-0.6-0.2s-0.2-0.4-0.4-0.6h-0.1l-0.1,0.1c-0.1,0.2-0.1,0.3-0.2,0.5
		c-0.2-0.2-0.3-0.4-0.5-0.5s-0.4-0.2-0.7-0.1c-0.1,0.2-0.3,0.5-0.4,0.7c-0.2-0.3-0.5-0.5-0.8-0.6c-0.1,0.1-0.1,0.3-0.2,0.4
		c-0.1-0.1-0.2-0.2-0.3-0.3l-0.2-0.1l-0.1,0.1c-0.2,0.4-0.4,0.9-0.6,1.3c0-0.4-0.1-0.8-0.1-1.2c-0.3,0.2-0.5,0.5-0.6,0.9
		c0-0.6-0.1-2.3-0.1-2.9C-224.6,431.4-220.4,431.4-216.2,431.3"/>
	<path fill="#2D7A33" d="M-234.3,371.2l-0.3-0.1c-0.2,1-1.1,1.7-2.1,1.7c-0.2,0-0.3,0-0.5-0.1c-1-0.2-1.7-1.1-1.7-2.1
		c0-0.2,0-0.3,0.1-0.5c0.2-1,1.1-1.7,2.1-1.7c0.2,0,0.3,0,0.5,0.1c1,0.2,1.7,1.1,1.7,2.1c0,0.2,0,0.3-0.1,0.5L-234.3,371.2l0.3,0.1
		c0.1-0.2,0.1-0.4,0.1-0.7c0-1.3-0.9-2.4-2.2-2.7c-0.2-0.1-0.4-0.1-0.7-0.1c-1.3,0-2.4,0.9-2.7,2.2c-0.1,0.2-0.1,0.4-0.1,0.7
		c0,1.3,0.9,2.4,2.2,2.7c0.2,0.1,0.4,0.1,0.7,0.1c1.3,0,2.4-0.9,2.7-2.2L-234.3,371.2z"/>
	<path fill="#2D7A33" d="M-236.5,368.1l-1.2,4.8c0,0.2,0.1,0.3,0.2,0.4c0.2,0,0.3-0.1,0.4-0.2l1.2-4.8c0-0.2-0.1-0.3-0.2-0.4
		C-236.2,367.8-236.4,367.9-236.5,368.1"/>
	<polyline fill="#2D7A33" points="-238.8,372 -236.5,370.6 -236.8,370 -239.2,371.4 	"/>
	<polyline fill="#2D7A33" points="-235,372.4 -236.4,370.1 -236.9,370.5 -235.5,372.8 	"/>
</g>
</svg>
