<?xml version="1.0" encoding="utf-8"?>
<!-- Generator: Adobe Illustrator 19.1.0, SVG Export Plug-In . SVG Version: 6.00 Build 0)  -->
<svg version="1.2" baseProfile="tiny" id="Layer_1" xmlns="http://www.w3.org/2000/svg" xmlns:xlink="http://www.w3.org/1999/xlink"
	 x="0px" y="0px" viewBox="0 0 48 48" xml:space="preserve">
<path fill="#010101" d="M24,4C13,4,4,13,4,24s9,20,20,20s20-9,20-20S35,4,24,4z M24,10c3.3,0,6,2.7,6,6s-2.7,6-6,6c-3.3,0-6-2.7-6-6
	S20.7,10,24,10z M24,38.4c-5,0-9.4-2.6-12-6.4c0.1-4,8-6.2,12-6.2S35.9,28,36,32C33.4,35.8,29,38.4,24,38.4z"/>
<path fill="none" d="M0,0h48v48H0V0z"/>
</svg>
