<?xml version="1.0" encoding="utf-8"?>
<!-- Generator: Adobe Illustrator 18.0.0, SVG Export Plug-In . SVG Version: 6.00 Build 0)  -->
<svg version="1.2" baseProfile="tiny" id="Layer_1" xmlns="http://www.w3.org/2000/svg" xmlns:xlink="http://www.w3.org/1999/xlink"
	 x="0px" y="0px" viewBox="0 0 97.1 95.7" xml:space="preserve">
<g>
	<circle fill="#6F36CB" cx="41.4" cy="42.1" r="38.9"/>
	<rect x="13.9" y="67" fill="#5A490C" width="43.2" height="4.6"/>
	<g>
		<path fill="#20985B" d="M78.6,41c0,0,17.4-10.5-5.5-23.6"/>
		<path fill="#62BF91" d="M6,73.9c0,0,5,12.1,18.2,18.4c3,1.5,6.5,2.6,10.5,3.2c11.2,1.8,13.5-8.5,11-13.2c-1.6-3.2-10.9-5.9-12-0.2
			c-0.5,2.4,4.8,4.3,5.3,4.1c0.9-0.4,0-0.9,0-0.9s-6.3-1.4-2.5-4c3.2-2.2,9.2,3,6.9,7.4c-2.3,4.3-10.8,6.7-16.5-3.8
			s-3.5-15.4,4.4-20.6c9.4-6.1,12.9-6.3,12.9-6.3L44,67.6h3l0.6-17.5c38,3.9,35.2-7.5,35.2-7.5s-1.9,0.3-4.2,0
			c0.8-31-15.8-32.4-15.8-32.4S49.8,5.8,26.5,0c-11.1,29.1,1.1,37.4,1.1,37.4l-11.8-6.2c-0.6,4.5,4.1,7,4.1,7
			c-5.6,0.6-9.1-3.6-9.1-3.6c0.1,4.9,2.9,6.8,2.9,6.8c-1.8,0.8-10.2,0.5-10.2,0.5l4.1,4.2C4.6,49.9,0,47.9,0,47.9s5,4.6,5.3,4.6
			S0.6,64.4,6,73.9z"/>
		<polygon fill="#008F62" points="38.2,68 41.4,68 41,56.7 38.2,57.2 		"/>
		<polygon fill="#008F62" points="32.1,68 35.3,68 34.9,56.7 32.1,57.2 		"/>
		<ellipse fill="#20985B" cx="53.4" cy="30.1" rx="18.4" ry="15.2"/>
		<g>
			<g>
				<path d="M45.2,30.5c0,3.9,5.3,7.1,11.9,7.1S69,34.4,69,30.5"/>
				<path d="M73.3,30.5c0,3.9,5.3,7.1,11.9,7.1s11.9-3.2,11.9-7.1"/>
				<rect x="34.6" y="27.9" width="62.5" height="2.6"/>
				<g>
					<path d="M32.6,32.5h-2.8c0-2.7,2.1-4.6,4.7-4.6v2.6C33.5,30.5,32.6,31.4,32.6,32.5z"/>
				</g>
			</g>
			<path fill="#EBFEFF" d="M77.6,31.2c0,0,3.2,0.8,3.6-0.2S76.2,30.3,77.6,31.2z"/>
			<path fill="#EBFEFF" d="M48.9,31.2c0,0,3.2,0.8,3.6-0.2C52.9,30,47.5,30.3,48.9,31.2z"/>
		</g>
		<path fill="#42CBCC" d="M17.7,63.6c-1.3-2.3,2-6.5,4.3-6.3c3.3,0.3,1.4-5.5,2.7-8.2c1.7-3.6,7.1-1,10.7-3.9
			c-2.5-1.8-5.1-4.3-7.9-7.7c0.4,0.5,1.2,2.4,0.7,3.9c-0.7,1.8-4.5,1.4-7.2,1.5c-2.2,0.1-4.5,4.6-1.5,8.3c3,3.7-4.1,7.9-4.1,7.9
			s-4.6,3-2.8,5.4c1.8,2.4,5.4,7,3.5,8.5c-1.8,1.5-3.5,5-1.7,7.4c1.6,2,5.5,6.9,5.4,9.4c0.7,0.5,1.5,1,2.3,1.4
			c-0.8-4.6-6-13.2-6-13.2C14.9,73,22.6,72.3,17.7,63.6z"/>
		<path fill="#A0E94C" d="M35.4,45.2c-3.5,2.9-9,0.3-10.7,3.9c-1.2,2.7,0.6,8.6-2.7,8.2c-2.3-0.2-5.6,4-4.3,6.3
			c4.9,8.6-2.8,9.3-1.6,14.4c0,0,5.2,8.6,6,13.2c0.6,0.4,1.3,0.7,2,1c1,0.5,2,0.9,3.1,1.3c-1.7-1.9-5.3-6.3-3.4-7.3
			c2.4-1.3,0.8-5.5-0.5-6.5c-1.3-0.9-3.1-4.9-1.7-8c1.4-3.1,4.9-4.7,2.5-7.9c-2.4-3.1,6.4-4.1,5.8-8.1c-0.6-4.1,5.2-4.2,6.9-3.5
			c1.3,0.6,5.2-0.7,6.8-2.8C41.4,48.8,38.6,47.5,35.4,45.2z"/>
		<path fill="#20985B" d="M47,67.6l0.5-17.3c-0.9-0.1-2.3-0.3-4-0.8c-1.6,2-5.5,3.3-6.8,2.8c-1.7-0.7-7.5-0.6-6.9,3.5
			c0.6,4.1-9.1,5.4-6.7,8.6c2.4,3.1,1.2,2.7-1.1,6.4c-1.8,2.9-3.9,4.1-3.1,7.2c0.4,1.5,1.2,3.2,2.3,6.5c2.2,6.7,4.3,7.2,6,9
			c2.3,0.8,4.7,1.5,7.4,1.9c11.2,1.8,13.5-8.5,11-13.2c-1.6-3.2-10.9-5.9-12-0.2c-0.5,2.4,4.8,4.3,5.3,4.1c0.9-0.4,0-0.9,0-0.9
			s-6.3-1.4-2.5-4c3.2-2.2,9.2,3,6.9,7.4c-2.3,4.3-10.8,6.7-16.5-3.8s-3.5-15.4,4.4-20.6c9.4-6.1,12.9-6.3,12.9-6.3L44,67.6H47z"/>
	</g>
	<circle fill="#523400" cx="57.3" cy="69.2" r="2.4"/>
</g>
</svg>
