<?xml version="1.0" encoding="utf-8"?>
<!-- Generator: Adobe Illustrator 19.1.0, SVG Export Plug-In . SVG Version: 6.00 Build 0)  -->
<svg version="1.2" baseProfile="tiny" id="Layer_1" xmlns="http://www.w3.org/2000/svg" xmlns:xlink="http://www.w3.org/1999/xlink"
	 x="0px" y="0px" viewBox="0 0 48 48" xml:space="preserve">
<g>
	<path fill="#35AC72" d="M37.9,20.6c0,0,8.4-5.2-2.7-11.8"/>
	<path fill="#63C092" d="M2.9,37.1c0,0,2.4,6.1,8.8,9.2c1.5,0.7,3.1,1.3,5,1.6c5.4,0.9,6.5-4.2,5.3-6.6c-0.8-1.6-5.2-2.9-5.8-0.1
		c-0.2,1.2,2.3,2.2,2.6,2c0.5-0.2,0-0.5,0-0.5s-3-0.7-1.2-2c1.6-1.1,4.4,1.5,3.3,3.7c-1.1,2.2-5.2,3.4-8-1.9s-1.7-7.7,2.1-10.3
		c4.5-3.1,6.2-3.2,6.2-3.2l-0.1,4.8h1.5l0.3-8.8c18.3,1.9,16.9-3.8,16.9-3.8s-0.9,0.1-2,0c0.4-15.6-7.6-16.3-7.6-16.3S24,2.9,12.8,0
		c-5.3,14.6,0.5,18.8,0.5,18.8l-5.7-3.1c-0.3,2.3,2,3.5,2,3.5c-2.7,0.3-4.4-1.8-4.4-1.8c0,2.5,1.4,3.4,1.4,3.4
		C5.6,21.2,1.6,21,1.6,21l2,2.1C2.2,25,0,24,0,24s2.4,2.3,2.5,2.3S0.3,32.3,2.9,37.1z"/>
	<polygon fill="#028F63" points="18.4,34.1 19.9,34.1 19.8,28.4 18.4,28.7 	"/>
	<polygon fill="#028F63" points="15.5,34.1 17,34.1 16.8,28.4 15.5,28.7 	"/>
	<ellipse fill="#35AC72" cx="25.7" cy="15.1" rx="8.9" ry="7.6"/>
	<g>
		<g>
			<path fill="#010101" d="M17.9,15.1c0,2.4,3.1,4.3,6.9,4.3s6.9-1.9,6.9-4.3"/>
			<path fill="#010101" d="M34.2,15.1c0,2.4,3.1,4.3,6.9,4.3s6.9-1.9,6.9-4.3"/>
			<rect x="11.8" y="13.5" fill="#010101" width="36.2" height="1.6"/>
			<g>
				<path fill="#010101" d="M10.7,16.3H9.1c0-1.6,1.2-2.8,2.7-2.8v1.6C11.2,15.1,10.7,15.6,10.7,16.3z"/>
			</g>
		</g>
		<path fill="#EDF8FB" d="M36.7,15.5c0,0,1.8,0.5,2.1-0.1C39.1,14.8,35.9,15,36.7,15.5z"/>
		<path fill="#EDF8FB" d="M20.1,15.5c0,0,1.8,0.5,2.1-0.1C22.4,14.8,19.3,15,20.1,15.5z"/>
	</g>
	<path fill="#50C3C7" d="M8.5,31.9c-0.6-1.2,1-3.3,2.1-3.2c1.6,0.2,0.7-2.8,1.3-4.1c0.8-1.8,3.4-0.5,5.1-2c-1.2-0.9-2.5-2.2-3.8-3.9
		c0.2,0.2,0.6,1.2,0.3,2c-0.3,0.9-2.1,0.7-3.5,0.7c-1.1,0-2.2,2.3-0.7,4.2c1.4,1.9-2,4-2,4s-2.2,1.5-1.3,2.7
		c0.9,1.2,2.6,3.5,1.7,4.3c-0.9,0.7-1.7,2.5-0.8,3.7c0.7,1,2.6,3.5,2.6,4.7c0.4,0.2,0.7,0.5,1.1,0.7c-0.4-2.3-2.9-6.6-2.9-6.6
		C7.2,36.6,10.9,36.2,8.5,31.9z"/>
	<path fill="#A6CF4F" d="M17.1,22.7c-1.7,1.5-4.3,0.2-5.1,2c-0.6,1.4,0.3,4.3-1.3,4.1c-1.1-0.1-2.7,2-2.1,3.2
		c2.4,4.3-1.3,4.7-0.8,7.2c0,0,2.5,4.3,2.9,6.6c0.3,0.2,0.6,0.4,1,0.5c0.5,0.2,1,0.5,1.5,0.7c-0.8-0.9-2.6-3.2-1.6-3.7
		c1.2-0.6,0.4-2.8-0.3-3.2c-0.6-0.5-1.5-2.5-0.8-4c0.7-1.6,2.4-2.4,1.2-3.9c-1.2-1.6,3.1-2,2.8-4.1c-0.3-2,2.5-2.1,3.3-1.8
		c0.6,0.3,2.5-0.4,3.3-1.4C19.9,24.5,18.6,23.8,17.1,22.7z"/>
	<path fill="#35AC72" d="M22.6,33.9l0.3-8.7c-0.4,0-1.1-0.1-1.9-0.4c-0.8,1-2.7,1.7-3.3,1.4c-0.8-0.4-3.6-0.3-3.3,1.8
		c0.3,2-4.4,2.7-3.2,4.3c1.2,1.6,0.6,1.3-0.5,3.2c-0.9,1.5-1.9,2.1-1.5,3.6c0.2,0.7,0.6,1.6,1.1,3.3c1.1,3.4,2.1,3.6,2.9,4.5
		c1.1,0.4,2.3,0.8,3.6,1c5.4,0.9,6.5-4.2,5.3-6.6c-0.8-1.6-5.2-2.9-5.8-0.1c-0.2,1.2,2.3,2.2,2.6,2c0.5-0.2,0-0.5,0-0.5
		s-3-0.7-1.2-2c1.6-1.1,4.4,1.5,3.3,3.7c-1.1,2.2-5.2,3.4-8-1.9s-1.7-7.7,2.1-10.3c4.5-3.1,6.2-3.2,6.2-3.2l-0.1,4.8H22.6z"/>
</g>
</svg>
