<?xml version="1.0" encoding="utf-8"?>
<!-- Generator: Adobe Illustrator 19.1.0, SVG Export Plug-In . SVG Version: 6.00 Build 0)  -->
<svg version="1.2" baseProfile="tiny" id="Layer_1" xmlns="http://www.w3.org/2000/svg" xmlns:xlink="http://www.w3.org/1999/xlink"
	 x="0px" y="0px" viewBox="-248 348.8 113.4 97.3" xml:space="preserve">
<g>
	<g>
		<polygon fill="#19955A" points="-177,437.2 -177.1,437.1 -177.1,437.1 -177,437.1 		"/>
		<polygon fill="#189359" points="-177,437.2 -177.1,437.1 -177.1,437.1 		"/>
		<polygon fill="#179258" points="-177,437.2 -177.1,437.1 -177.1,437.1 		"/>
		<polygon fill="#169057" points="-177,437.2 -177.1,437.1 -177.1,437.1 		"/>
		<polygon fill="#168F56" points="-177,437.2 -177.1,437.1 -177.1,437.1 		"/>
		<polygon fill="#158E54" points="-177,437.2 -177.1,437.1 -177.1,437.1 		"/>
		<polygon fill="#148C53" points="-177,437.2 -177.1,437.1 -177.1,437.1 		"/>
		<polygon fill="#138B52" points="-177,437.2 -177.1,437.1 -177.1,437.1 		"/>
		<polygon fill="#138A51" points="-177,437.2 -177.2,437.1 -177.1,437.1 		"/>
		<polygon fill="#128850" points="-177,437.2 -177.2,437.1 -177.2,437.1 		"/>
		<polygon fill="#11874F" points="-177,437.2 -177.2,437.1 -177.2,437.1 		"/>
		<polygon fill="#10864F" points="-177,437.2 -177.2,437.1 -177.2,437.1 		"/>
		<polygon fill="#10854E" points="-177,437.2 -177.2,437.1 -177.2,437.1 		"/>
		<polygon fill="#0F834D" points="-177,437.2 -177.2,437.1 -177.2,437.1 		"/>
		<polygon fill="#0E824C" points="-177,437.2 -177.2,437.1 -177.2,437.1 -177.2,437.1 		"/>
		<polygon fill="#0E814B" points="-177.2,437 -176.9,437.2 -176.9,437.2 		"/>
		<polygon fill="#0D804A" points="-177.2,437 -176.9,437.2 -176.9,437.2 		"/>
		<polygon fill="#0D7F49" points="-177.2,437.1 -176.9,437.3 -176.9,437.3 		"/>
		<polygon fill="#0C7E48" points="-177.2,437.1 -176.9,437.3 -176.9,437.3 		"/>
		<polygon fill="#0B7D48" points="-177.2,437.1 -176.9,437.3 -176.9,437.3 		"/>
		<polygon fill="#0B7C47" points="-177.2,437.1 -176.9,437.3 -176.9,437.3 		"/>
		<polygon fill="#0A7B46" points="-177.2,437.1 -176.9,437.3 -176.9,437.3 		"/>
		<polygon fill="#0A7A45" points="-177.2,437.1 -176.9,437.3 -176.9,437.3 		"/>
		<polygon fill="#097945" points="-177.2,437.1 -176.9,437.3 -176.9,437.3 		"/>
		<polygon fill="#097844" points="-177.2,437.1 -176.9,437.3 -176.9,437.3 		"/>
		<polygon fill="#087743" points="-177,437.2 -177.2,437.1 -177.2,437.1 -177,437.2 		"/>
		<polygon fill="#087643" points="-177,437.2 -177.2,437.1 -177.2,437.1 		"/>
		<polygon fill="#077542" points="-177,437.2 -177.2,437.1 -177.2,437.1 		"/>
		<polygon fill="#077441" points="-177,437.2 -177.2,437.1 -177.2,437.1 		"/>
		<polygon fill="#067441" points="-177,437.2 -177.2,437.1 -177.2,437.1 		"/>
		<polygon fill="#067340" points="-177,437.2 -177.2,437.1 -177.2,437.1 		"/>
		<polygon fill="#067240" points="-177,437.2 -177.2,437.1 -177.2,437.1 		"/>
		<polygon fill="#05713F" points="-177,437.2 -177.2,437.1 -177.2,437.1 		"/>
		<polygon fill="#05713F" points="-177,437.2 -177.2,437.2 -177.2,437.1 		"/>
		<path fill="none" d="M-177,437.1l-0.2,0.2L-177,437.1z"/>
	</g>
	<g>
		<polygon fill="#1D9D60" points="-170.8,431.4 -170.7,431.4 -170.7,431.4 		"/>
		<polygon fill="#1C9B5F" points="-170.8,431.4 -170.7,431.4 -170.7,431.4 		"/>
		<polygon fill="#1B9A5D" points="-170.8,431.4 -170.7,431.4 -170.7,431.4 		"/>
		<polygon fill="#1A985C" points="-170.8,431.4 -170.7,431.4 -170.7,431.4 		"/>
		<polygon fill="#1A965B" points="-170.8,431.4 -170.7,431.4 -170.7,431.4 		"/>
		<polygon fill="#19955A" points="-170.8,431.4 -170.7,431.4 -170.7,431.4 		"/>
		<polygon fill="#189359" points="-170.8,431.4 -170.7,431.4 -170.7,431.4 		"/>
		<polygon fill="#179258" points="-170.8,431.4 -170.7,431.4 -170.7,431.4 		"/>
		<polygon fill="#169057" points="-170.8,431.4 -170.7,431.4 -170.7,431.4 		"/>
		<polygon fill="#168F56" points="-170.8,431.4 -170.7,431.5 -170.7,431.5 		"/>
		<polygon fill="#158E54" points="-170.8,431.4 -170.7,431.5 -170.7,431.5 		"/>
		<polygon fill="#148C53" points="-170.8,431.4 -170.7,431.5 -170.7,431.5 		"/>
		<polygon fill="#138A51" points="-170.8,431.4 -170.7,431.5 -170.7,431.5 		"/>
		<polygon fill="#128850" points="-170.8,431.4 -170.7,431.5 -170.7,431.5 		"/>
		<polygon fill="#11874F" points="-170.8,431.4 -170.7,431.5 -170.7,431.5 		"/>
		<polygon fill="#10864F" points="-170.8,431.4 -170.7,431.5 -170.7,431.5 		"/>
		<polygon fill="#10854E" points="-170.8,431.4 -170.7,431.5 -170.7,431.5 		"/>
		<polygon fill="#0F834D" points="-170.8,431.4 -170.7,431.5 -170.7,431.5 		"/>
		<polygon fill="#0E824C" points="-170.8,431.4 -170.7,431.5 -170.7,431.5 		"/>
		<polygon fill="#0E814B" points="-170.8,431.4 -170.7,431.5 -170.7,431.5 		"/>
		<polygon fill="#0D804A" points="-170.8,431.4 -170.7,431.5 -170.7,431.5 		"/>
		<polygon fill="#0D7F49" points="-170.8,431.4 -170.7,431.5 -170.7,431.5 		"/>
		<polygon fill="#0C7E48" points="-170.8,431.4 -170.7,431.5 -170.7,431.5 		"/>
		<polygon fill="#0B7D48" points="-170.8,431.4 -170.7,431.5 -170.7,431.5 		"/>
		<polygon fill="#0B7C47" points="-170.8,431.4 -170.7,431.5 -170.7,431.5 		"/>
		<polygon fill="#0A7B46" points="-170.8,431.5 -170.7,431.5 -170.7,431.5 		"/>
		<polygon fill="#0A7A45" points="-170.8,431.5 -170.7,431.5 -170.7,431.5 		"/>
		<polygon fill="#097945" points="-170.8,431.5 -170.7,431.5 -170.7,431.5 		"/>
		<polygon fill="#097844" points="-170.8,431.5 -170.7,431.5 -170.7,431.5 		"/>
		<polygon fill="#087743" points="-170.8,431.5 -170.7,431.5 -170.7,431.5 		"/>
		<polygon fill="#087643" points="-170.8,431.5 -170.7,431.5 -170.7,431.5 		"/>
		<polygon fill="#077542" points="-170.8,431.5 -170.7,431.5 -170.7,431.5 		"/>
		<polygon fill="#077441" points="-170.8,431.5 -170.7,431.5 -170.7,431.5 		"/>
		<polygon fill="#067441" points="-170.8,431.5 -170.7,431.5 -170.7,431.5 		"/>
		<polygon fill="#067340" points="-170.8,431.5 -170.7,431.5 -170.7,431.5 		"/>
		<polygon fill="#067240" points="-170.8,431.5 -170.7,431.5 -170.7,431.5 		"/>
		<polygon fill="#05713F" points="-170.8,431.5 -170.7,431.5 -170.7,431.5 		"/>
		<polygon fill="#04703E" points="-170.8,431.5 -170.7,431.5 -170.7,431.5 		"/>
		<polygon fill="#046F3E" points="-170.8,431.5 -170.7,431.5 -170.7,431.5 		"/>
		<polygon fill="#046F3D" points="-170.8,431.5 -170.7,431.5 -170.7,431.5 		"/>
		<polygon fill="#036E3D" points="-170.8,431.5 -170.7,431.5 -170.7,431.5 		"/>
		<polygon fill="#036E3C" points="-170.8,431.5 -170.7,431.6 -170.7,431.6 		"/>
		<polygon fill="#036D3C" points="-170.8,431.5 -170.7,431.6 -170.7,431.6 		"/>
		<polygon fill="#036D3B" points="-170.8,431.5 -170.7,431.6 -170.7,431.6 		"/>
		<polygon fill="#026C3B" points="-170.8,431.5 -170.7,431.6 -170.7,431.6 		"/>
		<polygon fill="#026C3B" points="-170.8,431.5 -170.7,431.6 -170.7,431.6 		"/>
		<polygon fill="#026B3A" points="-170.8,431.5 -170.7,431.6 -170.7,431.6 		"/>
	</g>
	<g>
		<polygon fill="#1D9D60" points="-175.5,435.9 -175.4,435.9 -175.4,435.9 		"/>
		<polygon fill="#1C9B5F" points="-175.5,435.9 -175.4,435.9 -175.4,435.9 		"/>
		<polygon fill="#1B9A5D" points="-175.5,435.9 -175.4,435.9 -175.4,435.9 		"/>
		<polygon fill="#1A985C" points="-175.5,435.9 -175.4,435.9 -175.4,435.9 		"/>
		<polygon fill="#1A965B" points="-175.5,435.9 -175.4,435.9 -175.4,435.9 		"/>
		<polygon fill="#19955A" points="-175.5,435.9 -175.4,435.9 -175.4,435.9 		"/>
		<polygon fill="#189359" points="-175.5,435.9 -175.4,435.9 -175.4,435.9 		"/>
		<polygon fill="#179258" points="-175.5,435.9 -175.4,435.9 -175.4,435.9 		"/>
		<polygon fill="#169057" points="-175.5,435.9 -175.4,435.9 -175.4,435.9 		"/>
		<polygon fill="#168F56" points="-175.5,435.9 -175.4,435.9 -175.4,435.9 		"/>
		<polygon fill="#158E54" points="-175.5,435.9 -175.4,435.9 -175.4,435.9 		"/>
		<polygon fill="#148C53" points="-175.5,435.9 -175.4,435.9 -175.4,435.9 		"/>
		<polygon fill="#138B52" points="-175.5,435.9 -175.4,435.9 -175.4,435.9 		"/>
		<polygon fill="#138A51" points="-175.5,435.9 -175.4,435.9 -175.4,435.9 		"/>
		<polygon fill="#128850" points="-175.5,435.9 -175.4,435.9 -175.4,435.9 		"/>
		<polygon fill="#11874F" points="-175.5,435.9 -175.4,435.9 -175.4,435.9 		"/>
		<polygon fill="#10864F" points="-175.5,435.9 -175.4,435.9 -175.4,435.9 		"/>
		<polygon fill="#10854E" points="-175.5,435.9 -175.4,435.9 -175.4,435.9 		"/>
		<polygon fill="#0E824C" points="-175.5,435.9 -175.4,435.9 -175.4,435.9 		"/>
		<polygon fill="#0E814B" points="-175.5,435.9 -175.4,435.9 -175.4,435.9 		"/>
		<polygon fill="#0D804A" points="-175.5,435.9 -175.4,435.9 -175.4,435.9 		"/>
		<polygon fill="#0D7F49" points="-175.5,435.9 -175.4,435.9 -175.4,435.9 		"/>
		<polygon fill="#0C7E48" points="-175.5,435.9 -175.4,435.9 -175.4,435.9 		"/>
		<polygon fill="#0B7D48" points="-175.5,435.9 -175.4,435.9 -175.4,435.9 		"/>
		<polygon fill="#0B7C47" points="-175.5,435.9 -175.4,435.9 -175.4,435.9 		"/>
		<polygon fill="#0A7B46" points="-175.5,435.9 -175.4,435.9 -175.4,435.9 		"/>
		<polygon fill="#0A7A45" points="-175.5,435.9 -175.4,435.9 -175.4,435.9 		"/>
		<polygon fill="#097945" points="-175.5,435.9 -175.4,435.9 -175.4,435.9 		"/>
		<polygon fill="#097844" points="-175.5,435.9 -175.4,435.9 -175.4,435.9 		"/>
		<polygon fill="#087743" points="-175.5,435.9 -175.4,435.9 -175.4,435.9 		"/>
		<polygon fill="#077542" points="-175.5,435.9 -175.4,435.9 -175.4,435.9 		"/>
		<polygon fill="#077441" points="-175.5,435.9 -175.4,435.9 -175.4,435.9 		"/>
		<polygon fill="#067441" points="-175.5,435.9 -175.4,435.9 -175.4,435.9 		"/>
		<polygon fill="#067340" points="-175.5,435.9 -175.4,435.9 -175.4,435.9 		"/>
		<polygon fill="#067240" points="-175.5,435.9 -175.4,435.9 -175.4,435.9 		"/>
		<polygon fill="#05713F" points="-175.5,435.9 -175.4,435.9 -175.4,435.9 		"/>
		<polygon fill="#05713F" points="-175.5,435.9 -175.4,435.9 -175.4,435.9 		"/>
		<polygon fill="#04703E" points="-175.5,435.9 -175.4,435.9 -175.4,435.9 		"/>
		<polygon fill="#046F3E" points="-175.5,435.9 -175.4,435.9 -175.4,435.9 		"/>
		<polygon fill="#046F3D" points="-175.5,435.9 -175.4,435.9 -175.4,435.9 		"/>
		<polygon fill="#036E3D" points="-175.5,435.9 -175.4,435.9 -175.4,435.9 		"/>
		<polygon fill="#036E3C" points="-175.5,435.9 -175.4,435.9 -175.4,435.9 		"/>
		<polygon fill="#036D3C" points="-175.5,435.9 -175.4,435.9 -175.4,435.9 		"/>
		<polygon fill="#036D3B" points="-175.5,435.9 -175.4,435.9 -175.4,435.9 		"/>
		<polygon fill="#026C3B" points="-175.5,435.9 -175.4,435.9 -175.4,435.9 		"/>
		<polygon fill="#026C3B" points="-175.5,435.9 -175.4,435.9 -175.4,435.9 		"/>
		<polygon fill="#026B3A" points="-175.5,435.9 -175.4,435.9 -175.4,435.9 		"/>
	</g>
	<g>
		<polygon fill="#1C9B5F" points="-169.4,429.9 -169.5,429.8 -169.5,429.8 -169.4,429.8 		"/>
		<polygon fill="#1B9A5D" points="-169.4,429.9 -169.5,429.8 -169.5,429.8 		"/>
		<polygon fill="#1A985C" points="-169.4,429.9 -169.5,429.8 -169.5,429.8 		"/>
		<polygon fill="#1A965B" points="-169.4,429.9 -169.5,429.8 -169.5,429.8 		"/>
		<polygon fill="#19955A" points="-169.4,429.9 -169.5,429.8 -169.5,429.8 		"/>
		<polygon fill="#189359" points="-169.4,429.9 -169.5,429.8 -169.5,429.8 		"/>
		<polygon fill="#179258" points="-169.4,429.9 -169.5,429.8 -169.5,429.8 		"/>
		<polygon fill="#169057" points="-169.4,429.9 -169.5,429.8 -169.5,429.8 		"/>
		<polygon fill="#168F56" points="-169.4,429.9 -169.5,429.8 -169.5,429.8 		"/>
		<polygon fill="#158E54" points="-169.4,429.9 -169.5,429.8 -169.5,429.8 		"/>
		<polygon fill="#148C53" points="-169.4,429.9 -169.6,429.8 -169.6,429.8 -169.5,429.8 		"/>
		<polygon fill="#138B52" points="-169.6,429.7 -169.4,429.8 -169.4,429.8 		"/>
		<polygon fill="#138A51" points="-169.6,429.7 -169.4,429.8 -169.4,429.8 		"/>
		<polygon fill="#128850" points="-169.6,429.8 -169.4,429.9 -169.4,429.9 		"/>
		<polygon fill="#11874F" points="-169.6,429.8 -169.4,429.9 -169.4,429.9 		"/>
		<polygon fill="#10864F" points="-169.6,429.8 -169.4,429.9 -169.4,429.9 		"/>
		<polygon fill="#10854E" points="-169.6,429.8 -169.4,429.9 -169.4,429.9 		"/>
		<polygon fill="#0F834D" points="-169.6,429.8 -169.4,429.9 -169.4,429.9 		"/>
		<polygon fill="#0E824C" points="-169.6,429.8 -169.4,429.9 -169.4,429.9 		"/>
		<polygon fill="#0E814B" points="-169.6,429.8 -169.4,429.9 -169.4,429.9 		"/>
		<polygon fill="#0D804A" points="-169.6,429.8 -169.4,429.9 -169.4,429.9 		"/>
		<polygon fill="#0D7F49" points="-169.6,429.8 -169.4,429.9 -169.4,429.9 		"/>
		<polygon fill="#0C7E48" points="-169.6,429.8 -169.4,429.9 -169.4,429.9 		"/>
		<polygon fill="#0B7D48" points="-169.6,429.8 -169.4,429.9 -169.4,429.9 		"/>
		<polygon fill="#0B7C47" points="-169.6,429.8 -169.4,429.9 -169.4,429.9 		"/>
		<polygon fill="#0A7B46" points="-169.6,429.8 -169.4,429.9 -169.4,429.9 		"/>
		<polygon fill="#0A7A45" points="-169.6,429.8 -169.4,429.9 -169.4,429.9 		"/>
		<polygon fill="#097945" points="-169.6,429.8 -169.4,429.9 -169.4,429.9 		"/>
		<polygon fill="#097844" points="-169.6,429.8 -169.4,429.9 -169.4,429.9 		"/>
		<polygon fill="#087743" points="-169.6,429.8 -169.4,429.9 -169.4,429.9 		"/>
		<polygon fill="#087643" points="-169.6,429.8 -169.4,429.9 -169.4,429.9 		"/>
		<polygon fill="#077542" points="-169.6,429.8 -169.4,429.9 -169.4,429.9 		"/>
		<polygon fill="#077441" points="-169.6,429.8 -169.4,429.9 -169.4,429.9 		"/>
		<polygon fill="#067441" points="-169.6,429.8 -169.4,429.9 -169.4,429.9 		"/>
		<polygon fill="#067340" points="-169.6,429.8 -169.4,429.9 -169.4,429.9 		"/>
		<polygon fill="#067240" points="-169.6,429.8 -169.4,429.9 -169.4,429.9 		"/>
		<polygon fill="#05713F" points="-169.6,429.8 -169.4,429.9 -169.4,429.9 		"/>
		<polygon fill="#05713F" points="-169.4,430 -169.6,429.9 -169.6,429.9 -169.4,430 		"/>
		<polygon fill="#04703E" points="-169.4,430 -169.6,429.9 -169.6,429.9 		"/>
		<polygon fill="#046F3E" points="-169.4,430 -169.6,429.9 -169.6,429.9 		"/>
		<polygon fill="#046F3D" points="-169.4,430 -169.6,429.9 -169.6,429.9 		"/>
		<polygon fill="#036E3D" points="-169.4,430 -169.6,429.9 -169.6,429.9 		"/>
		<polygon fill="#036E3C" points="-169.4,430 -169.6,429.9 -169.6,429.9 		"/>
		<polygon fill="#036D3C" points="-169.4,430 -169.6,429.9 -169.6,429.9 		"/>
		<polygon fill="#036D3B" points="-169.4,430 -169.6,429.9 -169.6,429.9 		"/>
		<polygon fill="#026C3B" points="-169.4,430 -169.6,429.9 -169.6,429.9 		"/>
		<polygon fill="#026C3B" points="-169.4,430 -169.6,429.9 -169.6,429.9 		"/>
		<polygon fill="#026B3A" points="-169.4,430 -169.6,429.9 -169.6,429.9 		"/>
		<polygon fill="#026B3A" points="-169.5,430 -169.6,429.9 -169.6,429.9 -169.4,430 		"/>
		<polygon fill="#016A3A" points="-169.5,430 -169.6,430 -169.6,429.9 		"/>
		<path fill="none" d="M-169.4,429.8l-0.2,0.2L-169.4,429.8z"/>
	</g>
	<g>
		<polygon fill="#2BB673" points="-172.2,432.9 -172.2,432.9 -172.2,433.1 -172.4,433.1 -172.4,432.9 		"/>
		<polygon fill="#1B9A5D" points="-172.2,433 -172.3,432.9 -172.3,432.9 -172.2,432.9 		"/>
		<polygon fill="#1A985C" points="-172.2,433 -172.3,432.9 -172.3,432.9 		"/>
		<polygon fill="#1A965B" points="-172.2,433 -172.3,432.9 -172.3,432.9 		"/>
		<polygon fill="#19955A" points="-172.2,433 -172.3,432.9 -172.3,432.9 		"/>
		<polygon fill="#189359" points="-172.2,433 -172.3,432.9 -172.3,432.9 		"/>
		<polygon fill="#179258" points="-172.2,433 -172.3,432.9 -172.3,432.9 		"/>
		<polygon fill="#169057" points="-172.2,433 -172.3,432.9 -172.3,432.9 		"/>
		<polygon fill="#168F56" points="-172.2,433 -172.4,432.9 -172.3,432.9 		"/>
		<polygon fill="#158E54" points="-172.2,433 -172.4,432.9 -172.4,432.9 		"/>
		<polygon fill="#148C53" points="-172.2,433 -172.4,432.9 -172.4,432.9 		"/>
		<polygon fill="#138B52" points="-172.2,433 -172.4,432.9 -172.4,432.9 		"/>
		<polygon fill="#138A51" points="-172.2,433 -172.4,432.9 -172.4,432.9 		"/>
		<polygon fill="#128850" points="-172.2,433 -172.4,432.9 -172.4,432.9 -172.4,432.9 		"/>
		<polygon fill="#11874F" points="-172.4,432.8 -172.1,433 -172.1,433 		"/>
		<polygon fill="#10864F" points="-172.4,432.8 -172.1,433 -172.1,433 		"/>
		<polygon fill="#10854E" points="-172.4,432.9 -172.1,433.1 -172.1,433.1 		"/>
		<polygon fill="#0F834D" points="-172.4,432.9 -172.1,433.1 -172.1,433.1 		"/>
		<polygon fill="#0E824C" points="-172.4,432.9 -172.1,433.1 -172.1,433.1 		"/>
		<polygon fill="#0E814B" points="-172.4,432.9 -172.1,433.1 -172.1,433.1 		"/>
		<polygon fill="#0D804A" points="-172.4,432.9 -172.1,433.1 -172.1,433.1 		"/>
		<polygon fill="#0D7F49" points="-172.4,432.9 -172.1,433.1 -172.1,433.1 		"/>
		<polygon fill="#0C7E48" points="-172.4,432.9 -172.1,433.1 -172.1,433.1 		"/>
		<polygon fill="#0B7D48" points="-172.4,432.9 -172.1,433.1 -172.1,433.1 		"/>
		<polygon fill="#0B7C47" points="-172.4,432.9 -172.1,433.1 -172.1,433.1 		"/>
		<polygon fill="#0A7B46" points="-172.4,432.9 -172.1,433.1 -172.1,433.1 		"/>
		<polygon fill="#0A7A45" points="-172.4,432.9 -172.1,433.1 -172.1,433.1 		"/>
		<polygon fill="#097945" points="-172.4,432.9 -172.1,433.1 -172.1,433.1 		"/>
		<polygon fill="#097844" points="-172.4,432.9 -172.1,433.1 -172.1,433.1 		"/>
		<polygon fill="#087743" points="-172.4,432.9 -172.1,433.1 -172.1,433.1 		"/>
		<polygon fill="#087643" points="-172.4,432.9 -172.1,433.1 -172.1,433.1 		"/>
		<polygon fill="#077542" points="-172.4,432.9 -172.1,433.1 -172.1,433.1 		"/>
		<polygon fill="#077441" points="-172.4,432.9 -172.1,433.1 -172.1,433.1 		"/>
		<polygon fill="#067441" points="-172.4,432.9 -172.1,433.1 -172.1,433.1 		"/>
		<polygon fill="#067340" points="-172.2,433.1 -172.4,433 -172.4,433 -172.2,433.1 		"/>
		<polygon fill="#067240" points="-172.2,433.1 -172.4,433 -172.4,433 		"/>
		<polygon fill="#05713F" points="-172.2,433.1 -172.4,433 -172.4,433 		"/>
		<polygon fill="#05713F" points="-172.2,433.1 -172.4,433 -172.4,433 		"/>
		<polygon fill="#04703E" points="-172.2,433.1 -172.4,433 -172.4,433 		"/>
		<polygon fill="#046F3E" points="-172.2,433.1 -172.4,433 -172.4,433 		"/>
		<polygon fill="#046F3D" points="-172.2,433.1 -172.4,433 -172.4,433 		"/>
		<polygon fill="#036E3D" points="-172.2,433.1 -172.4,433 -172.4,433 		"/>
		<polygon fill="#036E3C" points="-172.2,433.1 -172.4,433 -172.4,433 		"/>
		<polygon fill="#036D3C" points="-172.2,433.1 -172.4,433 -172.4,433 		"/>
		<polygon fill="#036D3B" points="-172.2,433.1 -172.4,433 -172.4,433 		"/>
		<polygon fill="#026C3B" points="-172.2,433.1 -172.4,433 -172.4,433 		"/>
		<polygon fill="#026C3B" points="-172.3,433.1 -172.4,433 -172.4,433 -172.2,433.1 		"/>
		<polygon fill="#026B3A" points="-172.3,433.1 -172.4,433 -172.4,433 		"/>
		<polygon fill="#026B3A" points="-172.3,433.1 -172.4,433 -172.4,433 		"/>
		<polygon fill="#016A3A" points="-172.3,433.1 -172.4,433 -172.4,433 		"/>
		<polygon fill="#016A3A" points="-172.3,433.1 -172.4,433.1 -172.4,433 		"/>
		<path fill="none" d="M-172.2,432.9l-0.2,0.2L-172.2,432.9z"/>
	</g>
	<g>
		<polygon fill="#1E9E61" points="-173.7,434.5 -173.8,434.4 -173.8,434.4 -173.7,434.4 		"/>
		<polygon fill="#1D9D60" points="-173.7,434.5 -173.9,434.4 -173.8,434.4 		"/>
		<polygon fill="#1C9B5F" points="-173.7,434.5 -173.9,434.4 -173.9,434.4 		"/>
		<polygon fill="#1B9A5D" points="-173.7,434.5 -173.9,434.4 -173.9,434.4 		"/>
		<polygon fill="#1A985C" points="-173.7,434.5 -173.9,434.4 -173.9,434.4 		"/>
		<polygon fill="#1A965B" points="-173.7,434.5 -173.9,434.4 -173.9,434.4 		"/>
		<polygon fill="#19955A" points="-173.7,434.5 -173.9,434.4 -173.9,434.4 		"/>
		<polygon fill="#189359" points="-173.7,434.5 -173.9,434.4 -173.9,434.4 		"/>
		<polygon fill="#179258" points="-173.7,434.5 -173.9,434.4 -173.9,434.4 		"/>
		<polygon fill="#169057" points="-173.7,434.5 -173.9,434.4 -173.9,434.4 		"/>
		<polygon fill="#168F56" points="-173.7,434.5 -173.9,434.4 -173.9,434.4 		"/>
		<polygon fill="#158E54" points="-173.7,434.5 -173.9,434.4 -173.9,434.4 		"/>
		<polygon fill="#148C53" points="-173.7,434.5 -173.9,434.4 -173.9,434.4 		"/>
		<polygon fill="#138B52" points="-173.7,434.5 -174,434.4 -173.9,434.4 		"/>
		<polygon fill="#138A51" points="-173.7,434.5 -174,434.4 -174,434.4 		"/>
		<polygon fill="#128850" points="-173.7,434.5 -174,434.4 -174,434.4 		"/>
		<polygon fill="#11874F" points="-173.7,434.5 -174,434.4 -174,434.4 		"/>
		<polygon fill="#10864F" points="-173.7,434.5 -174,434.4 -174,434.4 -174,434.4 		"/>
		<polygon fill="#10854E" points="-174,434.4 -173.7,434.6 -173.7,434.6 		"/>
		<polygon fill="#0F834D" points="-174,434.4 -173.7,434.6 -173.7,434.6 		"/>
		<polygon fill="#0E824C" points="-174,434.4 -173.7,434.6 -173.7,434.6 		"/>
		<polygon fill="#0E814B" points="-174,434.4 -173.7,434.6 -173.7,434.6 		"/>
		<polygon fill="#0D804A" points="-174,434.4 -173.7,434.6 -173.7,434.6 		"/>
		<polygon fill="#0D7F49" points="-174,434.4 -173.7,434.6 -173.7,434.6 		"/>
		<polygon fill="#0C7E48" points="-174,434.4 -173.7,434.6 -173.7,434.6 		"/>
		<polygon fill="#0B7D48" points="-174,434.4 -173.7,434.6 -173.7,434.6 		"/>
		<polygon fill="#0B7C47" points="-174,434.4 -173.7,434.6 -173.7,434.6 		"/>
		<polygon fill="#0A7B46" points="-174,434.4 -173.7,434.6 -173.7,434.6 		"/>
		<polygon fill="#0A7A45" points="-174,434.4 -173.7,434.6 -173.7,434.6 		"/>
		<polygon fill="#097945" points="-174,434.4 -173.7,434.6 -173.7,434.6 		"/>
		<polygon fill="#097844" points="-174,434.4 -173.7,434.6 -173.7,434.6 		"/>
		<polygon fill="#087743" points="-174,434.4 -173.7,434.6 -173.7,434.6 		"/>
		<polygon fill="#087643" points="-174,434.4 -173.7,434.6 -173.7,434.6 		"/>
		<polygon fill="#077542" points="-174,434.4 -173.7,434.6 -173.7,434.6 		"/>
		<polygon fill="#077441" points="-173.7,434.6 -174,434.5 -174,434.5 -173.7,434.6 		"/>
		<polygon fill="#067441" points="-173.7,434.6 -174,434.5 -174,434.5 		"/>
		<polygon fill="#067340" points="-173.7,434.6 -174,434.5 -174,434.5 		"/>
		<polygon fill="#067240" points="-173.8,434.6 -174,434.5 -174,434.5 -173.7,434.6 		"/>
		<polygon fill="#05713F" points="-173.8,434.6 -174,434.5 -174,434.5 		"/>
		<polygon fill="#05713F" points="-173.8,434.6 -174,434.5 -174,434.5 		"/>
		<polygon fill="#04703E" points="-173.8,434.6 -174,434.5 -174,434.5 		"/>
		<polygon fill="#046F3E" points="-173.8,434.6 -174,434.5 -174,434.5 		"/>
		<polygon fill="#046F3D" points="-173.8,434.6 -174,434.5 -174,434.5 		"/>
		<polygon fill="#036E3D" points="-173.8,434.6 -174,434.5 -174,434.5 		"/>
		<polygon fill="#036E3C" points="-173.8,434.6 -174,434.5 -174,434.5 		"/>
		<polygon fill="#036D3C" points="-173.8,434.6 -174,434.5 -174,434.5 		"/>
		<polygon fill="#036D3B" points="-173.8,434.6 -174,434.5 -174,434.5 		"/>
		<polygon fill="#026C3B" points="-173.8,434.6 -174,434.5 -174,434.5 		"/>
		<polygon fill="#026C3B" points="-173.8,434.6 -174,434.5 -174,434.5 		"/>
		<polygon fill="#026B3A" points="-173.9,434.6 -174,434.5 -174,434.5 -173.8,434.6 		"/>
		<polygon fill="#026B3A" points="-173.9,434.6 -174,434.5 -174,434.5 		"/>
		<polygon fill="#016A3A" points="-173.9,434.6 -174,434.6 -174,434.5 		"/>
		<path fill="none" d="M-173.7,434.4l-0.3,0.2L-173.7,434.4z"/>
	</g>
	<g>
	</g>
	<g>
		<polygon fill="#26AC6C" points="-178.7,438.4 -178.8,438.3 -178.7,438.3 -178.7,438.3 		"/>
		<polygon fill="#25AB6A" points="-178.7,438.4 -178.8,438.3 -178.8,438.3 		"/>
		<polygon fill="#24A969" points="-178.7,438.4 -178.8,438.3 -178.8,438.3 		"/>
		<polygon fill="#23A768" points="-178.7,438.4 -178.8,438.3 -178.8,438.3 		"/>
		<polygon fill="#22A566" points="-178.7,438.4 -178.8,438.3 -178.8,438.3 		"/>
		<polygon fill="#21A365" points="-178.7,438.4 -178.8,438.3 -178.8,438.3 		"/>
		<polygon fill="#20A264" points="-178.7,438.4 -178.8,438.3 -178.8,438.3 		"/>
		<polygon fill="#1FA062" points="-178.7,438.4 -178.8,438.3 -178.8,438.3 		"/>
		<polygon fill="#1E9E61" points="-178.7,438.4 -178.8,438.3 -178.8,438.3 		"/>
		<polygon fill="#1D9D60" points="-178.7,438.4 -178.8,438.3 -178.8,438.3 		"/>
		<polygon fill="#1C9B5F" points="-178.7,438.4 -178.8,438.3 -178.8,438.3 		"/>
		<polygon fill="#1B9A5D" points="-178.7,438.4 -178.9,438.3 -178.8,438.3 		"/>
		<polygon fill="#1A985C" points="-178.7,438.4 -178.9,438.3 -178.9,438.3 		"/>
		<polygon fill="#1A965B" points="-178.7,438.4 -178.9,438.3 -178.9,438.3 		"/>
		<polygon fill="#19955A" points="-178.7,438.4 -178.9,438.3 -178.9,438.3 		"/>
		<polygon fill="#189359" points="-178.7,438.4 -178.9,438.3 -178.9,438.3 		"/>
		<polygon fill="#179258" points="-178.7,438.4 -178.9,438.3 -178.9,438.3 		"/>
		<polygon fill="#169057" points="-178.7,438.4 -178.9,438.3 -178.9,438.3 		"/>
		<polygon fill="#168F56" points="-178.7,438.4 -178.9,438.3 -178.9,438.3 		"/>
		<polygon fill="#158E54" points="-178.7,438.4 -178.9,438.3 -178.9,438.3 		"/>
		<polygon fill="#148C53" points="-178.7,438.5 -178.9,438.3 -178.9,438.3 -178.7,438.4 		"/>
		<polygon fill="#138B52" points="-178.7,438.5 -178.9,438.3 -178.9,438.3 		"/>
		<polygon fill="#138A51" points="-178.7,438.5 -178.9,438.3 -178.9,438.3 		"/>
		<polygon fill="#128850" points="-178.7,438.5 -179,438.3 -178.9,438.3 		"/>
		<polygon fill="#11874F" points="-178.7,438.5 -179,438.3 -179,438.3 		"/>
		<polygon fill="#10864F" points="-178.7,438.5 -179,438.3 -179,438.3 		"/>
		<polygon fill="#10854E" points="-178.7,438.5 -179,438.3 -179,438.3 		"/>
		<polygon fill="#0F834D" points="-178.7,438.5 -179,438.3 -179,438.3 		"/>
		<polygon fill="#0E824C" points="-178.7,438.5 -179,438.3 -179,438.3 		"/>
		<polygon fill="#0E814B" points="-178.7,438.5 -179,438.3 -179,438.3 		"/>
		<polygon fill="#0D804A" points="-178.7,438.5 -179,438.3 -179,438.3 -179,438.3 		"/>
		<polygon fill="#0D7F49" points="-179,438.3 -178.6,438.5 -178.6,438.5 		"/>
		<polygon fill="#0C7E48" points="-179,438.3 -178.6,438.5 -178.6,438.5 		"/>
		<polygon fill="#0B7D48" points="-179,438.3 -178.6,438.5 -178.6,438.5 		"/>
		<polygon fill="#0B7C47" points="-179,438.3 -178.6,438.5 -178.6,438.5 		"/>
		<polygon fill="#0A7B46" points="-179,438.3 -178.6,438.5 -178.6,438.5 		"/>
		<polygon fill="#0A7A45" points="-179,438.3 -178.6,438.5 -178.6,438.5 		"/>
		<polygon fill="#097945" points="-178.7,438.5 -179,438.4 -179,438.4 -178.7,438.5 		"/>
		<polygon fill="#097844" points="-178.7,438.5 -179,438.4 -179,438.4 		"/>
		<polygon fill="#087743" points="-178.7,438.5 -179,438.4 -179,438.4 		"/>
		<polygon fill="#087643" points="-178.7,438.5 -179,438.4 -179,438.4 		"/>
		<polygon fill="#077542" points="-178.7,438.5 -179,438.4 -179,438.4 		"/>
		<polygon fill="#077441" points="-178.8,438.5 -179,438.4 -179,438.4 -178.7,438.5 		"/>
		<polygon fill="#067441" points="-178.8,438.5 -179,438.4 -179,438.4 		"/>
		<polygon fill="#067340" points="-178.8,438.5 -179,438.4 -179,438.4 		"/>
		<polygon fill="#067240" points="-178.8,438.5 -179,438.4 -179,438.4 		"/>
		<polygon fill="#05713F" points="-178.8,438.5 -179,438.4 -179,438.4 		"/>
		<polygon fill="#05713F" points="-178.8,438.5 -179,438.4 -179,438.4 		"/>
		<polygon fill="#04703E" points="-178.8,438.5 -179,438.4 -179,438.4 		"/>
		<polygon fill="#046F3E" points="-178.8,438.5 -179,438.4 -179,438.4 		"/>
		<polygon fill="#046F3D" points="-178.8,438.5 -179,438.4 -179,438.4 		"/>
		<polygon fill="#036E3D" points="-178.8,438.5 -179,438.4 -179,438.4 		"/>
		<polygon fill="#036E3C" points="-178.8,438.5 -179,438.4 -179,438.4 		"/>
		<polygon fill="#036D3C" points="-178.9,438.5 -179,438.4 -179,438.4 -178.8,438.5 		"/>
		<polygon fill="#036D3B" points="-178.9,438.5 -179,438.4 -179,438.4 		"/>
		<polygon fill="#026C3B" points="-178.9,438.5 -179,438.4 -179,438.4 		"/>
		<polygon fill="#026C3B" points="-178.9,438.5 -179,438.5 -179,438.4 		"/>
		<path fill="none" d="M-178.7,438.3c-0.1,0.1-0.2,0.1-0.3,0.2C-178.9,438.5-178.8,438.4-178.7,438.3z"/>
	</g>
	<g>
		<polygon fill="#21A365" points="-194.7,445.1 -194.6,445.1 -194.6,445.1 		"/>
		<polygon fill="#20A264" points="-194.7,445.1 -194.6,445.1 -194.6,445.1 		"/>
		<polygon fill="#1FA062" points="-194.7,445.1 -194.6,445.1 -194.6,445.1 		"/>
		<polygon fill="#1E9E61" points="-194.7,445.1 -194.6,445.1 -194.6,445.1 		"/>
		<polygon fill="#1D9D60" points="-194.7,445.1 -194.6,445.1 -194.6,445.1 		"/>
		<polygon fill="#1C9B5F" points="-194.7,445.1 -194.6,445.1 -194.6,445.1 		"/>
		<polygon fill="#1B9A5D" points="-194.7,445.1 -194.6,445.1 -194.6,445.1 		"/>
		<polygon fill="#1A985C" points="-194.7,445.1 -194.6,445.1 -194.6,445.1 		"/>
		<polygon fill="#1A965B" points="-194.7,445.1 -194.6,445.1 -194.6,445.1 		"/>
		<polygon fill="#036D3B" points="-194.9,445.1 -194.8,445.1 -194.8,445.1 		"/>
		<polygon fill="#026C3B" points="-194.9,445.1 -194.8,445.1 -194.8,445.1 		"/>
		<polygon fill="#026C3B" points="-194.9,445.1 -194.8,445.1 -194.8,445.1 		"/>
		<polygon fill="#026B3A" points="-194.9,445.1 -194.8,445.1 -194.8,445.1 		"/>
		<polygon fill="#026B3A" points="-194.9,445.1 -194.8,445.1 -194.8,445.1 		"/>
		<polygon fill="#016A3A" points="-194.9,445.1 -194.8,445.1 -194.8,445.1 		"/>
		<polygon fill="#016A3A" points="-194.9,445.1 -194.8,445.1 -194.8,445.1 		"/>
		<polygon fill="#016A39" points="-194.9,445.1 -194.8,445.1 -194.8,445.1 		"/>
	</g>
	<g>
		<polygon fill="#24A969" points="-198.9,445.8 -199,445.7 -198.9,445.7 		"/>
		<polygon fill="#23A768" points="-198.9,445.8 -199,445.7 -199,445.7 		"/>
		<polygon fill="#22A566" points="-198.9,445.8 -199,445.7 -199,445.7 		"/>
		<polygon fill="#21A365" points="-198.9,445.8 -199,445.7 -199,445.7 		"/>
		<polygon fill="#20A264" points="-198.9,445.8 -199,445.7 -199,445.7 -198.9,445.8 		"/>
		<polygon fill="#1FA062" points="-198.9,445.8 -199,445.7 -199,445.7 		"/>
		<polygon fill="#1E9E61" points="-198.9,445.8 -199,445.7 -199,445.7 		"/>
		<polygon fill="#1D9D60" points="-198.9,445.8 -199,445.7 -199,445.7 		"/>
		<polygon fill="#1C9B5F" points="-198.9,445.8 -199,445.7 -199,445.7 		"/>
		<polygon fill="#1B9A5D" points="-198.9,445.8 -199,445.7 -199,445.7 		"/>
		<polygon fill="#1A985C" points="-198.9,445.8 -199,445.7 -199,445.7 		"/>
		<polygon fill="#1A965B" points="-198.9,445.8 -199,445.7 -199,445.7 		"/>
		<polygon fill="#19955A" points="-199,445.8 -199,445.7 -199,445.7 -198.9,445.8 		"/>
		<polygon fill="#158E54" points="-199,445.8 -199.1,445.7 -199,445.7 		"/>
		<polygon fill="#148C53" points="-199,445.8 -199.1,445.7 -199.1,445.7 		"/>
		<polygon fill="#138B52" points="-199,445.8 -199.1,445.7 -199.1,445.7 		"/>
		<polygon fill="#138A51" points="-199,445.8 -199.1,445.7 -199.1,445.7 		"/>
		<polygon fill="#128850" points="-199,445.8 -199.1,445.7 -199.1,445.7 		"/>
		<polygon fill="#11874F" points="-199,445.8 -199.1,445.7 -199.1,445.7 		"/>
		<polygon fill="#10864F" points="-199,445.8 -199.1,445.7 -199.1,445.7 		"/>
		<polygon fill="#10854E" points="-199,445.8 -199.1,445.7 -199.1,445.7 		"/>
		<polygon fill="#0F834D" points="-199,445.8 -199.1,445.7 -199.1,445.7 		"/>
		<polygon fill="#0E824C" points="-199,445.8 -199.1,445.7 -199.1,445.7 		"/>
		<polygon fill="#0E814B" points="-199,445.8 -199.1,445.7 -199.1,445.7 		"/>
		<polygon fill="#0D804A" points="-199,445.8 -199.1,445.7 -199.1,445.7 		"/>
		<polygon fill="#0D7F49" points="-199.1,445.8 -199.1,445.7 -199.1,445.7 -199,445.8 		"/>
		<polygon fill="#097945" points="-199.1,445.8 -199.2,445.7 -199.1,445.7 		"/>
		<polygon fill="#097844" points="-199.1,445.8 -199.2,445.7 -199.2,445.7 		"/>
		<polygon fill="#087743" points="-199.1,445.8 -199.2,445.7 -199.2,445.7 		"/>
		<polygon fill="#087643" points="-199.1,445.8 -199.2,445.7 -199.2,445.7 		"/>
		<polygon fill="#077542" points="-199.1,445.8 -199.2,445.7 -199.2,445.7 		"/>
		<polygon fill="#077441" points="-199.1,445.8 -199.2,445.7 -199.2,445.7 		"/>
		<polygon fill="#067441" points="-199.1,445.8 -199.2,445.7 -199.2,445.7 		"/>
		<polygon fill="#067340" points="-199.1,445.8 -199.2,445.7 -199.2,445.7 		"/>
		<polygon fill="#067240" points="-199.1,445.8 -199.2,445.7 -199.2,445.7 		"/>
		<polygon fill="#05713F" points="-199.1,445.8 -199.2,445.7 -199.2,445.7 		"/>
		<polygon fill="#05713F" points="-199.1,445.8 -199.2,445.7 -199.2,445.7 		"/>
		<polygon fill="#04703E" points="-199.1,445.8 -199.2,445.7 -199.2,445.7 		"/>
		<polygon fill="#046F3E" points="-199.2,445.8 -199.2,445.7 -199.2,445.7 -199.1,445.8 		"/>
		<polygon fill="#036D3B" points="-199.2,445.8 -199.3,445.7 -199.2,445.7 		"/>
		<polygon fill="#026C3B" points="-199.2,445.8 -199.3,445.7 -199.3,445.7 		"/>
		<polygon fill="#026C3B" points="-199.2,445.8 -199.3,445.7 -199.3,445.7 		"/>
		<polygon fill="#026B3A" points="-199.2,445.8 -199.3,445.7 -199.3,445.7 		"/>
		<polygon fill="#026B3A" points="-199.2,445.8 -199.3,445.7 -199.3,445.7 		"/>
		<polygon fill="#016A3A" points="-199.2,445.8 -199.3,445.7 -199.3,445.7 		"/>
		<polygon fill="#016A3A" points="-199.2,445.8 -199.3,445.7 -199.3,445.7 		"/>
		<polygon fill="#016A39" points="-199.2,445.8 -199.3,445.8 -199.3,445.7 -199.3,445.7 		"/>
		<path fill="none" d="M-198.9,445.7c-0.1,0-0.3,0-0.4,0C-199.2,445.8-199,445.8-198.9,445.7z"/>
	</g>
	<g>
		<polygon fill="#168F56" points="-192.4,444.7 -192.6,444.6 -192.6,444.6 -192.4,444.6 		"/>
		<polygon fill="#158E54" points="-192.4,444.7 -192.6,444.6 -192.6,444.6 		"/>
		<polygon fill="#148C53" points="-192.4,444.7 -192.6,444.6 -192.6,444.6 		"/>
		<polygon fill="#138B52" points="-192.4,444.7 -192.6,444.6 -192.6,444.6 		"/>
		<polygon fill="#138A51" points="-192.4,444.7 -192.6,444.6 -192.6,444.6 		"/>
		<polygon fill="#128850" points="-192.4,444.7 -192.6,444.6 -192.6,444.6 		"/>
		<polygon fill="#11874F" points="-192.4,444.7 -192.6,444.6 -192.6,444.6 		"/>
		<polygon fill="#10864F" points="-192.4,444.7 -192.6,444.6 -192.6,444.6 		"/>
		<polygon fill="#10854E" points="-192.5,444.7 -192.6,444.6 -192.6,444.6 -192.4,444.7 		"/>
		<polygon fill="#0F834D" points="-192.5,444.7 -192.6,444.6 -192.6,444.6 		"/>
		<polygon fill="#0E824C" points="-192.5,444.7 -192.6,444.6 -192.6,444.6 		"/>
		<polygon fill="#0E814B" points="-192.5,444.7 -192.6,444.6 -192.6,444.6 		"/>
		<polygon fill="#0D804A" points="-192.5,444.7 -192.6,444.6 -192.6,444.6 		"/>
		<polygon fill="#0D7F49" points="-192.5,444.7 -192.6,444.6 -192.6,444.6 		"/>
		<polygon fill="#0C7E48" points="-192.5,444.7 -192.7,444.6 -192.6,444.6 		"/>
		<polygon fill="#0B7D48" points="-192.5,444.7 -192.7,444.6 -192.7,444.6 		"/>
		<polygon fill="#0B7C47" points="-192.5,444.7 -192.7,444.6 -192.7,444.6 		"/>
		<polygon fill="#0A7B46" points="-192.5,444.7 -192.7,444.6 -192.7,444.6 		"/>
		<polygon fill="#0A7A45" points="-192.5,444.7 -192.7,444.6 -192.7,444.6 		"/>
		<polygon fill="#097945" points="-192.5,444.7 -192.7,444.6 -192.7,444.6 		"/>
		<polygon fill="#097844" points="-192.5,444.7 -192.7,444.6 -192.7,444.6 		"/>
		<polygon fill="#087743" points="-192.5,444.7 -192.7,444.6 -192.7,444.6 		"/>
		<polygon fill="#087643" points="-192.5,444.7 -192.7,444.6 -192.7,444.6 		"/>
		<polygon fill="#077542" points="-192.6,444.7 -192.7,444.6 -192.7,444.6 -192.5,444.7 		"/>
		<polygon fill="#077441" points="-192.6,444.7 -192.7,444.6 -192.7,444.6 		"/>
		<polygon fill="#067441" points="-192.6,444.7 -192.7,444.6 -192.7,444.6 		"/>
		<polygon fill="#067340" points="-192.6,444.7 -192.7,444.6 -192.7,444.6 		"/>
		<polygon fill="#067240" points="-192.6,444.7 -192.7,444.6 -192.7,444.6 		"/>
		<polygon fill="#05713F" points="-192.6,444.7 -192.7,444.6 -192.7,444.6 		"/>
		<polygon fill="#05713F" points="-192.6,444.7 -192.8,444.6 -192.7,444.6 		"/>
		<polygon fill="#04703E" points="-192.6,444.7 -192.8,444.6 -192.8,444.6 		"/>
		<polygon fill="#046F3E" points="-192.6,444.7 -192.8,444.6 -192.8,444.6 -192.8,444.6 		"/>
		<polygon fill="#046F3D" points="-192.6,444.7 -192.8,444.6 -192.8,444.6 		"/>
		<polygon fill="#036E3D" points="-192.6,444.7 -192.8,444.6 -192.8,444.6 		"/>
		<polygon fill="#036E3C" points="-192.6,444.7 -192.8,444.6 -192.8,444.6 		"/>
		<polygon fill="#036D3C" points="-192.6,444.7 -192.8,444.6 -192.8,444.6 		"/>
		<polygon fill="#036D3B" points="-192.6,444.7 -192.8,444.6 -192.8,444.6 		"/>
		<polygon fill="#026C3B" points="-192.6,444.7 -192.8,444.6 -192.8,444.6 		"/>
		<polygon fill="#026C3B" points="-192.7,444.7 -192.8,444.6 -192.8,444.6 -192.6,444.7 		"/>
		<polygon fill="#026B3A" points="-192.7,444.7 -192.8,444.6 -192.8,444.6 		"/>
		<polygon fill="#026B3A" points="-192.7,444.7 -192.8,444.6 -192.8,444.6 		"/>
		<polygon fill="#016A3A" points="-192.7,444.7 -192.8,444.6 -192.8,444.6 		"/>
		<polygon fill="#016A3A" points="-192.7,444.7 -192.8,444.6 -192.8,444.6 		"/>
		<polygon fill="#016A39" points="-192.7,444.7 -192.8,444.6 -192.8,444.6 		"/>
		<polygon fill="#016939" points="-192.7,444.7 -192.8,444.6 -192.8,444.6 		"/>
		<polygon fill="#016939" points="-192.7,444.7 -192.8,444.6 -192.8,444.6 		"/>
		<polygon fill="#016939" points="-192.7,444.7 -192.8,444.6 -192.8,444.6 		"/>
		<polygon fill="#006939" points="-192.7,444.7 -192.8,444.6 -192.8,444.6 		"/>
		<polygon fill="#006938" points="-192.7,444.7 -192.8,444.6 -192.8,444.6 		"/>
		<polygon fill="#006838" points="-192.7,444.7 -192.8,444.6 -192.8,444.6 		"/>
		<polygon fill="#006838" points="-192.7,444.7 -192.8,444.6 -192.8,444.6 		"/>
		<polygon fill="#006838" points="-192.7,444.7 -192.8,444.6 -192.8,444.6 		"/>
		<polygon fill="#006838" points="-192.7,444.7 -192.8,444.6 -192.8,444.6 		"/>
		<polygon fill="#006838" points="-192.8,444.7 -192.8,444.6 -192.8,444.6 -192.7,444.7 		"/>
		<path fill="none" d="M-192.4,444.6c-0.1,0-0.2,0.1-0.4,0.1C-192.6,444.6-192.5,444.6-192.4,444.6z"/>
	</g>
	<g>
		<polygon fill="#26AC6C" points="-201.2,446 -201.3,445.9 -201.3,445.9 -201.2,445.9 		"/>
		<polygon fill="#25AB6A" points="-201.2,446 -201.3,445.9 -201.3,445.9 		"/>
		<polygon fill="#24A969" points="-201.3,446 -201.3,445.9 -201.3,445.9 -201.2,446 		"/>
		<polygon fill="#168F56" points="-201.3,446 -201.4,445.9 -201.3,445.9 		"/>
		<polygon fill="#158E54" points="-201.3,446 -201.4,445.9 -201.4,445.9 		"/>
		<polygon fill="#148C53" points="-201.3,446 -201.4,445.9 -201.4,445.9 		"/>
		<polygon fill="#138B52" points="-201.3,446 -201.4,445.9 -201.4,445.9 		"/>
		<polygon fill="#138A51" points="-201.3,446 -201.4,445.9 -201.4,445.9 		"/>
		<polygon fill="#128850" points="-201.3,446 -201.4,445.9 -201.4,445.9 		"/>
		<polygon fill="#11874F" points="-201.4,446 -201.4,445.9 -201.4,445.9 -201.3,446 		"/>
		<polygon fill="#087743" points="-201.4,446 -201.5,445.9 -201.4,445.9 		"/>
		<polygon fill="#087643" points="-201.4,446 -201.5,445.9 -201.5,445.9 		"/>
		<polygon fill="#077542" points="-201.4,446 -201.5,445.9 -201.5,445.9 		"/>
		<polygon fill="#077441" points="-201.4,446 -201.5,445.9 -201.5,445.9 		"/>
		<polygon fill="#067441" points="-201.4,446 -201.5,445.9 -201.5,445.9 		"/>
		<polygon fill="#067340" points="-201.4,446 -201.5,445.9 -201.5,445.9 		"/>
		<polygon fill="#067240" points="-201.5,446 -201.5,445.9 -201.5,445.9 -201.4,446 		"/>
		<polygon fill="#016A39" points="-201.5,446 -201.6,445.9 -201.5,445.9 		"/>
		<polygon fill="#016939" points="-201.5,446 -201.6,445.9 -201.6,445.9 		"/>
		<polygon fill="#016939" points="-201.5,446 -201.6,445.9 -201.6,445.9 		"/>
		<polygon fill="#016939" points="-201.5,446 -201.6,445.9 -201.6,445.9 		"/>
		<polygon fill="#006939" points="-201.5,446 -201.6,445.9 -201.6,445.9 		"/>
		<polygon fill="#006938" points="-201.6,446 -201.6,445.9 -201.6,445.9 -201.5,446 		"/>
		<polygon fill="#006838" points="-201.6,446 -201.6,446 -201.6,445.9 -201.2,445.9 -201.2,446 		"/>
	</g>
	<g>
		<path fill="#2766CB" d="M-203.7,446c0.7,0,1.4,0,2.1-0.1c0.1,0,0.2,0,0.3,0c0.7,0,1.3-0.1,2-0.1c0.1,0,0.3,0,0.4,0
			c0.7-0.1,1.3-0.2,2-0.2h0.2c0.6-0.1,1.2-0.2,1.9-0.3h0.2c0.6-0.1,1.3-0.3,1.9-0.4c0.1,0,0.2-0.1,0.4-0.1c0.6-0.2,1.2-0.3,1.8-0.5
			c0.1,0,0.2-0.1,0.3-0.1c0.6-0.2,1.2-0.4,1.8-0.6h0.1c0.6-0.2,1.2-0.5,1.8-0.7c0.1,0,0.2-0.1,0.3-0.1c0.6-0.2,1.1-0.5,1.7-0.8
			c0.1-0.1,0.2-0.1,0.3-0.2c0.6-0.3,1.1-0.6,1.7-0.9l0.1-0.1c0.5-0.3,1.1-0.6,1.6-0.9l0.2-0.1c0.5-0.3,1.1-0.7,1.6-1
			c0.1-0.1,0.2-0.1,0.3-0.2c0.5-0.3,1-0.7,1.5-1.1l0.2-0.2c0.5-0.4,1-0.8,1.5-1.1l0.1-0.1c0.5-0.4,1-0.8,1.4-1.2l0.3-0.2
			c0.5-0.4,0.9-0.8,1.3-1.3l0.2-0.2c0.4-0.4,0.9-0.9,1.3-1.4l0.1-0.1c0.4-0.5,0.8-0.9,1.2-1.4l0.2-0.2c6.3-7.7,10.1-17.5,10.1-28.1
			c0-24.5-19.9-44.3-44.3-44.3c-24.5-0.4-44.4,19.5-44.4,44S-228.1,446-203.7,446z"/>
	</g>
	<g>
		<polygon fill="#1FA062" points="-196.8,445.5 -196.7,445.5 -196.7,445.5 		"/>
		<polygon fill="#1E9E61" points="-196.8,445.5 -196.7,445.5 -196.7,445.5 		"/>
		<polygon fill="#1D9D60" points="-196.8,445.5 -196.7,445.5 -196.7,445.5 		"/>
		<polygon fill="#1C9B5F" points="-196.8,445.5 -196.7,445.5 -196.7,445.5 		"/>
		<polygon fill="#1B9A5D" points="-196.8,445.5 -196.7,445.5 -196.7,445.5 		"/>
		<polygon fill="#026C3B" points="-197,445.5 -196.9,445.5 -196.9,445.5 		"/>
		<polygon fill="#026B3A" points="-197,445.5 -196.9,445.5 -196.9,445.5 		"/>
		<polygon fill="#026B3A" points="-197,445.5 -196.9,445.5 -196.9,445.5 		"/>
		<polygon fill="#016A3A" points="-197,445.5 -196.9,445.5 -196.9,445.5 		"/>
	</g>
	<g>
		<polygon fill="#1E9E61" points="-190.3,444 -190.4,443.9 -190.3,443.9 		"/>
		<polygon fill="#1D9D60" points="-190.3,444 -190.4,443.9 -190.4,443.9 		"/>
		<polygon fill="#1C9B5F" points="-190.3,444 -190.4,443.9 -190.4,443.9 		"/>
		<polygon fill="#1B9A5D" points="-190.3,444 -190.4,443.9 -190.4,443.9 		"/>
		<polygon fill="#1A985C" points="-190.3,444 -190.4,443.9 -190.4,443.9 		"/>
		<polygon fill="#1A965B" points="-190.3,444 -190.4,443.9 -190.4,443.9 		"/>
		<polygon fill="#19955A" points="-190.3,444 -190.4,443.9 -190.4,443.9 		"/>
		<polygon fill="#189359" points="-190.3,444 -190.4,443.9 -190.4,443.9 		"/>
		<polygon fill="#179258" points="-190.3,444 -190.4,443.9 -190.4,443.9 		"/>
		<polygon fill="#169057" points="-190.3,444 -190.4,443.9 -190.4,443.9 		"/>
		<polygon fill="#168F56" points="-190.3,444 -190.4,443.9 -190.4,443.9 		"/>
		<polygon fill="#158E54" points="-190.3,444 -190.4,443.9 -190.4,443.9 		"/>
		<polygon fill="#148C53" points="-190.3,444 -190.4,443.9 -190.4,443.9 		"/>
		<polygon fill="#138B52" points="-190.3,444 -190.4,443.9 -190.4,443.9 		"/>
		<polygon fill="#138A51" points="-190.3,444 -190.4,443.9 -190.4,443.9 -190.3,444 		"/>
		<polygon fill="#128850" points="-190.3,444 -190.4,443.9 -190.4,443.9 		"/>
		<polygon fill="#11874F" points="-190.3,444 -190.4,443.9 -190.4,443.9 		"/>
		<polygon fill="#10864F" points="-190.3,444 -190.5,443.9 -190.4,443.9 		"/>
		<polygon fill="#10854E" points="-190.3,444 -190.5,443.9 -190.5,443.9 		"/>
		<polygon fill="#0F834D" points="-190.3,444 -190.5,443.9 -190.5,443.9 		"/>
		<polygon fill="#0E824C" points="-190.3,444 -190.5,443.9 -190.5,443.9 		"/>
		<polygon fill="#0E814B" points="-190.3,444 -190.5,443.9 -190.5,443.9 		"/>
		<polygon fill="#0D804A" points="-190.3,444 -190.5,443.9 -190.5,443.9 		"/>
		<polygon fill="#0D7F49" points="-190.3,444 -190.5,443.9 -190.5,443.9 		"/>
		<polygon fill="#0C7E48" points="-190.3,444 -190.5,443.9 -190.5,443.9 		"/>
		<polygon fill="#0B7D48" points="-190.3,444 -190.5,443.9 -190.5,443.9 		"/>
		<polygon fill="#0B7C47" points="-190.3,444 -190.5,443.9 -190.5,443.9 		"/>
		<polygon fill="#0A7B46" points="-190.4,444 -190.5,443.9 -190.5,443.9 -190.3,444 		"/>
		<polygon fill="#0A7A45" points="-190.4,444 -190.5,443.9 -190.5,443.9 		"/>
		<polygon fill="#097945" points="-190.4,444 -190.5,443.9 -190.5,443.9 		"/>
		<polygon fill="#097844" points="-190.4,444 -190.5,443.9 -190.5,443.9 		"/>
		<polygon fill="#087743" points="-190.4,444 -190.5,443.9 -190.5,443.9 		"/>
		<polygon fill="#087643" points="-190.4,444 -190.5,443.9 -190.5,443.9 		"/>
		<polygon fill="#077542" points="-190.4,444 -190.5,443.9 -190.5,443.9 		"/>
		<polygon fill="#077441" points="-190.4,444 -190.6,443.9 -190.5,443.9 		"/>
		<polygon fill="#067441" points="-190.4,444 -190.6,443.9 -190.6,443.9 		"/>
		<polygon fill="#067340" points="-190.4,444 -190.6,443.9 -190.6,443.9 		"/>
		<polygon fill="#067240" points="-190.4,444 -190.6,443.9 -190.6,443.9 -190.6,443.9 		"/>
		<polygon fill="#05713F" points="-190.4,444 -190.6,444 -190.6,443.9 		"/>
		<path fill="none" d="M-190.3,443.9c-0.1,0-0.2,0.1-0.3,0.1C-190.5,444-190.4,444-190.3,443.9z"/>
	</g>
	<g>
		<polygon fill="#2BB673" points="-180.6,439.5 -180.6,439.5 -180.6,439.7 -180.8,439.7 -180.8,439.5 		"/>
		<polygon fill="#20A264" points="-180.6,439.6 -180.7,439.5 -180.6,439.5 		"/>
		<polygon fill="#1FA062" points="-180.6,439.6 -180.7,439.5 -180.7,439.5 		"/>
		<polygon fill="#1E9E61" points="-180.6,439.6 -180.7,439.5 -180.7,439.5 		"/>
		<polygon fill="#1D9D60" points="-180.6,439.6 -180.7,439.5 -180.7,439.5 		"/>
		<polygon fill="#1C9B5F" points="-180.6,439.6 -180.7,439.5 -180.7,439.5 		"/>
		<polygon fill="#1B9A5D" points="-180.6,439.6 -180.7,439.5 -180.7,439.5 		"/>
		<polygon fill="#1A985C" points="-180.6,439.6 -180.7,439.5 -180.7,439.5 		"/>
		<polygon fill="#1A965B" points="-180.6,439.6 -180.7,439.5 -180.7,439.5 		"/>
		<polygon fill="#19955A" points="-180.6,439.6 -180.7,439.5 -180.7,439.5 		"/>
		<polygon fill="#189359" points="-180.6,439.6 -180.7,439.5 -180.7,439.5 		"/>
		<polygon fill="#179258" points="-180.6,439.6 -180.7,439.5 -180.7,439.5 		"/>
		<polygon fill="#169057" points="-180.6,439.6 -180.7,439.5 -180.7,439.5 		"/>
		<polygon fill="#168F56" points="-180.6,439.6 -180.7,439.5 -180.7,439.5 		"/>
		<polygon fill="#158E54" points="-180.6,439.6 -180.7,439.5 -180.7,439.5 		"/>
		<polygon fill="#148C53" points="-180.6,439.6 -180.7,439.5 -180.7,439.5 		"/>
		<polygon fill="#138B52" points="-180.6,439.6 -180.7,439.5 -180.7,439.5 		"/>
		<polygon fill="#138A51" points="-180.6,439.6 -180.7,439.5 -180.7,439.5 		"/>
		<polygon fill="#128850" points="-180.6,439.6 -180.8,439.5 -180.7,439.5 		"/>
		<polygon fill="#11874F" points="-180.6,439.6 -180.8,439.5 -180.8,439.5 		"/>
		<polygon fill="#10864F" points="-180.6,439.6 -180.8,439.5 -180.8,439.5 		"/>
		<polygon fill="#10854E" points="-180.6,439.6 -180.8,439.5 -180.8,439.5 		"/>
		<polygon fill="#0F834D" points="-180.6,439.6 -180.8,439.5 -180.8,439.5 		"/>
		<polygon fill="#0E824C" points="-180.6,439.7 -180.8,439.5 -180.8,439.5 -180.6,439.6 		"/>
		<polygon fill="#0E814B" points="-180.6,439.7 -180.8,439.5 -180.8,439.5 		"/>
		<polygon fill="#0D804A" points="-180.6,439.7 -180.8,439.5 -180.8,439.5 		"/>
		<polygon fill="#0D7F49" points="-180.6,439.7 -180.8,439.5 -180.8,439.5 		"/>
		<polygon fill="#0C7E48" points="-180.6,439.7 -180.8,439.5 -180.8,439.5 		"/>
		<polygon fill="#0B7D48" points="-180.6,439.7 -180.8,439.5 -180.8,439.5 -180.8,439.5 		"/>
		<polygon fill="#0B7C47" points="-180.6,439.7 -180.8,439.5 -180.8,439.5 -180.6,439.7 		"/>
		<polygon fill="#0A7B46" points="-180.6,439.7 -180.8,439.5 -180.8,439.5 		"/>
		<polygon fill="#0A7A45" points="-180.6,439.7 -180.8,439.5 -180.8,439.5 		"/>
		<polygon fill="#097945" points="-180.6,439.7 -180.8,439.6 -180.8,439.5 		"/>
		<polygon fill="#097844" points="-180.6,439.7 -180.8,439.6 -180.8,439.6 		"/>
		<polygon fill="#087743" points="-180.6,439.7 -180.8,439.6 -180.8,439.6 		"/>
		<polygon fill="#087643" points="-180.6,439.7 -180.8,439.6 -180.8,439.6 		"/>
		<polygon fill="#077542" points="-180.6,439.7 -180.8,439.6 -180.8,439.6 		"/>
		<polygon fill="#077441" points="-180.6,439.7 -180.8,439.6 -180.8,439.6 		"/>
		<polygon fill="#067441" points="-180.6,439.7 -180.8,439.6 -180.8,439.6 		"/>
		<polygon fill="#067340" points="-180.6,439.7 -180.8,439.6 -180.8,439.6 		"/>
		<polygon fill="#067240" points="-180.6,439.7 -180.8,439.6 -180.8,439.6 		"/>
		<polygon fill="#05713F" points="-180.7,439.7 -180.8,439.6 -180.8,439.6 -180.6,439.7 		"/>
		<polygon fill="#05713F" points="-180.7,439.7 -180.8,439.6 -180.8,439.6 		"/>
		<polygon fill="#04703E" points="-180.7,439.7 -180.8,439.6 -180.8,439.6 		"/>
		<polygon fill="#046F3E" points="-180.7,439.7 -180.8,439.6 -180.8,439.6 		"/>
		<polygon fill="#046F3D" points="-180.7,439.7 -180.8,439.6 -180.8,439.6 		"/>
		<polygon fill="#036E3D" points="-180.7,439.7 -180.8,439.6 -180.8,439.6 		"/>
		<polygon fill="#036E3C" points="-180.7,439.7 -180.8,439.6 -180.8,439.6 		"/>
		<polygon fill="#036D3C" points="-180.7,439.7 -180.8,439.6 -180.8,439.6 		"/>
		<polygon fill="#036D3B" points="-180.7,439.7 -180.8,439.6 -180.8,439.6 		"/>
		<polygon fill="#026C3B" points="-180.7,439.7 -180.8,439.6 -180.8,439.6 		"/>
		<polygon fill="#026C3B" points="-180.7,439.7 -180.8,439.6 -180.8,439.6 		"/>
		<polygon fill="#026B3A" points="-180.7,439.7 -180.8,439.6 -180.8,439.6 		"/>
		<polygon fill="#026B3A" points="-180.7,439.7 -180.8,439.6 -180.8,439.6 		"/>
		<polygon fill="#016A3A" points="-180.7,439.7 -180.8,439.6 -180.8,439.6 		"/>
		<polygon fill="#016A3A" points="-180.7,439.7 -180.8,439.6 -180.8,439.6 		"/>
		<polygon fill="#016A39" points="-180.7,439.7 -180.8,439.6 -180.8,439.6 		"/>
		<polygon fill="#016939" points="-180.7,439.7 -180.8,439.6 -180.8,439.6 		"/>
		<polygon fill="#016939" points="-180.8,439.7 -180.8,439.6 -180.8,439.6 -180.7,439.7 		"/>
		<path fill="none" d="M-180.6,439.5l-0.2,0.1L-180.6,439.5z"/>
	</g>
	<g>
		<polygon fill="#20A264" points="-182.5,440.6 -182.4,440.6 -182.4,440.6 		"/>
		<polygon fill="#1FA062" points="-182.5,440.6 -182.4,440.6 -182.4,440.6 		"/>
		<polygon fill="#1E9E61" points="-182.5,440.6 -182.4,440.6 -182.4,440.6 		"/>
		<polygon fill="#1D9D60" points="-182.5,440.6 -182.4,440.6 -182.4,440.6 		"/>
		<polygon fill="#1C9B5F" points="-182.5,440.6 -182.4,440.6 -182.4,440.6 		"/>
		<polygon fill="#1B9A5D" points="-182.5,440.6 -182.4,440.6 -182.4,440.6 		"/>
		<polygon fill="#1A985C" points="-182.5,440.6 -182.4,440.6 -182.4,440.6 		"/>
		<polygon fill="#1A965B" points="-182.5,440.6 -182.4,440.6 -182.4,440.6 		"/>
		<polygon fill="#19955A" points="-182.5,440.6 -182.4,440.6 -182.4,440.6 		"/>
		<polygon fill="#189359" points="-182.5,440.6 -182.4,440.6 -182.4,440.6 		"/>
		<polygon fill="#179258" points="-182.5,440.6 -182.4,440.6 -182.4,440.6 		"/>
		<polygon fill="#169057" points="-182.5,440.6 -182.4,440.6 -182.4,440.6 		"/>
		<polygon fill="#168F56" points="-182.5,440.6 -182.4,440.6 -182.4,440.6 		"/>
		<polygon fill="#158E54" points="-182.5,440.6 -182.4,440.6 -182.4,440.6 		"/>
		<polygon fill="#148C53" points="-182.5,440.6 -182.4,440.6 -182.4,440.6 		"/>
		<polygon fill="#138B52" points="-182.5,440.6 -182.4,440.6 -182.4,440.6 		"/>
		<polygon fill="#138A51" points="-182.5,440.6 -182.4,440.6 -182.4,440.6 		"/>
		<polygon fill="#128850" points="-182.5,440.6 -182.4,440.6 -182.4,440.6 		"/>
		<polygon fill="#11874F" points="-182.5,440.6 -182.4,440.6 -182.4,440.6 		"/>
		<polygon fill="#10864F" points="-182.5,440.6 -182.4,440.6 -182.4,440.6 		"/>
		<polygon fill="#10854E" points="-182.5,440.6 -182.4,440.6 -182.4,440.6 		"/>
		<polygon fill="#0F834D" points="-182.5,440.6 -182.4,440.6 -182.4,440.6 		"/>
		<polygon fill="#0E824C" points="-182.5,440.6 -182.4,440.6 -182.4,440.6 		"/>
		<polygon fill="#0E814B" points="-182.5,440.6 -182.4,440.6 -182.4,440.6 		"/>
		<polygon fill="#0D804A" points="-182.5,440.6 -182.3,440.7 -182.3,440.7 		"/>
		<polygon fill="#0D7F49" points="-182.5,440.6 -182.3,440.7 -182.3,440.7 		"/>
		<polygon fill="#0C7E48" points="-182.6,440.5 -182.4,440.6 -182.4,440.6 		"/>
		<polygon fill="#0B7D48" points="-182.4,440.7 -182.5,440.6 -182.5,440.6 -182.4,440.7 		"/>
		<polygon fill="#0B7C47" points="-182.4,440.7 -182.5,440.6 -182.5,440.6 -182.5,440.6 		"/>
		<polygon fill="#0A7B46" points="-182.6,440.5 -182.4,440.6 -182.4,440.6 		"/>
		<polygon fill="#0A7A45" points="-182.6,440.5 -182.4,440.6 -182.4,440.6 		"/>
		<polygon fill="#097945" points="-182.6,440.5 -182.5,440.6 -182.5,440.6 		"/>
		<polygon fill="#097844" points="-182.6,440.5 -182.5,440.6 -182.5,440.6 		"/>
		<polygon fill="#087743" points="-182.6,440.5 -182.5,440.6 -182.5,440.6 		"/>
		<polygon fill="#087643" points="-182.6,440.5 -182.5,440.6 -182.5,440.6 		"/>
		<polygon fill="#077542" points="-182.6,440.5 -182.5,440.6 -182.5,440.6 		"/>
		<polygon fill="#077441" points="-182.6,440.6 -182.5,440.6 -182.5,440.6 		"/>
		<polygon fill="#067441" points="-182.6,440.6 -182.5,440.6 -182.5,440.6 		"/>
		<polygon fill="#067340" points="-182.6,440.6 -182.5,440.6 -182.5,440.6 		"/>
		<polygon fill="#067240" points="-182.6,440.6 -182.5,440.6 -182.5,440.6 		"/>
		<polygon fill="#05713F" points="-182.6,440.6 -182.5,440.6 -182.5,440.6 		"/>
		<polygon fill="#05713F" points="-182.6,440.6 -182.5,440.6 -182.5,440.6 		"/>
		<polygon fill="#04703E" points="-182.6,440.6 -182.5,440.6 -182.5,440.6 		"/>
		<polygon fill="#046F3E" points="-182.6,440.6 -182.5,440.6 -182.5,440.6 		"/>
		<polygon fill="#046F3D" points="-182.6,440.6 -182.5,440.6 -182.5,440.6 		"/>
		<polygon fill="#036E3D" points="-182.6,440.6 -182.5,440.6 -182.5,440.6 		"/>
		<polygon fill="#036E3C" points="-182.6,440.6 -182.5,440.6 -182.5,440.6 		"/>
		<polygon fill="#036D3C" points="-182.6,440.6 -182.5,440.6 -182.5,440.6 		"/>
		<polygon fill="#036D3B" points="-182.6,440.6 -182.5,440.6 -182.5,440.6 		"/>
		<polygon fill="#026C3B" points="-182.6,440.7 -182.5,440.7 -182.5,440.7 		"/>
		<polygon fill="#026C3B" points="-182.6,440.7 -182.5,440.7 -182.5,440.7 		"/>
		<polygon fill="#026B3A" points="-182.6,440.7 -182.5,440.7 -182.5,440.7 		"/>
		<polygon fill="#026B3A" points="-182.6,440.7 -182.5,440.7 -182.5,440.7 		"/>
		<polygon fill="#016A3A" points="-182.6,440.7 -182.5,440.7 -182.5,440.7 		"/>
		<polygon fill="#016A3A" points="-182.6,440.7 -182.5,440.7 -182.5,440.7 		"/>
		<path fill="none" d="M-182.4,440.6l-0.1,0.1L-182.4,440.6z"/>
	</g>
	<g>
		<polygon fill="#29B270" points="-184.2,441.6 -184.3,441.5 -184.3,441.5 -184.2,441.5 		"/>
		<polygon fill="#28B06F" points="-184.2,441.6 -184.3,441.5 -184.3,441.5 		"/>
		<polygon fill="#27AE6D" points="-184.2,441.6 -184.3,441.5 -184.3,441.5 		"/>
		<polygon fill="#26AC6C" points="-184.2,441.6 -184.3,441.5 -184.3,441.5 		"/>
		<polygon fill="#25AB6A" points="-184.2,441.6 -184.3,441.5 -184.3,441.5 		"/>
		<polygon fill="#24A969" points="-184.2,441.6 -184.3,441.5 -184.3,441.5 		"/>
		<polygon fill="#23A768" points="-184.2,441.6 -184.3,441.5 -184.3,441.5 		"/>
		<polygon fill="#22A566" points="-184.2,441.6 -184.3,441.5 -184.3,441.5 		"/>
		<polygon fill="#21A365" points="-184.2,441.6 -184.3,441.5 -184.3,441.5 		"/>
		<polygon fill="#20A264" points="-184.2,441.6 -184.3,441.5 -184.3,441.5 		"/>
		<polygon fill="#1FA062" points="-184.2,441.6 -184.3,441.5 -184.3,441.5 		"/>
		<polygon fill="#1E9E61" points="-184.2,441.6 -184.3,441.5 -184.3,441.5 		"/>
		<polygon fill="#1D9D60" points="-184.2,441.6 -184.4,441.5 -184.3,441.5 		"/>
		<polygon fill="#1C9B5F" points="-184.2,441.6 -184.4,441.5 -184.4,441.5 		"/>
		<polygon fill="#1B9A5D" points="-184.2,441.6 -184.4,441.5 -184.4,441.5 		"/>
		<polygon fill="#1A985C" points="-184.2,441.6 -184.4,441.5 -184.4,441.5 		"/>
		<polygon fill="#1A965B" points="-184.2,441.6 -184.4,441.5 -184.4,441.5 		"/>
		<polygon fill="#19955A" points="-184.2,441.6 -184.4,441.5 -184.4,441.5 		"/>
		<polygon fill="#189359" points="-184.2,441.6 -184.4,441.5 -184.4,441.5 		"/>
		<polygon fill="#179258" points="-184.2,441.6 -184.4,441.5 -184.4,441.5 		"/>
		<polygon fill="#169057" points="-184.2,441.6 -184.4,441.5 -184.4,441.5 		"/>
		<polygon fill="#168F56" points="-184.2,441.6 -184.4,441.5 -184.4,441.5 		"/>
		<polygon fill="#158E54" points="-184.2,441.6 -184.4,441.5 -184.4,441.5 		"/>
		<polygon fill="#148C53" points="-184.2,441.7 -184.4,441.5 -184.4,441.5 -184.2,441.6 		"/>
		<polygon fill="#138B52" points="-184.2,441.7 -184.4,441.5 -184.4,441.5 		"/>
		<polygon fill="#138A51" points="-184.2,441.7 -184.5,441.5 -184.4,441.5 		"/>
		<polygon fill="#128850" points="-184.2,441.7 -184.5,441.5 -184.5,441.5 		"/>
		<polygon fill="#11874F" points="-184.2,441.7 -184.5,441.5 -184.5,441.5 		"/>
		<polygon fill="#10864F" points="-184.2,441.7 -184.5,441.5 -184.5,441.5 		"/>
		<polygon fill="#10854E" points="-184.2,441.7 -184.5,441.5 -184.5,441.5 		"/>
		<polygon fill="#0F834D" points="-184.2,441.7 -184.5,441.5 -184.5,441.5 		"/>
		<polygon fill="#0E824C" points="-184.2,441.7 -184.5,441.5 -184.5,441.5 		"/>
		<polygon fill="#0E814B" points="-184.2,441.7 -184.5,441.5 -184.5,441.5 		"/>
		<polygon fill="#0D804A" points="-184.2,441.7 -184.5,441.5 -184.5,441.5 -184.2,441.7 		"/>
		<polygon fill="#0D7F49" points="-184.3,441.7 -184.5,441.5 -184.5,441.5 -184.2,441.7 		"/>
		<polygon fill="#0C7E48" points="-184.3,441.7 -184.5,441.5 -184.5,441.5 		"/>
		<polygon fill="#0B7D48" points="-184.3,441.7 -184.5,441.5 -184.5,441.5 		"/>
		<polygon fill="#0B7C47" points="-184.3,441.7 -184.5,441.5 -184.5,441.5 		"/>
		<polygon fill="#0A7B46" points="-184.3,441.7 -184.6,441.5 -184.5,441.5 		"/>
		<polygon fill="#0A7A45" points="-184.3,441.7 -184.6,441.5 -184.6,441.5 		"/>
		<polygon fill="#097945" points="-184.3,441.7 -184.6,441.5 -184.6,441.5 -184.6,441.5 		"/>
		<polygon fill="#097844" points="-184.3,441.7 -184.6,441.5 -184.6,441.5 		"/>
		<polygon fill="#087743" points="-184.3,441.7 -184.6,441.5 -184.6,441.5 		"/>
		<polygon fill="#087643" points="-184.3,441.7 -184.6,441.6 -184.6,441.5 		"/>
		<polygon fill="#077542" points="-184.3,441.7 -184.6,441.6 -184.6,441.6 		"/>
		<polygon fill="#077441" points="-184.3,441.7 -184.6,441.6 -184.6,441.6 		"/>
		<polygon fill="#067441" points="-184.3,441.7 -184.6,441.6 -184.6,441.6 		"/>
		<polygon fill="#067340" points="-184.4,441.7 -184.6,441.6 -184.6,441.6 -184.3,441.7 		"/>
		<polygon fill="#067240" points="-184.4,441.7 -184.6,441.6 -184.6,441.6 		"/>
		<polygon fill="#05713F" points="-184.4,441.7 -184.6,441.6 -184.6,441.6 		"/>
		<polygon fill="#05713F" points="-184.4,441.7 -184.6,441.6 -184.6,441.6 		"/>
		<polygon fill="#04703E" points="-184.4,441.7 -184.6,441.6 -184.6,441.6 		"/>
		<polygon fill="#046F3E" points="-184.4,441.7 -184.6,441.6 -184.6,441.6 		"/>
		<polygon fill="#046F3D" points="-184.4,441.7 -184.6,441.6 -184.6,441.6 		"/>
		<polygon fill="#036E3D" points="-184.4,441.7 -184.6,441.6 -184.6,441.6 		"/>
		<polygon fill="#036E3C" points="-184.4,441.7 -184.6,441.6 -184.6,441.6 		"/>
		<polygon fill="#036D3C" points="-184.4,441.7 -184.6,441.6 -184.6,441.6 		"/>
		<polygon fill="#036D3B" points="-184.4,441.7 -184.6,441.6 -184.6,441.6 		"/>
		<polygon fill="#026C3B" points="-184.4,441.7 -184.6,441.6 -184.6,441.6 		"/>
		<polygon fill="#026C3B" points="-184.4,441.7 -184.6,441.6 -184.6,441.6 		"/>
		<polygon fill="#026B3A" points="-184.4,441.7 -184.6,441.6 -184.6,441.6 		"/>
		<polygon fill="#026B3A" points="-184.5,441.7 -184.6,441.6 -184.6,441.6 -184.4,441.7 		"/>
		<polygon fill="#016A3A" points="-184.5,441.7 -184.6,441.6 -184.6,441.6 		"/>
		<polygon fill="#016A3A" points="-184.5,441.7 -184.6,441.6 -184.6,441.6 		"/>
		<polygon fill="#016A39" points="-184.5,441.7 -184.6,441.6 -184.6,441.6 		"/>
		<polygon fill="#016939" points="-184.5,441.7 -184.6,441.6 -184.6,441.6 		"/>
		<polygon fill="#016939" points="-184.5,441.7 -184.6,441.7 -184.6,441.6 		"/>
		<path fill="none" d="M-184.2,441.5c-0.1,0.1-0.2,0.1-0.3,0.2C-184.5,441.6-184.3,441.6-184.2,441.5z"/>
	</g>
	<g>
		<polygon fill="#2BB673" points="-186.3,442.5 -186.3,442.5 -186.3,442.6 -186.6,442.6 -186.6,442.5 		"/>
		<polygon fill="#169057" points="-186.3,442.6 -186.4,442.5 -186.4,442.5 -186.3,442.5 		"/>
		<polygon fill="#168F56" points="-186.3,442.6 -186.4,442.5 -186.4,442.5 		"/>
		<polygon fill="#158E54" points="-186.3,442.6 -186.4,442.5 -186.4,442.5 		"/>
		<polygon fill="#148C53" points="-186.3,442.6 -186.4,442.5 -186.4,442.5 		"/>
		<polygon fill="#138B52" points="-186.3,442.6 -186.5,442.5 -186.4,442.5 		"/>
		<polygon fill="#138A51" points="-186.3,442.6 -186.5,442.5 -186.5,442.5 		"/>
		<polygon fill="#128850" points="-186.3,442.6 -186.5,442.5 -186.5,442.5 		"/>
		<polygon fill="#11874F" points="-186.3,442.6 -186.5,442.5 -186.5,442.5 		"/>
		<polygon fill="#10864F" points="-186.3,442.6 -186.5,442.5 -186.5,442.5 		"/>
		<polygon fill="#10854E" points="-186.3,442.6 -186.5,442.5 -186.5,442.5 		"/>
		<polygon fill="#0F834D" points="-186.3,442.6 -186.5,442.5 -186.5,442.5 -186.3,442.6 		"/>
		<polygon fill="#0E824C" points="-186.3,442.6 -186.5,442.5 -186.5,442.5 		"/>
		<polygon fill="#0E814B" points="-186.3,442.6 -186.5,442.5 -186.5,442.5 		"/>
		<polygon fill="#0D804A" points="-186.3,442.6 -186.5,442.5 -186.5,442.5 		"/>
		<polygon fill="#0D7F49" points="-186.3,442.6 -186.5,442.5 -186.5,442.5 		"/>
		<polygon fill="#0C7E48" points="-186.3,442.6 -186.5,442.5 -186.5,442.5 		"/>
		<polygon fill="#0B7D48" points="-186.3,442.6 -186.5,442.5 -186.5,442.5 		"/>
		<polygon fill="#0B7C47" points="-186.3,442.6 -186.5,442.5 -186.5,442.5 		"/>
		<polygon fill="#0A7B46" points="-186.3,442.6 -186.5,442.5 -186.5,442.5 		"/>
		<polygon fill="#0A7A45" points="-186.3,442.6 -186.6,442.5 -186.5,442.5 		"/>
		<polygon fill="#097945" points="-186.3,442.6 -186.6,442.5 -186.6,442.5 		"/>
		<polygon fill="#097844" points="-186.3,442.6 -186.6,442.5 -186.6,442.5 		"/>
		<polygon fill="#087743" points="-186.3,442.6 -186.6,442.5 -186.6,442.5 		"/>
		<polygon fill="#087643" points="-186.4,442.6 -186.6,442.5 -186.6,442.5 -186.6,442.5 -186.3,442.6 		"/>
		<polygon fill="#077542" points="-186.4,442.6 -186.6,442.5 -186.6,442.5 		"/>
		<polygon fill="#077441" points="-186.4,442.6 -186.6,442.5 -186.6,442.5 		"/>
		<polygon fill="#067441" points="-186.4,442.6 -186.6,442.5 -186.6,442.5 		"/>
		<polygon fill="#067340" points="-186.4,442.6 -186.6,442.5 -186.6,442.5 		"/>
		<polygon fill="#067240" points="-186.4,442.6 -186.6,442.5 -186.6,442.5 		"/>
		<polygon fill="#05713F" points="-186.4,442.6 -186.6,442.5 -186.6,442.5 		"/>
		<polygon fill="#05713F" points="-186.4,442.6 -186.6,442.5 -186.6,442.5 		"/>
		<polygon fill="#04703E" points="-186.4,442.6 -186.6,442.5 -186.6,442.5 		"/>
		<polygon fill="#046F3E" points="-186.4,442.6 -186.6,442.5 -186.6,442.5 		"/>
		<polygon fill="#046F3D" points="-186.4,442.6 -186.6,442.5 -186.6,442.5 		"/>
		<polygon fill="#036E3D" points="-186.4,442.6 -186.6,442.5 -186.6,442.5 		"/>
		<polygon fill="#036E3C" points="-186.4,442.6 -186.6,442.5 -186.6,442.5 		"/>
		<polygon fill="#036D3C" points="-186.4,442.6 -186.6,442.5 -186.6,442.5 		"/>
		<polygon fill="#036D3B" points="-186.5,442.6 -186.6,442.5 -186.6,442.5 -186.4,442.6 		"/>
		<polygon fill="#026C3B" points="-186.5,442.6 -186.6,442.5 -186.6,442.5 		"/>
		<polygon fill="#026C3B" points="-186.5,442.6 -186.6,442.5 -186.6,442.5 		"/>
		<polygon fill="#026B3A" points="-186.5,442.6 -186.6,442.5 -186.6,442.5 		"/>
		<polygon fill="#026B3A" points="-186.5,442.6 -186.6,442.5 -186.6,442.5 		"/>
		<polygon fill="#016A3A" points="-186.5,442.6 -186.6,442.5 -186.6,442.5 		"/>
		<polygon fill="#016A3A" points="-186.5,442.6 -186.6,442.5 -186.6,442.5 		"/>
		<polygon fill="#016A39" points="-186.5,442.6 -186.6,442.5 -186.6,442.5 		"/>
		<polygon fill="#016939" points="-186.5,442.6 -186.6,442.6 -186.6,442.5 		"/>
		<polygon fill="#006838" points="-186.6,442.6 -186.6,442.6 -186.6,442.5 -186.3,442.5 -186.3,442.6 		"/>
		<path fill="none" d="M-186.3,442.5c-0.1,0-0.2,0.1-0.3,0.1C-186.5,442.5-186.4,442.5-186.3,442.5z"/>
	</g>
	<g>
		<path fill="#754C29" d="M-186.3,412.4c0,0-1.5-50.3-1.5-50.5c0-1,6.1,1.3,6.1,0.2c-0.1-1.5-1.9-3.9-2.6-5.2c-0.5-1-1-2.1-1.8-2.9
			c-2.9-2.9-8.1-0.6-11.5,0.3c-4.1,1.1-8.2,2.4-12.3,3.7c-5.7,1.9-11.4,3.8-17,6c-0.1,0-0.2,0.1-0.4,0.1l0.8,46.3L-186.3,412.4z"/>
	</g>
	<g>
		<path fill="#F0D0B4" d="M-149.8,405.8c-1.5-0.9-3.5-0.5-4.5,1.1c0-0.1-0.3,0.4-0.9,1.2c-0.7,0.8-1.7,1.9-3.1,3s-3,2.2-4.9,2.9
			c-0.9,0.4-1.9,0.6-2.9,0.7c-1,0.1-2,0.1-2.8-0.1l-0.5-0.1h-0.2h-0.1h-0.1c0,0,0.3,0,0.1,0l0,0l0,0l-1-0.2
			c-0.6-0.1-1.3-0.3-1.9-0.4c-1.2-0.3,1.2,0.3,0,0c-2.3-0.7-4.5-1.3-6.3-2c-1.8-0.6-3.3-1.2-4.3-1.7c-0.5-0.2-0.9-0.4-1.1-0.5
			c-0.2-0.1-0.3-0.2-0.3-0.2l0,0c-0.1-0.1-0.3-0.1-0.4-0.2c-2.6-1-5.6,0.4-6.6,3c-1,2.6,0.4,5.6,3,6.6c0,0,0.2,0.1,0.6,0.2
			c0.3,0.1,0.8,0.3,1.4,0.5c1.2,0.4,2.9,0.9,5,1.4s4.5,1.1,7.1,1.5c1.3,0.2-1.4-0.2,0,0c0.7,0.1,1.4,0.2,2.2,0.2c0.3,0,1.3,0,1.3,0
			h0.2h0.1h0.1h0.3h0.5c1.9,0.1,3.5,0,5.2-0.3c1.6-0.3,3.2-0.9,4.6-1.5c2.8-1.3,4.9-3.1,6.6-4.7c1.6-1.6,2.8-3.1,3.6-4.2
			c0.8-1.1,1.2-1.8,1.2-1.8C-147.8,408.8-148.3,406.8-149.8,405.8z"/>
	</g>
	<g>
		<path fill="#8557C1" d="M-188.6,418.7l6.7,2.6l3.8-8.9l-6.5-3.1c-0.1,0-0.2-0.1-0.3-0.1c-2.6-1-5.6,0.3-6.6,2.9
			S-191.2,417.7-188.6,418.7z"/>
	</g>
	<g>
		<path fill="#8557C1" d="M-188.6,418.7l-0.2,0.5l7.2,2.8l4.2-9.9l-7-3.3l0,0c-0.1-0.1-0.2-0.1-0.4-0.2c-0.7-0.3-1.4-0.4-2-0.4
			c-2.3,0-4.4,1.4-5.3,3.6c-0.3,0.7-0.4,1.4-0.4,2c0,2.3,1.4,4.4,3.6,5.3L-188.6,418.7l0.2-0.5c-1.8-0.7-2.9-2.4-2.9-4.3
			c0-0.5,0.1-1.1,0.3-1.6c0.7-1.8,2.4-2.9,4.3-2.9c0.5,0,1.1,0.1,1.6,0.3c0.1,0,0.2,0.1,0.3,0.1l0,0l6,2.8l-3.4,7.9l-6.2-2.4
			L-188.6,418.7z"/>
	</g>
	<g>
		<path fill="#9662CC" d="M-183,440.9c0-0.3,0.1-0.6,0-0.9c-0.1-2-0.5-3.6-0.6-5.6c-0.2-4.5,0-9.1,0-13.6c0-2,0-4,0-5.9
			c0-0.3,0-0.7,0-1c0-1.9-0.1-3.8-0.7-5.7c-2.4-8-12.1-10-19.3-10c-13,0-23.5,7.5-23.5,16.8c0.5,6.2,0.9,12.4,1.4,18.6
			c0.2,2.3,0.3,4.5,0.5,6.8c6.4,3.6,13.7,5.6,21.6,5.6C-196.2,446-189.2,444.2-183,440.9z"/>
	</g>
	<g>
		<path fill="#8557C1" d="M-215,444.5c1.6-1.7,1.1-4.5,0.8-6.8c-0.3-3,0-6.1,0.1-9.1c0-0.3,0-0.7-0.1-1c-0.1-0.4-0.5-0.7-0.8-1
			c-1.6-1.7-3-3.7-4-5.8c-0.9-2.1-0.7-4.3-0.6-6.5c0-0.4,0-0.8-0.2-1.1c-0.3-0.7-1.2-0.9-2-0.9c-1.1-0.1-2.2,0-3.3,0.4
			c-2.8,1.1-2,3.7-1.8,6.1c0.2,2.9,0.4,5.7,0.7,8.6c0.3,3.9,0.6,7.7,0.9,11.6c0,0.5,0.1,1.1,0.1,1.6
			C-222,442.2-218.6,443.6-215,444.5L-215,444.5z"/>
	</g>
	<g>
		<path fill="#58595B" d="M-182.9,440.8c0-0.3,0-0.5-0.1-0.8c-5.8-0.2-11.9,0.3-17.6,0.1c-1.1,0-2.2-0.1-3.3-0.1
			c-7.1,0-14.2-0.1-21.3-0.2c-0.1,0-0.2,0.2-0.3,0.5c6.5,3.7,13.9,5.8,21.8,5.8C-196.1,446-189.1,444.1-182.9,440.8z"/>
	</g>
	<g>
		<path fill="#414042" d="M-213.7,440c-3.7-0.1-7.5-0.3-11.2-0.2c-0.1,0-0.2,0-0.3,0.1c-0.1,0.1-0.1,0.2-0.1,0.3l-0.1,0.2
			c3.9,2.2,8.1,3.8,12.6,4.8C-213.3,442.6-213.8,440-213.7,440z"/>
	</g>
	<g>
		<path fill="#EFC7B0" d="M-204.2,407.2c0.4,0.1,0.8-0.1,1.1,0.3c0.6,0.6,0.8,2.1,1.6,2.4c1,0.4,1.4-1,1.7-1.8
			c0.3-1.2,0.7-2.1,1.5-2.9c0.9-0.9,1.6-1.8,2.2-3c1.8-3.5,2.4-7.8,2.4-11.8v-20h-18.7l0.1,19.8
			C-212.2,396.7-210.4,405.9-204.2,407.2z"/>
	</g>
	<g>
		<ellipse fill="#F0D0B4" cx="-200.3" cy="376.3" rx="18.5" ry="24"/>
	</g>
	<g>
		<path fill="#EFC7B0" d="M-205.7,400c-3.4-0.6-6.7-2-9.5-4c-1.4-1-2.6-2.2-3.8-3.4c-0.5-0.5-2.6-3.2-0.5-3.2c0.5,0,0.9,0.3,1.2,0.7
			c1.9,1.8,3.7,3.6,5.6,5.4C-210.7,397.3-208.6,399.3-205.7,400z"/>
	</g>
	<g>
		<path fill="#EFC7B0" d="M-213.6,396.6c1.8,0.5,3.3,1.3,4.7,2.4c0.8,0.7,1.6,1.5,2.5,2c0.5,0.3,1.1,0.4,1.6,0.7
			c0.4,0.2,0.6,0.6,1,0.8c0,0.6,2.8,0.5,3.1,0.4c0.9-0.3,1.8-1,2.7-1.4c0.4-0.2,0.4-0.4,0.3-0.5c-0.3-0.4-1.5-0.8-1.6-0.9
			c-1.1-0.3-2.5,0-3.7-0.4c-2.5-0.8-4.6-2.5-6.4-4.3c-4.7-4.7-9.6-10.7-7.8-17.6c0.5-1.8,0.3-3.7,0.3-5.6c0-0.7,0-1.3,0.2-1.9
			c0.5-1.8,2.2-2.7,3.2-4c1.2-1.6,2.4-3.5,2.7-5.6c0.1-0.8,0.1-1.5,0.2-2.3c0.3-1.8,1.7-1.9,2.9-2.9c1.4-1.3,0-1.9-1.7-1.7
			c-5.2,0.6-9.9,6.1-12.3,10.4c-2.1,3.7-3.3,8-3.3,12.3c0,6.8,2.8,13.2,7.5,17.7C-216.4,395.2-215.1,396.2-213.6,396.6z"/>
	</g>
	<g>
		<path fill="#754C29" d="M-226.3,377.3L-226.3,377.3L-226.3,377.3c-0.3-2-0.2-4,0.3-5.9c0.2-0.7,0.6-1.4,1.3-1.5
			c0.3,0,0.6,0.1,0.8,0.3c0.8,0.4,1.9,1.1,1.6,2.2c-0.1,0.6-0.5,1-0.8,1.5c-0.1,0.1-0.2,0.2-0.3,0.3c-0.4,0.6-0.8,1.1-1.4,1.4
			c-0.3,0.2-0.6,0.4-0.8,0.6c-0.1,0.1-0.3,0.7-0.4,0.7c-0.2,0.1-0.5,0.3-0.6,0.5"/>
	</g>
	<g>
		<path fill="#F0D0B4" d="M-222.6,379.7c-2.2,0-3.9-1.5-3.9-3.4c0-1.9,1.8-3.4,3.9-3.4"/>
	</g>
	<g>
		<path fill="#754C29" d="M-212.1,359.4c-0.1-0.5-0.2-1-0.4-1.4c-0.1-0.2-0.1-0.3-0.3-0.5c-0.8-0.8-5,0-5.9,0.3
			c-2.2,0.6-2.7,2.5-4.1,4.1c-1.4,1.6-3.3,3-3.7,5.2c-0.6,2.5,1.4,4.8,3.2,6.2c1.3,1,1.9,2.4,2,4c0,0.6,0.1,1.7-0.3,2.2
			c-0.2,0.5-1.4,0.6-1.4,1.3c0.7,0.3,1.4,0.1,2.1-0.2c1.9-0.8,3-2.1,3.3-4.2c0.2-1.4,0-2.7,0-4.1c0-2.8,1.6-5.2,3.5-7.2
			c0.4-0.4,0.9-0.8,1.2-1.3C-212.1,362.5-211.8,361-212.1,359.4z"/>
	</g>
	<g>
		<path fill="#DFB28B" d="M-194.5,382.1c-0.1-0.1-0.3-0.3-0.4-0.4c-0.1,0-0.2-0.1-0.3-0.1c-0.1-0.1-0.2-0.2-0.3-0.3
			c-0.1-0.2-0.3-0.3-0.3-0.6c0-0.3,0.2-0.6,0.5-0.9c1-1.2,0-3.5-0.2-4.9c-0.1-0.4-0.3-1.4-0.1-1.7c0.5-0.8,0.9,0.8,1,1.1
			c0.3,1.2,0.6,2.3,1,3.4c0.2,0.6,0.1,1.1,0.6,1.6c0.2,0.3,0.6,0.5,0.7,0.8c0.1,0.3-0.1,0.7-0.3,1c-0.3,0.5-0.7,0.8-1.2,1.2
			l-0.2,0.1C-194.3,382.3-194.4,382.2-194.5,382.1z"/>
	</g>
	<g>
		<path fill="#FFFFFF" d="M-134.6,398.9c0,7.1-5.8,12.9-13,12.9c-7.2,0-12.9-5.8-12.9-12.9c0-7.1,5.8-12.9,12.9-12.9
			C-140.5,386-134.6,391.7-134.6,398.9z"/>
	</g>
	<g>
		<circle fill="#4285F4" cx="-145.1" cy="394.6" r="1.8"/>
	</g>
	<g>
		<circle fill="#4285F4" cx="-145.1" cy="403.3" r="1.8"/>
	</g>
	<g>
		<circle fill="#4285F4" cx="-151.2" cy="398.9" r="1.8"/>
	</g>
	<g>
		
			<rect x="-148.8" y="393" transform="matrix(-0.5813 -0.8137 0.8137 -0.5813 -557.137 506.8533)" fill="#4285F4" width="1.3" height="7.5"/>
	</g>
	<g>
		
			<rect x="-151.9" y="400.5" transform="matrix(-0.8137 -0.5812 0.5812 -0.8137 -501.8976 641.4752)" fill="#4285F4" width="7.5" height="1.3"/>
	</g>
	<g>
		
			<ellipse transform="matrix(-0.9939 -0.1099 0.1099 -0.9939 -354.9608 798.3761)" fill="#F0D0B4" cx="-155.5" cy="409" rx="1.2" ry="0.9"/>
	</g>
	<g>
		<path fill="#FFFFFF" d="M-191.2,386.6c-0.8,0-1.5-0.9-2.4-0.9c-0.4,0-0.9,0.9-1.3,0.8c-0.3,0-0.9-0.8-1.3-0.8
			c-0.7,0-1.2,0.3-1.9,0.5c-0.6,0.2-1.1,0.3-1.7,0.6c-0.1,0.1-0.2,0.2-0.2,0.3l0.1,0.1c0.2,0.2,0.4,0.3,0.6,0.4
			c0.5,0.4,0.7,0.9,1.3,1.2c0.2,0.1,0.5,0.1,0.7,0.2c1,0.1,2,0,3,0c0.4,0,0.8-0.1,1.2-0.3c0.7-0.5,0.9-1.3,1.6-1.8
			C-191.2,386.9-191.3,386.7-191.2,386.6"/>
	</g>
	<g>
		<path fill="#E0ADA6" d="M-191.3,387c0,0,0,0-0.3,0c-0.2,0-0.5-0.1-0.8-0.2c-0.3-0.1-0.6-0.3-0.9-0.4c-0.1-0.1-0.3-0.1-0.4-0.1l0,0
			l0,0l0,0c0.1,0,0,0,0.1,0l0,0l0,0l0,0l0,0c0.1,0,0.1,0,0,0l-0.2,0.2c-0.2,0.2-0.3,0.3-0.7,0.6c-0.1,0.1-0.3,0.1-0.5,0.1h-0.1h-0.1
			l-0.2-0.1h-0.1c-0.2-0.1-0.3-0.2-0.4-0.3c-0.1-0.1-0.2-0.2-0.3-0.3l-0.2-0.1c0,0,0.2,0,0,0h-0.2c-0.1,0-0.2,0-0.3,0.1
			c-0.2,0.1-0.5,0.2-0.8,0.3c-0.3,0.1-0.6,0.2-0.9,0.3c-0.3,0.1-0.5,0.2-0.7,0.3l-0.2,0.1c0,0,0,0,0.1-0.1c0-0.1,0.1-0.3,0-0.4
			c-0.1-0.1-0.1-0.2-0.1-0.2l0,0h0.1c0.2,0.1,0.7,0.4,0.9,0.7c0.3,0.3,0.4,0.5,0.6,0.6l0.2,0.1c0,0,0.1,0,0.2,0h0.2h0.2
			c0.2,0,0.3,0,0.4,0c0.6,0,1.2,0.1,1.7,0.1c0.1,0,0.3,0,0.4,0h0.2l0,0l0,0l0,0l0,0l0,0h0.1c0.2,0,0.4-0.1,0.5-0.1
			c0.2,0,0.4-0.2,0.6-0.5c0.2-0.3,0.5-0.6,0.8-0.8c0.1-0.1,0.3-0.2,0.4-0.3h0.1l0,0l0,0l0,0l0,0l0,0l0,0l0,0l-0.1,0.1l0.3,0.1
			c0,0.1,0,0.1,0,0.2v-0.1v-0.1c0-0.2,0.1-0.4,0.3-0.4c0.2,0,0.4,0.1,0.4,0.3l0,0c0,0,0,0,0.1,0.2c0,0,0,0.1,0,0.3l-0.1,0.2v-0.1
			l0,0l0,0l0,0l0,0l0,0l0,0l0,0l0,0c0,0.1-0.1,0.1-0.1,0.2c-0.1,0.2-0.2,0.5-0.4,0.8c-0.2,0.4-0.6,0.9-1.3,1.1
			c-0.5,0.4-0.9,0.4-1.1,0.4h-0.1h-0.1l0,0l0,0l0,0h-0.2c-0.1,0-0.3,0-0.4,0c-0.5,0-1.1,0.1-1.7,0.1c-0.1,0-0.3,0-0.4,0h-0.1h-0.1
			h-0.1h-0.3c-0.2,0-0.4-0.1-0.7-0.2c-0.2-0.1-0.4-0.3-0.5-0.4c-0.3-0.3-0.5-0.6-0.7-0.8c-0.1-0.2-0.3-0.3-0.6-0.5l-0.1-0.1
			l-0.1-0.1c-0.1-0.1-0.2-0.2-0.3-0.4c-0.1-0.2-0.1-0.5,0-0.6c0.2-0.3,0.3-0.4,0.4-0.5c0.1-0.1,0.2-0.1,0.3-0.1
			c0.3-0.2,0.7-0.3,1-0.4s0.5-0.2,0.8-0.3c0.3-0.1,0.6-0.2,0.9-0.3c0.2,0,0.3-0.1,0.5-0.1h0.3c0,0,0.4,0,0.5,0.1
			c0.3,0.1,0.4,0.2,0.5,0.3c0.1,0.1,0.2,0.2,0.3,0.3l0.2,0.2l0,0h-0.1l0,0l0,0l0,0l0,0c0,0,0.1,0-0.1,0c-0.1,0-0.1,0-0.1,0
			c0.1,0,0.3-0.2,0.5-0.4c0.1-0.1,0.2-0.2,0.3-0.3c0.1,0,0.1-0.1,0.3-0.2h0.1l0,0l0,0h0.1l0,0l0,0h0.1c0.3,0,0.6,0.1,0.8,0.2
			c0.4,0.2,0.7,0.4,0.9,0.5c0.2,0.1,0.4,0.2,0.4,0.2h0.2c0.2,0,0.4,0.2,0.4,0.5C-190.8,386.9-191,387-191.3,387z"/>
	</g>
	<g>
		<circle fill="#939598" cx="-200.3" cy="411.7" r="0.7"/>
	</g>
	<g>
		<circle fill="#939598" cx="-200.3" cy="414.6" r="0.7"/>
	</g>
	<g>
		<path fill="#ECC19C" d="M-198.3,392.2c0.5,0.4,1,0.7,1.4,0.9c0.5,0.2,0.9,0.3,1.4,0.3s0.9-0.1,1.4-0.4c0.5-0.2,0.9-0.5,1.4-1
			c0.2-0.2,0.3-0.5,0.1-0.8c-0.2-0.2-0.5-0.3-0.8-0.1c-0.5,0.4-0.9,0.7-1.3,0.8c-0.4,0.2-0.6,0.2-0.9,0.2s-0.5-0.1-0.9-0.2
			c-0.3-0.2-0.8-0.4-1.2-0.8c-0.2-0.2-0.6-0.1-0.8,0.1C-198.6,391.7-198.5,392-198.3,392.2L-198.3,392.2z"/>
	</g>
	<g>
		<path fill="#754C29" d="M-180.8,376.8c0-1.4,0-2.7,0-4.1c0-2.7,0-5.3-0.1-8c-0.1-2.3,0-4.8-0.8-7c-0.5-1.4-1.2-2.6-2.2-3.7
			c-1.1-1.1-2.6-1.7-4-2.4c-3.3-1.7-7.1-2.7-10.8-2c-0.6,0.1-1.2,0.2-1.8,0.2s-1.1-0.2-1.7-0.3c-7.8-2.2-18.2,1-22.6,7.6
			c-1.8,2.7-2.5,5.8-2.6,8.9l3.9,1.9c0.4,0.2,4.4-3.8,4.8-4.2c0.4-0.3,1.3-1.4,1.7-1.5c0.9-0.1,1.3,0.9,2,1.1
			c1.1,0.3,2.2-0.4,3.2-0.8c2.7-0.9,5.9,0.1,8.6-0.8c2.1-0.8,4-2.7,6.3-2.4c1.4,0.2,2.5,1.2,3.6,2.1c1.2,0.9,2.7,1.6,4.1,2.1
			c1.1,0.4,3.3,0.2,4.2,0.9c0.8,0.6,1.3,2.8,1.6,3.8c0.1,0.2,0.2,0.5,0.3,0.8c0.3,0.9,0.5,1.7,0.4,2.6c-0.1,1.7-0.3,3.4-0.1,5.1
			c0.1,0.8,0.3,1.5,0.8,2.2c0.3,0.5,1.1,0.8,1.3,1.4C-180.8,379-180.8,377.9-180.8,376.8z"/>
	</g>
	<g>
		<path fill="#443332" d="M-208.4,371L-208.4,371c0.1-0.1,0.2-0.2,0.3-0.3c0.2-0.2,0.5-0.4,0.9-0.6c0.4-0.2,0.9-0.4,1.4-0.5
			s1.1-0.2,1.7-0.2c0.3,0,0.5,0,0.8,0s0.6,0.1,0.8,0.1c0.5,0.1,1,0.2,1.4,0.4c0.8,0.3,1.3,0.8,1.3,0.8c0.2,0.2,0.2,0.6,0,0.8
			c-0.2,0.2-0.6,0.2-0.8,0l0,0l-0.2-0.1c-0.2-0.1-0.4-0.3-0.7-0.5c-0.3-0.2-0.7-0.3-1.2-0.4c-0.2-0.1-0.5-0.1-0.7-0.2
			c-0.2,0-0.5-0.1-0.8-0.1c-0.5,0-1,0-1.5,0c-0.5,0.1-0.9,0.2-1.2,0.4c-0.3,0.2-0.6,0.3-0.8,0.5c-0.3,0.1-0.3,0.2-0.3,0.2l0,0
			c-0.1,0.1-0.2,0.1-0.3,0C-208.5,371.2-208.5,371.1-208.4,371z"/>
	</g>
	<g>
		<circle fill="#231F20" cx="-203.7" cy="374.6" r="1.2"/>
	</g>
	<g>
		<path fill="#443332" d="M-183.5,371.3c0,0-0.1-0.1-0.2-0.2c-0.2-0.1-0.4-0.3-0.8-0.5c-0.3-0.2-0.8-0.3-1.2-0.4
			c-0.5-0.1-1-0.1-1.5,0c-0.2,0-0.5,0.1-0.8,0.1c-0.2,0-0.5,0.1-0.7,0.2c-0.5,0.1-0.9,0.3-1.2,0.4c-0.3,0.2-0.6,0.3-0.7,0.5
			l-0.2,0.1l0,0c-0.2,0.2-0.5,0.2-0.8,0c-0.2-0.2-0.2-0.5,0-0.8c0,0,0.5-0.5,1.3-0.8c0.4-0.2,0.9-0.3,1.4-0.4c0.3,0,0.5-0.1,0.8-0.1
			c0.3,0,0.5,0,0.8,0c0.6,0,1.1,0,1.7,0.2c0.5,0.1,1,0.3,1.4,0.5c0.4,0.2,0.7,0.4,0.9,0.6c0.1,0.1,0.2,0.2,0.2,0.2l0.1,0.1
			c0.1,0.1,0.1,0.3,0,0.3C-183.2,371.4-183.4,371.4-183.5,371.3L-183.5,371.3z"/>
	</g>
	<g>
		<circle fill="#231F20" cx="-187.9" cy="374.6" r="1.2"/>
	</g>
	<g>
		<circle fill="#2E3192" cx="-223" cy="379.2" r="0.8"/>
	</g>
	<g>
		<path fill="#EFC7B0" d="M-195.4,400.6c0.5-2.6-2.2,0-2.2,0l-9,1.7l-3.1,0.2c0,0,9.8,17.5,10.4,18.2
			C-199.4,420.6-195.9,403.2-195.4,400.6z"/>
	</g>
	<g>
		<path fill="#754C29" d="M-214.4,366.7c0,0.4,5.3,0.7,5.8,0.6c0.1-1,0.5-2.9,0.3-3.9c0.4,2.4,0.1,4,2.3,4.1
			c1.8,0.1,3.6,0.2,5.4,0.2c0.9,0,3.2,0.5,3.9-0.3c0.6-0.6,0.9-3,1.5-3.9c0.1,1.3,0.2,2.5,0.4,3.8c0,0.3,7.2-0.3,7.8-0.3
			c0.7-0.1,2.1,0.1,2.6-0.7c0.1-0.1,0.8-7.7,1.1-7.5l-4.8-3l-26.5,1.6L-214.4,366.7z"/>
	</g>
	<g>
		<path fill="#EACBC6" d="M-207.4,382.7c0-1.7,1.4-3,3.1-3c0.7,0,1.4,0.3,1.9,0.7c-0.1-1.6-1.4-2.9-3.1-2.9s-3.1,1.3-3.1,3
			c0,0.9,0.5,1.8,1.2,2.3V382.7z"/>
	</g>
	<g>
		<path fill="#EACBC6" d="M-184.1,382.7c0-1.7-1.4-3-3.1-3c-0.7,0-1.4,0.3-1.9,0.7c0.1-1.6,1.4-2.9,3.1-2.9s3.1,1.3,3.1,3
			c0,0.9-0.5,1.8-1.2,2.3V382.7z"/>
	</g>
	<g>
		<path fill="#382928" d="M-222.7,441.5h-0.5c0.2,0.1,0.3,0.2,0.5,0.2V441.5z"/>
	</g>
	<g>
		<rect x="-212.9" y="441.5" fill="#443332" width="7" height="1.8"/>
	</g>
	<g>
		<rect x="-204.5" y="441.5" fill="#443332" width="14.2" height="1.8"/>
	</g>
	<g>
		<path fill="#443332" d="M-188.9,441.5v1.8h0.7c1.4-0.5,2.8-1.1,4.1-1.8H-188.9z"/>
	</g>
	<g>
		<path fill="#382928" d="M-214.3,443.2v-1.8h-7v0.9c0.7,0.3,1.5,0.6,2.3,0.9H-214.3z"/>
	</g>
	<g>
		<rect x="-199.8" y="441.3" fill="#443332" width="5.3" height="2.4"/>
	</g>
	<g>
		<path fill="#F7941E" d="M-194.2,441h-5.9v3h5.9V441z M-194.8,443.4h-4.7v-1.8h4.7V443.4z"/>
	</g>
	<g>
		<path fill="#F0D0B4" d="M-219.3,443.1c-0.2-0.5-0.5-1-0.6-1.5c-0.1-0.2-0.1-0.5-0.2-0.7v-0.1v-0.3v-0.2v-0.1l0,0c0,0.2,0,0,0,0.1
			l0,0V440c-0.2-1.5-0.3-3-0.4-4.5s-0.1-3-0.2-4.5c0-2.9,0-5.6,0.2-8c0.1-2.3,0.3-4.3,0.4-5.6c0.1-0.7,0.1-1.2,0.2-1.5
			c0-0.3,0.1-0.5,0.1-0.5l0,0c0-0.1,0-0.2,0-0.3c0.1-2.8-2-5.2-4.8-5.4c-2.8-0.1-5.2,2-5.4,4.8c0,0,0,0.2,0,0.6s0,1-0.1,1.7
			c0,1.5-0.1,3.6,0,6.1c0.1,4.2,0.3,9.6,1.2,15.2C-226.1,440.1-222.8,441.8-219.3,443.1L-219.3,443.1z"/>
	</g>
	<g>
		<path fill="#9662CC" d="M-219.7,415.2c0-0.1,0-0.2,0-0.4c0.1-2.8-2.1-5.2-4.9-5.3c-2.8-0.1-5.2,2.1-5.3,4.9l-0.3,7.2l9.7,0.7
			L-219.7,415.2z"/>
	</g>
	<g>
		<path fill="#9662CC" d="M-219.7,415.2l0.6,0.1c0-0.1,0-0.3,0-0.4v-0.2c0-3-2.4-5.6-5.5-5.7h-0.2c-3,0-5.6,2.4-5.7,5.5l-0.3,7.8
			l10.8,0.7l0.9-7.7l0,0L-219.7,415.2l-0.6-0.1l-0.7,6.6l-8.5-0.6l0.3-6.6c0.1-2.4,2.1-4.3,4.5-4.3h0.2c2.4,0.1,4.3,2.1,4.3,4.5v0.2
			c0,0.1,0,0.2,0,0.3l0,0H-219.7z"/>
	</g>
</g>
</svg>
