<?xml version="1.0" encoding="utf-8"?>
<!-- Generator: Adobe Illustrator 19.1.0, SVG Export Plug-In . SVG Version: 6.00 Build 0)  -->
<svg version="1.2" baseProfile="tiny" id="Layer_1" xmlns="http://www.w3.org/2000/svg" xmlns:xlink="http://www.w3.org/1999/xlink"
	 x="0px" y="0px" viewBox="0 0 48 48" xml:space="preserve">
<path fill="#010101" d="M9.7,20.8c3.9,7.6,10,13.7,17.6,17.6l5.9-5.9c0.8-0.8,1.7-0.9,2.7-0.7c2.9,0.9,6.1,1.5,9.5,1.5
	c1.5,0,2.7,1.2,2.7,2.7v9.3c0,1.5-1.2,2.7-2.7,2.7C20.3,48,0,27.7,0,2.7C0,1.2,1.2,0,2.7,0H12c1.5,0,2.7,1.2,2.7,2.7
	c0,3.3,0.5,6.5,1.5,9.5c0.3,0.9,0.1,2-0.7,2.7L9.7,20.8z"/>
</svg>
