<?xml version="1.0" encoding="utf-8"?>
<!-- Generator: Adobe Illustrator 19.1.0, SVG Export Plug-In . SVG Version: 6.00 Build 0)  -->
<svg version="1.2" baseProfile="tiny" id="Layer_1" xmlns="http://www.w3.org/2000/svg" xmlns:xlink="http://www.w3.org/1999/xlink"
	 x="0px" y="0px" viewBox="-231.9 347.1 103.4 97.3" xml:space="preserve">
<g>
	<polygon fill="#1A985C" points="-160.9,435.5 -161,435.4 -161,435.4 -160.9,435.4 	"/>
	<polygon fill="#1A965B" points="-160.9,435.5 -161,435.4 -161,435.4 	"/>
	<polygon fill="#19955A" points="-160.9,435.5 -161,435.4 -161,435.4 	"/>
	<polygon fill="#189359" points="-160.9,435.5 -161,435.4 -161,435.4 	"/>
	<polygon fill="#179258" points="-160.9,435.5 -161,435.4 -161,435.4 	"/>
	<polygon fill="#169056" points="-160.9,435.5 -161,435.4 -161,435.4 	"/>
	<polygon fill="#158F55" points="-160.9,435.5 -161,435.4 -161,435.4 	"/>
	<polygon fill="#158D54" points="-160.9,435.5 -161,435.4 -161,435.4 	"/>
	<polygon fill="#148C53" points="-160.9,435.5 -161,435.4 -161,435.4 	"/>
	<polygon fill="#138B52" points="-160.9,435.5 -161.1,435.4 -161,435.4 	"/>
	<polygon fill="#128951" points="-160.9,435.5 -161.1,435.4 -161.1,435.4 	"/>
	<polygon fill="#128850" points="-160.9,435.5 -161.1,435.4 -161.1,435.4 	"/>
	<polygon fill="#11874F" points="-160.9,435.5 -161.1,435.4 -161.1,435.4 	"/>
	<polygon fill="#10864E" points="-160.9,435.5 -161.1,435.4 -161.1,435.4 	"/>
	<polygon fill="#10844D" points="-160.9,435.5 -161.1,435.4 -161.1,435.4 	"/>
	<polygon fill="#0F834D" points="-160.9,435.5 -161.1,435.4 -161.1,435.4 	"/>
	<polygon fill="#0E824C" points="-160.9,435.5 -161.1,435.4 -161.1,435.4 -161.1,435.4 	"/>
	<polygon fill="#0E814B" points="-161.1,435.3 -160.8,435.5 -160.8,435.5 	"/>
	<polygon fill="#0D804A" points="-161.1,435.4 -160.8,435.6 -160.8,435.6 	"/>
	<polygon fill="#0C7F49" points="-161.1,435.4 -160.8,435.6 -160.8,435.6 	"/>
	<polygon fill="#0C7E48" points="-161.1,435.4 -160.8,435.6 -160.8,435.6 	"/>
	<polygon fill="#0B7D48" points="-161.1,435.4 -160.8,435.6 -160.8,435.6 	"/>
	<polygon fill="#0B7C47" points="-161.1,435.4 -160.8,435.6 -160.8,435.6 	"/>
	<polygon fill="#0A7B46" points="-161.1,435.4 -160.8,435.6 -160.8,435.6 	"/>
	<polygon fill="#0A7A45" points="-161.1,435.4 -160.8,435.6 -160.8,435.6 	"/>
	<polygon fill="#097945" points="-161.1,435.4 -160.8,435.6 -160.8,435.6 	"/>
	<polygon fill="#097844" points="-161.1,435.4 -160.8,435.6 -160.8,435.6 	"/>
	<polygon fill="#087743" points="-160.9,435.6 -161.1,435.4 -161.1,435.4 -160.9,435.6 	"/>
	<polygon fill="#087643" points="-160.9,435.6 -161.1,435.4 -161.1,435.4 	"/>
	<polygon fill="#077542" points="-160.9,435.6 -161.1,435.4 -161.1,435.4 	"/>
	<polygon fill="#077441" points="-160.9,435.6 -161.1,435.4 -161.1,435.4 	"/>
	<polygon fill="#067341" points="-160.9,435.6 -161.1,435.4 -161.1,435.4 	"/>
	<polygon fill="#067340" points="-160.9,435.6 -161.1,435.4 -161.1,435.4 	"/>
	<polygon fill="#067240" points="-160.9,435.6 -161.1,435.4 -161.1,435.4 	"/>
	<polygon fill="#05713F" points="-160.9,435.6 -161.1,435.5 -161.1,435.4 	"/>
	<polygon fill="#05713E" points="-160.9,435.6 -161.1,435.5 -161.1,435.5 	"/>
	<polygon fill="#04703E" points="-160.9,435.6 -161.1,435.5 -161.1,435.5 	"/>
	<polygon fill="#046F3E" points="-160.9,435.6 -161.1,435.5 -161.1,435.5 	"/>
	<polygon fill="#046F3D" points="-160.9,435.6 -161.1,435.5 -161.1,435.5 	"/>
	<polygon fill="#036E3D" points="-161,435.6 -161.1,435.5 -161.1,435.5 -160.9,435.6 	"/>
	<polygon fill="#036E3C" points="-161,435.6 -161.1,435.5 -161.1,435.5 	"/>
	<polygon fill="#036D3C" points="-161,435.6 -161.1,435.5 -161.1,435.5 	"/>
	<polygon fill="#026D3B" points="-161,435.6 -161.1,435.5 -161.1,435.5 	"/>
	<polygon fill="#026C3B" points="-161,435.6 -161.1,435.5 -161.1,435.5 	"/>
	<polygon fill="#026C3B" points="-161,435.6 -161.1,435.5 -161.1,435.5 	"/>
	<polygon fill="#026B3A" points="-161,435.6 -161.1,435.5 -161.1,435.5 	"/>
	<polygon fill="#026B3A" points="-161,435.6 -161.1,435.5 -161.1,435.5 	"/>
	<polygon fill="#016A3A" points="-161,435.6 -161.1,435.5 -161.1,435.5 	"/>
	<polygon fill="#016A3A" points="-161,435.6 -161.1,435.5 -161.1,435.5 	"/>
	<polygon fill="#016A39" points="-161,435.6 -161.1,435.5 -161.1,435.5 	"/>
	<polygon fill="#016939" points="-161,435.6 -161.1,435.5 -161.1,435.5 	"/>
	<polygon fill="#016939" points="-161,435.6 -161.1,435.5 -161.1,435.5 	"/>
	<polygon fill="#016939" points="-161,435.6 -161.1,435.5 -161.1,435.5 	"/>
	<polygon fill="#006939" points="-161,435.6 -161.1,435.5 -161.1,435.5 	"/>
	<polygon fill="#006938" points="-161.1,435.6 -161.1,435.5 -161.1,435.5 -161,435.6 	"/>
	<path fill="none" d="M-160.9,435.4l-0.2,0.2L-160.9,435.4z"/>
	<polygon fill="#1D9D60" points="-154.7,429.7 -154.6,429.7 -154.6,429.7 	"/>
	<polygon fill="#1C9B5F" points="-154.7,429.7 -154.6,429.7 -154.6,429.7 	"/>
	<polygon fill="#1B995D" points="-154.7,429.7 -154.6,429.8 -154.6,429.8 	"/>
	<polygon fill="#1A985C" points="-154.7,429.7 -154.6,429.8 -154.6,429.8 	"/>
	<polygon fill="#1A965B" points="-154.7,429.7 -154.6,429.8 -154.6,429.8 	"/>
	<polygon fill="#19955A" points="-154.7,429.7 -154.6,429.8 -154.6,429.8 	"/>
	<polygon fill="#189359" points="-154.7,429.7 -154.6,429.7 -154.6,429.7 	"/>
	<polygon fill="#179258" points="-154.7,429.7 -154.6,429.8 -154.6,429.8 	"/>
	<polygon fill="#169056" points="-154.7,429.7 -154.6,429.8 -154.6,429.8 	"/>
	<polygon fill="#158F55" points="-154.7,429.7 -154.6,429.8 -154.6,429.8 	"/>
	<polygon fill="#158D54" points="-154.7,429.7 -154.6,429.8 -154.6,429.8 	"/>
	<polygon fill="#148C53" points="-154.7,429.7 -154.6,429.8 -154.6,429.8 	"/>
	<polygon fill="#128951" points="-154.7,429.7 -154.6,429.8 -154.6,429.8 	"/>
	<polygon fill="#128850" points="-154.7,429.7 -154.6,429.8 -154.6,429.8 	"/>
	<polygon fill="#11874F" points="-154.7,429.7 -154.6,429.8 -154.6,429.8 	"/>
	<polygon fill="#10864E" points="-154.7,429.7 -154.6,429.8 -154.6,429.8 	"/>
	<polygon fill="#10844D" points="-154.7,429.7 -154.6,429.8 -154.6,429.8 	"/>
	<polygon fill="#0F834D" points="-154.7,429.7 -154.6,429.8 -154.6,429.8 	"/>
	<polygon fill="#0E824C" points="-154.7,429.7 -154.6,429.8 -154.6,429.8 	"/>
	<polygon fill="#0E814B" points="-154.7,429.7 -154.6,429.8 -154.6,429.8 	"/>
	<polygon fill="#0D804A" points="-154.7,429.7 -154.6,429.8 -154.6,429.8 	"/>
	<polygon fill="#0C7F49" points="-154.7,429.8 -154.6,429.8 -154.6,429.8 	"/>
	<polygon fill="#0C7E48" points="-154.7,429.8 -154.6,429.8 -154.6,429.8 	"/>
	<polygon fill="#0B7D48" points="-154.7,429.8 -154.6,429.8 -154.6,429.8 	"/>
	<polygon fill="#0B7C47" points="-154.7,429.8 -154.6,429.8 -154.6,429.8 	"/>
	<polygon fill="#0A7B46" points="-154.7,429.8 -154.6,429.8 -154.6,429.8 	"/>
	<polygon fill="#0A7A45" points="-154.7,429.8 -154.6,429.8 -154.6,429.8 	"/>
	<polygon fill="#097945" points="-154.7,429.8 -154.6,429.8 -154.6,429.8 	"/>
	<polygon fill="#097844" points="-154.7,429.8 -154.6,429.8 -154.6,429.8 	"/>
	<polygon fill="#087743" points="-154.7,429.8 -154.6,429.8 -154.6,429.8 	"/>
	<polygon fill="#087643" points="-154.7,429.8 -154.6,429.8 -154.6,429.8 	"/>
	<polygon fill="#077542" points="-154.7,429.8 -154.6,429.8 -154.6,429.8 	"/>
	<polygon fill="#077441" points="-154.7,429.8 -154.6,429.8 -154.6,429.8 	"/>
	<polygon fill="#067341" points="-154.7,429.8 -154.6,429.8 -154.6,429.8 	"/>
	<polygon fill="#067340" points="-154.7,429.8 -154.6,429.8 -154.6,429.8 	"/>
	<polygon fill="#067240" points="-154.7,429.8 -154.6,429.8 -154.6,429.8 	"/>
	<polygon fill="#05713E" points="-154.7,429.8 -154.6,429.8 -154.6,429.8 	"/>
	<polygon fill="#04703E" points="-154.7,429.8 -154.6,429.8 -154.6,429.8 	"/>
	<polygon fill="#046F3E" points="-154.7,429.8 -154.6,429.9 -154.6,429.9 	"/>
	<polygon fill="#046F3D" points="-154.7,429.8 -154.6,429.9 -154.6,429.9 	"/>
	<polygon fill="#036E3D" points="-154.7,429.8 -154.6,429.9 -154.6,429.9 	"/>
	<polygon fill="#036E3C" points="-154.7,429.8 -154.6,429.9 -154.6,429.9 	"/>
	<polygon fill="#036D3C" points="-154.7,429.8 -154.6,429.9 -154.6,429.9 	"/>
	<polygon fill="#026D3B" points="-154.7,429.8 -154.6,429.9 -154.6,429.9 	"/>
	<polygon fill="#026C3B" points="-154.7,429.8 -154.6,429.9 -154.6,429.9 	"/>
	<polygon fill="#026C3B" points="-154.7,429.8 -154.6,429.9 -154.6,429.9 	"/>
	<polygon fill="#026B3A" points="-154.7,429.8 -154.6,429.9 -154.6,429.9 	"/>
	<polygon fill="#1D9D60" points="-159.4,434.2 -159.3,434.2 -159.3,434.2 	"/>
	<polygon fill="#1C9B5F" points="-159.4,434.2 -159.3,434.2 -159.3,434.2 	"/>
	<polygon fill="#1B995D" points="-159.4,434.2 -159.3,434.2 -159.3,434.2 	"/>
	<polygon fill="#1A985C" points="-159.4,434.2 -159.3,434.2 -159.3,434.2 	"/>
	<polygon fill="#1A965B" points="-159.4,434.2 -159.3,434.2 -159.3,434.2 	"/>
	<polygon fill="#19955A" points="-159.4,434.2 -159.3,434.2 -159.3,434.2 	"/>
	<polygon fill="#189359" points="-159.4,434.2 -159.3,434.2 -159.3,434.2 	"/>
	<polygon fill="#179258" points="-159.4,434.2 -159.3,434.2 -159.3,434.2 	"/>
	<polygon fill="#169056" points="-159.4,434.2 -159.3,434.2 -159.3,434.2 	"/>
	<polygon fill="#158F55" points="-159.4,434.2 -159.3,434.2 -159.3,434.2 	"/>
	<polygon fill="#158D54" points="-159.4,434.2 -159.3,434.2 -159.3,434.2 	"/>
	<polygon fill="#148C53" points="-159.4,434.2 -159.3,434.2 -159.3,434.2 	"/>
	<polygon fill="#138B52" points="-159.4,434.2 -159.3,434.2 -159.3,434.2 	"/>
	<polygon fill="#128951" points="-159.4,434.2 -159.3,434.2 -159.3,434.2 	"/>
	<polygon fill="#128850" points="-159.4,434.2 -159.3,434.2 -159.3,434.2 	"/>
	<polygon fill="#11874F" points="-159.4,434.2 -159.3,434.2 -159.3,434.2 	"/>
	<polygon fill="#10864E" points="-159.4,434.2 -159.3,434.2 -159.3,434.2 	"/>
	<polygon fill="#10844D" points="-159.4,434.2 -159.3,434.2 -159.3,434.2 	"/>
	<polygon fill="#0E824C" points="-159.4,434.2 -159.3,434.2 -159.3,434.2 	"/>
	<polygon fill="#0E814B" points="-159.4,434.2 -159.3,434.2 -159.3,434.2 	"/>
	<polygon fill="#0D804A" points="-159.4,434.2 -159.3,434.2 -159.3,434.2 	"/>
	<polygon fill="#0C7F49" points="-159.4,434.2 -159.3,434.2 -159.3,434.2 	"/>
	<polygon fill="#0C7E48" points="-159.4,434.2 -159.3,434.2 -159.3,434.2 	"/>
	<polygon fill="#0B7D48" points="-159.4,434.2 -159.3,434.2 -159.3,434.2 	"/>
	<polygon fill="#0B7C47" points="-159.4,434.2 -159.3,434.2 -159.3,434.2 	"/>
	<polygon fill="#0A7B46" points="-159.4,434.2 -159.3,434.2 -159.3,434.2 	"/>
	<polygon fill="#0A7A45" points="-159.4,434.2 -159.3,434.2 -159.3,434.2 	"/>
	<polygon fill="#097945" points="-159.4,434.2 -159.3,434.2 -159.3,434.2 	"/>
	<polygon fill="#097844" points="-159.4,434.2 -159.3,434.2 -159.3,434.2 	"/>
	<polygon fill="#087743" points="-159.4,434.2 -159.3,434.2 -159.3,434.2 	"/>
	<polygon fill="#077542" points="-159.4,434.2 -159.3,434.2 -159.3,434.2 	"/>
	<polygon fill="#077441" points="-159.4,434.2 -159.3,434.2 -159.3,434.2 	"/>
	<polygon fill="#067341" points="-159.4,434.2 -159.3,434.2 -159.3,434.2 	"/>
	<polygon fill="#067340" points="-159.4,434.2 -159.3,434.2 -159.3,434.2 	"/>
	<polygon fill="#067240" points="-159.4,434.2 -159.3,434.2 -159.3,434.2 	"/>
	<polygon fill="#05713F" points="-159.4,434.2 -159.3,434.2 -159.3,434.2 	"/>
	<polygon fill="#05713E" points="-159.4,434.2 -159.3,434.2 -159.3,434.2 	"/>
	<polygon fill="#04703E" points="-159.4,434.2 -159.3,434.2 -159.3,434.2 	"/>
	<polygon fill="#046F3E" points="-159.4,434.2 -159.3,434.2 -159.3,434.2 	"/>
	<polygon fill="#046F3D" points="-159.4,434.2 -159.3,434.2 -159.3,434.2 	"/>
	<polygon fill="#036E3D" points="-159.4,434.2 -159.3,434.2 -159.3,434.2 	"/>
	<polygon fill="#036E3C" points="-159.4,434.2 -159.3,434.2 -159.3,434.2 	"/>
	<polygon fill="#036D3C" points="-159.4,434.2 -159.3,434.2 -159.3,434.2 	"/>
	<polygon fill="#026D3B" points="-159.4,434.2 -159.3,434.3 -159.3,434.3 	"/>
	<polygon fill="#026C3B" points="-159.4,434.2 -159.3,434.2 -159.3,434.2 	"/>
	<polygon fill="#026C3B" points="-159.4,434.2 -159.3,434.3 -159.3,434.3 	"/>
	<polygon fill="#026B3A" points="-159.4,434.2 -159.3,434.3 -159.3,434.3 	"/>
	<polygon fill="#1E9E61" points="-153.3,428.2 -153.4,428.1 -153.4,428.1 -153.3,428.1 	"/>
	<polygon fill="#1D9D60" points="-153.3,428.2 -153.4,428.1 -153.4,428.1 	"/>
	<polygon fill="#1C9B5F" points="-153.3,428.2 -153.4,428.1 -153.4,428.1 	"/>
	<polygon fill="#1B995D" points="-153.3,428.2 -153.4,428.1 -153.4,428.1 	"/>
	<polygon fill="#1A985C" points="-153.3,428.2 -153.4,428.1 -153.4,428.1 	"/>
	<polygon fill="#1A965B" points="-153.3,428.2 -153.4,428.1 -153.4,428.1 	"/>
	<polygon fill="#19955A" points="-153.3,428.2 -153.4,428.1 -153.4,428.1 	"/>
	<polygon fill="#189359" points="-153.3,428.2 -153.4,428.1 -153.4,428.1 	"/>
	<polygon fill="#179258" points="-153.3,428.2 -153.4,428.1 -153.4,428.1 	"/>
	<polygon fill="#169056" points="-153.3,428.2 -153.4,428.1 -153.4,428.1 	"/>
	<polygon fill="#158F55" points="-153.3,428.2 -153.4,428.1 -153.4,428.1 	"/>
	<polygon fill="#158D54" points="-153.3,428.2 -153.4,428.1 -153.4,428.1 	"/>
	<polygon fill="#148C53" points="-153.3,428.2 -153.5,428.1 -153.5,428.1 -153.4,428.1 	"/>
	<polygon fill="#138B52" points="-153.5,428 -153.3,428.1 -153.3,428.1 	"/>
	<polygon fill="#128951" points="-153.5,428.1 -153.3,428.2 -153.3,428.2 	"/>
	<polygon fill="#128850" points="-153.5,428.1 -153.3,428.2 -153.3,428.2 	"/>
	<polygon fill="#11874F" points="-153.5,428.1 -153.3,428.2 -153.3,428.2 	"/>
	<polygon fill="#10864E" points="-153.5,428.1 -153.3,428.2 -153.3,428.2 	"/>
	<polygon fill="#10844D" points="-153.5,428.1 -153.3,428.2 -153.3,428.2 	"/>
	<polygon fill="#0F834D" points="-153.5,428.1 -153.3,428.2 -153.3,428.2 	"/>
	<polygon fill="#0E824C" points="-153.5,428.1 -153.3,428.2 -153.3,428.2 	"/>
	<polygon fill="#0E814B" points="-153.5,428.1 -153.3,428.2 -153.3,428.2 	"/>
	<polygon fill="#0D804A" points="-153.5,428.1 -153.3,428.2 -153.3,428.2 	"/>
	<polygon fill="#0C7F49" points="-153.5,428.1 -153.3,428.2 -153.3,428.2 	"/>
	<polygon fill="#0C7E48" points="-153.5,428.1 -153.3,428.2 -153.3,428.2 	"/>
	<polygon fill="#0B7D48" points="-153.5,428.1 -153.3,428.2 -153.3,428.2 	"/>
	<polygon fill="#0B7C47" points="-153.5,428.1 -153.3,428.2 -153.3,428.2 	"/>
	<polygon fill="#0A7B46" points="-153.5,428.1 -153.3,428.2 -153.3,428.2 	"/>
	<polygon fill="#0A7A45" points="-153.5,428.1 -153.3,428.2 -153.3,428.2 	"/>
	<polygon fill="#097945" points="-153.5,428.1 -153.3,428.2 -153.3,428.2 	"/>
	<polygon fill="#097844" points="-153.5,428.1 -153.3,428.2 -153.3,428.2 	"/>
	<polygon fill="#087743" points="-153.5,428.1 -153.3,428.2 -153.3,428.2 	"/>
	<polygon fill="#087643" points="-153.5,428.1 -153.3,428.2 -153.3,428.2 	"/>
	<polygon fill="#077542" points="-153.5,428.1 -153.3,428.2 -153.3,428.2 	"/>
	<polygon fill="#077441" points="-153.5,428.1 -153.3,428.2 -153.3,428.2 	"/>
	<polygon fill="#067341" points="-153.5,428.1 -153.3,428.2 -153.3,428.2 	"/>
	<polygon fill="#067340" points="-153.5,428.1 -153.3,428.2 -153.3,428.2 	"/>
	<polygon fill="#067240" points="-153.5,428.1 -153.3,428.2 -153.3,428.2 	"/>
	<polygon fill="#05713F" points="-153.5,428.2 -153.3,428.3 -153.3,428.3 	"/>
	<polygon fill="#05713E" points="-153.3,428.3 -153.5,428.2 -153.5,428.2 -153.3,428.3 	"/>
	<polygon fill="#04703E" points="-153.3,428.3 -153.5,428.2 -153.5,428.2 	"/>
	<polygon fill="#046F3E" points="-153.3,428.3 -153.5,428.2 -153.5,428.2 	"/>
	<polygon fill="#046F3D" points="-153.3,428.3 -153.5,428.2 -153.5,428.2 	"/>
	<polygon fill="#036E3D" points="-153.3,428.3 -153.5,428.2 -153.5,428.2 	"/>
	<polygon fill="#036E3C" points="-153.3,428.3 -153.5,428.2 -153.5,428.2 	"/>
	<polygon fill="#036D3C" points="-153.3,428.3 -153.5,428.2 -153.5,428.2 	"/>
	<polygon fill="#026D3B" points="-153.3,428.3 -153.5,428.2 -153.5,428.2 	"/>
	<polygon fill="#026C3B" points="-153.3,428.3 -153.5,428.2 -153.5,428.2 	"/>
	<polygon fill="#026C3B" points="-153.3,428.3 -153.5,428.2 -153.5,428.2 	"/>
	<polygon fill="#026B3A" points="-153.3,428.3 -153.5,428.2 -153.5,428.2 	"/>
	<polygon fill="#026B3A" points="-153.4,428.3 -153.5,428.3 -153.5,428.2 -153.3,428.3 	"/>
	<path fill="none" d="M-153.3,428.1l-0.2,0.2L-153.3,428.1z"/>
	<polygon fill="#1C9B5F" points="-156.1,431.3 -156.2,431.2 -156.2,431.2 -156.1,431.2 	"/>
	<polygon fill="#1B995D" points="-156.1,431.3 -156.2,431.2 -156.2,431.2 	"/>
	<polygon fill="#1A985C" points="-156.1,431.3 -156.2,431.2 -156.2,431.2 	"/>
	<polygon fill="#1A965B" points="-156.1,431.3 -156.2,431.2 -156.2,431.2 	"/>
	<polygon fill="#19955A" points="-156.1,431.3 -156.2,431.2 -156.2,431.2 	"/>
	<polygon fill="#189359" points="-156.1,431.3 -156.2,431.2 -156.2,431.2 	"/>
	<polygon fill="#179258" points="-156.1,431.3 -156.2,431.2 -156.2,431.2 	"/>
	<polygon fill="#169056" points="-156.1,431.3 -156.2,431.2 -156.2,431.2 	"/>
	<polygon fill="#158F55" points="-156.1,431.3 -156.3,431.2 -156.2,431.2 	"/>
	<polygon fill="#158D54" points="-156.1,431.3 -156.3,431.2 -156.3,431.2 	"/>
	<polygon fill="#148C53" points="-156.1,431.3 -156.3,431.2 -156.3,431.2 	"/>
	<polygon fill="#138B52" points="-156.1,431.3 -156.3,431.2 -156.3,431.2 	"/>
	<polygon fill="#128951" points="-156.1,431.3 -156.3,431.2 -156.3,431.2 	"/>
	<polygon fill="#128850" points="-156.1,431.3 -156.3,431.2 -156.3,431.2 -156.3,431.2 	"/>
	<polygon fill="#11874F" points="-156.3,431.1 -156,431.3 -156,431.3 	"/>
	<polygon fill="#10864E" points="-156.3,431.2 -156,431.4 -156,431.4 	"/>
	<polygon fill="#10844D" points="-156.3,431.2 -156,431.4 -156,431.4 	"/>
	<polygon fill="#0F834D" points="-156.3,431.2 -156,431.4 -156,431.4 	"/>
	<polygon fill="#0E824C" points="-156.3,431.2 -156,431.4 -156,431.4 	"/>
	<polygon fill="#0E814B" points="-156.3,431.2 -156,431.4 -156,431.4 	"/>
	<polygon fill="#0D804A" points="-156.3,431.2 -156,431.4 -156,431.4 	"/>
	<polygon fill="#0C7F49" points="-156.3,431.2 -156,431.4 -156,431.4 	"/>
	<polygon fill="#0C7E48" points="-156.3,431.2 -156,431.4 -156,431.4 	"/>
	<polygon fill="#0B7D48" points="-156.3,431.2 -156,431.4 -156,431.4 	"/>
	<polygon fill="#0B7C47" points="-156.3,431.2 -156,431.4 -156,431.4 	"/>
	<polygon fill="#0A7B46" points="-156.3,431.2 -156,431.4 -156,431.4 	"/>
	<polygon fill="#0A7A45" points="-156.3,431.2 -156,431.4 -156,431.4 	"/>
	<polygon fill="#097945" points="-156.3,431.2 -156,431.4 -156,431.4 	"/>
	<polygon fill="#097844" points="-156.3,431.2 -156,431.4 -156,431.4 	"/>
	<polygon fill="#087743" points="-156.3,431.2 -156,431.4 -156,431.4 	"/>
	<polygon fill="#087643" points="-156.3,431.2 -156,431.4 -156,431.4 	"/>
	<polygon fill="#077542" points="-156.3,431.2 -156,431.4 -156,431.4 	"/>
	<polygon fill="#077441" points="-156.3,431.2 -156,431.4 -156,431.4 	"/>
	<polygon fill="#067341" points="-156.3,431.2 -156,431.4 -156,431.4 	"/>
	<polygon fill="#067340" points="-156.1,431.4 -156.3,431.3 -156.3,431.3 -156.1,431.4 	"/>
	<polygon fill="#067240" points="-156.1,431.4 -156.3,431.3 -156.3,431.3 	"/>
	<polygon fill="#05713F" points="-156.1,431.4 -156.3,431.3 -156.3,431.3 	"/>
	<polygon fill="#05713E" points="-156.1,431.4 -156.3,431.3 -156.3,431.3 	"/>
	<polygon fill="#04703E" points="-156.1,431.4 -156.3,431.3 -156.3,431.3 	"/>
	<polygon fill="#046F3E" points="-156.1,431.4 -156.3,431.3 -156.3,431.3 	"/>
	<polygon fill="#046F3D" points="-156.1,431.4 -156.3,431.3 -156.3,431.3 	"/>
	<polygon fill="#036E3D" points="-156.1,431.4 -156.3,431.3 -156.3,431.3 	"/>
	<polygon fill="#036E3C" points="-156.1,431.4 -156.3,431.3 -156.3,431.3 	"/>
	<polygon fill="#036D3C" points="-156.1,431.4 -156.3,431.3 -156.3,431.3 	"/>
	<polygon fill="#026D3B" points="-156.1,431.4 -156.3,431.3 -156.3,431.3 	"/>
	<polygon fill="#026C3B" points="-156.2,431.4 -156.3,431.3 -156.3,431.3 -156.1,431.4 	"/>
	<polygon fill="#026C3B" points="-156.2,431.4 -156.3,431.3 -156.3,431.3 	"/>
	<polygon fill="#026B3A" points="-156.2,431.4 -156.3,431.3 -156.3,431.3 	"/>
	<polygon fill="#026B3A" points="-156.2,431.4 -156.3,431.3 -156.3,431.3 	"/>
	<polygon fill="#016A3A" points="-156.2,431.4 -156.3,431.4 -156.3,431.3 	"/>
	<path fill="none" d="M-156.1,431.2l-0.2,0.2L-156.1,431.2z"/>
	<polygon fill="#1FA062" points="-157.6,432.8 -157.7,432.7 -157.7,432.7 -157.6,432.7 	"/>
	<polygon fill="#1E9E61" points="-157.6,432.8 -157.7,432.7 -157.7,432.7 	"/>
	<polygon fill="#1D9D60" points="-157.6,432.8 -157.8,432.7 -157.7,432.7 	"/>
	<polygon fill="#1C9B5F" points="-157.6,432.8 -157.8,432.7 -157.8,432.7 	"/>
	<polygon fill="#1B995D" points="-157.6,432.8 -157.8,432.7 -157.8,432.7 	"/>
	<polygon fill="#1A985C" points="-157.6,432.8 -157.8,432.7 -157.8,432.7 	"/>
	<polygon fill="#1A965B" points="-157.6,432.8 -157.8,432.7 -157.8,432.7 	"/>
	<polygon fill="#19955A" points="-157.6,432.8 -157.8,432.7 -157.8,432.7 	"/>
	<polygon fill="#189359" points="-157.6,432.8 -157.8,432.7 -157.8,432.7 	"/>
	<polygon fill="#179258" points="-157.6,432.8 -157.8,432.7 -157.8,432.7 	"/>
	<polygon fill="#169056" points="-157.6,432.8 -157.8,432.7 -157.8,432.7 	"/>
	<polygon fill="#158F55" points="-157.6,432.8 -157.8,432.7 -157.8,432.7 	"/>
	<polygon fill="#158D54" points="-157.6,432.8 -157.8,432.7 -157.8,432.7 	"/>
	<polygon fill="#148C53" points="-157.6,432.8 -157.8,432.7 -157.8,432.7 	"/>
	<polygon fill="#138B52" points="-157.6,432.8 -157.9,432.7 -157.8,432.7 	"/>
	<polygon fill="#128951" points="-157.6,432.8 -157.9,432.7 -157.9,432.7 	"/>
	<polygon fill="#128850" points="-157.6,432.8 -157.9,432.7 -157.9,432.7 	"/>
	<polygon fill="#11874F" points="-157.6,432.8 -157.9,432.7 -157.9,432.7 	"/>
	<polygon fill="#10864E" points="-157.6,432.8 -157.9,432.7 -157.9,432.7 -157.9,432.7 	"/>
	<polygon fill="#10844D" points="-157.9,432.7 -157.6,432.9 -157.6,432.9 	"/>
	<polygon fill="#0F834D" points="-157.9,432.7 -157.6,432.9 -157.6,432.9 	"/>
	<polygon fill="#0E824C" points="-157.9,432.7 -157.6,432.9 -157.6,432.9 	"/>
	<polygon fill="#0E814B" points="-157.9,432.7 -157.6,432.9 -157.6,432.9 	"/>
	<polygon fill="#0D804A" points="-157.9,432.7 -157.6,432.9 -157.6,432.9 	"/>
	<polygon fill="#0C7F49" points="-157.9,432.7 -157.6,432.9 -157.6,432.9 	"/>
	<polygon fill="#0C7E48" points="-157.9,432.7 -157.6,432.9 -157.6,432.9 	"/>
	<polygon fill="#0B7D48" points="-157.9,432.7 -157.6,432.9 -157.6,432.9 	"/>
	<polygon fill="#0B7C47" points="-157.9,432.7 -157.6,432.9 -157.6,432.9 	"/>
	<polygon fill="#0A7B46" points="-157.9,432.7 -157.6,432.9 -157.6,432.9 	"/>
	<polygon fill="#0A7A45" points="-157.9,432.7 -157.6,432.9 -157.6,432.9 	"/>
	<polygon fill="#097945" points="-157.9,432.7 -157.6,432.9 -157.6,432.9 	"/>
	<polygon fill="#097844" points="-157.9,432.7 -157.6,432.9 -157.6,432.9 	"/>
	<polygon fill="#087743" points="-157.9,432.7 -157.6,432.9 -157.6,432.9 	"/>
	<polygon fill="#087643" points="-157.9,432.7 -157.6,432.9 -157.6,432.9 	"/>
	<polygon fill="#077542" points="-157.9,432.7 -157.6,432.9 -157.6,432.9 	"/>
	<polygon fill="#077441" points="-157.6,432.9 -157.9,432.8 -157.9,432.8 -157.6,432.9 	"/>
	<polygon fill="#067341" points="-157.6,432.9 -157.9,432.8 -157.9,432.8 	"/>
	<polygon fill="#067340" points="-157.6,432.9 -157.9,432.8 -157.9,432.8 	"/>
	<polygon fill="#067240" points="-157.7,432.9 -157.9,432.8 -157.9,432.8 -157.6,432.9 	"/>
	<polygon fill="#05713F" points="-157.7,432.9 -157.9,432.8 -157.9,432.8 	"/>
	<polygon fill="#05713E" points="-157.7,432.9 -157.9,432.8 -157.9,432.8 	"/>
	<polygon fill="#04703E" points="-157.7,432.9 -157.9,432.8 -157.9,432.8 	"/>
	<polygon fill="#046F3E" points="-157.7,432.9 -157.9,432.8 -157.9,432.8 	"/>
	<polygon fill="#046F3D" points="-157.7,432.9 -157.9,432.8 -157.9,432.8 	"/>
	<polygon fill="#036E3D" points="-157.7,432.9 -157.9,432.8 -157.9,432.8 	"/>
	<polygon fill="#036E3C" points="-157.7,432.9 -157.9,432.8 -157.9,432.8 	"/>
	<polygon fill="#036D3C" points="-157.7,432.9 -157.9,432.8 -157.9,432.8 	"/>
	<polygon fill="#026D3B" points="-157.7,432.9 -157.9,432.8 -157.9,432.8 	"/>
	<polygon fill="#026C3B" points="-157.7,432.9 -157.9,432.8 -157.9,432.8 	"/>
	<polygon fill="#026C3B" points="-157.7,432.9 -157.9,432.8 -157.9,432.8 	"/>
	<polygon fill="#026B3A" points="-157.8,432.9 -157.9,432.8 -157.9,432.8 -157.7,432.9 	"/>
	<polygon fill="#026B3A" points="-157.8,432.9 -157.9,432.9 -157.9,432.8 	"/>
	<path fill="none" d="M-157.6,432.7l-0.3,0.2L-157.6,432.7z"/>
	<polygon fill="#27AE6D" points="-162.6,436.7 -162.7,436.6 -162.6,436.6 -162.6,436.6 	"/>
	<polygon fill="#26AC6C" points="-162.6,436.7 -162.7,436.6 -162.7,436.6 	"/>
	<polygon fill="#25AB6A" points="-162.6,436.7 -162.7,436.6 -162.7,436.6 	"/>
	<polygon fill="#24A969" points="-162.6,436.7 -162.7,436.6 -162.7,436.6 	"/>
	<polygon fill="#23A768" points="-162.6,436.7 -162.7,436.6 -162.7,436.6 	"/>
	<polygon fill="#22A566" points="-162.6,436.7 -162.7,436.6 -162.7,436.6 	"/>
	<polygon fill="#21A365" points="-162.6,436.7 -162.7,436.6 -162.7,436.6 	"/>
	<polygon fill="#20A264" points="-162.6,436.7 -162.7,436.6 -162.7,436.6 	"/>
	<polygon fill="#1FA062" points="-162.6,436.7 -162.7,436.6 -162.7,436.6 	"/>
	<polygon fill="#1E9E61" points="-162.6,436.7 -162.7,436.6 -162.7,436.6 	"/>
	<polygon fill="#1D9D60" points="-162.6,436.7 -162.7,436.6 -162.7,436.6 	"/>
	<polygon fill="#1C9B5F" points="-162.6,436.7 -162.7,436.6 -162.7,436.6 	"/>
	<polygon fill="#1B995D" points="-162.6,436.7 -162.8,436.6 -162.7,436.6 	"/>
	<polygon fill="#1A985C" points="-162.6,436.7 -162.8,436.6 -162.8,436.6 	"/>
	<polygon fill="#1A965B" points="-162.6,436.7 -162.8,436.6 -162.8,436.6 	"/>
	<polygon fill="#19955A" points="-162.6,436.7 -162.8,436.6 -162.8,436.6 	"/>
	<polygon fill="#189359" points="-162.6,436.7 -162.8,436.6 -162.8,436.6 	"/>
	<polygon fill="#179258" points="-162.6,436.7 -162.8,436.6 -162.8,436.6 	"/>
	<polygon fill="#169056" points="-162.6,436.7 -162.8,436.6 -162.8,436.6 	"/>
	<polygon fill="#158F55" points="-162.6,436.7 -162.8,436.6 -162.8,436.6 	"/>
	<polygon fill="#158D54" points="-162.6,436.8 -162.8,436.6 -162.8,436.6 -162.6,436.7 	"/>
	<polygon fill="#148C53" points="-162.6,436.8 -162.8,436.6 -162.8,436.6 	"/>
	<polygon fill="#138B52" points="-162.6,436.8 -162.8,436.6 -162.8,436.6 	"/>
	<polygon fill="#128951" points="-162.6,436.8 -162.8,436.6 -162.8,436.6 	"/>
	<polygon fill="#128850" points="-162.6,436.8 -162.9,436.6 -162.8,436.6 	"/>
	<polygon fill="#11874F" points="-162.6,436.8 -162.9,436.6 -162.9,436.6 	"/>
	<polygon fill="#10864E" points="-162.6,436.8 -162.9,436.6 -162.9,436.6 	"/>
	<polygon fill="#10844D" points="-162.6,436.8 -162.9,436.6 -162.9,436.6 	"/>
	<polygon fill="#0F834D" points="-162.6,436.8 -162.9,436.6 -162.9,436.6 	"/>
	<polygon fill="#0E824C" points="-162.6,436.8 -162.9,436.6 -162.9,436.6 	"/>
	<polygon fill="#0E814B" points="-162.6,436.8 -162.9,436.6 -162.9,436.6 	"/>
	<polygon fill="#0D804A" points="-162.6,436.8 -162.9,436.6 -162.9,436.6 -162.9,436.6 	"/>
	<polygon fill="#0C7F49" points="-162.9,436.6 -162.5,436.8 -162.5,436.8 	"/>
	<polygon fill="#0C7E48" points="-162.9,436.6 -162.5,436.8 -162.5,436.8 	"/>
	<polygon fill="#0B7D48" points="-162.9,436.6 -162.5,436.8 -162.5,436.8 	"/>
	<polygon fill="#0B7C47" points="-162.9,436.6 -162.5,436.8 -162.5,436.8 	"/>
	<polygon fill="#0A7B46" points="-162.9,436.6 -162.5,436.8 -162.5,436.8 	"/>
	<polygon fill="#0A7A45" points="-162.9,436.6 -162.5,436.8 -162.5,436.8 	"/>
	<polygon fill="#097945" points="-162.6,436.8 -162.9,436.7 -162.9,436.7 -162.6,436.8 	"/>
	<polygon fill="#097844" points="-162.6,436.8 -162.9,436.7 -162.9,436.7 	"/>
	<polygon fill="#087743" points="-162.6,436.8 -162.9,436.7 -162.9,436.7 	"/>
	<polygon fill="#087643" points="-162.6,436.8 -162.9,436.7 -162.9,436.7 	"/>
	<polygon fill="#077542" points="-162.7,436.8 -162.9,436.7 -162.9,436.7 -162.6,436.8 	"/>
	<polygon fill="#077441" points="-162.7,436.8 -162.9,436.7 -162.9,436.7 	"/>
	<polygon fill="#067341" points="-162.7,436.8 -162.9,436.7 -162.9,436.7 	"/>
	<polygon fill="#067340" points="-162.7,436.8 -162.9,436.7 -162.9,436.7 	"/>
	<polygon fill="#067240" points="-162.7,436.8 -162.9,436.7 -162.9,436.7 	"/>
	<polygon fill="#05713F" points="-162.7,436.8 -162.9,436.7 -162.9,436.7 	"/>
	<polygon fill="#05713E" points="-162.7,436.8 -162.9,436.7 -162.9,436.7 	"/>
	<polygon fill="#04703E" points="-162.7,436.8 -162.9,436.7 -162.9,436.7 	"/>
	<polygon fill="#046F3E" points="-162.7,436.8 -162.9,436.7 -162.9,436.7 	"/>
	<polygon fill="#046F3D" points="-162.7,436.8 -162.9,436.7 -162.9,436.7 	"/>
	<polygon fill="#036E3D" points="-162.7,436.8 -162.9,436.7 -162.9,436.7 	"/>
	<polygon fill="#036E3C" points="-162.7,436.8 -162.9,436.7 -162.9,436.7 	"/>
	<polygon fill="#036D3C" points="-162.8,436.8 -162.9,436.7 -162.9,436.7 -162.7,436.8 	"/>
	<polygon fill="#026D3B" points="-162.8,436.8 -162.9,436.7 -162.9,436.7 	"/>
	<polygon fill="#026C3B" points="-162.8,436.8 -162.9,436.8 -162.9,436.7 	"/>
	<path fill="none" d="M-162.6,436.6c-0.1,0.1-0.2,0.1-0.3,0.2C-162.8,436.8-162.7,436.7-162.6,436.6z"/>
	<polygon fill="#21A365" points="-178.6,443.4 -178.5,443.4 -178.5,443.4 	"/>
	<polygon fill="#20A264" points="-178.6,443.4 -178.5,443.4 -178.5,443.4 	"/>
	<polygon fill="#1FA062" points="-178.6,443.4 -178.5,443.4 -178.5,443.4 	"/>
	<polygon fill="#1E9E61" points="-178.6,443.4 -178.5,443.4 -178.5,443.4 	"/>
	<polygon fill="#1D9D60" points="-178.6,443.4 -178.5,443.4 -178.5,443.4 	"/>
	<polygon fill="#1C9B5F" points="-178.6,443.4 -178.5,443.4 -178.5,443.4 	"/>
	<polygon fill="#1B995D" points="-178.6,443.4 -178.5,443.4 -178.5,443.4 	"/>
	<polygon fill="#1A985C" points="-178.6,443.4 -178.5,443.4 -178.5,443.4 	"/>
	<polygon fill="#1A965B" points="-178.6,443.4 -178.5,443.4 -178.5,443.4 	"/>
	<polygon fill="#026D3B" points="-178.8,443.4 -178.7,443.4 -178.7,443.4 	"/>
	<polygon fill="#026C3B" points="-178.8,443.4 -178.7,443.4 -178.7,443.4 	"/>
	<polygon fill="#026C3B" points="-178.8,443.4 -178.7,443.4 -178.7,443.4 	"/>
	<polygon fill="#026B3A" points="-178.8,443.4 -178.7,443.4 -178.7,443.4 	"/>
	<polygon fill="#026B3A" points="-178.8,443.4 -178.7,443.4 -178.7,443.4 	"/>
	<polygon fill="#016A3A" points="-178.8,443.4 -178.7,443.4 -178.7,443.4 	"/>
	<polygon fill="#016A3A" points="-178.8,443.4 -178.7,443.4 -178.7,443.4 	"/>
	<polygon fill="#016A39" points="-178.8,443.4 -178.7,443.4 -178.7,443.4 	"/>
	<polygon fill="#169056" points="-176.3,443 -176.5,442.9 -176.4,442.9 -176.3,442.9 	"/>
	<polygon fill="#158F55" points="-176.3,443 -176.5,442.9 -176.5,442.9 -176.3,443 	"/>
	<polygon fill="#158D54" points="-176.3,443 -176.5,442.9 -176.5,442.9 	"/>
	<polygon fill="#148C53" points="-176.3,443 -176.5,442.9 -176.5,442.9 	"/>
	<polygon fill="#138B52" points="-176.3,443 -176.5,442.9 -176.5,442.9 	"/>
	<polygon fill="#128951" points="-176.3,443 -176.5,442.9 -176.5,442.9 	"/>
	<polygon fill="#128850" points="-176.3,443 -176.5,442.9 -176.5,442.9 	"/>
	<polygon fill="#11874F" points="-176.3,443 -176.5,442.9 -176.5,442.9 	"/>
	<polygon fill="#10864E" points="-176.3,443 -176.5,442.9 -176.5,442.9 	"/>
	<polygon fill="#10844D" points="-176.4,443 -176.5,442.9 -176.5,442.9 -176.3,443 	"/>
	<polygon fill="#0F834D" points="-176.4,443 -176.5,442.9 -176.5,442.9 	"/>
	<polygon fill="#0E824C" points="-176.4,443 -176.5,442.9 -176.5,442.9 	"/>
	<polygon fill="#0E814B" points="-176.4,443 -176.5,442.9 -176.5,442.9 	"/>
	<polygon fill="#0D804A" points="-176.4,443 -176.5,442.9 -176.5,442.9 	"/>
	<polygon fill="#0C7F49" points="-176.4,443 -176.5,442.9 -176.5,442.9 	"/>
	<polygon fill="#0C7E48" points="-176.4,443 -176.6,442.9 -176.5,442.9 	"/>
	<polygon fill="#0B7D48" points="-176.4,443 -176.6,442.9 -176.6,442.9 	"/>
	<polygon fill="#0B7C47" points="-176.4,443 -176.6,442.9 -176.6,442.9 	"/>
	<polygon fill="#0A7B46" points="-176.4,443 -176.6,442.9 -176.6,442.9 	"/>
	<polygon fill="#0A7A45" points="-176.4,443 -176.6,442.9 -176.6,442.9 	"/>
	<polygon fill="#097945" points="-176.4,443 -176.6,442.9 -176.6,442.9 	"/>
	<polygon fill="#097844" points="-176.4,443 -176.6,442.9 -176.6,442.9 	"/>
	<polygon fill="#087743" points="-176.4,443 -176.6,442.9 -176.6,442.9 	"/>
	<polygon fill="#087643" points="-176.4,443 -176.6,442.9 -176.6,442.9 	"/>
	<polygon fill="#077542" points="-176.5,443 -176.6,442.9 -176.6,442.9 -176.4,443 	"/>
	<polygon fill="#077441" points="-176.5,443 -176.6,442.9 -176.6,442.9 	"/>
	<polygon fill="#067341" points="-176.5,443 -176.6,442.9 -176.6,442.9 	"/>
	<polygon fill="#067340" points="-176.5,443 -176.6,442.9 -176.6,442.9 	"/>
	<polygon fill="#067240" points="-176.5,443 -176.6,442.9 -176.6,442.9 	"/>
	<polygon fill="#05713F" points="-176.5,443 -176.6,442.9 -176.6,442.9 	"/>
	<polygon fill="#05713E" points="-176.5,443 -176.7,442.9 -176.6,442.9 	"/>
	<polygon fill="#04703E" points="-176.5,443 -176.7,442.9 -176.7,442.9 	"/>
	<polygon fill="#046F3E" points="-176.5,443 -176.7,442.9 -176.7,442.9 -176.7,442.9 	"/>
	<polygon fill="#046F3D" points="-176.5,443 -176.7,442.9 -176.7,442.9 	"/>
	<polygon fill="#036E3D" points="-176.5,443 -176.7,442.9 -176.7,442.9 	"/>
	<polygon fill="#036E3C" points="-176.5,443 -176.7,442.9 -176.7,442.9 	"/>
	<polygon fill="#036D3C" points="-176.5,443 -176.7,442.9 -176.7,442.9 	"/>
	<polygon fill="#026D3B" points="-176.5,443 -176.7,442.9 -176.7,442.9 	"/>
	<polygon fill="#026C3B" points="-176.5,443 -176.7,442.9 -176.7,442.9 	"/>
	<polygon fill="#026C3B" points="-176.6,443 -176.7,442.9 -176.7,442.9 -176.5,443 	"/>
	<polygon fill="#026B3A" points="-176.6,443 -176.7,442.9 -176.7,442.9 	"/>
	<polygon fill="#026B3A" points="-176.6,443 -176.7,442.9 -176.7,442.9 	"/>
	<polygon fill="#016A3A" points="-176.6,443 -176.7,442.9 -176.7,442.9 	"/>
	<polygon fill="#016A3A" points="-176.6,443 -176.7,442.9 -176.7,442.9 	"/>
	<polygon fill="#016A39" points="-176.6,443 -176.7,442.9 -176.7,442.9 	"/>
	<polygon fill="#016939" points="-176.6,443 -176.7,442.9 -176.7,442.9 	"/>
	<polygon fill="#016939" points="-176.6,443 -176.7,442.9 -176.7,442.9 	"/>
	<polygon fill="#016939" points="-176.6,443 -176.7,442.9 -176.7,442.9 	"/>
	<polygon fill="#006939" points="-176.6,443 -176.7,442.9 -176.7,442.9 	"/>
	<polygon fill="#006938" points="-176.6,443 -176.7,442.9 -176.7,442.9 	"/>
	<polygon fill="#006838" points="-176.6,443 -176.7,442.9 -176.7,442.9 	"/>
	<polygon fill="#006838" points="-176.6,443 -176.7,442.9 -176.7,442.9 	"/>
	<polygon fill="#006838" points="-176.6,443 -176.7,442.9 -176.7,442.9 	"/>
	<polygon fill="#006838" points="-176.6,443 -176.7,442.9 -176.7,442.9 	"/>
	<polygon fill="#006838" points="-176.7,443 -176.7,443 -176.7,442.9 -176.6,443 	"/>
	<path fill="none" d="M-176.3,442.9c-0.1,0-0.2,0.1-0.4,0.1C-176.5,442.9-176.4,442.9-176.3,442.9z"/>
	<polygon fill="#26AC6C" points="-185.1,444.3 -185.2,444.2 -185.2,444.2 -185.1,444.3 	"/>
	<polygon fill="#25AB6A" points="-185.1,444.3 -185.2,444.2 -185.2,444.2 	"/>
	<polygon fill="#24A969" points="-185.2,444.3 -185.2,444.2 -185.2,444.2 -185.1,444.3 	"/>
	<polygon fill="#158F55" points="-185.2,444.3 -185.3,444.2 -185.2,444.2 	"/>
	<polygon fill="#158D54" points="-185.2,444.3 -185.3,444.2 -185.3,444.2 	"/>
	<polygon fill="#148C53" points="-185.2,444.3 -185.3,444.2 -185.3,444.2 	"/>
	<polygon fill="#138B52" points="-185.2,444.3 -185.3,444.2 -185.3,444.2 	"/>
	<polygon fill="#128951" points="-185.2,444.3 -185.3,444.2 -185.3,444.2 	"/>
	<polygon fill="#128850" points="-185.3,444.3 -185.3,444.2 -185.3,444.2 -185.2,444.3 	"/>
	<polygon fill="#087743" points="-185.3,444.3 -185.4,444.2 -185.3,444.2 	"/>
	<polygon fill="#087643" points="-185.3,444.3 -185.4,444.2 -185.4,444.2 	"/>
	<polygon fill="#077542" points="-185.3,444.3 -185.4,444.2 -185.4,444.2 	"/>
	<polygon fill="#077441" points="-185.3,444.3 -185.4,444.2 -185.4,444.2 	"/>
	<polygon fill="#067341" points="-185.3,444.3 -185.4,444.2 -185.4,444.2 	"/>
	<polygon fill="#067340" points="-185.3,444.3 -185.4,444.2 -185.4,444.2 	"/>
	<polygon fill="#067240" points="-185.4,444.3 -185.4,444.2 -185.4,444.2 -185.3,444.3 	"/>
	<polygon fill="#016A3A" points="-185.4,444.3 -185.5,444.2 -185.4,444.2 	"/>
	<polygon fill="#016A39" points="-185.4,444.3 -185.5,444.2 -185.5,444.2 	"/>
	<polygon fill="#016939" points="-185.4,444.3 -185.5,444.2 -185.5,444.2 	"/>
	<polygon fill="#016939" points="-185.4,444.3 -185.5,444.2 -185.5,444.2 	"/>
	<polygon fill="#016939" points="-185.4,444.3 -185.5,444.2 -185.5,444.2 	"/>
	<polygon fill="#006939" points="-185.4,444.3 -185.5,444.2 -185.5,444.2 	"/>
	<polygon fill="#006938" points="-185.5,444.3 -185.5,444.2 -185.5,444.2 -185.4,444.3 	"/>
	<path fill="none" d="M-185.1,444.2c-0.1,0-0.2,0-0.3,0C-185.4,444.3-185.3,444.2-185.1,444.2z"/>
	<path fill="#2766CB" d="M-187.6,444.3c0.7,0,1.4,0,2.1-0.1c0.1,0,0.2,0,0.3,0c0.7,0,1.3-0.1,2-0.1c0.1,0,0.3,0,0.4,0
		c0.7-0.1,1.3-0.2,2-0.2h0.2c0.6-0.1,1.2-0.2,1.9-0.3h0.2c0.6-0.1,1.3-0.3,1.9-0.4c0.1,0,0.2-0.1,0.4-0.1c0.6-0.2,1.2-0.3,1.8-0.5
		c0.1,0,0.2-0.1,0.3-0.1c0.6-0.2,1.2-0.4,1.8-0.6h0.1c0.6-0.2,1.2-0.5,1.8-0.7c0.1,0,0.2-0.1,0.3-0.1c0.6-0.2,1.1-0.5,1.7-0.8
		c0.1-0.1,0.2-0.1,0.3-0.2c0.6-0.3,1.1-0.6,1.7-0.9l0.1-0.1c0.5-0.3,1.1-0.6,1.6-0.9l0.2-0.1c0.5-0.3,1.1-0.7,1.6-1
		c0.1-0.1,0.2-0.1,0.3-0.2c0.5-0.3,1-0.7,1.5-1.1l0.2-0.2c0.5-0.4,1-0.8,1.5-1.1l0.1-0.1c0.5-0.4,1-0.8,1.4-1.2l0.3-0.2
		c0.5-0.4,0.9-0.8,1.3-1.3l0.2-0.2c0.4-0.4,0.9-0.9,1.3-1.4l0.1-0.1c0.4-0.5,0.8-0.9,1.2-1.4l0.2-0.2c6.3-7.7,10.1-17.5,10.1-28.1
		c0-24.5-19.9-44.3-44.3-44.3s-44.4,19.5-44.4,44S-212,444.3-187.6,444.3z"/>
	<polygon fill="#1FA062" points="-180.7,443.8 -180.6,443.8 -180.6,443.8 	"/>
	<polygon fill="#1E9E61" points="-180.7,443.8 -180.6,443.8 -180.6,443.8 	"/>
	<polygon fill="#1D9D60" points="-180.7,443.8 -180.6,443.8 -180.6,443.8 	"/>
	<polygon fill="#1C9B5F" points="-180.7,443.8 -180.6,443.8 -180.6,443.8 	"/>
	<polygon fill="#1B995D" points="-180.7,443.8 -180.6,443.8 -180.6,443.8 	"/>
	<polygon fill="#026C3B" points="-180.9,443.8 -180.8,443.8 -180.8,443.8 	"/>
	<polygon fill="#026B3A" points="-180.9,443.8 -180.8,443.8 -180.8,443.8 	"/>
	<polygon fill="#026B3A" points="-180.9,443.8 -180.8,443.8 -180.8,443.8 	"/>
	<polygon fill="#016A3A" points="-180.9,443.8 -180.8,443.8 -180.8,443.8 	"/>
	<path fill="none" d="M-174.2,442.3c-0.1,0-0.2,0.1-0.3,0.1C-174.4,442.3-174.3,442.3-174.2,442.3z"/>
	<polygon fill="#20A264" points="-164.5,437.9 -164.6,437.8 -164.5,437.8 	"/>
	<polygon fill="#1FA062" points="-164.5,437.9 -164.6,437.8 -164.6,437.8 	"/>
	<polygon fill="#1E9E61" points="-164.5,437.9 -164.6,437.8 -164.6,437.8 	"/>
	<polygon fill="#1D9D60" points="-164.5,437.9 -164.6,437.8 -164.6,437.8 	"/>
	<polygon fill="#1C9B5F" points="-164.5,437.9 -164.6,437.8 -164.6,437.8 	"/>
	<polygon fill="#1B995D" points="-164.5,437.9 -164.6,437.8 -164.6,437.8 	"/>
	<polygon fill="#1A985C" points="-164.5,437.9 -164.6,437.8 -164.6,437.8 	"/>
	<polygon fill="#1A965B" points="-164.5,437.9 -164.6,437.8 -164.6,437.8 	"/>
	<polygon fill="#19955A" points="-164.5,437.9 -164.6,437.8 -164.6,437.8 	"/>
	<polygon fill="#189359" points="-164.5,437.9 -164.6,437.8 -164.6,437.8 	"/>
	<polygon fill="#179258" points="-164.5,437.9 -164.6,437.8 -164.6,437.8 	"/>
	<polygon fill="#169056" points="-164.5,437.9 -164.6,437.8 -164.6,437.8 	"/>
	<polygon fill="#158F55" points="-164.5,437.9 -164.6,437.8 -164.6,437.8 	"/>
	<polygon fill="#158D54" points="-164.5,437.9 -164.6,437.8 -164.6,437.8 	"/>
	<polygon fill="#148C53" points="-164.5,437.9 -164.6,437.8 -164.6,437.8 	"/>
	<polygon fill="#138B52" points="-164.5,437.9 -164.6,437.8 -164.6,437.8 	"/>
	<polygon fill="#128951" points="-164.5,437.9 -164.6,437.8 -164.6,437.8 	"/>
	<polygon fill="#128850" points="-164.5,437.9 -164.7,437.8 -164.6,437.8 	"/>
	<polygon fill="#11874F" points="-164.5,437.9 -164.7,437.8 -164.7,437.8 	"/>
	<polygon fill="#10864E" points="-164.5,437.9 -164.7,437.8 -164.7,437.8 	"/>
	<polygon fill="#10844D" points="-164.5,438 -164.7,437.8 -164.7,437.8 -164.5,437.9 	"/>
	<polygon fill="#0F834D" points="-164.5,438 -164.7,437.8 -164.7,437.8 	"/>
	<polygon fill="#0E824C" points="-164.5,438 -164.7,437.8 -164.7,437.8 	"/>
	<polygon fill="#0E814B" points="-164.5,438 -164.7,437.8 -164.7,437.8 	"/>
	<polygon fill="#0D804A" points="-164.5,438 -164.7,437.8 -164.7,437.8 	"/>
	<polygon fill="#0C7F49" points="-164.5,438 -164.7,437.8 -164.7,437.8 	"/>
	<polygon fill="#0C7E48" points="-164.5,438 -164.7,437.8 -164.7,437.8 	"/>
	<polygon fill="#0B7D48" points="-164.5,438 -164.7,437.8 -164.7,437.8 -164.7,437.8 	"/>
	<polygon fill="#0B7C47" points="-164.5,438 -164.7,437.8 -164.7,437.8 -164.5,438 	"/>
	<polygon fill="#0A7B46" points="-164.5,438 -164.7,437.9 -164.7,437.8 	"/>
	<polygon fill="#0A7A45" points="-164.5,438 -164.7,437.9 -164.7,437.9 	"/>
	<polygon fill="#097945" points="-164.5,438 -164.7,437.9 -164.7,437.9 	"/>
	<polygon fill="#097844" points="-164.5,438 -164.7,437.9 -164.7,437.9 	"/>
	<polygon fill="#087743" points="-164.5,438 -164.7,437.9 -164.7,437.9 	"/>
	<polygon fill="#087643" points="-164.5,438 -164.7,437.9 -164.7,437.9 	"/>
	<polygon fill="#077542" points="-164.5,438 -164.7,437.9 -164.7,437.9 	"/>
	<polygon fill="#077441" points="-164.5,438 -164.7,437.9 -164.7,437.9 	"/>
	<polygon fill="#067341" points="-164.5,438 -164.7,437.9 -164.7,437.9 	"/>
	<polygon fill="#067340" points="-164.5,438 -164.7,437.9 -164.7,437.9 	"/>
	<polygon fill="#067240" points="-164.6,438 -164.7,437.9 -164.7,437.9 -164.5,438 	"/>
	<polygon fill="#05713F" points="-164.6,438 -164.7,437.9 -164.7,437.9 	"/>
	<polygon fill="#05713E" points="-164.6,438 -164.7,437.9 -164.7,437.9 	"/>
	<polygon fill="#04703E" points="-164.6,438 -164.7,437.9 -164.7,437.9 	"/>
	<polygon fill="#046F3E" points="-164.6,438 -164.7,437.9 -164.7,437.9 	"/>
	<polygon fill="#046F3D" points="-164.6,438 -164.7,437.9 -164.7,437.9 	"/>
	<polygon fill="#036E3D" points="-164.6,438 -164.7,437.9 -164.7,437.9 	"/>
	<polygon fill="#036E3C" points="-164.6,438 -164.7,437.9 -164.7,437.9 	"/>
	<polygon fill="#036D3C" points="-164.6,438 -164.7,437.9 -164.7,437.9 	"/>
	<polygon fill="#026D3B" points="-164.6,438 -164.7,437.9 -164.7,437.9 	"/>
	<polygon fill="#026C3B" points="-164.6,438 -164.7,437.9 -164.7,437.9 	"/>
	<polygon fill="#026C3B" points="-164.6,438 -164.7,437.9 -164.7,437.9 	"/>
	<polygon fill="#026B3A" points="-164.6,438 -164.7,437.9 -164.7,437.9 	"/>
	<polygon fill="#026B3A" points="-164.6,438 -164.7,437.9 -164.7,437.9 	"/>
	<polygon fill="#016A3A" points="-164.6,438 -164.7,437.9 -164.7,437.9 	"/>
	<polygon fill="#016A3A" points="-164.6,438 -164.7,437.9 -164.7,437.9 	"/>
	<polygon fill="#016A39" points="-164.6,438 -164.7,437.9 -164.7,437.9 	"/>
	<polygon fill="#016939" points="-164.7,438 -164.7,437.9 -164.7,437.9 -164.6,438 	"/>
	<path fill="none" d="M-164.5,437.8l-0.2,0.1L-164.5,437.8z"/>
	<polygon fill="#20A264" points="-166.4,438.9 -166.3,438.9 -166.3,438.9 	"/>
	<polygon fill="#1FA062" points="-166.4,438.9 -166.3,438.9 -166.3,438.9 	"/>
	<polygon fill="#1E9E61" points="-166.4,438.9 -166.3,438.9 -166.3,438.9 	"/>
	<polygon fill="#1D9D60" points="-166.4,438.9 -166.3,438.9 -166.3,438.9 	"/>
	<polygon fill="#1C9B5F" points="-166.4,438.9 -166.3,438.9 -166.3,438.9 	"/>
	<polygon fill="#1B995D" points="-166.4,438.9 -166.3,438.9 -166.3,438.9 	"/>
	<polygon fill="#1A985C" points="-166.4,438.9 -166.3,438.9 -166.3,438.9 	"/>
	<polygon fill="#1A965B" points="-166.4,438.9 -166.3,438.9 -166.3,438.9 	"/>
	<polygon fill="#19955A" points="-166.4,438.9 -166.3,438.9 -166.3,438.9 	"/>
	<polygon fill="#189359" points="-166.4,438.9 -166.3,438.9 -166.3,438.9 	"/>
	<polygon fill="#179258" points="-166.4,438.9 -166.3,438.9 -166.3,438.9 	"/>
	<polygon fill="#169056" points="-166.4,438.9 -166.3,438.9 -166.3,438.9 	"/>
	<polygon fill="#158F55" points="-166.4,438.9 -166.3,438.9 -166.3,438.9 	"/>
	<polygon fill="#158D54" points="-166.4,438.9 -166.3,438.9 -166.3,438.9 	"/>
	<polygon fill="#148C53" points="-166.4,438.9 -166.3,438.9 -166.3,438.9 	"/>
	<polygon fill="#138B52" points="-166.4,438.9 -166.3,438.9 -166.3,438.9 	"/>
	<polygon fill="#128951" points="-166.4,438.9 -166.3,438.9 -166.3,438.9 	"/>
	<polygon fill="#128850" points="-166.4,438.9 -166.3,438.9 -166.3,438.9 	"/>
	<polygon fill="#11874F" points="-166.4,438.9 -166.3,438.9 -166.3,438.9 	"/>
	<polygon fill="#10864E" points="-166.4,438.9 -166.3,438.9 -166.3,438.9 	"/>
	<polygon fill="#10844D" points="-166.4,438.9 -166.3,438.9 -166.3,438.9 	"/>
	<polygon fill="#0F834D" points="-166.4,438.9 -166.3,438.9 -166.3,438.9 	"/>
	<polygon fill="#0E824C" points="-166.4,438.9 -166.3,438.9 -166.3,438.9 	"/>
	<polygon fill="#0E814B" points="-166.4,438.9 -166.3,438.9 -166.3,438.9 	"/>
	<polygon fill="#0D804A" points="-166.4,438.9 -166.2,439 -166.2,439 	"/>
	<polygon fill="#0C7F49" points="-166.4,438.9 -166.2,439 -166.2,439 	"/>
	<polygon fill="#0C7E48" points="-166.5,438.8 -166.3,438.9 -166.3,438.9 	"/>
	<polygon fill="#0B7D48" points="-166.3,439 -166.4,438.9 -166.4,438.9 -166.3,439 	"/>
	<polygon fill="#0B7C47" points="-166.3,439 -166.5,438.9 -166.5,438.9 -166.4,438.9 	"/>
	<polygon fill="#0A7B46" points="-166.5,438.8 -166.3,438.9 -166.3,438.9 	"/>
	<polygon fill="#0A7A45" points="-166.5,438.8 -166.3,438.9 -166.3,438.9 	"/>
	<polygon fill="#097945" points="-166.5,438.8 -166.4,438.9 -166.4,438.9 	"/>
	<polygon fill="#097844" points="-166.5,438.9 -166.4,438.9 -166.4,438.9 	"/>
	<polygon fill="#087743" points="-166.5,438.8 -166.4,438.9 -166.4,438.9 	"/>
	<polygon fill="#087643" points="-166.5,438.9 -166.4,438.9 -166.4,438.9 	"/>
	<polygon fill="#077542" points="-166.5,438.8 -166.4,438.9 -166.4,438.9 	"/>
	<polygon fill="#077441" points="-166.5,438.9 -166.4,438.9 -166.4,438.9 	"/>
	<polygon fill="#067341" points="-166.5,438.9 -166.4,438.9 -166.4,438.9 	"/>
	<polygon fill="#067340" points="-166.5,438.9 -166.4,438.9 -166.4,438.9 	"/>
	<polygon fill="#067240" points="-166.5,438.9 -166.4,438.9 -166.4,438.9 	"/>
	<polygon fill="#05713F" points="-166.5,438.9 -166.4,438.9 -166.4,438.9 	"/>
	<polygon fill="#05713E" points="-166.5,438.9 -166.4,438.9 -166.4,438.9 	"/>
	<polygon fill="#04703E" points="-166.5,438.9 -166.4,438.9 -166.4,438.9 	"/>
	<polygon fill="#046F3E" points="-166.5,438.9 -166.4,438.9 -166.4,438.9 	"/>
	<polygon fill="#046F3D" points="-166.5,438.9 -166.4,439 -166.4,439 	"/>
	<polygon fill="#036E3D" points="-166.5,438.9 -166.4,439 -166.4,439 	"/>
	<polygon fill="#036E3C" points="-166.5,439 -166.4,439 -166.4,439 	"/>
	<polygon fill="#036D3C" points="-166.5,438.9 -166.4,439 -166.4,439 	"/>
	<polygon fill="#026D3B" points="-166.5,439 -166.4,439 -166.4,439 	"/>
	<polygon fill="#026C3B" points="-166.5,439 -166.4,439 -166.4,439 	"/>
	<polygon fill="#026C3B" points="-166.5,439 -166.4,439 -166.4,439 	"/>
	<polygon fill="#026B3A" points="-166.5,439 -166.4,439 -166.4,439 	"/>
	<polygon fill="#026B3A" points="-166.5,439 -166.4,439 -166.4,439 	"/>
	<polygon fill="#016A3A" points="-166.5,439 -166.4,439 -166.4,439 	"/>
	<polygon fill="#016A3A" points="-166.5,439 -166.4,439 -166.4,439 	"/>
	<path fill="none" d="M-166.3,438.9l-0.1,0.1L-166.3,438.9z"/>
	<polygon fill="#2AB472" points="-168.1,439.9 -168.2,439.8 -168.2,439.8 -168.1,439.8 	"/>
	<polygon fill="#29B270" points="-168.1,439.9 -168.2,439.8 -168.2,439.8 	"/>
	<polygon fill="#28B06F" points="-168.1,439.9 -168.2,439.8 -168.2,439.8 	"/>
	<polygon fill="#27AE6D" points="-168.1,439.9 -168.2,439.8 -168.2,439.8 	"/>
	<polygon fill="#26AC6C" points="-168.1,439.9 -168.2,439.8 -168.2,439.8 	"/>
	<polygon fill="#25AB6A" points="-168.1,439.9 -168.2,439.8 -168.2,439.8 	"/>
	<polygon fill="#24A969" points="-168.1,439.9 -168.2,439.8 -168.2,439.8 	"/>
	<polygon fill="#23A768" points="-168.1,439.9 -168.2,439.8 -168.2,439.8 	"/>
	<polygon fill="#22A566" points="-168.1,439.9 -168.2,439.8 -168.2,439.8 	"/>
	<polygon fill="#21A365" points="-168.1,439.9 -168.2,439.8 -168.2,439.8 	"/>
	<polygon fill="#20A264" points="-168.1,439.9 -168.2,439.8 -168.2,439.8 	"/>
	<polygon fill="#1FA062" points="-168.1,439.9 -168.2,439.8 -168.2,439.8 	"/>
	<polygon fill="#1E9E61" points="-168.1,439.9 -168.3,439.8 -168.2,439.8 	"/>
	<polygon fill="#1D9D60" points="-168.1,439.9 -168.3,439.8 -168.3,439.8 	"/>
	<polygon fill="#1C9B5F" points="-168.1,439.9 -168.3,439.8 -168.3,439.8 	"/>
	<polygon fill="#1B995D" points="-168.1,439.9 -168.3,439.8 -168.3,439.8 	"/>
	<polygon fill="#1A985C" points="-168.1,439.9 -168.3,439.8 -168.3,439.8 	"/>
	<polygon fill="#1A965B" points="-168.1,439.9 -168.3,439.8 -168.3,439.8 	"/>
	<polygon fill="#19955A" points="-168.1,439.9 -168.3,439.8 -168.3,439.8 	"/>
	<polygon fill="#189359" points="-168.1,439.9 -168.3,439.8 -168.3,439.8 	"/>
	<polygon fill="#179258" points="-168.1,439.9 -168.3,439.8 -168.3,439.8 	"/>
	<polygon fill="#169056" points="-168.1,439.9 -168.3,439.8 -168.3,439.8 	"/>
	<polygon fill="#158F55" points="-168.1,439.9 -168.3,439.8 -168.3,439.8 	"/>
	<polygon fill="#158D54" points="-168.1,440 -168.3,439.8 -168.3,439.8 -168.1,439.9 	"/>
	<polygon fill="#148C53" points="-168.1,440 -168.3,439.8 -168.3,439.8 	"/>
	<polygon fill="#138B52" points="-168.1,440 -168.3,439.8 -168.3,439.8 	"/>
	<polygon fill="#128951" points="-168.1,440 -168.4,439.8 -168.3,439.8 	"/>
	<polygon fill="#128850" points="-168.1,440 -168.4,439.8 -168.4,439.8 	"/>
	<polygon fill="#11874F" points="-168.1,440 -168.4,439.8 -168.4,439.8 	"/>
	<polygon fill="#10864E" points="-168.1,440 -168.4,439.8 -168.4,439.8 	"/>
	<polygon fill="#10844D" points="-168.1,440 -168.4,439.8 -168.4,439.8 	"/>
	<polygon fill="#0F834D" points="-168.1,440 -168.4,439.8 -168.4,439.8 	"/>
	<polygon fill="#0E824C" points="-168.1,440 -168.4,439.8 -168.4,439.8 	"/>
	<polygon fill="#0E814B" points="-168.1,440 -168.4,439.8 -168.4,439.8 	"/>
	<polygon fill="#0D804A" points="-168.1,440 -168.4,439.8 -168.4,439.8 -168.1,440 	"/>
	<polygon fill="#0C7F49" points="-168.2,440 -168.4,439.8 -168.4,439.8 -168.1,440 	"/>
	<polygon fill="#0C7E48" points="-168.2,440 -168.4,439.8 -168.4,439.8 	"/>
	<polygon fill="#0B7D48" points="-168.2,440 -168.4,439.8 -168.4,439.8 	"/>
	<polygon fill="#0B7C47" points="-168.2,440 -168.4,439.8 -168.4,439.8 	"/>
	<polygon fill="#0A7B46" points="-168.2,440 -168.5,439.8 -168.4,439.8 	"/>
	<polygon fill="#0A7A45" points="-168.2,440 -168.5,439.8 -168.5,439.8 	"/>
	<polygon fill="#097945" points="-168.2,440 -168.5,439.8 -168.5,439.8 -168.5,439.8 	"/>
	<polygon fill="#097844" points="-168.2,440 -168.5,439.9 -168.5,439.8 	"/>
	<polygon fill="#087743" points="-168.2,440 -168.5,439.9 -168.5,439.9 	"/>
	<polygon fill="#087643" points="-168.2,440 -168.5,439.9 -168.5,439.9 	"/>
	<polygon fill="#077542" points="-168.2,440 -168.5,439.9 -168.5,439.9 	"/>
	<polygon fill="#077441" points="-168.2,440 -168.5,439.9 -168.5,439.9 	"/>
	<polygon fill="#067341" points="-168.2,440 -168.5,439.9 -168.5,439.9 	"/>
	<polygon fill="#067340" points="-168.3,440 -168.5,439.9 -168.5,439.9 -168.2,440 	"/>
	<polygon fill="#067240" points="-168.3,440 -168.5,439.9 -168.5,439.9 	"/>
	<polygon fill="#05713F" points="-168.3,440 -168.5,439.9 -168.5,439.9 	"/>
	<polygon fill="#05713E" points="-168.3,440 -168.5,439.9 -168.5,439.9 	"/>
	<polygon fill="#04703E" points="-168.3,440 -168.5,439.9 -168.5,439.9 	"/>
	<polygon fill="#046F3E" points="-168.3,440 -168.5,439.9 -168.5,439.9 	"/>
	<polygon fill="#046F3D" points="-168.3,440 -168.5,439.9 -168.5,439.9 	"/>
	<polygon fill="#036E3D" points="-168.3,440 -168.5,439.9 -168.5,439.9 	"/>
	<polygon fill="#036E3C" points="-168.3,440 -168.5,439.9 -168.5,439.9 	"/>
	<polygon fill="#036D3C" points="-168.3,440 -168.5,439.9 -168.5,439.9 	"/>
	<polygon fill="#026D3B" points="-168.3,440 -168.5,439.9 -168.5,439.9 	"/>
	<polygon fill="#026C3B" points="-168.3,440 -168.5,439.9 -168.5,439.9 	"/>
	<polygon fill="#026C3B" points="-168.3,440 -168.5,439.9 -168.5,439.9 	"/>
	<polygon fill="#026B3A" points="-168.4,440 -168.5,439.9 -168.5,439.9 -168.3,440 	"/>
	<polygon fill="#026B3A" points="-168.4,440 -168.5,439.9 -168.5,439.9 	"/>
	<polygon fill="#016A3A" points="-168.4,440 -168.5,439.9 -168.5,439.9 	"/>
	<polygon fill="#016A3A" points="-168.4,440 -168.5,439.9 -168.5,439.9 	"/>
	<polygon fill="#016A39" points="-168.4,440 -168.5,440 -168.5,439.9 	"/>
	<path fill="none" d="M-168.1,439.8c-0.1,0.1-0.2,0.1-0.3,0.2C-168.4,439.9-168.3,439.9-168.1,439.8z"/>
	<polygon fill="#189359" points="-170.2,440.9 -170.3,440.8 -170.3,440.8 -170.2,440.8 	"/>
	<polygon fill="#179258" points="-170.2,440.9 -170.3,440.8 -170.3,440.8 	"/>
	<polygon fill="#169056" points="-170.2,440.9 -170.3,440.8 -170.3,440.8 	"/>
	<polygon fill="#158F55" points="-170.2,440.9 -170.3,440.8 -170.3,440.8 	"/>
	<polygon fill="#158D54" points="-170.2,440.9 -170.3,440.8 -170.3,440.8 	"/>
	<polygon fill="#148C53" points="-170.2,440.9 -170.3,440.8 -170.3,440.8 	"/>
	<polygon fill="#138B52" points="-170.2,440.9 -170.4,440.8 -170.3,440.8 	"/>
	<polygon fill="#128951" points="-170.2,440.9 -170.4,440.8 -170.4,440.8 	"/>
	<polygon fill="#128850" points="-170.2,440.9 -170.4,440.8 -170.4,440.8 	"/>
	<polygon fill="#11874F" points="-170.2,440.9 -170.4,440.8 -170.4,440.8 	"/>
	<polygon fill="#10864E" points="-170.2,440.9 -170.4,440.8 -170.4,440.8 	"/>
	<polygon fill="#10844D" points="-170.2,440.9 -170.4,440.8 -170.4,440.8 	"/>
	<polygon fill="#0F834D" points="-170.2,440.9 -170.4,440.8 -170.4,440.8 -170.2,440.9 	"/>
	<polygon fill="#0E824C" points="-170.2,440.9 -170.4,440.8 -170.4,440.8 	"/>
	<polygon fill="#0E814B" points="-170.2,440.9 -170.4,440.8 -170.4,440.8 	"/>
	<polygon fill="#0D804A" points="-170.2,440.9 -170.4,440.8 -170.4,440.8 	"/>
	<polygon fill="#0C7F49" points="-170.2,440.9 -170.4,440.8 -170.4,440.8 	"/>
	<polygon fill="#0C7E48" points="-170.2,440.9 -170.4,440.8 -170.4,440.8 	"/>
	<polygon fill="#0B7D48" points="-170.2,440.9 -170.4,440.8 -170.4,440.8 	"/>
	<polygon fill="#0B7C47" points="-170.2,440.9 -170.4,440.8 -170.4,440.8 	"/>
	<polygon fill="#0A7B46" points="-170.2,440.9 -170.4,440.8 -170.4,440.8 	"/>
	<polygon fill="#0A7A45" points="-170.2,440.9 -170.5,440.8 -170.4,440.8 	"/>
	<polygon fill="#097945" points="-170.2,440.9 -170.5,440.8 -170.5,440.8 	"/>
	<polygon fill="#097844" points="-170.2,440.9 -170.5,440.8 -170.5,440.8 	"/>
	<polygon fill="#087743" points="-170.3,440.9 -170.5,440.8 -170.5,440.8 -170.2,440.9 	"/>
	<polygon fill="#087643" points="-170.3,440.9 -170.5,440.8 -170.5,440.8 -170.5,440.8 	"/>
	<polygon fill="#077542" points="-170.3,440.9 -170.5,440.8 -170.5,440.8 	"/>
	<polygon fill="#077441" points="-170.3,440.9 -170.5,440.8 -170.5,440.8 	"/>
	<polygon fill="#067341" points="-170.3,440.9 -170.5,440.8 -170.5,440.8 	"/>
	<polygon fill="#067340" points="-170.3,440.9 -170.5,440.8 -170.5,440.8 	"/>
	<polygon fill="#067240" points="-170.3,440.9 -170.5,440.8 -170.5,440.8 	"/>
	<polygon fill="#05713F" points="-170.3,440.9 -170.5,440.8 -170.5,440.8 	"/>
	<polygon fill="#05713E" points="-170.3,440.9 -170.5,440.8 -170.5,440.8 	"/>
	<polygon fill="#04703E" points="-170.3,440.9 -170.5,440.8 -170.5,440.8 	"/>
	<polygon fill="#046F3E" points="-170.3,440.9 -170.5,440.8 -170.5,440.8 	"/>
	<polygon fill="#046F3D" points="-170.3,440.9 -170.5,440.8 -170.5,440.8 	"/>
	<polygon fill="#036E3D" points="-170.3,440.9 -170.5,440.8 -170.5,440.8 	"/>
	<polygon fill="#036E3C" points="-170.3,440.9 -170.5,440.8 -170.5,440.8 	"/>
	<polygon fill="#036D3C" points="-170.3,440.9 -170.5,440.8 -170.5,440.8 	"/>
	<polygon fill="#026D3B" points="-170.4,440.9 -170.5,440.8 -170.5,440.8 -170.3,440.9 	"/>
	<polygon fill="#026C3B" points="-170.4,440.9 -170.5,440.8 -170.5,440.8 	"/>
	<polygon fill="#026C3B" points="-170.4,440.9 -170.5,440.8 -170.5,440.8 	"/>
	<polygon fill="#026B3A" points="-170.4,440.9 -170.5,440.8 -170.5,440.8 	"/>
	<polygon fill="#026B3A" points="-170.4,440.9 -170.5,440.8 -170.5,440.8 	"/>
	<polygon fill="#016A3A" points="-170.4,440.9 -170.5,440.8 -170.5,440.8 	"/>
	<polygon fill="#016A3A" points="-170.4,440.9 -170.5,440.9 -170.5,440.8 	"/>
	<path fill="none" d="M-170.2,440.8c-0.1,0-0.2,0.1-0.3,0.1C-170.4,440.9-170.3,440.8-170.2,440.8z"/>
	<path fill="#754C29" d="M-170.2,410.7c0,0-1.5-50.3-1.5-50.5c0-1,6.1,1.3,6.1,0.2c-0.1-1.5-1.9-3.9-2.6-5.2c-0.5-1-1-2.1-1.8-2.9
		c-2.9-2.9-8.1-0.6-11.5,0.3c-4.1,1.1-8.2,2.4-12.3,3.7c-5.7,1.9-11.4,3.8-17,6c-0.1,0-0.2,0.1-0.4,0.1l0.8,46.3L-170.2,410.7z"/>
	<path fill="#F0D0B4" d="M-130.1,405.1c-1.5-0.9-3.5-0.5-4.5,1.1c0-0.1-0.3,0.4-0.9,1.2c-0.7,0.8-1.7,1.9-3.1,3
		c-1.4,1.1-3,2.2-4.9,2.9c-0.9,0.4-1.9,0.6-2.9,0.7c-1,0.1-2,0.1-2.8-0.1l-0.5-0.1h-0.2h-0.1h-0.1c0,0,0.3,0,0.1,0l0,0l0,0l-1-0.2
		c-0.6-0.1-1.3-0.3-1.9-0.4c-1.2-0.3-2.5-0.6-3.6-0.9c-2.3-0.7-4.5-1.3-6.3-2c-1.8-0.6-3.3-1.2-4.3-1.7c-0.5-0.2-0.9-0.4-1.1-0.5
		c-0.2-0.1-0.3-0.2-0.3-0.2l0,0c-0.1-0.1-0.3-0.1-0.4-0.2c-2.6-1-5.6,0.4-6.6,3c-1,2.6,0.4,5.6,3,6.6c0,0,0.2,0.1,0.6,0.2
		c0.3,0.1,0.8,0.3,1.4,0.5c1.2,0.4,2.9,0.9,5,1.4c2.1,0.5,4.5,1.1,7.1,1.5c1.3,0.2,2.6,0.5,4,0.7c0.7,0.1,1.4,0.2,2.1,0.3l1,0.1h0.2
		h0.1h0.1h0.3h0.5c1.9,0.1,3.5,0,5.2-0.3c1.6-0.3,3.2-0.9,4.6-1.5c2.8-1.3,4.9-3.1,6.6-4.7c1.6-1.6,2.8-3.1,3.6-4.2
		c0.8-1.1,1.2-1.8,1.2-1.8C-128.1,408-128.6,406-130.1,405.1z"/>
	<path fill="#8557C1" d="M-172.5,417l6.7,2.6l3.8-8.9l-6.5-3.1c-0.1,0-0.2-0.1-0.3-0.1c-2.6-1-5.6,0.3-6.6,2.9S-175.1,416-172.5,417
		z"/>
	<path fill="#8557C1" d="M-165.5,420.3l-7.2-2.8c-1.4-0.5-2.5-1.6-3.1-3c-0.6-1.4-0.7-2.9-0.1-4.3c0.8-2.2,2.9-3.6,5.3-3.6
		c0.7,0,1.4,0.1,2,0.4c0.1,0,0.3,0.1,0.4,0.2l7,3.3L-165.5,420.3z M-170.7,407.7c-1.9,0-3.6,1.2-4.3,2.9c-0.4,1.1-0.4,2.4,0.1,3.5
		c0.5,1.1,1.4,2,2.5,2.4l6.2,2.4l3.4-7.9l-6-2.8c0-0.2-0.1-0.2-0.2-0.2C-169.5,407.8-170.1,407.7-170.7,407.7z"/>
	<path fill="#9662CC" d="M-166.9,439.2c0-0.3,0.1-0.6,0-0.9c-0.1-2-0.5-3.6-0.6-5.6c-0.2-4.5,0-9.1,0-13.6c0-2,0-4,0-5.9
		c0-0.3,0-0.7,0-1c0-1.9-0.1-3.8-0.7-5.7c-2.4-8-12.1-10-19.3-10c-13,0-23.5,7.5-23.5,16.8c0.5,6.2,0.9,12.4,1.4,18.6
		c0.2,2.3,0.3,4.5,0.5,6.8c6.4,3.6,13.7,5.6,21.6,5.6C-180.1,444.3-173.1,442.5-166.9,439.2z"/>
	<path fill="#8557C1" d="M-198.9,442.8c1.6-1.7,1.1-4.5,0.8-6.8c-0.3-3,0-6.1,0.1-9.1c0-0.3,0-0.7-0.1-1c-0.1-0.4-0.5-0.7-0.8-1
		c-1.6-1.7-3.1-3.6-4.1-5.8c-0.9-2.1-0.7-4.3-0.6-6.5c0-0.4,0-0.8-0.2-1.1c-0.3-0.7-1.2-0.9-2-0.9c-1.1-0.1-2.2,0-3.3,0.4
		c-2.8,1.1-2,3.7-1.8,6.1c0.2,2.9,0.4,5.7,0.7,8.6c0.3,3.9,0.6,7.7,0.9,11.6c0,0.5,0.1,1.1,0.1,1.6
		C-205.9,440.5-202.5,441.9-198.9,442.8L-198.9,442.8z"/>
	<path fill="#58595B" d="M-166.8,439.1c0-0.3,0-0.5-0.1-0.8c-5.8-0.2-11.9,0.3-17.6,0.1c-1.1,0-2.2-0.1-3.3-0.1
		c-7.1-0.1-14.2-0.2-21.3-0.2c-0.1,0-0.2,0.2-0.3,0.5c6.5,3.7,13.9,5.8,21.8,5.8C-180,444.3-173,442.4-166.8,439.1z"/>
	<path fill="#414042" d="M-197.6,438.3c-3.7-0.1-7.5-0.3-11.2-0.2c-0.1,0-0.2,0-0.3,0.1c-0.1,0.1-0.1,0.2-0.1,0.3l-0.1,0.2
		c3.9,2.2,8.1,3.8,12.6,4.8C-197.2,440.9-197.7,438.3-197.6,438.3z"/>
	<path fill="#EFC7B0" d="M-188.1,405.5c0.4,0.1,0.8-0.1,1.1,0.3c0.6,0.6,0.8,2.1,1.6,2.4c1,0.4,1.4-1,1.7-1.8
		c0.3-1.2,0.7-2.1,1.5-2.9c0.9-0.9,1.6-1.8,2.2-3c1.8-3.5,2.4-7.8,2.4-11.8v-20h-18.7l0.1,19.8C-196.1,395-194.3,404.2-188.1,405.5z
		"/>
	<ellipse fill="#F0D0B4" cx="-184.2" cy="374.6" rx="18.5" ry="24"/>
	<path fill="#EFC7B0" d="M-189.6,398.3c-3.4-0.6-6.7-2-9.5-4c-1.4-1-2.6-2.2-3.8-3.4c-0.5-0.5-2.6-3.2-0.5-3.2
		c0.5,0,0.9,0.3,1.2,0.7c1.9,1.8,3.7,3.6,5.6,5.4C-194.6,395.6-192.5,397.6-189.6,398.3z"/>
	<path fill="#EFC7B0" d="M-197.5,394.9c1.8,0.5,3.3,1.3,4.7,2.4c0.8,0.7,1.6,1.5,2.5,2c0.5,0.3,1.1,0.4,1.6,0.7
		c0.4,0.2,0.6,0.6,1,0.8c0,0.6,2.8,0.5,3.1,0.4c0.9-0.3,1.8-1,2.7-1.4c0.4-0.2,0.4-0.4,0.3-0.5c-0.3-0.4-1.5-0.8-1.6-0.9
		c-1.1-0.3-2.5,0-3.7-0.4c-2.5-0.8-4.6-2.5-6.4-4.3c-4.8-4.8-9.7-10.8-7.8-17.7c0.5-1.8,0.3-3.7,0.3-5.6c0-0.7,0-1.3,0.2-1.9
		c0.5-1.8,2.2-2.7,3.2-4c1.2-1.6,2.4-3.5,2.7-5.6c0.1-0.8,0.1-1.5,0.2-2.3c0.3-1.8,1.7-1.9,2.9-2.9c1.4-1.3,0-1.9-1.7-1.7
		c-5.2,0.6-9.9,6.1-12.3,10.4c-2.1,3.7-3.3,8-3.3,12.3c0,6.8,2.8,13.2,7.5,17.7C-200.3,393.5-199,394.5-197.5,394.9z"/>
	<path fill="#754C29" d="M-210.2,375.6L-210.2,375.6L-210.2,375.6c-0.3-2-0.2-4,0.3-5.9c0.2-0.7,0.6-1.4,1.3-1.5
		c0.3,0,0.6,0.1,0.8,0.3c0.8,0.4,1.9,1.1,1.6,2.2c-0.1,0.6-0.5,1-0.8,1.5c-0.1,0.1-0.2,0.2-0.3,0.3c-0.4,0.6-0.8,1.1-1.4,1.4
		c-0.3,0.2-0.6,0.4-0.8,0.6c-0.1,0.1-0.3,0.7-0.4,0.7c-0.2,0.1-0.5,0.3-0.6,0.5"/>
	<path fill="#F0D0B4" d="M-206.5,378c-2.2,0-3.9-1.5-3.9-3.4c0-1.9,1.8-3.4,3.9-3.4"/>
	<path fill="#754C29" d="M-196,357.8c-0.1-0.5-0.2-1-0.4-1.4c-0.1-0.2-0.1-0.3-0.3-0.5c-0.8-0.8-5,0-5.9,0.3
		c-2.2,0.6-2.7,2.5-4.1,4.1s-3.3,3-3.7,5.2c-0.6,2.5,1.4,4.8,3.2,6.2c1.3,1,1.9,2.4,2,4c0,0.6,0.1,1.7-0.3,2.2
		c-0.3,0.5-1.6,0.5-1.6,1.2c0.7,0.3,1.4,0.1,2.1-0.2c1.9-0.8,3-2.1,3.3-4.2c0.2-1.4,0-2.7,0-4.1c0-2.8,1.6-5.2,3.5-7.2
		c0.4-0.4,0.9-0.8,1.2-1.3C-196,360.8-195.7,359.3-196,357.8z"/>
	<path fill="#DFB28B" d="M-178.4,380.4c-0.1-0.1-0.3-0.3-0.4-0.4c-0.1,0-0.2-0.1-0.3-0.1c-0.1-0.1-0.2-0.2-0.3-0.3
		c-0.1-0.2-0.3-0.3-0.3-0.6s0.2-0.6,0.5-0.9c1-1.2,0-3.5-0.2-4.9c-0.1-0.4-0.3-1.4-0.1-1.7c0.5-0.8,0.9,0.8,1,1.1
		c0.3,1.2,0.6,2.3,1,3.4c0.2,0.6,0.1,1.1,0.6,1.6c0.2,0.3,0.6,0.5,0.7,0.8c0.1,0.3-0.1,0.7-0.3,1c-0.3,0.5-0.7,0.8-1.2,1.2h-0.3
		C-178.2,380.6-178.3,380.5-178.4,380.4z"/>
	<polygon fill="#FFF7DA" points="-134.1,413.9 -132.4,400.5 -130.1,400.1 -131.9,415.2 	"/>
	<path fill="#231F20" d="M-131.9,415.8c-0.1,0-0.2,0-0.3-0.1l-2.1-1.3c-0.2-0.1-0.3-0.3-0.3-0.5l1.7-13.4c0-0.2,0.2-0.4,0.5-0.5
		l2.3-0.4c0.2,0,0.3,0,0.5,0.1c0.1,0.1,0.2,0.3,0.2,0.5l-1.9,15.1c0,0.2-0.1,0.3-0.3,0.4L-131.9,415.8z M-133.5,413.6l1.1,0.7
		l1.7-13.5l-1.2,0.2L-133.5,413.6z"/>
	
		<ellipse transform="matrix(0.1224 -0.9925 0.9925 0.1224 -513.8598 224.4725)" fill="#414042" cx="-130" cy="402.8" rx="0.6" ry="0.4"/>
	
		<ellipse transform="matrix(0.1224 -0.9925 0.9925 0.1224 -515.7247 225.7655)" fill="#414042" cx="-130.2" cy="404.5" rx="0.6" ry="0.4"/>
	
		<ellipse transform="matrix(-0.9939 -0.1099 0.1099 -0.9939 -310.8326 799.416)" fill="#F0D0B4" cx="-133.4" cy="408.3" rx="1.2" ry="0.9"/>
	<path fill="#FFFFFF" d="M-175.1,384.9c-0.8,0-1.5-0.9-2.4-0.9c-0.4,0-0.9,0.9-1.3,0.8c-0.3,0-0.9-0.8-1.3-0.8
		c-0.7,0-1.2,0.3-1.9,0.5c-0.6,0.2-1.1,0.3-1.7,0.6c-0.1,0.1-0.2,0.2-0.2,0.3l0.1,0.1c0.2,0.2,0.4,0.3,0.6,0.4
		c0.5,0.4,0.7,0.9,1.3,1.2c0.2,0.1,0.5,0.1,0.7,0.2c1,0.1,2,0,3,0c0.4,0,0.8-0.1,1.2-0.3c0.7-0.5,0.9-1.3,1.6-1.8
		C-175.1,385.2-175.2,385-175.1,384.9"/>
	<path fill="#E0ADA6" d="M-175.2,385.3c0,0,0,0-0.3,0c-0.2,0-0.5-0.1-0.8-0.2s-0.6-0.3-0.9-0.4c-0.1-0.1-0.3-0.1-0.4-0.1l0,0l0,0
		l0,0c0.1,0,0,0,0.1,0l0,0l0,0l0,0l0,0c0.1,0,0.1,0,0,0l-0.2,0.2c-0.2,0.2-0.3,0.3-0.7,0.6c-0.1,0.1-0.3,0.1-0.5,0.1h-0.1h-0.1
		l-0.2-0.1h-0.1c-0.2-0.1-0.3-0.2-0.4-0.3c-0.1-0.1-0.2-0.2-0.3-0.3l-0.2-0.1c0,0,0.2,0,0,0h-0.2c-0.1,0-0.2,0-0.3,0.1
		c-0.2,0.1-0.5,0.2-0.8,0.3c-0.3,0.1-0.6,0.2-0.9,0.3c-0.3,0.1-0.5,0.2-0.7,0.3l-0.2,0.1c0,0,0,0,0.1-0.1c0-0.1,0.1-0.3,0-0.4
		c0.1-0.3,0.1-0.3,0.1-0.3l0,0h0.1c0.2,0.1,0.7,0.4,0.9,0.7c0.3,0.3,0.4,0.5,0.6,0.6l0.2,0.1c0,0,0.1,0,0.2,0h0.2h0.2
		c0.2,0,0.3,0,0.4,0c0.6,0,1.2,0.1,1.7,0.1c0.1,0,0.3,0,0.4,0h0.2l0,0l0,0l0,0l0,0l0,0h0.1c0.2,0,0.4-0.1,0.5-0.1
		c0.2,0,0.4-0.2,0.6-0.5s0.5-0.6,0.8-0.8c0.1-0.1,0.3-0.2,0.4-0.3h0.1l0,0l0,0l0,0l0,0l0,0l0,0l0,0l-0.1,0.1l-0.1,0.2
		c0,0.1,0,0.1,0,0.2v-0.1v-0.1c0-0.2,0.1-0.4,0.3-0.4c0.2,0,0.4,0.1,0.4,0.3l0,0c0,0,0,0,0.1,0.2c0,0,0,0.1,0,0.3l-0.1,0.2l-0.1,0.1
		l0,0l0,0l0,0l0,0l0,0l0,0l0,0l0,0c0,0.1-0.1,0.1-0.1,0.2c-0.1,0.2-0.2,0.5-0.4,0.8c-0.2,0.4-0.6,0.9-1.3,1.1
		c-0.3,0.1-0.6,0.1-0.9,0.1h-0.1h-0.1l0,0l0,0l0,0h-0.2c-0.1,0-0.3,0-0.4,0c-0.5,0-1.1,0.1-1.7,0.1c-0.1,0-0.3,0-0.4,0h-0.1h-0.1
		h-0.1h-0.3c-0.2,0-0.4-0.1-0.7-0.2c-0.2-0.1-0.4-0.3-0.5-0.4c-0.3-0.3-0.5-0.6-0.7-0.8c-0.1-0.2-0.3-0.3-0.6-0.5l-0.1,0l-0.1-0.1
		c-0.1-0.1-0.2-0.2-0.3-0.4c-0.1-0.2-0.1-0.5,0-0.6c0.2-0.3,0.3-0.4,0.4-0.5c0.1-0.1,0.2-0.1,0.3-0.1c0.3-0.2,0.7-0.3,1-0.4
		c0.3-0.1,0.5-0.2,0.8-0.3c0.3-0.1,0.6-0.2,0.9-0.3c0.2,0,0.3-0.1,0.5-0.1h0.3c0,0,0.4,0,0.5,0.1c0.3,0.1,0.4,0.2,0.5,0.3
		c0.1,0.1,0.2,0.2,0.3,0.3l0.2,0.2l0,0h-0.1l0,0l0,0l0,0l0,0c0,0,0.1,0-0.1,0c-0.1,0-0.1,0-0.1,0c0.1,0,0.3-0.2,0.5-0.4
		c0.1-0.1,0.2-0.2,0.3-0.3c0.1,0,0.1-0.1,0.3-0.2h0.1l0,0l0,0h0.1l0,0l0,0h0.1c0.3,0,0.6,0.1,0.8,0.2c0.4,0.2,0.7,0.4,0.9,0.5
		s0.4,0.2,0.4,0.2h0.2c0.2,0,0.4,0.2,0.4,0.5C-174.7,385.2-174.9,385.3-175.2,385.3z"/>
	<circle fill="#939598" cx="-184.2" cy="410" r="0.7"/>
	<circle fill="#939598" cx="-184.2" cy="412.9" r="0.7"/>
	<path fill="#ECC19C" d="M-179.4,391.8c-0.8,0-1.7-0.4-2.8-1.3c-0.2-0.2-0.3-0.5-0.1-0.8c0.2-0.2,0.5-0.3,0.8-0.1
		c1.8,1.4,2.5,1.4,4.3,0c0.2-0.2,0.6-0.1,0.8,0.1c0.2,0.2,0.1,0.6-0.1,0.8C-177.7,391.4-178.6,391.8-179.4,391.8z"/>
	<path fill="#754C29" d="M-164.7,375.1c0-1.4,0-2.7,0-4.1c0-2.7,0-5.3-0.1-8c-0.1-2.3,0-4.8-0.8-7c-0.5-1.4-1.2-2.6-2.2-3.7
		c-1.1-1.1-2.6-1.7-4-2.4c-3.3-1.7-7.1-2.7-10.8-2c-0.6,0.1-1.1,0.3-1.7,0.2c-0.6,0-1.1-0.2-1.7-0.3c-7.8-2.2-18.2,1-22.6,7.6
		c-1.8,2.7-2.5,5.8-2.6,8.9l3.9,1.9c0.4,0.2,4.4-3.8,4.8-4.2c0.4-0.3,1.3-1.4,1.7-1.5c0.9-0.1,1.3,0.9,2,1.1
		c1.1,0.3,2.2-0.4,3.2-0.8c2.7-0.9,5.9,0.1,8.6-0.8c2.1-0.8,4-2.7,6.3-2.4c1.4,0.2,2.5,1.2,3.6,2.1c1.2,0.9,2.7,1.6,4.1,2.1
		c1.1,0.4,3.3,0.2,4.2,0.9c0.8,0.6,1.3,2.8,1.6,3.8c0.1,0.2,0.2,0.5,0.3,0.8c0.3,0.9,0.5,1.7,0.4,2.6c-0.1,1.7-0.3,3.4-0.1,5.1
		c0.1,0.8,0.3,1.5,0.8,2.2c0.3,0.5,1.1,0.8,1.3,1.4C-164.7,377.4-164.7,376.2-164.7,375.1z"/>
	<path fill="#443332" d="M-192.3,369.3L-192.3,369.3c0.1-0.1,0.2-0.2,0.3-0.3c0.2-0.2,0.5-0.4,0.9-0.6c0.4-0.2,0.9-0.4,1.4-0.5
		s1.1-0.2,1.7-0.2c0.3,0,0.5,0,0.8,0c0.3,0,0.6,0.1,0.8,0.1c0.5,0.1,1,0.2,1.4,0.4c0.8,0.3,1.3,0.8,1.3,0.8c0.2,0.2,0.2,0.6,0,0.8
		c-0.2,0.2-0.6,0.2-0.8,0l0,0l-0.2-0.1c-0.2-0.1-0.4-0.3-0.7-0.5c-0.3-0.2-0.7-0.3-1.2-0.4c-0.2-0.1-0.5-0.1-0.7-0.2
		c-0.2,0-0.5-0.1-0.8-0.1c-0.5,0-1,0-1.5,0c-0.5,0.1-0.9,0.2-1.2,0.4c-0.3,0.2-0.6,0.3-0.8,0.5c-0.2,0.1-0.2,0.2-0.2,0.2l0,0
		c-0.1,0.1-0.2,0.1-0.3,0C-192.4,369.5-192.4,369.4-192.3,369.3z"/>
	<circle fill="#231F20" cx="-187.6" cy="372.9" r="1.2"/>
	<path fill="#443332" d="M-167.4,369.6c0,0-0.1-0.1-0.2-0.2c-0.2-0.1-0.4-0.3-0.8-0.5c-0.3-0.2-0.8-0.3-1.2-0.4
		c-0.5-0.1-1-0.1-1.5,0c-0.2,0-0.5,0.1-0.8,0.1c-0.2,0-0.5,0.1-0.7,0.2c-0.5,0.1-0.9,0.3-1.2,0.4c-0.3,0.2-0.6,0.3-0.7,0.5l-0.2,0.1
		l0,0c-0.2,0.2-0.5,0.2-0.8,0c-0.2-0.2-0.2-0.5,0-0.8c0,0,0.5-0.5,1.3-0.8c0.4-0.2,0.9-0.3,1.4-0.4c0.3,0,0.5-0.1,0.8-0.1
		s0.5,0,0.8,0c0.6,0,1.1,0,1.7,0.2c0.5,0.1,1,0.3,1.4,0.5c0.4,0.2,0.7,0.4,0.9,0.6c0.1,0.1,0.2,0.2,0.2,0.2l0.1,0.1
		c0.1,0.1,0.1,0.3,0,0.3C-167.1,369.7-167.3,369.7-167.4,369.6L-167.4,369.6z"/>
	<circle fill="#231F20" cx="-171.8" cy="372.9" r="1.2"/>
	<circle fill="#2E3192" cx="-206.9" cy="377.6" r="0.8"/>
	<path fill="#EFC7B0" d="M-179.3,398.9c0.5-2.6-2.2,0-2.2,0l-9,1.7l-3.1,0.2c0,0,9.8,17.5,10.4,18.2
		C-183.3,418.9-179.8,401.5-179.3,398.9z"/>
	<path fill="#754C29" d="M-198.3,365c0,0.4,5.3,0.7,5.8,0.6c0.1-1,0.5-2.9,0.3-3.9c0.4,2.4,0.1,4,2.3,4.1c1.8,0.1,3.6,0.2,5.4,0.2
		c0.9,0,3.2,0.5,3.9-0.3c0.6-0.6,0.9-3,1.5-3.9c0.1,1.3,0.2,2.5,0.4,3.8c0,0.3,7.2-0.3,7.8-0.3c0.7-0.1,2.1,0.1,2.6-0.7
		c0.1-0.1,0.8-7.7,1.1-7.5l-4.8-3l-26.5,1.6L-198.3,365z"/>
	<path fill="#EACBC6" d="M-191.3,381c0-1.7,1.4-3,3.1-3c0.7,0,1.4,0.3,1.9,0.7c-0.1-1.6-1.4-2.9-3.1-2.9s-3.1,1.3-3.1,3
		c0,0.9,0.5,1.8,1.2,2.3V381z"/>
	<path fill="#EACBC6" d="M-168,381c0-1.7-1.4-3-3.1-3c-0.7,0-1.4,0.3-1.9,0.7c0.1-1.6,1.4-2.9,3.1-2.9s3.1,1.3,3.1,3
		c0,0.9-0.5,1.8-1.2,2.3V381z"/>
	<path fill="#382928" d="M-206.6,439.8h-0.5c0.2,0.1,0.3,0.2,0.5,0.2V439.8z"/>
	<rect x="-196.8" y="439.8" fill="#443332" width="7" height="1.8"/>
	<rect x="-188.4" y="439.8" fill="#443332" width="14.2" height="1.8"/>
	<path fill="#443332" d="M-172.8,439.8v1.8h0.7c1.4-0.5,2.8-1.1,4.1-1.8H-172.8z"/>
	<path fill="#382928" d="M-198.2,441.5v-1.8h-7v0.9c0.7,0.3,1.5,0.6,2.3,0.9H-198.2z"/>
	<rect x="-183.7" y="439.6" fill="#443332" width="5.3" height="2.4"/>
	<path fill="#F7941E" d="M-178.1,439.3h-5.9v3h5.9V439.3z M-178.7,441.7h-4.7v-1.8h4.7V441.7z"/>
	<path fill="#F0D0B4" d="M-203.2,441.4c-0.2-0.5-0.5-1-0.6-1.5c-0.1-0.2-0.1-0.5-0.2-0.7v-0.1v-0.3v-0.2v-0.1l0,0c0,0.2,0,0,0,0.1
		l0,0v-0.3c-0.2-1.5-0.3-3-0.4-4.5s-0.1-3-0.2-4.5c0-2.9,0-5.6,0.2-8c0.1-2.3,0.3-4.3,0.4-5.6c0.1-0.7,0.1-1.2,0.2-1.5
		c0-0.3,0.1-0.5,0.1-0.5l0,0c0-0.1,0-0.2,0-0.3c0.1-2.8-2-5.2-4.8-5.4c-2.8-0.1-5.2,2-5.4,4.8c0,0,0,0.2,0,0.6s0,1-0.1,1.7
		c0,1.5-0.1,3.6,0,6.1c0.1,4.2,0.3,9.6,1.2,15.2C-210,438.4-206.7,440.1-203.2,441.4L-203.2,441.4z"/>
	<path fill="#9662CC" d="M-203.6,413.5c0-0.1,0-0.2,0-0.4c0.1-2.8-2.1-5.2-4.9-5.3c-2.8-0.1-5.2,2.1-5.3,4.9l-0.3,7.2l9.7,0.7
		L-203.6,413.5z"/>
	<path fill="#9662CC" d="M-203.9,421.3l-10.8-0.8l0.3-7.8c0.1-3.1,2.6-5.5,5.7-5.5h0.2c3.1,0.1,5.6,2.8,5.5,5.9c0,0.1,0,0.3,0,0.4
		L-203.9,421.3z M-213.5,419.4l8.5,0.6l0.7-6.6c0-0.1,0-0.2,0-0.3c0.1-2.5-1.8-4.6-4.3-4.7h-0.2c-2.4,0-4.4,1.9-4.5,4.3
		L-213.5,419.4z"/>
</g>
</svg>
