<?xml version="1.0" encoding="utf-8"?>
<!-- Generator: Adobe Illustrator 19.1.0, SVG Export Plug-In . SVG Version: 6.00 Build 0)  -->
<svg version="1.2" baseProfile="tiny" id="Layer_1" xmlns="http://www.w3.org/2000/svg" xmlns:xlink="http://www.w3.org/1999/xlink"
	 x="0px" y="0px" viewBox="0 0 48 26.7" xml:space="preserve">
<path fill="#020202" d="M8,16h32c1.5,0,2.7-1.2,2.7-2.7v0c0-1.5-1.2-2.7-2.7-2.7H8c-1.5,0-2.7,1.2-2.7,2.7v0C5.3,14.8,6.5,16,8,16z
	 M2.7,26.7h32c1.5,0,2.7-1.2,2.7-2.7v0c0-1.5-1.2-2.7-2.7-2.7h-32C1.2,21.3,0,22.5,0,24v0C0,25.5,1.2,26.7,2.7,26.7z M10.7,2.7
	L10.7,2.7c0,1.5,1.2,2.7,2.7,2.7h32c1.5,0,2.7-1.2,2.7-2.7v0C48,1.2,46.8,0,45.3,0h-32C11.9,0,10.7,1.2,10.7,2.7z"/>
</svg>
