<?xml version="1.0" encoding="utf-8"?>
<!-- Generator: Adobe Illustrator 19.1.0, SVG Export Plug-In . SVG Version: 6.00 Build 0)  -->
<svg version="1.2" baseProfile="tiny" id="Layer_1" xmlns="http://www.w3.org/2000/svg" xmlns:xlink="http://www.w3.org/1999/xlink"
	 x="0px" y="0px" viewBox="0 0 48 48" xml:space="preserve">
<g>
	<path fill="#E4D3D7" d="M41.2,41.7c0,0-0.5,5.2-7.2,5.5c-7.6,0.3-7.6-0.3-7.6-0.3l-5.1-10.2l20.3-4c0,0,0,2.3,0.3,3.1
		c0.3,0.8,4.4,4.9,3.5,9.3c-0.3,1.7-1.5,2-2.4,0.6C42,44.3,41.2,41.7,41.2,41.7z"/>
	<path fill="#E4D3D7" d="M16.2,36.8c0,0-3.3-11.4-14.7-8.5c-2.3,0.6-1.3-1.2-1-1.5c3.1-3.2,13.2-3.7,18.8,5.2"/>
	<path fill="#EFE6E1" d="M36.6,41.1c0,0,6.8-2.4,4.6-10.2c-2.2-7.8-22.1-2.7-22.1-2.7l-2.7,4.4c0,0-3.4,7.9,2.8,14.1
		c0.8,0.5,4.9,0.8,4.9,0.8L28,48c0,0,2.1,0.1,0.9-1.9c-1.3-2-3.7-2-3.7-2s3.1-2.2,2-4.3l3.7,1.4c2.5,6.2,3,6.5,4.8,6.9
		s0.4-6.9,0.4-6.9L36.6,41.1z"/>
	<path fill="#EFE6E1" d="M17.7,19.9c-2.9-4-0.8-14.2-0.8-14.2s5.7,1.4,9.8,2.8c1.9-2.4,7.6-1.6,7.6-1.6s2.4-3.6,5.2-6.9
		c4.1,4.4,6.3,18.2,6.3,18.2l2.2,1.1l-1.1,1.3l1.1,1.2c0,0-8.4,10.3-14.1,9S22.5,26.5,17.7,19.9z"/>
	<path fill="#E4D3D7" d="M22.2,25.6l1-0.7c0,0-5.2-6.2-0.3-12.8c-5.1,0.6-4.6-4.4-4.6-4.4l-1.4-2c0,0-2.8,10.2,1,15
		S22.2,25.6,22.2,25.6z"/>
	<path fill="#E4D3D7" d="M17,23.6l1.3,1.4l-1.6,1c0,0,14.6,14.8,24.5,4.9C40.2,29,40.2,29,40.2,29s-12.6,3.5-23-9.9
		c0.8,1.9,1,2.4,0.7,3.2C17.8,22.7,17,23.6,17,23.6z"/>
	<path fill="#F36F5C" d="M23.9,10.3l-6-2.8c0,0-1.2,7,0,8.6c1-1.1,3.2-2.8,3.2-2.8l-1.4-0.3l2.1-1.1l-0.3-1L23.9,10.3z"/>
	<path fill="#F36F5C" d="M37.8,7.8l1.9-7c0,0,3.5,6.2,3.6,10.5c-1.3-0.8-2-1.1-2-1.1l0.6-0.9l-1.3-0.2l0.3-2l-2,1.3L37.8,7.8z"/>
	<g>
		<path fill="#5C4036" d="M32.9,24.6c0,0,0-0.1,0-0.3c0-0.2,0-0.5,0-0.8c0-0.2,0.1-0.3,0.2-0.5c0.1-0.2,0.2-0.4,0.3-0.5
			c0.3-0.3,0.7-0.6,1.2-0.7c0.2-0.1,0.5-0.1,0.6-0.1c0.2,0,0.4,0,0.7,0.1c0.2,0.1,0.4,0.2,0.6,0.4c0.2,0.2,0.3,0.4,0.3,0.5
			c0.1,0.4,0.1,0.6,0.1,0.8c0,0.1,0,0.2,0,0.2c0,0.1,0,0.1,0,0.1s-0.1-0.1-0.2-0.2c-0.1-0.1-0.3-0.4-0.4-0.5
			c-0.2-0.2-0.3-0.3-0.6-0.3c-0.1,0-0.3,0-0.4,0c-0.2,0-0.3,0-0.5,0c-0.3,0-0.6,0.1-0.8,0.3c-0.2,0.2-0.4,0.4-0.6,0.7
			c-0.1,0.2-0.2,0.5-0.3,0.6C32.9,24.5,32.9,24.6,32.9,24.6z"/>
		<path fill="#F36F5C" d="M36.5,20l-3,0.2c0,0,0,1,1.4,1S36.3,20.8,36.5,20z"/>
		<path fill="#5C4036" d="M33.9,21.4c0,0,0-0.1,0-0.2c0,0,0.1,0,0.1,0c0,0,0,0.1,0,0.2C34.1,21.4,34,21.4,33.9,21.4z"/>
		<path fill="#5C4036" d="M33.5,21.1c0,0,0-0.1,0-0.2c0,0,0.1,0,0.1,0s0,0.1,0,0.2S33.6,21.2,33.5,21.1z"/>
		<path fill="#5C4036" d="M33.4,21.6c0,0,0-0.1,0-0.2c0,0,0.1,0,0.1,0s0,0.1,0,0.2C33.6,21.6,33.5,21.6,33.4,21.6z"/>
		<path fill="#5C4036" d="M36.6,21.1c-0.1,0-0.1,0-0.1-0.1c0-0.1,0-0.1,0.1-0.1c0.1,0,0.1,0,0.1,0.1C36.7,21,36.7,21.1,36.6,21.1z"
			/>
		<path fill="#5C4036" d="M36.2,21.4c-0.1,0-0.1,0-0.1-0.1c0-0.1,0-0.1,0.1-0.1c0.1,0,0.1,0,0.1,0.1C36.3,21.3,36.3,21.4,36.2,21.4z
			"/>
		<path fill="#5C4036" d="M36.6,21.7c-0.1,0-0.1,0-0.1-0.1c0-0.1,0-0.1,0.1-0.1c0.1,0,0.1,0,0.1,0.1C36.7,21.6,36.6,21.6,36.6,21.7z
			"/>
		<g>
			<path fill="#9BD8DC" d="M39.9,21.1c-0.4,0-2.6,0.2-3.1-1.6c1-0.8,5.5-0.7,5.5-0.7S42,21.2,39.9,21.1z"/>
			<path fill="#1C1110" d="M39.3,20.3c0,0-1.1,0.3-1.7-1.2c1-0.3,3.2-0.4,3.2-0.4S40.6,20.2,39.3,20.3z"/>
			<path fill="#EDF8FB" d="M41.4,19.9c0,0-1.4,0-1.5-0.5C39.8,18.9,42,19.7,41.4,19.9z"/>
		</g>
		<g>
			<path fill="#9BD8DC" d="M30,21.7c0.4,0,2.6-0.1,2.9-2c-1.1-0.7-5.5-0.1-5.5-0.1S27.9,22,30,21.7z"/>
			<path fill="#1C1110" d="M30.5,20.8c0,0,1.2,0.2,1.5-1.3c-1-0.2-3.2,0-3.2,0S29.2,20.9,30.5,20.8z"/>
			<path fill="#EDF8FB" d="M28.4,20.7c0,0,1.4-0.2,1.4-0.7C29.8,19.5,27.7,20.5,28.4,20.7z"/>
		</g>
		<path fill="#5C4036" d="M35,22.2c0,0-0.1-0.1-0.1-0.2c-0.1-0.1-0.1-0.2-0.1-0.4c0-0.1,0-0.3,0.1-0.4c0.1-0.1,0.1-0.2,0.1-0.2
			s0.1,0.1,0.1,0.2c0.1,0.1,0.1,0.2,0.1,0.4c0,0.1,0,0.3-0.1,0.4C35.1,22.2,35,22.2,35,22.2z"/>
		
			<ellipse transform="matrix(-0.9983 5.813048e-02 -5.813048e-02 -0.9983 71.0184 40.167)" fill="#F36F5C" cx="34.9" cy="21.1" rx="0.4" ry="0.4"/>
	</g>
	<g>
		<path fill="#010101" d="M24.1,18.6c0,1.8,2.3,3.2,5,3.2s5-1.4,5-3.2"/>
		<path fill="#010101" d="M36,18.6c0,1.8,2.3,3.2,5,3.2s5-1.4,5-3.2"/>
		<rect x="19.6" y="17.5" fill="#010101" width="26.5" height="1.2"/>
		<g>
			<path fill="#010101" d="M18.8,19.6h-1.2c0-1.2,0.9-2.1,2-2.1v1.2C19.2,18.6,18.8,19.1,18.8,19.6z"/>
		</g>
	</g>
	<path fill="#EDF8FB" d="M37.9,19c0,0,1.3,0.4,1.5-0.1C39.6,18.4,37.3,18.6,37.9,19z"/>
	<path fill="#EDF8FB" d="M25.7,19c0,0,1.3,0.4,1.5-0.1C27.4,18.4,25.1,18.6,25.7,19z"/>
</g>
</svg>
