<?xml version="1.0" encoding="utf-8"?>
<!-- Generator: Adobe Illustrator 18.0.0, SVG Export Plug-In . SVG Version: 6.00 Build 0)  -->
<svg version="1.2" baseProfile="tiny" id="Layer_1" xmlns="http://www.w3.org/2000/svg" xmlns:xlink="http://www.w3.org/1999/xlink"
	 x="0px" y="0px" viewBox="0 135.3 612 523.1" xml:space="preserve">
<g>
	<path d="M214.4,365.7c0-19.3-15.6-34.9-34.9-34.9s-34.9,15.6-34.9,34.9c0,19.3,15.6,34.9,34.9,34.9S214.4,384.9,214.4,365.7"/>
	<path fill="#C19541" d="M366.4,414.6c0,0,0,1.6,0.3,4.2c0.3,2.6,0.5,6.5,1,10.9c1,9.1,3.1,21.1,6.2,32.8c0.5,1.3,0.8,2.6,1.3,3.9
		c0.3,0.8,0.5,1.6,0.8,1.8c0.3,0.3,0.3,0.8,0.5,1.3c1,1.8,2.3,3.1,3.9,4.2c3.4,2.1,8.1,2.6,12.2,2.3c4.2-0.3,7.5-1,10.1-1.6
		c2.3-0.5,3.6-1,3.6-1c2.6-1,5.7,0.3,7,2.9c1,2.6-0.3,5.7-2.9,7c0,0-1.8,0.8-4.4,1.8c-2.9,1-7,2.1-12.2,2.9
		c-2.6,0.3-5.5,0.5-8.8,0.3c-3.1-0.3-6.8-1-10.4-2.9c-1.8-0.8-3.4-2.1-4.9-3.4c-1.6-1.3-3.1-2.9-4.2-4.7c-0.3-0.5-0.5-0.8-0.8-1.3
		l-0.8-1.6c-0.5-1-0.8-1.6-1-2.3v-0.3v-0.3l0,0l-0.3-0.3l-0.3-0.5l-0.5-1l-0.8-2.3c-4.2-12.5-7-25-8.6-34.3
		c-0.8-4.7-1.6-8.8-1.8-11.4c-0.3-1.3-0.3-2.6-0.5-3.4c0-0.8-0.3-1.3-0.3-1.3c-0.5-4.7,2.9-8.8,7.3-9.4c4.4-0.5,8.8,2.9,9.4,7.3
		L366.4,414.6L366.4,414.6z"/>
	<polygon fill="#FFF7B0" points="404.9,483.6 408.3,455.7 413.2,454.9 409.3,486.2 	"/>
	<path fill="#231F20" d="M409.3,486.9l-0.5-0.3l-4.4-2.6c-0.3-0.3-0.5-0.5-0.5-0.8l3.4-27.8c0-0.5,0.3-0.8,0.8-0.8l4.7-0.8
		c0.3,0,0.5,0,0.8,0.3c0.3,0.3,0.3,0.5,0.3,0.8l-3.9,31.2C409.8,486.4,409.6,486.7,409.3,486.9L409.3,486.9z M405.9,483l2.6,1.6
		l3.6-28.6l-2.9,0.5L405.9,483z"/>
	
		<ellipse transform="matrix(0.1225 -0.9925 0.9925 0.1225 -94.1586 814.3914)" fill="#414042" cx="413.5" cy="460.4" rx="1.3" ry="1"/>
	<ellipse transform="matrix(0.1224 -0.9925 0.9925 0.1224 -98.1335 817.0897)" fill="#414042" cx="413" cy="464" rx="1.3" ry="1"/>
	
		<ellipse transform="matrix(-0.9939 -0.1099 0.1099 -0.9939 757.9606 992.8309)" fill="#C19541" cx="406.3" cy="475.5" rx="2.6" ry="1.8"/>
	<polygon fill="#414042" points="296.4,510.1 290.9,644.6 276.6,644.6 271.4,510.1 	"/>
	<path fill="#749800" d="M310.2,655.3c0-12.5-13.5-21.9-24.2-21.9s-15.1,9.4-15.1,21.9H310.2z"/>
	<path fill="#F1F2F2" d="M273,658.4h36.4c1.3,0,2.3-1,2.3-2.3s-1-2.3-2.3-2.3h-38.8v2.3C270.9,657.6,271.9,658.4,273,658.4z"/>
	<polygon fill="#414042" points="355.2,510.1 349.7,644.6 335.4,644.6 330.2,510.1 	"/>
	<path fill="#749800" d="M369,655.3c0-12.5-13.5-21.9-24.2-21.9c-10.7,0-15.1,9.4-15.1,21.9H369z"/>
	<path fill="#F1F2F2" d="M331.8,658.4h36.4c1.3,0,2.3-1,2.3-2.3s-1-2.3-2.3-2.3h-38.8v2.3C329.7,657.6,330.7,658.4,331.8,658.4z"/>
	<path fill="#58595B" d="M316.1,501.3h0.8c7.5,1,15.1,1.6,22.6,1.6c3.6,0,7-0.8,10.7-1.3c3.6-0.3,7.3-0.3,10.9,0.3
		c0.5,0,1.3,0.3,1.6,0.8c0.8,1,0.5,2.6-0.3,3.6c-0.5,0.8-1.3,1.6-2.1,2.1c-6.5,5.7-16.1,8.1-24.2,9.9c-13,2.9-26.5,3.9-40.1,3.9
		c-12,0-28.9-0.5-35.4-7.5c-5.5-5.7-6.2-16.4,5.7-19.5c2.3-0.5,5.2-0.8,7.8-0.8C288.8,494.5,302.1,499.2,316.1,501.3z"/>
	<path fill="#414042" d="M260.5,514.5c-6.2-6.8-6-20,11.7-20.3c7.5,0,10.7,2.3,12.8,6c3.4,5.5,7.8,9.9,14.1,14.6
		c1,0.8,2.1,1.6,3.4,1.8c1.3,0.5,2.6,0.5,4.2,0.8c18.5,1.6,36.7-1,51.5-7.5c-7,5.2-14.3,8.1-24.2,10.1c-12.2,2.3-25.2,2.1-38.2,2.1
		C283.9,522.1,267.2,521.5,260.5,514.5z"/>
	<path fill="#E3FF22" d="M363.8,423.2c0-22.6-23.9-40.9-53.3-40.9c-29.4,0-53.3,18.2-53.3,40.9l5.7,81.7h101V423.2"/>
	<path fill="#C19541" d="M294.3,411.2c0-9.4-3.9-17.7-10.1-23.4c-16.1,7-26.8,20.3-26.8,35.4l1.3,20.3c1,0,2.3,0.3,3.4,0.3
		C279.7,443.5,294.3,429.2,294.3,411.2z"/>
	<path fill="#D1DE00" d="M287.5,504.6c-3.6,0.8-8.3,0-12,0c-4.2,0-8.3,0-12.5,0c-0.3-2.3-0.3-4.7-0.5-6.8c-1-14.1-2.1-28.4-3.4-42.4
		c-0.5-6.5-1-13.3-1.6-19.8c-0.5-5.7-2.3-11.7,4.2-14.3c2.3-1,4.9-1,7.5-0.8c1.8,0,3.6,0.5,4.4,2.1c0.3,0.8,0.3,1.8,0.3,2.6
		c0,13,0.5,26,2.6,38.8c2.1,13,6,25.5,9.9,38C286.7,503.1,287.3,503.9,287.5,504.6z"/>
	<path fill="#AC6E00" d="M262,443.5c4.4,0,8.6-0.8,12.5-2.6c-0.3-5.2-0.3-10.4-0.3-15.6c0-0.8,0-1.8-0.3-2.6
		c-0.8-1.6-2.9-2.1-4.4-2.1c-2.6-0.3-5.2,0-7.5,0.8c-2.9,1-4.2,3.1-4.4,5.2l1,16.7C259.7,443.5,260.7,443.5,262,443.5z"/>
	<path fill="#C19541" d="M268.8,416.7c0,0,0,0.3-0.3,1c-0.3,0.8-0.3,1.8-0.5,3.1c-0.5,2.9-1,6.8-1.8,11.7
		c-0.5,4.9-1.3,10.7-1.6,16.7c-0.3,3.1-0.3,6.2-0.3,9.4c0,1.6,0,3.1,0,4.9c0,1.6,0,3.1,0.3,4.9c0,1.6,0.3,3.4,0.3,4.9
		c0.3,1.6,0.3,3.1,0.5,4.7c0.5,3.1,0.8,6.2,1.3,9.4c1,6,2.3,11.7,3.4,16.7c1,4.9,2.3,8.8,3.1,11.7c0.8,2.9,1.3,4.4,1.3,4.4v0.3
		c0.8,2.9-0.8,5.7-3.6,6.5c-2.6,0.8-5.5-0.8-6.5-3.4c0,0-0.5-1.6-1.6-4.4c-1-2.9-2.3-7-3.9-12c-1.6-4.9-3.1-10.7-4.7-17.2
		c-0.8-3.1-1.6-6.5-2.1-9.9c-0.3-1.8-0.5-3.6-0.8-5.2c-0.3-1.8-0.5-3.4-0.8-5.2c-0.3-1.8-0.3-3.6-0.5-5.2c0-1.8-0.3-3.4-0.3-5.2
		c-0.3-3.4-0.3-6.8-0.3-10.1c0-6.5,0.3-12.8,0.8-18c0.3-5.2,0.8-9.6,1-12.5c0.3-1.6,0.3-2.9,0.5-3.6c0-0.8,0.3-1.3,0.3-1.3
		c0.5-4.7,4.9-7.8,9.4-7c4.7,0.5,7.8,4.9,7,9.4L268.8,416.7L268.8,416.7z"/>
	
		<ellipse transform="matrix(-8.351605e-02 -0.9965 0.9965 -8.351605e-02 -217.9612 832.238)" fill="#C19541" cx="273.7" cy="516.3" rx="2.3" ry="1.8"/>
	<path fill="#D7AB56" d="M310.2,405.8c0,0.5,0,0.8,0,1c0.5,9.9,6.5,17.7,16.7,17.7c10.4,0,18.7-8.3,18.7-18.7c0-1,0-2.1-0.3-3.1
		c-0.3-2.9-0.8-7.5-2.1-11.7c-9.1-5.5-20.6-8.8-32.8-8.8c-3.9,0-7.5,0.3-11.2,0.8C299.2,383.4,308.6,392.5,310.2,405.8z"/>
	<polygon fill="#D7AB56" points="317.4,375.8 338.8,375.8 343.2,391.2 317.4,391.2 	"/>
	<path fill="#624C1F" d="M340.3,299.9c0,0-2.1-9.1,13.5-9.1c9.9,0,17.4,11.2,17.4,12.2s4.7,9.6-5.5,15.9
		c-10.1,6.2-27.6-14.1-27.6-14.1L340.3,299.9z"/>
	<path fill="#624C1F" d="M282.3,311.6L268,292.3c0,0-10.4-6.8-19.3,0.5c-8.8,7-17.2,15.4-17.2,15.4s-6.2,8.8-1.3,16.7
		s10.4,9.4,10.4,9.4s10.7,8.1,15.9-5.2c5.2-13.3,10.1-10.1,10.1-10.1l2.3,2.9l10.1-4.9L282.3,311.6z"/>
	<path fill="#C19541" d="M258.1,345.7c-1.8,1.6,4.9-34.1,39.3-44c26.5-7.5,39.3-3.6,58,8.1c10.9,6.8,13.5,8.1,27.1,17.2
		c16.4,11.2,13.3,27.1-6.8,40.3C350.5,383.4,256.6,409.9,258.1,345.7z"/>
	<path fill="#D7AB56" d="M372.9,369.3c0,0-44,23.2-76.2,8.6s9.1-27.8,9.1-27.8s77.3-8.8,77.3,3.6C383,361.8,372.9,369.3,372.9,369.3
		z"/>
	<path fill="#624C1F" d="M295.9,332.4c0.3,1.6,1,2.6,1.8,3.6c1,1,2.1,1.8,3.4,2.6c1.3,0.8,2.3,1.3,3.6,1.8c1.3,0.5,2.6,1,3.9,1.6
		c1.3,0.5,2.6,0.8,3.9,1c1.3,0.3,2.6,0.8,4.2,1c1.3,0.3,2.9,0.5,4.2,0.8c1.3,0.3,2.9,0.3,4.2,0.5c1.3,0,2.9,0.3,4.2,0.3
		s2.9,0,4.2-0.3l2.1-0.3l2.1-0.3c1.3-0.3,2.6-0.5,3.9-1c1.3-0.5,2.6-0.8,3.6-1.6c1-0.5,2.3-1.3,3.1-2.1c0.5-0.3,0.8-0.8,1.3-1.3
		c0.5-0.5,0.8-1,1-1.6c0.3-0.5,0.5-1,0.8-1.6l0.5-1.8l0,0c0.3-0.8,1.3-1.3,2.1-1s1,0.8,1.3,1.6c0,0.8,0,1.6,0.3,2.3
		c0,0.3,0.3,0.8,0.3,1s0.3,0.8,0.5,1c0.3,0.8,0.8,1.3,1.3,1.8c0.5,0.5,1,1,1.8,1.6c1.3,0.8,2.9,1.6,4.4,2.1c0.8,0.3,1.6,0.3,2.3,0.5
		c0.8,0,1.6,0.3,2.6,0.3c1.8,0,3.4,0,5.2-0.3c0.8,0,1.8-0.3,2.6-0.5c0.8-0.3,1.8-0.3,2.6-0.5c1.6-0.5,3.4-1,4.7-2.1
		c0.8-0.5,1.6-1,2.1-1.6c0.5-0.5,1-1.3,1-2.3c0,0.8-0.3,1.8-0.8,2.6c-0.5,0.8-1.3,1.3-1.8,2.1c-1.6,1-3.1,2.1-4.7,2.6
		c-1.8,0.8-3.4,1.3-5.2,1.6c-1.8,0.3-3.6,0.5-5.5,0.8c-1,0-1.8,0-2.9,0c-1,0-1.8-0.3-2.9-0.5c-1-0.3-1.8-0.5-2.9-0.8
		c-0.8-0.3-1.8-0.8-2.6-1.3c-0.8-0.5-1.6-1.3-2.3-2.1c-0.8-0.8-1.3-1.6-1.8-2.6c-0.3-0.5-0.5-1-0.5-1.3c-0.3-0.5-0.3-1-0.5-1.6
		c-0.3-1-0.3-2.1-0.5-2.9l3.4,0.3l-0.8,2.3c-0.3,0.8-0.8,1.6-1,2.1c-0.5,0.8-0.8,1.3-1.3,2.1c-0.5,0.5-1,1.3-1.6,1.8
		c-2.3,2.1-5.2,3.4-8.1,4.4c-1.6,0.5-2.9,0.8-4.4,1l-2.1,0.3l-2.1,0.3c-1.6,0-2.9,0-4.4,0s-2.9-0.3-4.4-0.3
		c-1.6-0.3-2.9-0.3-4.4-0.5c-1.3-0.3-2.9-0.5-4.2-1c-1.3-0.3-2.9-0.8-4.2-1.3c-1.3-0.5-2.6-1-4.2-1.6c-1.3-0.5-2.6-1.3-3.9-1.8
		c-1.3-0.8-2.6-1.6-3.6-2.3c-1-1-2.3-1.8-3.1-3.1C296.4,335.2,295.9,333.9,295.9,332.4z"/>
	<polyline points="360.1,330.6 353.6,336 347.9,330 	"/>
	<path d="M305.7,318.3c0,6.2,8.6,11.4,19,11.4c10.4,0,19-5.2,19-11.4"/>
	<path d="M350.8,318.3c0,6.2,8.6,11.4,19,11.4c10.4,0,19-5.2,19-11.4"/>
	<rect x="288.6" y="314.2" width="100.2" height="4.2"/>
	<path d="M285.7,321.5H281c0-4.2,3.4-7.5,7.5-7.5v4.4C287,318.3,285.7,319.6,285.7,321.5z"/>
	<path fill="#EBFEFF" d="M357.5,319.4c0,0,5.2,1.3,5.7-0.3C363.8,317.5,355.4,318.1,357.5,319.4z"/>
	<path fill="#EBFEFF" d="M311.5,319.4c0,0,5.2,1.3,5.7-0.3C318,317.5,309.4,318.1,311.5,319.4z"/>
	<circle fill="#624C1F" cx="320.6" cy="337.3" r="1.3"/>
	<circle fill="#624C1F" cx="329.9" cy="337.3" r="1.3"/>
	<circle fill="#624C1F" cx="325.3" cy="332.6" r="1.3"/>
	<circle fill="#624C1F" cx="370.8" cy="337.3" r="1.3"/>
	<circle fill="#624C1F" cx="380.2" cy="337.3" r="1.3"/>
	<circle fill="#624C1F" cx="375.5" cy="332.6" r="1.3"/>
	<path fill="#4D3401" d="M265.4,316.5c0,0-5.7-18.7-8.8-18.7c-3.1,0-33,15.9-26.5,27.6c1.6,2.6,16.7,16.1,23.2,6
		C256,326.9,255.3,315.7,265.4,316.5z"/>
	<rect x="309.6" y="435.2" fill="#ABCB11" width="36.4" height="54.6"/>
	<path fill="none" d="M313.5,489c-1.8,0-3.1-1.3-3.1-3.1v-46.6c0-1.8,1.3-3.1,3.1-3.1h28.4c1.8,0,3.1,1.3,3.1,3.1v46.6
		c0,1.8-1.3,3.1-3.1,3.1H313.5 M341.9,435.2h-28.4c-2.1,0-3.9,1.8-3.9,3.9v46.6c0,2.1,1.8,3.9,3.9,3.9h28.4c2.1,0,3.9-1.8,3.9-3.9
		v-46.6C346.1,437,344.2,435.2,341.9,435.2"/>
	<rect x="313.3" y="439.3" fill="#E3FF22" width="29.1" height="23.2"/>
	<path fill="#749800" d="M339.3,442.4v16.7h-22.6v-16.7H339.3 M342.7,439.3h-29.1v23.2h29.1V439.3z"/>
	<rect x="322.7" y="451.8" fill="#749800" width="1.3" height="1.3"/>
	<rect x="324" y="453.1" fill="#749800" width="1.3" height="1.3"/>
	<rect x="325.3" y="454.4" fill="#749800" width="1.3" height="1.3"/>
	<rect x="326.6" y="454.4" fill="#749800" width="1.3" height="1.3"/>
	<rect x="327.9" y="454.4" fill="#749800" width="1.3" height="1.3"/>
	<rect x="329.2" y="454.4" fill="#749800" width="1.3" height="1.3"/>
	<rect x="330.5" y="454.4" fill="#749800" width="1.3" height="1.3"/>
	<rect x="331.8" y="453.1" fill="#749800" width="1.3" height="1.3"/>
	<rect x="333.1" y="451.8" fill="#749800" width="1.3" height="1.3"/>
	<rect x="324.2" y="448.2" fill="#749800" width="1.3" height="1.3"/>
	<rect x="324.2" y="446.9" fill="#749800" width="1.3" height="1.3"/>
	<rect x="331.5" y="446.9" fill="#749800" width="1.3" height="1.3"/>
	<rect x="331.5" y="448.2" fill="#749800" width="1.3" height="1.3"/>
	<circle fill="#A760C7" cx="339.8" cy="470.5" r="2.9"/>
	<circle fill="#A760C7" cx="333.3" cy="473.9" r="2.9"/>
	<rect x="317.2" y="467.7" fill="#749800" width="3.4" height="10.1"/>
	<rect x="313.5" y="471.3" fill="#749800" width="10.1" height="3.4"/>
	<rect x="323.4" y="484.3" fill="#749800" width="3.9" height="1.3"/>
	<rect x="328.6" y="484.3" fill="#749800" width="3.9" height="1.3"/>
	<rect x="338.3" y="441.4" fill="#749800" width="4.2" height="18.7"/>
	<rect x="313.5" y="441.4" fill="#749800" width="4.2" height="18.7"/>
	<path fill="#FFFFFF" d="M173.8,382.6c0-0.5,0-2.3,0-4.2c-6.2,1.3-7.5-2.6-7.5-2.6c-1-2.6-2.3-3.1-2.3-3.1c-2.1-1.3,0-1.3,0-1.3
		c2.3,0,3.4,2.3,3.4,2.3c2.1,3.4,5.2,2.3,6.5,1.8c0.3-1.6,0.8-2.3,1.3-2.9c-4.9-0.5-10.1-2.3-10.1-10.9c0-2.3,0.8-4.4,2.3-6
		c-0.3-0.5-1-2.9,0.3-6c0,0,1.8-0.5,6.2,2.3c1.8-0.5,3.6-0.8,5.7-0.8s3.9,0.3,5.7,0.8c4.2-2.9,6.2-2.3,6.2-2.3
		c1.3,3.1,0.5,5.5,0.3,6c1.3,1.6,2.3,3.4,2.3,6c0,8.6-5.2,10.4-10.1,10.9c0.8,0.8,1.6,2.1,1.6,4.2c0,2.9,0,5.5,0,6.2
		c0,0,0,0.5-5.7,0.5C173.8,383.4,173.8,382.6,173.8,382.6z"/>
	<path d="M165.5,372.5h-0.3l-0.3-0.3h0.3C165.5,372.2,165.5,372.5,165.5,372.5z"/>
	<path d="M166.5,373.5H166V373c0,0,0.3,0,0.5,0C166.5,373.2,166.5,373.5,166.5,373.5z"/>
	<path d="M167.3,374.8c0,0-0.3,0-0.5-0.3c0-0.3,0-0.5,0-0.5s0.3,0,0.5,0.3V374.8z"/>
	<path d="M168.6,376.1c0,0-0.3,0-0.5,0c-0.3,0-0.3-0.3,0-0.5c0,0,0.3,0,0.5,0C168.6,375.6,168.6,375.8,168.6,376.1z"/>
	<path d="M170.2,376.9c0,0-0.3,0.3-0.5,0c-0.3,0-0.3-0.3-0.3-0.5c0,0,0.3-0.3,0.5,0C169.9,376.4,170.2,376.6,170.2,376.9z"/>
	<path d="M172,376.9c0,0-0.3,0.3-0.5,0.3c-0.3,0-0.5,0-0.5-0.3c0,0,0.3-0.3,0.5-0.3C171.7,376.6,172,376.6,172,376.9z"/>
	<path d="M173.6,376.6c0,0,0,0.3-0.3,0.3c-0.3,0-0.5,0-0.5-0.3c0,0,0-0.3,0.3-0.3C173.3,376.4,173.6,376.4,173.6,376.6z"/>
	<circle fill="#2FD565" cx="220.1" cy="241.6" r="32.3"/>
	<path fill="#181313" d="M216.2,228.8c1.6,0,2.9,0,4.4,0.3c0.5,0,1,0,1.8,0s1.6,0.3,2.3,0.3c0.8,0,1.3,0.3,1.8,0.3s1,0.3,1.8,0.3
		c0.5,0,1,0,1.3,0.3c1,0.3,1.8,0.5,2.6,0.8c0.8,0.3,1.6,0.5,2.3,0.8c0.5,0.3,1.3,0.5,1.8,0.8c0.8,0.3,1.3,0.5,1.8,1
		c0.8,0.3,1.3,0.8,2.1,1c1,0.5,1.3,1.6,1,2.6c-0.3,1.6-1.8,2.9-3.4,2.3c-0.3,0-0.8-0.3-1-0.5c-0.5-0.3-1-0.5-1.6-0.8
		c-0.5-0.3-1-0.5-1.8-0.8c-1-0.3-1.8-0.8-2.6-1c-0.5,0-1-0.3-1.6-0.5c-0.5,0-1-0.3-1.6-0.3c-1-0.3-1.8-0.5-2.9-0.5
		c-0.8,0-1.3-0.3-2.1-0.3c-2.1-0.3-4.2-0.3-6.2-0.5c-1.8,0-3.6,0-5.2,0c-0.5,0-1,0-1.6,0c-0.8,0-1.6,0.3-2.1,0.3c-0.5,0-1,0-1.6,0.3
		c-0.8,0-1.3,0.3-2.1,0.5c-1.3,0.5-2.6,0-3.4-1c-0.8-0.8-0.8-1.8-0.3-2.9c0.5-0.8,1-1.3,2.1-1.6c0.8,0,1.3-0.3,1.8-0.5
		c0.5,0,1-0.3,1.6-0.3c0.8,0,1.3-0.3,1.8-0.3c1,0,2.3-0.3,3.4-0.3C213.6,229.1,214.9,228.8,216.2,228.8z"/>
	<path fill="#181313" d="M216,238.7c1.6,0,3.1,0.3,4.7,0.3c1,0,1.8,0.3,2.6,0.3c0.8,0,1.6,0.3,2.3,0.5c1,0.3,1.8,0.5,2.9,0.8
		c1,0.3,1.8,0.5,2.9,1c0.5,0.3,1,0.5,1.8,0.8c0.5,0.3,1.3,0.5,1.8,1c0.8,0.3,1.6,0.8,2.1,1.3c1,0.8,1,2.1,0.3,3.1
		c-0.5,0.8-1.3,1-2.3,0.8c-0.3,0-0.8-0.3-1-0.5c-0.8-0.5-1.6-0.8-2.3-1.3c-1-0.5-1.8-0.8-2.9-1c-0.5,0-0.8-0.3-1.3-0.5
		c-1-0.3-2.1-0.5-3.1-0.8c-1-0.3-2.1-0.3-3.1-0.5c-1.6,0-2.9-0.3-4.4-0.3s-3.1,0-4.7,0.3c-1,0-2.1,0.3-3.1,0.5
		c-0.8,0-1.6,0.3-2.3,0.5c-0.8,0-1.3,0.5-2.1,0.3c-0.8,0-1.3-0.8-1.8-1.6c-0.3-1,0-1.6,0.5-2.3c0.3-0.3,0.8-0.5,1-0.8
		c1-0.3,2.3-0.5,3.4-0.8c1.3-0.3,2.9-0.5,4.2-0.5C213.1,238.7,214.4,238.7,216,238.7z"/>
	<path fill="#181313" d="M216.2,248.1c1,0,2.6,0,3.6,0.3c1.3,0,2.6,0.3,3.6,0.5s2.3,0.5,3.4,1c1,0.3,1.8,0.8,2.9,1
		c1,0.5,1.8,0.8,2.6,1.3c0.5,0.3,0.8,0.5,1,0.8c0.5,0.8,0.5,1.6,0,2.1c-0.5,0.8-1,1-1.8,0.8c-0.3,0-0.5-0.3-1-0.5
		c-0.8-0.5-1.6-0.8-2.3-1.3c-0.8-0.3-1.6-0.8-2.3-1c-0.5-0.3-1-0.3-1.6-0.5c-0.8-0.3-1.8-0.5-2.6-0.5s-1.6-0.3-2.1-0.3
		c-1.3,0-2.9-0.3-4.2,0c-1.6,0-3.1,0-4.7,0.3c-1,0-1.8,0.3-2.9,0.5c-0.5,0-1.3,0.3-1.8,0.5c-1,0.3-2.3-0.8-2.1-1.8
		c0-0.8,0.8-1.6,1.6-1.8c1-0.3,1.8-0.5,2.9-0.5c1.3-0.3,2.9-0.5,4.2-0.5C213.6,248.1,214.9,248.1,216.2,248.1z"/>
	<circle fill="#20B038" cx="528.7" cy="233.8" r="29.9"/>
	<path fill="#FFFFFF" d="M514.7,247.8l2.1-7.5c-1.3-2.3-2.1-4.7-2.1-7.3c0-8.1,6.5-14.8,14.8-14.8c3.9,0,7.5,1.6,10.4,4.4
		s4.4,6.5,4.4,10.4c0,8.1-6.5,14.8-14.8,14.8c-2.3,0-4.9-0.8-7-1.8L514.7,247.8z M522.8,243.1l0.5,0.3c1.8,1,3.9,1.8,6.2,1.8
		c6.8,0,12.2-5.5,12.2-12.2c0-3.4-1.3-6.2-3.6-8.6c-2.3-2.3-5.5-3.6-8.6-3.6c-6.8,0-12.2,5.5-12.2,12.2c0,2.3,0.8,4.7,1.8,6.5
		l0.3,0.5l-1.3,4.4L522.8,243.1z"/>
	<path fill="#FFFFFF" d="M525.6,226.7c-0.3-0.8-0.5-0.8-0.8-0.8c-0.3,0-0.5,0-0.8,0c-0.3,0-0.8,0-1,0.5c-0.3,0.5-1.3,1.3-1.3,3.1
		c0,1.8,1.3,3.6,1.6,3.9c0.3,0.3,2.6,4.2,6.2,5.7c3.1,1.3,3.6,1,4.4,0.8c0.8,0,2.1-0.8,2.3-1.8c0.3-0.8,0.3-1.6,0.3-1.8
		c0-0.3-0.3-0.3-0.8-0.5c-0.3-0.3-2.1-1-2.3-1.3c-0.3-0.3-0.5-0.3-0.8,0.3c-0.3,0.5-0.8,1-1,1.3c-0.3,0.3-0.5,0.3-0.8,0
		c-0.5-0.3-1.6-0.5-2.9-1.8c-1-1-1.8-2.1-2.1-2.6c-0.3-0.5,0-0.5,0.3-0.8c0.3-0.3,0.5-0.5,0.5-0.8c0.3-0.3,0.3-0.5,0.5-0.8
		c0.3-0.3,0-0.5,0-0.8C526.7,229.3,526.1,227.5,525.6,226.7z"/>
	<circle fill="#314358" cx="73.1" cy="370.9" r="40.1"/>
	<path fill="#FFFFFF" d="M81.4,382.6c-0.8,0.3-2.1,0.8-3.1,0.8c-3.1,0-3.6-2.1-3.6-3.9v-12.2h7.8v-6h-7.8v-9.9H69l-0.3,0.3
		c-0.3,3.1-1.8,8.3-7.5,10.4v4.9h3.9v12.8c0,4.4,3.1,10.4,11.7,10.4c2.9,0,6-1.3,6.8-2.3L81.4,382.6"/>
	<circle fill="#4997CF" cx="31.5" cy="278.3" r="31"/>
	<path fill="#FFFFFF" d="M44.2,264.5c1,1.8,1.6,3.6,1.6,5.7c0,7.3-6.2,16.7-11.2,23.4H22.9L18.2,266l10.1-1l2.3,19.5
		c2.3-3.6,5.2-9.6,5.2-13.5c0-2.1-0.5-3.6-1-4.9L44.2,264.5z"/>
	<circle fill="#0080FF" cx="350.8" cy="235.3" r="32"/>
	<path fill="#FFFFFF" d="M351,217.9c-6.8,0-12.2,5.5-12.2,12.2c0,9.1,12.2,22.6,12.2,22.6s12.2-13.5,12.2-22.6
		C363.2,223.4,357.8,217.9,351,217.9z M351,234.5c-2.3,0-4.4-2.1-4.4-4.4s2.1-4.4,4.4-4.4s4.4,2.1,4.4,4.4
		C355.2,232.5,353.4,234.5,351,234.5z"/>
	<circle fill="#0080FF" cx="132.2" cy="282.7" r="40.1"/>
	<circle fill="#FFFFFF" cx="113.2" cy="280.9" r="4.4"/>
	<circle fill="#FFFFFF" cx="150.7" cy="280.9" r="4.4"/>
	<path fill="#FFFFFF" d="M131.9,273.8L131.9,273.8c-0.5-0.3-0.8-0.5-0.5-0.8l3.4-10.7c0.3-0.3,0.5-0.5,0.8-0.5l9.1,2.1
		c0.3,0.3,0.5,0.5,0.5,0.8c-0.3,0.3-0.5,0.5-0.8,0.5l-8.6-2.1l-3.1,10.1C132.4,273.8,132.2,273.8,131.9,273.8z"/>
	<circle fill="#FFFFFF" cx="148.3" cy="265.5" r="3.6"/>
	<ellipse fill="#FFFFFF" cx="131.9" cy="287.1" rx="20.6" ry="13.5"/>
	<path fill="#FFFFFF" d="M124.6,293.3c1.8,1.8,4.7,2.1,7.3,2.1"/>
	<path d="M131.9,296c-3.6,0-6-0.8-7.5-2.3c-0.3-0.3-0.3-0.5,0-0.8s0.5-0.3,0.8,0c1.3,1.3,3.6,1.8,6.8,1.8c0.3,0,0.5,0.3,0.5,0.5
		C132.4,295.4,132.2,296,131.9,296z"/>
	<path fill="#FFFFFF" d="M138.9,293.3c-1.8,1.8-4.7,2.1-7.3,2.1"/>
	<path d="M131.9,296c-0.3,0-0.5-0.3-0.5-0.5c0-0.3,0.3-0.5,0.5-0.5c3.1,0,5.5-0.8,6.8-1.8c0.3-0.3,0.5-0.3,0.8,0
		c0.3,0.3,0.3,0.5,0,0.8C137.9,295.4,135.3,296,131.9,296z"/>
	<path fill="#FF4500" d="M124.4,280.9c-1.8,0-3.4,1.8-3.4,3.4c0,1.6,1.8,3.4,3.4,3.4s3.4-1.8,3.4-3.4
		C127.8,282.7,126.2,280.9,124.4,280.9z"/>
	<path fill="#FF4500" d="M140,280.9c-1.8,0-3.4,1.8-3.4,3.4c0,1.6,1.8,3.4,3.4,3.4s3.4-1.8,3.4-3.4
		C143.4,282.7,141.8,280.9,140,280.9z"/>
	<path fill="none" d="M172,282.7c0,22.1-18,40.1-40.1,40.1s-40.1-18-40.1-40.1s18-40.1,40.1-40.1C154,242.6,172,260.6,172,282.7"/>
	<circle fill="#3A589E" cx="536.8" cy="551" r="29.9"/>
	<rect x="515.2" y="531.7" fill="none" width="34.3" height="34.1"/>
	<polyline fill="none" points="528,540 536,534.6 546.4,533.8 545.4,559 540.7,568.1 528,567.6 528,540 	"/>
	<path fill="none" d="M566.5,551c0,16.4-13.3,29.9-29.9,29.9c-16.4,0-29.9-13.3-29.9-29.9c0-16.7,13.3-29.9,29.9-29.9
		C553.2,521.3,566.5,534.6,566.5,551"/>
	<circle fill="#1076FF" cx="463.4" cy="529.1" r="26"/>
	<path fill="#FFFFFF" d="M472.3,519.7h-16.9c-1,0-2.1,1-2.1,2.1v19.3l4.2-4.2h14.8c1,0,2.1-1,2.1-2.1v-12.8
		C474.6,520.8,473.6,519.7,472.3,519.7z"/>
	<circle fill="#2A5B83" cx="52.8" cy="478.6" r="40.1"/>
	<path fill="#895A4D" d="M67.9,458.1H36.7c-2.9,0-5.2,2.3-5.2,5.2v10.4h41.6v-10.4C73.1,460.4,70.8,458.1,67.9,458.1z"/>
	<path fill="#FF3939" d="M34.1,458.8v14.8h2.6v-15.6C35.9,458.1,34.9,458.3,34.1,458.8z"/>
	<rect x="36.7" y="458.1" fill="#FED049" width="2.6" height="15.6"/>
	<rect x="39.3" y="458.1" fill="#10DD76" width="2.6" height="15.6"/>
	<rect x="41.9" y="458.1" fill="#5FCCFF" width="2.6" height="15.6"/>
	<circle fill="#162838" cx="65.3" cy="465.9" r="3.9"/>
	<circle fill="#2C4356" cx="65.3" cy="465.9" r="2.1"/>
	<circle fill="#47637A" cx="65.3" cy="465.9" r="0.8"/>
	<path fill="#E5E0DC" d="M31.5,473.7v20.8c0,2.9,2.3,5.2,5.2,5.2h31.2c2.9,0,5.2-2.3,5.2-5.2v-20.8H31.5z"/>
	<polygon fill="#75483D" points="63.8,473.7 60.6,470.5 60.6,473.7 	"/>
	<path fill="#D0CBC5" d="M57.5,473.7L44,487.2l12.5,12.5h11.4c2.9,0,5.2-2.3,5.2-5.2V483l-9.4-9.4H57.5z"/>
	<circle fill="#DCD7D3" cx="52.3" cy="478.9" r="11.7"/>
	<circle fill="#162838" cx="52.3" cy="478.9" r="9.1"/>
	<circle fill="#2C4356" cx="52.3" cy="478.9" r="5.2"/>
	<circle fill="#162838" cx="52.3" cy="478.9" r="2.6"/>
	<circle fill="#47637A" cx="55.7" cy="475.5" r="2.1"/>
	<circle fill="#FFFA38" cx="484.8" cy="390.7" r="38.5"/>
	<circle fill="#3A00D2" cx="463.7" cy="291.3" r="38.5"/>
	<path fill="#FFFFFF" d="M454.3,290.2c2.6,5.2,7,9.4,12.2,12.2l4.2-4.2c0.5-0.5,1.3-0.8,1.8-0.5c2.1,0.8,4.2,1,6.5,1
		c1,0,1.8,0.8,1.8,1.8v6.5c0,1-0.8,1.8-1.8,1.8c-17.2,0-31.2-14.1-31.2-31.2c0-1,0.8-1.8,1.8-1.8h6.5c1,0,1.8,0.8,1.8,1.8
		c0,2.3,0.3,4.4,1,6.5c0.3,0.5,0,1.3-0.5,1.8L454.3,290.2z"/>
	<circle fill="#E04C40" cx="156.9" cy="538.5" r="40.1"/>
	<path fill="#FFFFFF" d="M172,523.9h-31c-2.1,0-3.9,1.8-3.9,3.9V551c0,2.1,1.8,3.9,3.9,3.9h31c2.1,0,3.9-1.8,3.9-3.9v-23.2
		C175.9,525.7,174.1,523.9,172,523.9z M172,531.7l-15.4,9.6l-15.4-9.6v-3.9l15.4,9.6l15.4-9.6V531.7z"/>
	<circle fill="#28AAE1" cx="433.2" cy="190.6" r="41.6"/>
	<path fill="#FFFFFF" d="M456.7,178.3c-1.6,0.8-3.1,1-4.9,1.3c1.8-1,3.1-2.9,3.6-4.9c-1.6,1-3.6,1.8-5.5,2.1
		c-1.6-1.6-3.9-2.6-6.2-2.6c-4.7,0-8.6,3.9-8.6,8.6c0,0.8,0,1.3,0.3,2.1c-7.3-0.5-13.8-3.9-18-9.1c-0.8,1.3-1.3,2.9-1.3,4.4
		c0,3.1,1.6,5.7,3.9,7.3c-1.3,0-2.9-0.5-3.9-1l0,0c0,4.2,2.9,7.8,7,8.6c-0.8,0.3-1.6,0.3-2.3,0.3c-0.5,0-1,0-1.6-0.3
		c1,3.4,4.4,6,8.1,6c-2.9,2.3-6.8,3.6-10.9,3.6c-0.8,0-1.3,0-2.1,0c3.9,2.3,8.3,3.9,13.3,3.9c16.1,0,24.7-13.3,24.7-24.7
		c0-0.3,0-0.8,0-1C453.8,181.5,455.4,179.9,456.7,178.3z"/>
	<circle fill="#E52D27" cx="528.7" cy="467.2" r="38.5"/>
	<path fill="#FFFFFF" d="M550.9,458.3c0,0-0.5-3.1-1.8-4.4c-1.8-1.8-3.6-1.8-4.4-1.8c-6.2-0.5-15.9-0.5-15.9-0.5s-9.6,0-15.9,0.5
		c-0.8,0-2.9,0-4.4,1.8c-1.3,1.3-1.8,4.4-1.8,4.4s-0.5,3.6-0.5,7.3v3.4c0,3.6,0.5,7.3,0.5,7.3s0.5,3.1,1.8,4.4
		c1.8,1.8,3.9,1.8,4.9,1.8c3.6,0.3,15.4,0.5,15.4,0.5s9.6,0,15.9-0.5c0.8,0,2.9,0,4.4-1.8c1.3-1.3,1.8-4.4,1.8-4.4s0.5-3.6,0.5-7.3
		v-3.4C551.4,462,550.9,458.3,550.9,458.3z M524.1,473.2v-12.8l12.2,6.5L524.1,473.2z"/>
	<circle fill="#0274B3" cx="581.8" cy="395.9" r="30.4"/>
	<path fill="none" d="M612,395.9c0,16.7-13.5,30.4-30.4,30.4c-16.7,0-30.4-13.5-30.4-30.4c0-16.7,13.5-30.4,30.4-30.4
		C598.5,365.7,612,379.2,612,395.9"/>
	<circle fill="#FC6520" cx="145.5" cy="186.4" r="31"/>
	<path fill="#FFFFFF" d="M124.6,184.3L124.6,184.3l-0.5,2.3l0.3,2.3l0,0l0,0l0.3-2.3L124.6,184.3L124.6,184.3z M126.2,183L126.2,183
		L126.2,183l-0.8,3.6l0.5,3.6l0,0l0,0l0.5-3.6L126.2,183z M132.4,179.6l-0.3,0.3l-0.3,6.5l0.3,4.2l0.3,0.3l0.3-0.3l0.3-4.2l-0.3-6.5
		L132.4,179.6z M129.3,182L129.3,182l-0.5,4.7l0.3,4.2l0.3,0.3l0.3-0.3l0.5-4.2L129.3,182L129.3,182z M135.8,191.3l0.3-0.3l0.3-4.2
		l-0.3-9.1l-0.3-0.3l-0.5,0.3v8.8l0.3,4.2L135.8,191.3z M142.6,191.3c0.3,0,0.5-0.3,0.5-0.5l0.3-4.2l-0.3-10.1
		c0-0.3-0.3-0.5-0.5-0.5c-0.3,0-0.5,0.3-0.5,0.5l-0.3,10.1l0.3,4.2C141.8,191.1,142.1,191.3,142.6,191.3z M139.2,191.3l0.5-0.5
		l0.3-4.2l-0.5-8.8l-0.5-0.5l-0.3,0.5l-0.3,8.8l0.3,4.2L139.2,191.3z M130.9,191.1L130.9,191.1l0.5-4.4l-0.3-4.2l-0.3-0.3l-0.3,0.3
		l-0.3,4.2L130.9,191.1L130.9,191.1z M127.5,191.1L127.5,191.1l0.8-4.4l-0.5-4.2l-0.3-0.3l-0.3,0.3l-0.3,4.2L127.5,191.1
		L127.5,191.1z M140.8,177.6l-0.5,0.5l-0.3,8.6l0.3,4.2l0.5,0.5l0.5-0.5l0.3-4.2l-0.3-8.6C141.3,177.8,141,177.6,140.8,177.6z
		 M134,191.3l0.3-0.3l0.3-4.2l-0.3-8.1l-0.3-0.3l-0.3,0.3l-0.3,8.1l0.3,4.2L134,191.3z M137.6,190.8L137.6,190.8l0.3-4.2l-0.3-9.1
		l-0.5-0.5l-0.5,0.5l-0.3,9.1l0.3,4.2l0.5,0.5C137.6,191.3,137.6,191.1,137.6,190.8z M159.5,181.5c-0.8,0-1.3,0-1.8,0.3
		c-0.5-4.4-4.2-8.1-8.8-8.1c-1,0-2.3,0.3-3.1,0.5c-0.3,0-0.5,0.3-0.5,0.5v16.1c0,0.3,0.3,0.5,0.5,0.5h13.8c2.6,0,4.9-2.3,4.9-4.9
		C164.4,183.8,162.1,181.5,159.5,181.5z M144.2,175c-0.3,0-0.5,0.3-0.5,0.5l-0.3,11.2l0.3,3.9c0,0.3,0.3,0.5,0.5,0.5
		s0.5-0.3,0.5-0.5l0.3-3.9l-0.3-11.2C144.7,175.2,144.4,175,144.2,175z"/>
	<circle fill="#FFE200" cx="139.5" cy="445.6" r="31"/>
	<path fill="#FFFFFF" d="M129.6,464H128c0.3-0.5,0.3-1.3,0.5-1.8c0.3-0.5,0.3-1,0.3-1.6c0.3-0.5,0.3-1.3,0.3-1.8
		c0-0.3,0-0.8,0.3-1.3c0-0.5,0.3-1,0.3-1.6c0-0.3,0-0.5,0-1c0-0.5,0-1,0-1.6c0-0.8,0-1.3,0.3-2.1c0-1,0.3-1.8,0.3-2.9
		c0-1.6,0-2.9,0-4.4c0-0.8,0-1.6-0.3-2.6c0-0.5,0-1-0.3-1.6c-0.3-0.8-0.3-1.6-0.3-2.3c0-0.5-0.3-1.3-0.3-1.8c0-0.5-0.3-1-0.3-1.3
		c0-0.5,0-1,0.3-1.6c0.3-1.8,1.6-2.9,3.1-3.6c1.3-0.8,2.3-1,3.6-1.6c0.8-0.3,1.6-0.5,2.3-0.5c0.5,0,1-0.3,1.6-0.3
		c1.6,0,2.9,0.3,3.9,1.3c0.8,0.5,1.6,1.3,2.1,1.8c0.5,0.5,1,1,1.8,1.6c0.5,0.5,1.3,1,2.1,1.3c0.3,0,0.8,0.3,1,0.3
		c0.5,0.3,1.3,0.5,1.6,1c0.3,0.3,0.3,0.5,0.3,1c0,0.3,0,0.8-0.3,1c-0.3,1-0.5,1.6-1.3,2.1c-0.5,0.3-1.3,0.8-1.8,1
		c-0.5,0.3-1.3,0.5-2.1,0.8c-0.5,0.3-1,0.3-1.6,0.3c-0.3,0-0.5,0-0.8,0c-0.8,0-1.6,0-2.1,0.3h-0.5c-0.3,0-0.5,0.3-0.5,0.8
		c-0.3,0.8-0.3,1.3-0.3,2.1c0,0.8,0,1.3,0,2.1c0,1.6,0.5,2.9,1,4.2c0.5,1.3,1.3,2.9,1.8,4.2c0.5,1.3,1,2.6,1.6,3.9
		c0.3,0.8,0.5,1.6,0.8,2.3c0.3,0.8,0.3,1.8,0.3,2.6v0.3"/>
	<path d="M145.2,464c0-0.5,0-1,0-1.8c-0.3-0.8-0.3-1.6-0.5-2.3c-0.3-0.8-0.5-1.6-0.8-2.3c-0.3-0.8-0.5-1.6-1-2.3
		c-0.5-1.3-1-2.6-1.8-3.9c-0.3-0.8-0.8-1.6-0.8-2.3c-0.3-0.5-0.3-1.3-0.3-1.8c0-0.8,0-1.6,0-2.3c0-0.5,0-1.3,0-1.8
		c0-0.5,0.3-1,0.5-1.6c0.3-0.5,0.8-0.8,1.3-1c0.5,0,1.3-0.3,1.8-0.3c0.8,0,1.3,0,2.1-0.3c0.3,0,0.8-0.3,1-0.3l0,0
		c-0.3-0.3-0.8-0.3-1-0.5c-0.5-0.3-0.8-0.5-1.3-0.8l-0.3-0.5l0.3-0.3h0.3c0.5,0.3,1.3,0.8,2.1,1c0.3,0,0.8,0.3,1,0.3h0.3
		c0.8-0.3,1.3-0.8,2.1-1.3v-0.3c-0.3-0.5-0.5-1-0.8-1.6c-0.3-0.3-0.3-0.5-0.3-0.8l-0.3-0.3c-0.8-0.3-1.3-0.8-2.1-1
		c-0.5-0.5-1.3-1-1.8-1.6c-0.8-0.8-1.6-1.6-2.6-2.1c-0.8-0.5-1.8-1-2.9-1s-2.1,0.3-3.1,0.5c-1.3,0.5-2.6,1-3.9,1.6
		c-0.8,0.5-1.3,0.8-1.8,1.6c-0.3,0.5-0.5,1-0.5,1.6c0,0.5,0,1.3,0,1.8c0,0.5,0.3,1,0.3,1.6c0,0.5,0.3,1.3,0.3,1.8
		c0,0.5,0.3,1,0.3,1.6c0,0.5,0,1.3,0,1.8c0,0.8,0,1.6,0,2.1c0,1.3,0,2.3,0,3.6c0,0.8,0,1.8-0.3,2.6c0,1-0.3,2.3-0.3,3.4
		c0,0.8-0.3,1.6-0.3,2.6c0,0.8-0.3,1.3-0.3,2.1c0,0.8-0.3,1.3-0.3,2.1c-0.3,0.8-0.3,1.6-0.5,2.3v0.3h-1.6c0.3-0.5,0.3-1.3,0.5-1.8
		c0-0.5,0.3-1,0.3-1.6c0-0.5,0.3-1.3,0.3-1.8c0-0.5,0-0.8,0.3-1.3c0-0.5,0-1,0.3-1.3c0-0.3,0-0.5,0-1c0-0.5,0-1,0-1.6
		c0-0.8,0-1.3,0.3-2.1c0-1,0-1.8,0.3-2.9c0-1.6,0-2.9,0-4.4c0-0.8,0-1.8,0-2.6c0-0.5,0-1-0.3-1.6c0-0.8-0.3-1.6-0.5-2.3
		c0-0.5-0.3-1.3-0.3-1.8c0-0.5-0.3-0.8,0-1.3c0-0.5,0-1,0.3-1.6c0.5-1.8,1.6-2.9,3.1-3.6c1.3-0.8,2.3-1.3,3.6-1.6
		c0.8-0.3,1.6-0.5,2.3-0.5c0.5,0,1-0.3,1.6,0c1.3,0,2.9,0.5,3.9,1.3c0.8,0.5,1.6,1.3,2.3,1.8c0.5,0.5,1,1,1.8,1.6
		c0.5,0.5,1.3,1,2.1,1.3c0.3,0,0.8,0.3,1,0.3c0.5,0.3,1.3,0.5,1.6,1c0.3,0.3,0.3,0.5,0.3,1c0,0.3,0,0.5,0,1c-0.3,1-0.5,1.6-1.3,2.1
		c-0.5,0.5-1.3,0.8-1.8,1c-0.5,0.3-1.3,0.5-2.1,0.8c-0.5,0.3-1,0.3-1.6,0.3c-0.3,0-0.5,0-0.8,0c-0.8,0-1.6,0-2.1,0.3h-0.5
		c-0.3,0-0.5,0.3-0.5,0.8c-0.3,0.8-0.3,1.3-0.3,2.1s0,1.3,0,2.1c0,1.6,0.5,2.9,1,4.2s1.3,2.6,1.8,4.2c0.5,1.3,1,2.6,1.6,3.9
		c0.3,0.8,0.5,1.6,0.8,2.3c0.3,0.8,0.3,1.8,0.3,2.6v0.3C146.5,464,146,464,145.2,464z"/>
	<path d="M136.6,464c-0.3-0.8-0.5-1.6-0.8-2.1c-0.3-0.8-0.3-1.3-0.3-2.1s0-1.3,0.3-2.1c0.3-0.5,0.5-1.3,0.8-1.8
		c0-0.3,0.3-0.5,0.3-0.8l0.3-0.3l0.3,0.3v0.3c-0.3,0.5-0.5,1.3-0.8,1.8c-0.3,0.5-0.3,1-0.5,1.6c0,0.5,0,0.8,0,1.3
		c0,0.8,0.3,1.6,0.5,2.3c0.3,0.5,0.3,0.8,0.5,1.3C137.1,464,136.9,464,136.6,464z"/>
	<path d="M140,464c0-0.5,0-1,0-1.6c0-0.5,0.3-1,0.3-1.6c0-0.5,0.3-1,0.3-1.6c0-0.5,0-1.3,0.3-1.8l0.5-0.3l0.3,0.3
		c0,0.5,0,1.3-0.3,1.8c0,0.5-0.3,1-0.3,1.6c0,0.5-0.3,0.8-0.3,1.3c0,0.5,0,1,0,1.6v0.3H140z"/>
	<path d="M132.2,435.4c0-1,0.5-1.8,1.3-2.6c0.5-0.3,0.8-0.5,1.3-0.8c0.8-0.3,1.3,0,2.1,0.3c0.8,0.5,1.3,1,1.6,2.1v0.3l-0.3,0.5
		l-0.5-0.3c-0.3-0.8-0.8-1-1.3-1.6c-0.8-0.5-1.6-0.5-2.3,0c-0.5,0.3-0.8,0.8-1,1.3c-0.3,0.5,0,1.3,0.3,1.8c0.3,0.5,0.5,0.8,1,1.3
		v0.5h-0.5c-1-0.5-1.6-1-1.8-2.1C132.2,436.2,132.2,435.9,132.2,435.4z"/>
	<path d="M142.9,434.9c-0.3-0.3-0.3-0.8,0-1c0.3-0.5,0.8-1,1.6-0.8c0.3,0,0.8,0.3,0.8,0.5c0.5,0.8,0,1.6-0.5,1.8
		c-0.5,0.3-0.8,0-1.3,0h-0.3h-0.8l-0.3-0.3l0.3-0.3L142.9,434.9z"/>
	<path d="M590.7,315.7c1.3,19.5-14.8,35.4-34.1,34.1c-15.9-1-28.9-14.1-29.9-29.9c-1.3-19.5,14.8-35.4,34.1-34.1
		C576.6,286.8,589.6,299.9,590.7,315.7z"/>
	<path fill="#FFFFFF" d="M573.5,311c-2.9,0-5.2,2.3-5.2,5.2l0,0l-3.4,4.9c-0.5,0-1,0-1.6,0.3c-0.3,0-0.5,0.3-0.5,0.3l-15.4-6.2
		c-0.3-1.3-1-2.3-2.3-2.9c-1.8-0.8-4.2,0-4.9,2.1c-0.8,1.8,0,4.2,2.1,4.9c1,0.3,2.1,0.5,3.1,0l0.5-0.3l15.4,6.2c0.3,1,1,2.1,2.3,2.9
		c1.8,0.8,4.2,0,4.9-2.1c0.3-0.5,0.3-1,0.3-1.6l4.9-3.4l0,0c2.9,0,5.2-2.3,5.2-5.2C579,313.4,576.4,311,573.5,311z M544.3,314.4
		c-1-0.5-2.3,0-2.9,1c-0.5,1,0,2.3,1,2.9l1.8,0.8c-0.3,0-0.8,0.3-1,0.3s-0.8,0-1-0.3c-1-0.5-1.8-1.6-1.8-2.9c0-0.3,0-0.8,0.3-1
		c0.5-1.6,2.3-2.1,3.9-1.6c0.8,0.3,1.3,0.8,1.6,1.6L544.3,314.4z M567.5,326.4c-0.5,1.6-2.3,2.1-3.9,1.6c-0.8-0.3-1.3-0.8-1.6-1.6
		l1.8,0.8c0.3,0,0.5,0.3,0.8,0.3c0.8,0,1.6-0.5,2.1-1.3c0.5-1,0-2.3-1-2.9l-1.8-0.8c0.8-0.3,1.6-0.3,2.1,0c0.8,0.3,1.3,0.8,1.6,1.6
		C567.8,324.6,567.8,325.6,567.5,326.4z M573.5,319.9c-1.8,0-3.6-1.6-3.6-3.6c0-2.1,1.6-3.6,3.6-3.6s3.6,1.6,3.6,3.6
		C577.1,318.3,575.6,319.9,573.5,319.9z"/>
	<path fill="#FFFFFF" d="M573.5,313.6c-1.6,0-2.6,1-2.6,2.6c0,1.6,1,2.6,2.6,2.6c1.6,0,2.6-1,2.6-2.6
		C576.1,314.7,575.1,313.6,573.5,313.6z"/>
	<path fill="#9F00FF" d="M321.4,169.8c1.3,22.4-16.9,40.6-39.3,39.3c-18.5-1-33.3-16.1-34.3-34.3c-1.3-22.4,16.9-40.6,39.3-39.3
		C305.2,136.4,320.3,151.3,321.4,169.8z"/>
	<path fill="#FFFFFF" d="M300.5,175l-6,6h-9.4l-4.9,4.9v-4.9h-7.5v-24.5h27.8L300.5,175L300.5,175z M269.3,153.1l-1.6,6.8v30.4h7.5
		v4.2h4.2l4.2-4.2h6.8l13.5-13.5v-23.7H269.3z"/>
	<path fill="#FFFFFF" d="M281.8,173.4h3.4v-10.1h-3.4V173.4z M291.2,173.4h3.4v-10.1h-3.4V173.4z"/>
	<path fill="#FFFFFF" d="M584.2,393.5c2.1-2.9,5.5-2.9,8.1-1.8c1.6,0.8,2.3,1.8,2.6,3.4c0.3,1.3,0.3,2.6,0.5,3.9c0,2.6,0,5.5,0,8.1
		c0,0.5,0,0.8-0.8,0.8c-1.3,0-2.6,0-3.9,0c-0.5,0-0.8-0.3-0.8-0.8c0-2.6,0-5.2,0-7.8c0-0.5,0-1,0-1.8c-0.3-1.3-1-2.1-2.1-2.1
		c-1.3-0.3-2.6,0.5-2.9,1.6c-0.3,0.8-0.3,1.6-0.3,2.3c0,2.6,0,5.2,0,7.5c0,0.5-0.3,0.5-0.5,0.5c-1.3,0-2.6,0-3.9,0
		c-0.5,0-0.5,0-0.5-0.5c0-5.2,0-10.1,0-15.4c0-0.5,0-0.5,0.5-0.5c1.3,0,2.6,0,3.9,0c0.3,0,0.5,0,0.5,0.5
		C584.2,392.2,584.2,392.7,584.2,393.5z"/>
	<path fill="#FFFFFF" d="M576.4,399.5c0,2.6,0,4.9,0,7.5c0,0.5-0.3,0.8-0.8,0.8c-1.3,0-2.6,0-3.9,0c-0.5,0-0.5-0.3-0.5-0.5
		c0-5.2,0-10.1,0-15.4c0-0.5,0.3-0.5,0.5-0.5c1.3,0,2.6,0,3.9,0c0.8,0,0.8,0,0.8,0.8C576.4,394.6,576.4,396.9,576.4,399.5
		L576.4,399.5z"/>
	<path fill="#FFFFFF" d="M573.5,389.1c-1.6,0-2.9-1.6-2.9-3.1s1.6-2.9,3.1-2.9c1.6,0,3.1,1.6,2.9,3.1
		C576.6,387.8,575.3,389.4,573.5,389.1z"/>
	<path fill="#FFFFFF" d="M533.7,565.8c0-2.9,0-5.7,0-8.8c0-1.3,0-2.6,0-3.9c0-0.5-0.3-0.5-0.5-0.5c-1,0-2.3,0-3.4,0
		c-0.5,0-0.5-0.3-0.5-0.5c0-1.3,0-2.9,0-4.2c0-0.5,0.3-0.5,0.5-0.5c1,0,2.3,0,3.4,0c0.3,0,0.3,0,0.5,0c0-0.3,0-0.5,0-0.5
		c0-1.3,0-2.9,0-4.2c0.3-3.4,2.9-5.7,6.2-5.7c1.3,0,2.6,0,3.9,0c0.5,0,0.8,0.3,0.5,0.8c0,1.3,0,2.3,0,3.6c0,0.5,0,0.5-0.8,0.5
		c-0.8,0-1.6,0-2.3,0c-0.3,0-0.5,0-0.8,0c-0.8,0.3-1.3,0.8-1.3,1.8c0,1,0,2.3,0,3.4c0,0.3,0.3,0.3,0.5,0.3c1.3,0,2.6,0,3.9,0
		c0.3,0,0.3,0,0.5,0c0,0.8-0.3,1.3-0.3,2.1c0,0.8-0.3,1.8-0.3,2.6c0,0.3-0.3,0.5-0.5,0.5c-1,0-2.1,0-3.1,0c-1,0-0.8,0-0.8,0.8
		c0,4.2,0,8.3,0,12.5C537.1,565.8,535.5,565.8,533.7,565.8z"/>
	<g>
		<path fill="#020202" d="M486.4,369L486.4,369c0,0-0.1,0-0.1,0c-0.3,0-0.7,0-0.8,0c-1,0-3,0.1-5.1,1.1c-1.2,0.5-2.3,1.3-3.3,2.2
			c-1.1,1.1-2.1,2.4-2.7,3.9c-1,2.3-0.8,6.1-0.6,9.1l0,0c0,0.3,0,0.7,0.1,1c-0.1,0.1-0.4,0.1-0.7,0.1c-0.6,0-1.2-0.2-2-0.5
			c-0.2-0.1-0.5-0.2-0.8-0.2c-0.5,0-0.9,0.1-1.3,0.4c-0.5,0.3-0.9,0.7-1,1.2c-0.1,0.3-0.1,0.9,0.6,1.6c0.4,0.4,0.9,0.7,1.7,1
			c0.2,0.1,0.4,0.1,0.7,0.2c0.8,0.3,2.1,0.7,2.4,1.4c0.2,0.4,0.1,0.9-0.2,1.5c0,0,0,0,0,0.1c-0.1,0.2-0.8,1.8-2.3,3.5
			c-0.8,1-1.8,1.8-2.7,2.4c-1.2,0.8-2.5,1.3-3.8,1.5c-0.5,0.1-0.9,0.6-0.9,1.1c0,0.2,0,0.3,0.1,0.5c0,0,0,0,0,0
			c0.2,0.5,0.7,0.9,1.5,1.3c1,0.5,2.5,0.8,4.4,1.1c0.1,0.2,0.2,0.7,0.3,1c0.1,0.3,0.1,0.7,0.3,1.1c0.1,0.4,0.4,0.9,1.2,0.9
			c0.3,0,0.6-0.1,1-0.1c0.6-0.1,1.4-0.3,2.4-0.3c0.5,0,1.1,0,1.7,0.1c1.1,0.2,2.1,0.9,3.2,1.6c1.6,1.1,3.4,2.4,6.2,2.4
			c0.1,0,0.2,0,0.2,0c0.1,0,0.2,0,0.3,0c2.8,0,4.6-1.3,6.2-2.4l0,0c1.1-0.8,2-1.4,3.2-1.6c0.6-0.1,1.1-0.1,1.7-0.1
			c0.9,0,1.7,0.1,2.4,0.3c0.4,0.1,0.8,0.1,1,0.1l0,0h0c0.6,0,1-0.3,1.2-0.9c0.1-0.4,0.2-0.7,0.3-1c0.1-0.3,0.2-0.8,0.3-1
			c1.9-0.3,3.4-0.7,4.4-1.1c0.8-0.4,1.3-0.8,1.5-1.3c0.1-0.2,0.1-0.3,0.1-0.5c0-0.5-0.3-1-0.9-1.1c-6-1-8.7-7.2-8.8-7.4
			c0,0,0,0,0-0.1c-0.3-0.6-0.4-1.1-0.2-1.5c0.3-0.8,1.6-1.2,2.4-1.4c0.2-0.1,0.5-0.1,0.7-0.2c0.8-0.3,1.4-0.7,1.8-1.1
			c0.5-0.5,0.6-0.9,0.5-1.2c0-0.7-0.6-1.4-1.4-1.7c-0.3-0.1-0.6-0.2-1-0.2c-0.2,0-0.6,0-0.9,0.2c-0.7,0.3-1.3,0.5-1.9,0.5
			c-0.3,0-0.5-0.1-0.6-0.1c0-0.3,0-0.6,0.1-0.9l0-0.1c0.2-3.1,0.4-6.9-0.6-9.1c-0.7-1.5-1.6-2.9-2.8-4c-1-0.9-2.1-1.6-3.3-2.2
			C489.4,369.1,487.4,369,486.4,369"/>
		<path fill="#FFFFFF" d="M507.5,401.7c-0.1,0.3-0.8,1.2-5.2,1.8c-0.7,0.1-0.9,0.9-1,1.8c-0.1,0.3-0.1,0.6-0.2,1
			c0,0.1,0,0.1-0.1,0.1c0,0,0,0-0.1,0c-0.2,0-0.5,0-0.8-0.1c-0.6-0.1-1.5-0.3-2.6-0.3c-0.6,0-1.2,0.1-1.9,0.2
			c-1.3,0.2-2.4,1-3.6,1.8c-1.6,1.1-3.2,2.2-5.6,2.2c-0.1,0-0.2,0-0.3,0l0,0l0,0c-0.1,0-0.1,0-0.2,0c-2.4,0-4.1-1.1-5.6-2.2
			c-1.2-0.8-2.2-1.6-3.6-1.8c-0.6-0.1-1.3-0.2-1.9-0.2c-1.1,0-1.9,0.2-2.6,0.3c-0.3,0.1-0.6,0.1-0.8,0.1c-0.2,0-0.2,0-0.2-0.1
			c-0.1-0.3-0.2-0.7-0.2-1c-0.2-0.9-0.4-1.7-1-1.8c-4.4-0.7-5.1-1.6-5.2-1.8c0,0,0-0.1,0-0.1c6.5-1.1,9.5-7.6,9.6-8.1
			c0.4-0.9,0.5-1.7,0.2-2.4c-0.5-1.2-2.1-1.7-3.1-2c-0.2-0.1-0.4-0.1-0.6-0.2c-1.3-0.5-1.7-1-1.7-1.4c0.1-0.4,0.7-0.7,1.3-0.7
			c0.1,0,0.2,0,0.3,0.1c0.9,0.4,1.7,0.6,2.5,0.6c1.1,0,1.6-0.5,1.7-0.6l0.1-0.1l0-0.2c0-0.4-0.1-0.9-0.1-1.3
			c-0.2-2.9-0.4-6.6,0.5-8.6c2.7-6.1,8.5-6.6,10.2-6.6c0,0,0.8,0,0.8,0c0,0,0.1,0,0.1,0c1.7,0,7.5,0.5,10.2,6.6
			c0.9,2,0.7,5.7,0.5,8.6c0,0.5-0.1,0.9-0.1,1.3l0,0.2l0.1,0.1c0.1,0.1,0.5,0.5,1.6,0.6l0,0l0,0c0.7,0,1.5-0.2,2.3-0.6
			c0.1-0.1,0.3-0.1,0.5-0.1c0.2,0,0.4,0,0.6,0.1l0,0c0.4,0.2,0.8,0.4,0.8,0.7c0,0.1-0.1,0.7-1.7,1.3c-0.2,0.1-0.4,0.1-0.6,0.2
			c-1,0.3-2.6,0.8-3.1,2c-0.3,0.7-0.2,1.5,0.2,2.4c0.2,0.4,3.1,7,9.6,8.1C507.5,401.6,507.5,401.7,507.5,401.7z"/>
	</g>
</g>
</svg>
