<?xml version="1.0" encoding="utf-8"?>
<!-- Generator: Adobe Illustrator 19.1.0, SVG Export Plug-In . SVG Version: 6.00 Build 0)  -->
<svg version="1.2" baseProfile="tiny" id="Layer_1" xmlns="http://www.w3.org/2000/svg" xmlns:xlink="http://www.w3.org/1999/xlink"
	 x="0px" y="0px" viewBox="0 0 35.9 48" xml:space="preserve">
<g>
	<g>
		<g>
			<g>
				<path fill="#D7AB56" d="M32.2,39.1c0,0-3.1,9.4-20,3.9c-15.5-5,18.1-18.7,16.9-18.3l2.3,4.5L32.2,39.1z"/>
				<path fill="#C19540" d="M24.2,28.1c0,0-0.1,13.5-1,17.9c-0.2,0.9-1.5,1.4-3,1.9c-1.6,0.5-2-0.6-1.8-1.7s2-2.4,2-2.4l0.3-14.3"/>
				<path fill="#644D20" d="M24.5,2.3c0,0-0.4-2,3-2c2.2,0,3.8,2.4,3.8,2.7s1,2.1-1.2,3.5c-2.2,1.4-6-3.1-6-3.1L24.5,2.3z"/>
				<path fill="#C19540" d="M29.8,26.6c0,0,0.1,13.5,1,17.9c0.2,0.9,1.5,1.4,3,1.9c1.6,0.5,2-0.6,1.8-1.7s-2-2.4-2-2.4
					s-0.1-10.8-0.5-14.4"/>
				<path fill="#644D20" d="M11.8,4.8L8.7,0.6c0,0-2.3-1.5-4.2,0.1S0.7,4.1,0.7,4.1S-0.7,6,0.4,7.7s2.3,2.1,2.3,2.1S5,11.6,6.1,8.7
					s2.2-2.2,2.2-2.2L8.9,7l2.2-1.1L11.8,4.8z"/>
				<path fill="#C19540" d="M4.8,37.5c0,0-4.8-5.7-1.6-13.6c-6.1,9.7,1.2,17,1.2,17"/>
				<path fill="#C19540" d="M11.5,36.6c-0.9,0.7,1.6-4.1,1.6-4.1s1.9,7.2,0,9.1c2.5,1.2,3.4,1.6,2.7,4.3c-0.3,1.1-10.9-1.2-11.3-4.4
					s2.1-29,2.1-29c0,0.5,1.1-7.4,8.6-9.6c5.8-1.7,8.6-0.8,12.7,1.7c2.4,1.5,2.9,1.8,5.9,3.8c3.6,2.4,2.5,5.4-1.5,8.8
					c0.6,4.8,1.3,14.6,1.3,15.8C33.4,32.7,29,22,11.5,36.6z"/>
				<path fill="#D7AB56" d="M31.6,17.5c0,0-9.6,5.1-16.7,1.9s2-6.1,2-6.1s16.9-1.9,16.9,0.8C33.8,15.8,31.6,17.5,31.6,17.5z"/>
			</g>
			<path fill="#644D20" d="M14.8,9.4c0,0.3,0.2,0.6,0.4,0.8c0.2,0.2,0.5,0.4,0.7,0.5c0.3,0.2,0.5,0.3,0.8,0.4
				c0.3,0.1,0.6,0.2,0.9,0.3c0.3,0.1,0.6,0.2,0.9,0.2c0.3,0.1,0.6,0.1,0.9,0.2c0.6,0.1,1.2,0.2,1.8,0.2c0.3,0,0.6,0,0.9,0
				c0.3,0,0.6,0,0.9,0c0.3,0,0.6-0.1,0.9-0.1c0.3-0.1,0.6-0.1,0.8-0.2c0.5-0.2,1.1-0.4,1.5-0.8c0.2-0.2,0.4-0.4,0.5-0.6
				c0.1-0.1,0.1-0.2,0.2-0.4l0.1-0.4l0,0c0.1-0.2,0.3-0.4,0.6-0.3c0.2,0.1,0.3,0.2,0.3,0.4c0,0.2,0,0.3,0.1,0.5c0,0.1,0,0.2,0.1,0.2
				c0,0.1,0,0.2,0.1,0.2c0.1,0.1,0.2,0.3,0.3,0.4c0.1,0.1,0.2,0.2,0.4,0.3c0.3,0.2,0.6,0.3,0.9,0.4c0.3,0.1,0.7,0.1,1.1,0.2
				c0.4,0,0.7,0,1.1,0c0.4,0,0.7-0.1,1.1-0.2c0.4-0.1,0.7-0.2,1.1-0.4c0.2-0.1,0.3-0.2,0.4-0.3c0.1-0.1,0.2-0.3,0.3-0.5
				c0,0.2-0.1,0.4-0.2,0.6c-0.1,0.2-0.3,0.3-0.4,0.4c-0.3,0.3-0.7,0.4-1,0.6c-0.7,0.3-1.5,0.5-2.4,0.5c-0.4,0-0.8,0-1.2-0.1
				c-0.2,0-0.4-0.1-0.6-0.2c-0.2-0.1-0.4-0.2-0.6-0.3c-0.2-0.1-0.4-0.3-0.5-0.4c-0.2-0.2-0.3-0.4-0.4-0.6c-0.1-0.1-0.1-0.2-0.1-0.3
				c0-0.1-0.1-0.2-0.1-0.3c-0.1-0.2-0.1-0.4-0.1-0.7l0.9,0.1l-0.2,0.5c-0.1,0.2-0.1,0.3-0.2,0.5c-0.2,0.3-0.4,0.6-0.7,0.8
				c-0.5,0.5-1.2,0.8-1.8,1c-0.3,0.1-0.6,0.2-1,0.2C23.6,13,23.3,13,23,13c-0.3,0-0.6,0-1,0c-0.3,0-0.6,0-1-0.1
				c-0.3,0-0.6-0.1-0.9-0.1c-0.3-0.1-0.6-0.1-0.9-0.2c-0.3-0.1-0.6-0.2-0.9-0.3c-0.3-0.1-0.6-0.2-0.9-0.3c-0.3-0.1-0.6-0.3-0.9-0.4
				c-0.3-0.2-0.5-0.3-0.8-0.5c-0.2-0.2-0.5-0.4-0.7-0.7C14.9,10,14.7,9.7,14.8,9.4z"/>
			<polyline fill="#010101" points="28.8,9 27.4,10.2 26.2,8.9 			"/>
			<g>
				<g>
					<path fill="#010101" d="M16.9,6.3c0,1.4,1.9,2.5,4.2,2.5s4.2-1.1,4.2-2.5"/>
					<path fill="#010101" d="M26.7,6.3c0,1.4,1.9,2.5,4.2,2.5s4.2-1.1,4.2-2.5"/>
					<rect x="13.2" y="5.4" fill="#010101" width="21.9" height="0.9"/>
					<g>
						<path fill="#010101" d="M12.5,7h-1c0-0.9,0.7-1.6,1.7-1.6v0.9C12.8,6.3,12.5,6.6,12.5,7z"/>
					</g>
				</g>
				<path fill="#EDF8FB" d="M28.3,6.5c0,0,1.1,0.3,1.3-0.1S27.8,6.2,28.3,6.5z"/>
				<path fill="#EDF8FB" d="M18.2,6.5c0,0,1.1,0.3,1.3-0.1S17.7,6.2,18.2,6.5z"/>
			</g>
		</g>
	</g>
	<circle fill="#644D20" cx="20.2" cy="10.4" r="0.3"/>
	<circle fill="#644D20" cx="22.2" cy="10.4" r="0.3"/>
	<circle fill="#644D20" cx="21.2" cy="9.4" r="0.3"/>
	<circle fill="#644D20" cx="31.2" cy="10.4" r="0.3"/>
	<circle fill="#644D20" cx="33.2" cy="10.4" r="0.3"/>
	<circle fill="#644D20" cx="32.2" cy="9.4" r="0.3"/>
	<path fill="#4C3614" d="M8.1,5.9c0,0-1.2-4.1-2-4.1c-0.7,0-7.2,3.5-5.8,6.1C0.7,8.5,4,11.4,5.4,9.2C6.1,8.2,5.9,5.7,8.1,5.9z"/>
</g>
</svg>
