<?xml version="1.0" encoding="utf-8"?>
<!-- Generator: Adobe Illustrator 18.0.0, SVG Export Plug-In . SVG Version: 6.00 Build 0)  -->
<svg version="1.2" baseProfile="tiny" id="Default_g_x2B__icon"
	 xmlns="http://www.w3.org/2000/svg" xmlns:xlink="http://www.w3.org/1999/xlink" x="0px" y="0px" viewBox="0 0 36 36"
	 xml:space="preserve">
<g>
	<path fill="#FFFFFF" d="M17.6,35.8c-0.1,0-0.1,0-0.2,0C9,35.7,2.2,30.3,0.1,21.9C-0.2,21,0.4,20,1.3,19.8c0.9-0.2,1.9,0.3,2.1,1.3
		c0.9,3.5,2.8,6.4,5.4,8.4c2.4,1.8,5.4,2.8,8.6,2.8c5.4,0.1,12.6-2.9,15-11.5c0.3-0.9,1.2-1.5,2.1-1.2c0.9,0.3,1.5,1.2,1.2,2.1
		c-1.2,4.4-3.7,8.1-7.2,10.6C25.4,34.6,21.6,35.8,17.6,35.8z"/>
</g>
</svg>
