<?xml version="1.0" encoding="utf-8"?>
<!-- Generator: Adobe Illustrator 19.1.0, SVG Export Plug-In . SVG Version: 6.00 Build 0)  -->
<svg version="1.2" baseProfile="tiny" id="Layer_1" xmlns="http://www.w3.org/2000/svg" xmlns:xlink="http://www.w3.org/1999/xlink"
	 x="0px" y="0px" viewBox="-275 379 36 36" xml:space="preserve">
<path fill="none" d="M-281,373h48v48h-48V373z"/>
<path fill="#010101" d="M-260.8,404.2l2.8,2.8l10-10l-10-10l-2.8,2.8l5.2,5.2H-275v4h19.3L-260.8,404.2z M-243,379h-28
	c-2.2,0-4,1.8-4,4v8h4v-8h28v28h-28v-8h-4v8c0,2.2,1.8,4,4,4h28c2.2,0,4-1.8,4-4v-28C-239,380.8-240.8,379-243,379z"/>
</svg>
