<?xml version="1.0" encoding="utf-8"?>
<!-- Generator: Adobe Illustrator 18.0.0, SVG Export Plug-In . SVG Version: 6.00 Build 0)  -->
<svg version="1.2" baseProfile="tiny" id="Layer_1" xmlns="http://www.w3.org/2000/svg" xmlns:xlink="http://www.w3.org/1999/xlink"
	 x="0px" y="0px" viewBox="0 0 100 100" xml:space="preserve">
<polygon fill="#AAAAAA" points="83.3,6.4 0.3,36.1 0.3,41.6 82.9,11.9 "/>
<polygon fill="#B4B4B4" points="7.3,33.8 4,40.3 6.1,39.5 9.4,33 "/>
<polygon fill="#B4B4B4" points="18.5,29.7 27,32 29.3,31.2 20.8,28.9 "/>
<polygon fill="#B4B4B4" points="38.5,22.5 35.3,29.1 37.4,28.3 40.7,21.7 "/>
<polygon fill="#B4B4B4" points="45.6,20 54,22.3 56.3,21.5 47.8,19.2 "/>
<polygon fill="#B4B4B4" points="71.1,10.8 67.9,17.3 70,16.6 73.2,10 "/>
<g>
	<g>
		<g>
			<circle fill="#828282" cx="85.5" cy="41.3" r="13.4"/>
			<path fill="#828282" d="M18.9,41.1c0,0-9.1,41.2,28.6,42.8c29.2,1.2,52.6-28.1,51.3-42.8H81.7H18.9z"/>
			<g>
				<g>
					<path fill="#BEBEBE" d="M82.1,34.1c2.5-0.4,5.9,0.4,6.3,2.5c1.3-1.7,3.7-2.5,6.2-2c3.2,0.7,4.4,3.5,4.4,6.6
						c0,8.4-4.1,11.9-10.4,11.7c-8.9-0.3-12.4-7.5-11-14.7C78,36.1,79.4,34.5,82.1,34.1z"/>
				</g>
			</g>
			<path fill="#EBFEFF" d="M96.6,32.8c0,0,1.2,0.3,1.4-0.1C98.2,32.3,96.1,32.5,96.6,32.8z"/>
			<g>
				<path fill="#505050" d="M90,41.7c1.1-0.4,4.3,2.6,3.2,3c-0.8,0.3-5,0.3-6,0C86.4,44.5,87.6,42.5,90,41.7z"/>
				<ellipse fill="#BEBEBE" cx="91.2" cy="43.9" rx="0.6" ry="0.4"/>
				<ellipse fill="#BEBEBE" cx="89.1" cy="43.9" rx="0.6" ry="0.4"/>
			</g>
			<path fill="#505050" d="M84.7,45.8c0,0,0.1,0.1,0.2,0.3c0.1,0.2,0.4,0.5,0.6,0.8c0.3,0.3,0.7,0.6,1.1,0.7c0.2,0.1,0.4,0.1,0.7,0
				c0.2,0,0.5-0.1,0.7-0.2c0.1-0.1,0.2-0.1,0.3-0.2c0.1-0.1,0.2-0.2,0.3-0.2c0.3-0.2,0.5-0.3,0.8-0.4c0.3-0.1,0.6-0.2,0.9-0.1
				c0.3,0,0.6,0.1,0.8,0.2c0.4,0.3,0.6,0.6,0.8,0.8c0.1,0.1,0.1,0.2,0.1,0.3c0,0.1,0,0.1,0,0.1s-0.1-0.1-0.3-0.2
				c-0.1-0.1-0.2-0.2-0.4-0.2c-0.1-0.1-0.3-0.2-0.5-0.2c-0.4-0.1-0.8-0.1-1.2,0.1c-0.2,0.1-0.4,0.2-0.6,0.4
				c-0.1,0.1-0.2,0.2-0.4,0.2c-0.1,0.1-0.3,0.2-0.4,0.2c-0.3,0.1-0.6,0.2-0.9,0.3c-0.3,0-0.7,0-1-0.1c-0.3-0.1-0.5-0.3-0.7-0.5
				c-0.2-0.2-0.3-0.4-0.5-0.6c-0.2-0.4-0.4-0.7-0.5-1C84.8,46,84.7,45.8,84.7,45.8z"/>
			<g>
				<g>
					<path d="M80.1,39.8c0,1.5,2,2.7,4.5,2.7c2.5,0,4.5-1.2,4.5-2.7"/>
					<path d="M90.6,39.8c0,1.5,2,2.7,4.5,2.7s4.5-1.2,4.5-2.7"/>
					<rect x="76.1" y="38.8" width="23.5" height="1"/>
					<g>
						<path d="M75.4,40.6h-1.1c0-1,0.8-1.7,1.8-1.7v1C75.7,39.8,75.4,40.1,75.4,40.6z"/>
					</g>
				</g>
				<path fill="#EBFEFF" d="M92.2,40.1c0,0,1.2,0.3,1.4-0.1C93.8,39.6,91.7,39.7,92.2,40.1z"/>
				<path fill="#EBFEFF" d="M81.5,40.1c0,0,1.2,0.3,1.4-0.1C83,39.6,80.9,39.7,81.5,40.1z"/>
			</g>
			<path fill="#BEBEBE" d="M34.1,41.1c0,0-4,13.4,12.7,13.9c12.9,0.4,23.3-9.1,22.8-13.9h-7.6H34.1z"/>
			<path fill="#828282" d="M72.6,50.8V15.5c0,0-12.2,3.1-13.6,21.6c-1.4,18.4-7.5,27.4-7.4,28.1"/>
			<g>
				<path fill="#828282" d="M66.7,22.1V8.9c0,0,1.2,0.4,1.3,2.8s0.2,10.3,0.2,10.3"/>
				<path fill="#828282" d="M68.8,22V8.8c0,0,1.2,0.4,1.3,2.8s0.2,10.3,0.2,10.3"/>
				<path fill="#828282" d="M71.1,22V8.8c0,0,1.2,0.4,1.3,2.8s0.2,10.3,0.2,10.3"/>
			</g>
			<g>
				<path fill="#828282" d="M31.9,34.1V21c0,0,1.2,0.4,1.3,2.8c0.1,2.4,0.2,10.3,0.2,10.3"/>
				<path fill="#828282" d="M33.9,34V20.9c0,0,1.2,0.4,1.3,2.8s0.2,10.3,0.2,10.3"/>
				<path fill="#828282" d="M36.3,34V20.9c0,0,1.2,0.4,1.3,2.8s0.2,10.3,0.2,10.3"/>
			</g>
			<path fill="#828282" d="M22.1,44.8l9.8-19.1c0,0,9.6,0.4,10,26.4c0.3,18.7,3.8,13.1,3.8,13.1"/>
			<g>
				<path fill="#505050" d="M31,84.8"/>
				<path fill="#505050" d="M27.8,76c0,0,0,0.1,0.1,0.3c0,0.2,0.1,0.4,0.2,0.8c0.1,0.6,0.2,1.5,0.3,2.3c0,0.4,0,0.9,0,1.3
					c0,0.4-0.1,0.8-0.2,1.1c0,0.2-0.1,0.3-0.2,0.4c-0.1,0.1-0.1,0.2-0.2,0.3c0,0.1-0.1,0.1-0.1,0.2c0,0,0,0.1,0,0.1s0,0,0-0.1
					c0,0,0.1-0.1,0.1-0.2c0-0.1,0.1-0.2,0.1-0.3c0-0.1,0.1-0.3,0.1-0.4c0.1-0.3,0.1-0.7,0.1-1.1c0-0.4,0-0.8-0.1-1.2
					c-0.1-0.8-0.3-1.6-0.4-2.3c-0.1-0.3-0.2-0.6-0.2-0.7c-0.1-0.2-0.1-0.3-0.1-0.3L27.8,76z"/>
				<path fill="#505050" d="M29.6,76.5c0,0,0.1,0.2,0.1,0.5c0.1,0.3,0.2,0.8,0.3,1.3c0.2,1.1,0.4,2.6,0.4,4.1c0,0.4,0,0.7,0,1.1
					c0,0.4-0.1,0.7-0.1,1.1c-0.1,0.3-0.1,0.7-0.2,1c0,0.2-0.1,0.3-0.1,0.4c0,0.1-0.1,0.3-0.2,0.4c0,0.1-0.1,0.1-0.1,0.2
					c0,0.1-0.1,0.1-0.1,0.2c-0.1,0.1-0.1,0.2-0.2,0.3c-0.1,0.1-0.1,0.2-0.2,0.3c-0.1,0.1-0.1,0.1-0.2,0.2c-0.1,0.1-0.2,0.2-0.3,0.3
					c-0.1,0.1-0.1,0.1-0.1,0.1s0,0,0.1-0.1c0.1-0.1,0.2-0.1,0.3-0.3c0.1-0.1,0.1-0.1,0.2-0.2c0.1-0.1,0.1-0.2,0.2-0.3
					c0.1-0.1,0.1-0.2,0.2-0.3c0-0.1,0.1-0.1,0.1-0.2c0-0.1,0.1-0.1,0.1-0.2c0.1-0.1,0.1-0.3,0.1-0.4c0-0.1,0.1-0.3,0.1-0.4
					c0.1-0.3,0.1-0.6,0.2-1c0-0.3,0.1-0.7,0.1-1.1c0-0.4,0-0.7,0-1.1c-0.1-1.5-0.4-2.9-0.6-4c-0.1-0.5-0.2-1-0.3-1.3
					c-0.1-0.3-0.1-0.5-0.1-0.5L29.6,76.5z"/>
				<path fill="#505050" d="M31.7,78.8c0,0,0.1,0.1,0.2,0.4c0.1,0.2,0.3,0.6,0.5,1c0.4,0.8,0.8,2,0.9,3.2c0,0.3,0,0.6,0,0.9
					c0,0.3,0,0.6-0.1,0.9c-0.1,0.3-0.1,0.5-0.2,0.8c-0.1,0.2-0.2,0.5-0.3,0.7c-0.1,0.2-0.2,0.4-0.3,0.5c-0.1,0.2-0.2,0.3-0.3,0.4
					c-0.2,0.2-0.2,0.3-0.2,0.3s0.1-0.1,0.2-0.3c0.1-0.1,0.1-0.3,0.2-0.4c0.1-0.2,0.2-0.3,0.3-0.6c0.1-0.2,0.2-0.4,0.2-0.7
					c0.1-0.2,0.1-0.5,0.1-0.8c0-0.3,0.1-0.6,0-0.9c0-0.3,0-0.6-0.1-0.9c-0.2-1.2-0.6-2.3-1-3.1c-0.2-0.4-0.4-0.7-0.5-0.9
					c-0.1-0.2-0.2-0.3-0.2-0.3L31.7,78.8z"/>
				<path fill="#505050" d="M36,80.3c0,0,0,0,0,0.1c0,0.1,0,0.2,0,0.3c0,0.3-0.1,0.7-0.1,1.1c0,0.2-0.1,0.5-0.1,0.8
					c-0.1,0.3-0.1,0.5-0.2,0.8c-0.1,0.3-0.1,0.6-0.2,0.9c-0.1,0.3-0.2,0.6-0.3,0.9c-0.1,0.3-0.2,0.6-0.3,0.9
					c-0.1,0.3-0.3,0.6-0.4,0.8c-0.2,0.3-0.3,0.5-0.4,0.7c-0.2,0.2-0.3,0.4-0.4,0.6c-0.2,0.2-0.3,0.3-0.4,0.5
					c-0.1,0.1-0.3,0.2-0.4,0.3c-0.2,0.2-0.3,0.3-0.3,0.3s0.1-0.1,0.3-0.3c0.1-0.1,0.2-0.2,0.3-0.4c0.1-0.1,0.3-0.3,0.4-0.5
					c0.1-0.2,0.3-0.4,0.4-0.6c0.1-0.2,0.3-0.5,0.4-0.7c0.1-0.3,0.2-0.5,0.3-0.8c0.1-0.3,0.2-0.6,0.3-0.9c0.1-0.3,0.2-0.6,0.2-0.9
					c0.1-0.3,0.1-0.6,0.2-0.9c0.1-0.3,0.1-0.6,0.1-0.8c0-0.3,0.1-0.5,0.1-0.7c0-0.5,0.1-0.8,0.1-1.1c0-0.1,0-0.2,0-0.3
					c0-0.1,0-0.1,0-0.1L36,80.3z"/>
				<path fill="#505050" d="M37.5,80.4c0,0-0.2,0.7-0.4,1.8c-0.2,1.1-0.5,2.5-0.7,4c0,0.4-0.1,0.7-0.1,1.1c0,0.4,0,0.7,0,1.1
					c0,0.3,0,0.7,0.1,1c0,0.3,0.1,0.6,0.1,0.9c0,0.1,0.1,0.3,0.1,0.4c0,0.1,0.1,0.2,0.1,0.3c0.1,0.2,0.2,0.4,0.2,0.5
					c0.1,0.1,0.2,0.2,0.2,0.3c0.1,0.1,0.1,0.1,0.1,0.1s0,0-0.1-0.1c-0.1-0.1-0.1-0.2-0.2-0.3c-0.1-0.1-0.2-0.3-0.3-0.5
					c0-0.1-0.1-0.2-0.1-0.3c0-0.1-0.1-0.2-0.1-0.4c-0.1-0.3-0.1-0.6-0.2-0.9c0-0.3-0.1-0.7-0.1-1c0-0.3,0-0.7,0-1.1
					c0-0.4,0-0.7,0-1.1c0.1-1.5,0.3-3,0.5-4.1c0.2-1.1,0.4-1.8,0.4-1.8L37.5,80.4z"/>
				<path fill="#505050" d="M41.8,82.4c0,0-0.1,0.1-0.3,0.3c-0.2,0.2-0.5,0.4-0.8,0.7c-0.6,0.6-1.5,1.5-2.1,2.5
					c-0.2,0.2-0.3,0.5-0.4,0.8c-0.1,0.3-0.2,0.5-0.3,0.8c0,0.1-0.1,0.3-0.1,0.4c0,0.1-0.1,0.3-0.1,0.4c0,0.3,0,0.5,0,0.7
					c0,0.2,0.1,0.4,0.1,0.6c0,0.2,0.1,0.3,0.2,0.4c0.1,0.1,0.1,0.2,0.1,0.3c0,0.1,0.1,0.1,0.1,0.1s0,0-0.1-0.1
					c0-0.1-0.1-0.1-0.2-0.3c-0.1-0.1-0.1-0.3-0.2-0.4c-0.1-0.2-0.1-0.4-0.1-0.6c0-0.2,0-0.5,0-0.7c0-0.1,0-0.3,0.1-0.4
					c0-0.1,0.1-0.3,0.1-0.4c0.1-0.3,0.2-0.6,0.3-0.8c0.1-0.3,0.3-0.5,0.4-0.8c0.6-1.1,1.4-2,2-2.7c0.3-0.3,0.6-0.6,0.8-0.8
					c0.2-0.2,0.3-0.3,0.3-0.3L41.8,82.4z"/>
				<path fill="#505050" d="M43.4,82.4c0,0-0.1,0.1-0.2,0.4c-0.1,0.2-0.3,0.6-0.5,1c-0.4,0.8-0.9,1.9-1.4,3
					c-0.1,0.3-0.2,0.6-0.3,0.8c-0.1,0.3-0.2,0.6-0.2,0.8c-0.1,0.3-0.1,0.5-0.1,0.8c0,0.3,0,0.5,0,0.7c0,0.1,0,0.2,0,0.3
					c0,0.1,0,0.2,0,0.3c0,0.2,0.1,0.3,0.1,0.5c0,0.1,0.1,0.2,0.1,0.3c0,0.1,0.1,0.1,0.1,0.1s0,0-0.1-0.1c0-0.1-0.1-0.1-0.1-0.3
					c-0.1-0.1-0.1-0.3-0.2-0.5c0-0.1,0-0.2-0.1-0.3c0-0.1,0-0.2,0-0.3c0-0.2,0-0.5,0-0.7c0-0.3,0-0.5,0.1-0.8c0-0.3,0.1-0.6,0.2-0.9
					c0.1-0.3,0.2-0.6,0.2-0.9c0.4-1.2,0.8-2.3,1.2-3.1c0.4-0.8,0.7-1.4,0.7-1.4L43.4,82.4z"/>
				<path fill="#505050" d="M45.4,83c0,0,0,0.1-0.1,0.2c-0.1,0.1-0.1,0.3-0.2,0.5c-0.2,0.4-0.5,0.8-0.8,1.3
					c-0.1,0.1-0.1,0.2-0.2,0.4c0,0.1-0.1,0.3-0.1,0.4c-0.1,0.2-0.1,0.5-0.1,0.7c0,0.2,0,0.4-0.1,0.5c0,0.1,0,0.2,0,0.2s0-0.1,0-0.2
					c0-0.1,0-0.3,0-0.5c0-0.2,0-0.5,0.1-0.7c0-0.1,0-0.3,0.1-0.4c0-0.1,0.1-0.3,0.1-0.4c0.1-0.3,0.2-0.5,0.3-0.8
					c0.1-0.2,0.2-0.5,0.3-0.6c0.1-0.2,0.1-0.3,0.2-0.5c0-0.1,0.1-0.2,0.1-0.2L45.4,83z"/>
				<path fill="#505050" d="M46.7,83.2c0,0-0.1,0.1-0.2,0.4c-0.1,0.3-0.3,0.7-0.5,1.1c-0.4,0.9-0.7,2.2-0.9,3.6c0,0.3-0.1,0.7-0.1,1
					c0,0.3,0,0.7,0,1c0,0.3,0.1,0.6,0.1,0.9c0.1,0.3,0.2,0.5,0.3,0.8c0.1,0.2,0.2,0.4,0.3,0.6c0.1,0.2,0.2,0.3,0.3,0.4
					c0.1,0.1,0.2,0.2,0.2,0.3c0.1,0.1,0.1,0.1,0.1,0.1s0,0-0.1-0.1c-0.1-0.1-0.1-0.1-0.3-0.2c-0.1-0.1-0.2-0.2-0.3-0.4
					c-0.1-0.2-0.2-0.4-0.4-0.6c-0.1-0.2-0.2-0.5-0.3-0.8c-0.1-0.3-0.2-0.6-0.2-0.9c-0.1-0.3-0.1-0.7-0.1-1c0-0.3,0-0.7,0-1
					c0.1-1.4,0.4-2.7,0.8-3.7c0.2-0.5,0.3-0.9,0.4-1.2c0.1-0.3,0.2-0.4,0.2-0.4L46.7,83.2z"/>
				<path fill="#505050" d="M51.8,83.4c0,0-0.1,0.1-0.4,0.3c-0.2,0.2-0.6,0.4-1,0.7c-0.8,0.6-1.8,1.5-2.6,2.6
					c-0.2,0.3-0.4,0.5-0.6,0.8c-0.1,0.1-0.2,0.3-0.2,0.4c-0.1,0.1-0.1,0.3-0.2,0.4c-0.1,0.1-0.1,0.3-0.2,0.4c0,0.1,0,0.1-0.1,0.2
					c0,0.1,0,0.1,0,0.2c-0.1,0.3-0.1,0.5-0.1,0.8c0,0.1,0,0.2,0,0.4c0,0.1,0,0.2,0.1,0.3c0,0.2,0.1,0.4,0.2,0.5
					c0.1,0.1,0.1,0.2,0.1,0.3c0,0.1,0.1,0.1,0.1,0.1s0,0-0.1-0.1c0-0.1-0.1-0.2-0.2-0.3c-0.1-0.1-0.1-0.3-0.2-0.5
					c0-0.1-0.1-0.2-0.1-0.3c0-0.1,0-0.2,0-0.4c0-0.3,0-0.5,0-0.8c0-0.1,0-0.1,0-0.2c0-0.1,0-0.1,0.1-0.2c0-0.2,0.1-0.3,0.1-0.4
					c0.1-0.2,0.1-0.3,0.2-0.5c0.1-0.1,0.1-0.3,0.2-0.4c0.2-0.3,0.3-0.6,0.5-0.9c0.8-1.1,1.7-2.1,2.5-2.8c0.4-0.3,0.7-0.6,0.9-0.8
					c0.2-0.2,0.4-0.3,0.4-0.3L51.8,83.4z"/>
				<path fill="#505050" d="M53.6,83.1c0,0-0.1,0.1-0.3,0.4c-0.2,0.2-0.5,0.6-0.8,1c-0.7,0.8-1.5,2-2.1,3.3c-0.1,0.3-0.3,0.7-0.4,1
					c-0.1,0.3-0.2,0.7-0.3,1c0,0.2-0.1,0.3-0.1,0.5c0,0.2,0,0.3-0.1,0.5c0,0.2,0,0.3,0,0.4c0,0.1,0,0.3,0,0.4c0,0.3,0,0.5,0.1,0.7
					c0,0.2,0.1,0.4,0.1,0.6c0,0.2,0.1,0.3,0.1,0.3c0,0.1,0,0.1,0,0.1s0,0,0-0.1c0-0.1-0.1-0.2-0.1-0.3c0-0.2-0.1-0.3-0.2-0.5
					c-0.1-0.2-0.1-0.5-0.1-0.7c0-0.1,0-0.3,0-0.4c0-0.1,0-0.3,0-0.5c0-0.2,0-0.3,0-0.5c0-0.2,0-0.3,0.1-0.5c0.1-0.3,0.1-0.7,0.3-1
					c0.1-0.3,0.2-0.7,0.4-1c0.6-1.3,1.3-2.6,2-3.5c0.3-0.4,0.6-0.8,0.8-1.1c0.2-0.2,0.3-0.4,0.3-0.4L53.6,83.1z"/>
				<path fill="#505050" d="M55.9,82.9c0,0-0.3,0.3-0.8,0.8c-0.2,0.2-0.5,0.5-0.8,0.9c-0.1,0.2-0.3,0.3-0.4,0.5
					c-0.1,0.2-0.3,0.4-0.4,0.5c-0.1,0.2-0.2,0.4-0.4,0.6c-0.1,0.2-0.2,0.4-0.3,0.6c-0.1,0.2-0.2,0.4-0.2,0.6
					c-0.1,0.2-0.1,0.4-0.2,0.5c0,0.2-0.1,0.3-0.1,0.5c0,0.1,0,0.3,0,0.4c0,0.2,0,0.3,0,0.3s0-0.1,0-0.3c0-0.1,0-0.2,0-0.4
					c0-0.1,0-0.3,0.1-0.5c0-0.2,0.1-0.3,0.1-0.5c0.1-0.2,0.1-0.4,0.2-0.6c0.1-0.2,0.2-0.4,0.3-0.6c0.1-0.2,0.2-0.4,0.3-0.6
					c0.1-0.2,0.2-0.4,0.4-0.6c0.1-0.2,0.2-0.4,0.4-0.5c0.2-0.4,0.5-0.7,0.7-0.9c0.2-0.3,0.4-0.5,0.6-0.6c0.1-0.1,0.1-0.1,0.2-0.2
					c0,0,0.1-0.1,0.1-0.1L55.9,82.9z"/>
				<path fill="#505050" d="M58,82.3c0,0,0,0.1-0.1,0.3c-0.1,0.2-0.1,0.5-0.2,0.9c-0.1,0.8-0.3,1.8-0.3,2.8c0,0.5,0,1,0.1,1.5
					c0.1,0.5,0.2,0.9,0.3,1.3c0.1,0.2,0.1,0.4,0.2,0.5c0.1,0.1,0.1,0.3,0.2,0.4c0.1,0.1,0.1,0.2,0.1,0.2c0,0.1,0.1,0.1,0.1,0.1
					s0,0-0.1-0.1c0,0-0.1-0.1-0.2-0.2c-0.1-0.1-0.1-0.2-0.2-0.4c-0.1-0.1-0.2-0.3-0.2-0.5c-0.2-0.4-0.3-0.8-0.4-1.3
					c-0.1-0.5-0.2-1-0.2-1.5c-0.1-1.1,0-2.1,0.1-2.9c0-0.4,0.1-0.7,0.1-1c0-0.2,0.1-0.4,0.1-0.4L58,82.3z"/>
				<path fill="#505050" d="M60.6,81.8C60.6,81.8,60.6,81.8,60.6,81.8c-0.1,0.1-0.1,0.2-0.2,0.3c-0.1,0.2-0.2,0.5-0.4,0.8
					c-0.1,0.3-0.3,0.7-0.5,1.2c-0.1,0.2-0.2,0.4-0.2,0.7c-0.1,0.2-0.1,0.5-0.2,0.7c-0.1,0.2-0.1,0.5-0.1,0.7c0,0.2-0.1,0.5-0.1,0.7
					c0,0.2,0,0.5,0,0.7c0,0.2,0,0.4,0.1,0.6c0,0.2,0.1,0.3,0.1,0.5c0,0.2,0.1,0.3,0.1,0.4c0.1,0.2,0.1,0.3,0.1,0.3s0-0.1-0.1-0.3
					c0-0.1-0.1-0.2-0.1-0.4c0-0.1-0.1-0.3-0.1-0.5c0-0.2-0.1-0.4-0.1-0.6c0-0.2,0-0.4,0-0.7c0-0.2,0-0.5,0-0.7c0-0.2,0-0.5,0.1-0.8
					c0-0.2,0.1-0.5,0.1-0.7c0.1-0.2,0.1-0.5,0.2-0.7c0.1-0.5,0.3-0.9,0.4-1.2c0.1-0.4,0.3-0.7,0.3-0.9c0-0.1,0.1-0.2,0.1-0.2
					c0-0.1,0-0.1,0-0.1L60.6,81.8z"/>
				<path fill="#505050" d="M65.8,80.2c0,0-0.1,0.1-0.3,0.4c-0.2,0.3-0.5,0.6-0.8,1.1c-0.6,0.9-1.4,2.2-1.9,3.5
					c-0.1,0.3-0.3,0.7-0.4,1c-0.1,0.3-0.2,0.7-0.3,1c-0.1,0.3-0.1,0.7-0.2,1c0,0.3-0.1,0.6-0.1,0.9c0,0.1,0,0.3,0,0.4
					c0,0.1,0,0.2,0,0.4c0,0.2,0.1,0.4,0.1,0.6c0.1,0.3,0.1,0.5,0.1,0.5s-0.1-0.2-0.1-0.5c0-0.2-0.1-0.3-0.1-0.6c0-0.1,0-0.2,0-0.4
					c0-0.1,0-0.3,0-0.4c0-0.3,0-0.6,0-0.9c0-0.3,0.1-0.7,0.1-1c0.1-0.3,0.1-0.7,0.2-1c0.1-0.4,0.2-0.7,0.3-1.1
					c0.5-1.4,1.2-2.7,1.8-3.7c0.3-0.5,0.6-0.9,0.7-1.1c0.2-0.3,0.3-0.4,0.3-0.4L65.8,80.2z"/>
				<path fill="#505050" d="M66.7,80.2c0,0-0.1,0.1-0.3,0.4c-0.2,0.2-0.4,0.6-0.7,1c-0.5,0.9-1.1,2.1-1.6,3.4
					c-0.1,0.3-0.2,0.7-0.3,1c-0.1,0.3-0.1,0.7-0.2,1c0,0.3-0.1,0.6-0.1,0.9c0,0.3,0,0.6,0,0.8c0,0.1,0,0.2,0,0.4
					c0,0.1,0,0.2,0.1,0.3c0,0.2,0.1,0.4,0.1,0.5c0.1,0.3,0.2,0.4,0.2,0.4s-0.1-0.2-0.2-0.4c0-0.1-0.1-0.3-0.2-0.5
					c0-0.1-0.1-0.2-0.1-0.3c0-0.1,0-0.2-0.1-0.4c0-0.3-0.1-0.5-0.1-0.8c0-0.3,0-0.6,0-0.9c0-0.3,0.1-0.7,0.1-1
					c0.1-0.3,0.1-0.7,0.2-1c0.4-1.3,0.9-2.6,1.4-3.5c0.2-0.5,0.5-0.8,0.6-1.1c0.2-0.3,0.3-0.4,0.3-0.4L66.7,80.2z"/>
				<path fill="#505050" d="M69.7,78.5C69.7,78.5,69.7,78.5,69.7,78.5c-0.1,0.1-0.2,0.2-0.3,0.2c-0.2,0.1-0.5,0.4-0.8,0.7
					c-0.2,0.1-0.3,0.3-0.5,0.5c-0.2,0.2-0.4,0.4-0.5,0.6c-0.2,0.2-0.4,0.4-0.5,0.6c-0.2,0.2-0.3,0.5-0.5,0.7
					c-0.2,0.2-0.3,0.5-0.5,0.7c-0.1,0.1-0.1,0.3-0.2,0.4c-0.1,0.1-0.1,0.2-0.2,0.4c-0.1,0.3-0.2,0.5-0.3,0.7c0,0.1-0.1,0.2-0.1,0.3
					c0,0.1-0.1,0.2-0.1,0.3c0,0.2-0.1,0.4-0.1,0.6c0,0.2,0,0.3,0,0.5c0,0.3,0,0.4,0,0.4s0-0.1,0-0.4c0-0.1,0-0.3,0-0.5
					c0-0.2,0-0.4,0.1-0.6c0-0.1,0-0.2,0.1-0.3c0-0.1,0.1-0.2,0.1-0.4c0-0.3,0.2-0.5,0.2-0.8c0-0.1,0.1-0.3,0.2-0.4
					c0.1-0.1,0.1-0.3,0.2-0.4c0.1-0.3,0.3-0.5,0.4-0.8c0.2-0.2,0.3-0.5,0.5-0.7c0.2-0.2,0.3-0.5,0.5-0.7c0.2-0.2,0.4-0.4,0.5-0.6
					c0.2-0.2,0.3-0.4,0.5-0.5c0.3-0.3,0.6-0.6,0.8-0.7c0.1-0.1,0.2-0.2,0.2-0.2c0.1,0,0.1-0.1,0.1-0.1L69.7,78.5z"/>
				<path fill="#505050" d="M23.1,41.2c0,0-0.1,0.4-0.3,1.2c-0.2,0.8-0.4,1.9-0.6,3.3c-0.2,1.4-0.4,3-0.5,4.7
					c-0.1,1.7-0.1,3.6,0.2,5.4c0,0.2,0.1,0.5,0.1,0.7c0,0.2,0.1,0.5,0.1,0.7c0.1,0.5,0.2,0.9,0.3,1.3c0.2,0.9,0.5,1.8,0.7,2.6
					c0.5,1.7,1,3.2,1.4,4.6c0.9,2.7,1.5,4.4,1.5,4.4s-0.7-1.7-1.6-4.4c-0.5-1.3-1-2.9-1.5-4.5c-0.3-0.8-0.5-1.7-0.7-2.6
					c-0.1-0.4-0.2-0.9-0.3-1.3c-0.1-0.2-0.1-0.5-0.2-0.7c-0.1-0.2-0.1-0.5-0.1-0.7c-0.3-1.9-0.4-3.7-0.3-5.5
					c0.1-1.8,0.2-3.4,0.4-4.8c0.2-1.4,0.4-2.5,0.5-3.3c0.2-0.8,0.3-1.3,0.3-1.3L23.1,41.2z"/>
				<path fill="#505050" d="M21.2,61.8c0,0-0.5-1.3-0.9-3.2c-0.1-0.5-0.2-1-0.3-1.6c-0.1-0.6-0.2-1.2-0.2-1.8
					c-0.1-0.6-0.1-1.3-0.1-1.9c0-0.7,0-1.3,0-2c0-0.3,0-0.7,0.1-1c0-0.3,0.1-0.7,0.1-1c0.1-0.7,0.2-1.3,0.3-1.9
					c0.1-0.6,0.3-1.2,0.4-1.8c0.1-0.3,0.2-0.5,0.3-0.8c0.1-0.3,0.2-0.5,0.3-0.7c0.1-0.2,0.2-0.5,0.3-0.7c0.1-0.2,0.2-0.4,0.3-0.6
					c0.2-0.4,0.3-0.7,0.5-1c0.3-0.5,0.4-0.8,0.4-0.8l0.5,0.3c0,0-0.2,0.3-0.5,0.8c-0.1,0.3-0.3,0.6-0.5,0.9
					c-0.1,0.2-0.2,0.4-0.3,0.6c-0.1,0.2-0.2,0.4-0.3,0.7c-0.1,0.2-0.2,0.5-0.3,0.7c-0.1,0.3-0.2,0.5-0.3,0.8
					c-0.2,0.5-0.3,1.1-0.5,1.7c-0.1,0.6-0.3,1.2-0.4,1.9c0,0.3-0.1,0.6-0.1,1c0,0.3-0.1,0.7-0.1,1c0,0.7-0.1,1.3-0.1,2
					c0,0.7,0,1.3,0.1,1.9c0,0.6,0.1,1.2,0.2,1.8c0.1,0.6,0.2,1.1,0.2,1.6C20.7,60.5,21.2,61.8,21.2,61.8z"/>
				<path fill="#505050" d="M51.5,71.2c0,0-0.2-0.2-0.5-0.6c-0.3-0.4-0.7-1-1-1.8c-0.2-0.4-0.3-0.8-0.4-1.3c-0.1-0.5-0.2-1-0.2-1.5
					c0-0.5,0-1.1,0-1.7c0-0.6,0.1-1.1,0.2-1.7c0.1-0.3,0.1-0.6,0.2-0.8c0.1-0.3,0.2-0.6,0.2-0.8c0.1-0.3,0.2-0.5,0.3-0.8
					c0.1-0.3,0.2-0.5,0.3-0.8c0.1-0.3,0.2-0.5,0.3-0.7c0.1-0.2,0.2-0.5,0.3-0.7c0.1-0.2,0.2-0.4,0.3-0.6c0.1-0.2,0.2-0.4,0.3-0.6
					c0.2-0.4,0.4-0.7,0.6-1c0.2-0.3,0.3-0.6,0.5-0.8c0.3-0.4,0.4-0.7,0.4-0.7l0.4,0.3c0,0-0.2,0.2-0.4,0.6c-0.1,0.2-0.3,0.5-0.5,0.7
					c-0.2,0.3-0.4,0.6-0.6,1c-0.1,0.2-0.2,0.4-0.3,0.6c-0.1,0.2-0.2,0.4-0.3,0.6c-0.1,0.2-0.2,0.4-0.3,0.7c-0.1,0.2-0.2,0.5-0.3,0.7
					c-0.1,0.2-0.2,0.5-0.3,0.7c-0.1,0.3-0.2,0.5-0.3,0.8c-0.1,0.3-0.2,0.5-0.2,0.8c-0.1,0.3-0.1,0.5-0.2,0.8
					c-0.1,0.6-0.2,1.1-0.3,1.7c-0.1,0.6-0.1,1.1,0,1.6c0,0.5,0.1,1,0.2,1.5c0.1,0.5,0.2,0.9,0.4,1.3c0.3,0.8,0.6,1.4,0.9,1.8
					C51.3,71,51.5,71.2,51.5,71.2z"/>
				<path fill="#505050" d="M52.3,68.4c0,0-0.2-0.2-0.4-0.5c-0.1-0.2-0.3-0.4-0.4-0.6c-0.1-0.1-0.2-0.3-0.2-0.4
					c-0.1-0.1-0.1-0.3-0.2-0.5c-0.1-0.2-0.1-0.3-0.2-0.5c0-0.1-0.1-0.2-0.1-0.3c0-0.1-0.1-0.2-0.1-0.3c-0.1-0.2-0.1-0.4-0.2-0.6
					c0-0.2-0.1-0.4-0.1-0.6c0-0.1,0-0.2,0-0.3c0-0.1,0-0.2,0-0.3c0-0.2,0-0.5,0-0.7c0-0.2,0-0.5,0-0.7l0-0.4c0-0.1,0-0.2,0.1-0.4
					c0.1-0.5,0.1-1,0.3-1.4c0.1-0.5,0.2-0.9,0.4-1.3c0.2-0.4,0.3-0.8,0.5-1.2c0.2-0.4,0.4-0.7,0.5-1c0.1-0.2,0.2-0.3,0.2-0.5
					c0.1-0.1,0.2-0.3,0.2-0.4c0.2-0.2,0.3-0.5,0.4-0.6c0.2-0.4,0.3-0.6,0.3-0.6l0.4,0.3c0,0-0.1,0.2-0.4,0.5
					c-0.1,0.2-0.3,0.4-0.4,0.6c-0.1,0.1-0.2,0.2-0.3,0.4c-0.1,0.1-0.2,0.3-0.2,0.4c-0.2,0.3-0.4,0.6-0.5,1c-0.2,0.4-0.3,0.8-0.5,1.2
					c-0.2,0.4-0.3,0.8-0.4,1.3c-0.2,0.4-0.2,0.9-0.3,1.4c0,0.1-0.1,0.2-0.1,0.3l0,0.3c0,0.2,0,0.5-0.1,0.7c0,0.2,0,0.5,0,0.7
					c0,0.1,0,0.2,0,0.3c0,0.1,0,0.2,0,0.3c0,0.2,0.1,0.4,0.1,0.6c0,0.2,0.1,0.4,0.1,0.6c0,0.1,0,0.2,0.1,0.3c0,0.1,0.1,0.2,0.1,0.3
					c0.1,0.2,0.1,0.4,0.2,0.5c0.1,0.2,0.1,0.3,0.2,0.5c0.1,0.1,0.1,0.3,0.2,0.4c0.1,0.3,0.3,0.5,0.4,0.6
					C52.2,68.2,52.3,68.4,52.3,68.4z"/>
				<path fill="#505050" d="M69.8,63c0,0,0-0.1-0.1-0.2c0-0.1-0.1-0.3-0.2-0.5c-0.1-0.2-0.1-0.5-0.1-0.8c0-0.2,0-0.3,0-0.5
					c0-0.2,0-0.3,0.1-0.5c0-0.2,0.1-0.4,0.1-0.6c0-0.2,0.1-0.4,0.2-0.6c0.1-0.2,0.1-0.4,0.2-0.6c0.1-0.2,0.2-0.4,0.3-0.6
					c0.2-0.4,0.4-0.8,0.6-1.3c0.1-0.2,0.3-0.4,0.4-0.6l0.2-0.3l0.2-0.3c0.1-0.2,0.3-0.4,0.4-0.6c0.1-0.2,0.3-0.4,0.4-0.6
					c0.3-0.4,0.5-0.8,0.7-1.2c0.2-0.4,0.3-0.8,0.4-1.2c0-0.2,0.1-0.4,0.1-0.6c0-0.2,0-0.4,0.1-0.6c0-0.4,0-0.7,0-1
					c0-0.3-0.1-0.5-0.1-0.7c0-0.2-0.1-0.4-0.1-0.5c0-0.1,0-0.1,0-0.1c0,0,0,0,0,0l0.5-0.2c0,0,0,0,0,0.1c0,0,0,0.1,0,0.1
					c0,0.1,0.1,0.3,0.1,0.5c0,0.2,0.1,0.5,0.1,0.8c0,0.3,0,0.7,0,1c0,0.2-0.1,0.4-0.1,0.6c0,0.2-0.1,0.4-0.1,0.6
					c-0.1,0.4-0.3,0.9-0.5,1.3c-0.2,0.4-0.5,0.9-0.7,1.3c-0.1,0.2-0.3,0.4-0.4,0.6c-0.1,0.2-0.3,0.4-0.4,0.6l-0.2,0.3l-0.2,0.3
					c-0.1,0.2-0.3,0.4-0.4,0.6c-0.2,0.4-0.5,0.8-0.7,1.2c-0.1,0.2-0.2,0.4-0.3,0.6c-0.1,0.2-0.2,0.4-0.2,0.6
					c-0.1,0.2-0.1,0.4-0.2,0.6c0,0.2-0.1,0.4-0.1,0.6c0,0.2-0.1,0.4-0.1,0.5c0,0.2,0,0.3,0,0.5c0,0.3,0,0.6,0.1,0.8
					c0,0.2,0.1,0.4,0.1,0.5C69.8,62.9,69.8,63,69.8,63z"/>
				<path fill="#505050" d="M74.8,50.1c0,0,0,0.1,0,0.3c0,0.2,0,0.4,0,0.7c0,0.3,0,0.7,0,1.1c0,0.2,0,0.4,0,0.7c0,0.2,0,0.5-0.1,0.7
					c0,0.3-0.1,0.5-0.1,0.8c-0.1,0.3-0.1,0.6-0.2,0.8c-0.1,0.3-0.1,0.6-0.2,0.9c-0.1,0.3-0.2,0.6-0.3,0.9c-0.2,0.6-0.5,1.2-0.8,1.8
					c-0.3,0.6-0.7,1.2-1.1,1.7c-0.8,1.1-1.5,2.3-2,3.4c-0.5,1.2-0.8,2.3-0.9,3.3c0,0.5,0,1,0,1.4c0.1,0.4,0.2,0.7,0.4,1
					c0.2,0.2,0.4,0.4,0.5,0.5c0.1,0.1,0.2,0.1,0.2,0.1s-0.1,0-0.2-0.1c-0.1-0.1-0.3-0.2-0.5-0.5c-0.2-0.2-0.3-0.6-0.4-1
					c-0.1-0.4-0.1-0.9-0.1-1.4c0.1-1,0.4-2.2,0.9-3.4c0.5-1.2,1.2-2.4,1.9-3.5c0.4-0.6,0.8-1.1,1.1-1.7c0.3-0.6,0.5-1.2,0.7-1.8
					c0.1-0.3,0.2-0.6,0.3-0.9c0.1-0.3,0.1-0.6,0.2-0.9c0-0.3,0.1-0.6,0.1-0.8c0-0.3,0.1-0.5,0.1-0.8c0-0.3,0-0.5,0-0.7
					c0-0.2,0-0.4,0-0.7c0-0.4,0-0.8,0-1.1c0-0.3,0-0.5-0.1-0.7c0-0.2,0-0.2,0-0.2L74.8,50.1z"/>
				<g>
					<path fill="#505050" d="M28.3,34.2c0,0-0.2,1.2-0.5,3c-0.1,0.9-0.2,2-0.3,3.1c0,0.6,0,1.1,0,1.7c0,0.3,0.1,0.6,0.1,0.9
						c0,0.1,0,0.1,0.1,0.2l0.1,0.2c0.1,0.1,0.1,0.3,0.2,0.4c0.2,0.6,0.3,1.2,0.4,1.8c0.1,0.6,0.2,1.2,0.3,1.7c0.1,1.1,0.1,2.2,0,3.1
						c0,0.5-0.1,0.9-0.2,1.2c-0.1,0.4-0.2,0.7-0.3,0.9c-0.1,0.2-0.3,0.4-0.3,0.5c-0.1,0.1-0.1,0.2-0.1,0.2s0-0.1,0.1-0.2
						c0.1-0.1,0.2-0.3,0.3-0.5c0.1-0.2,0.2-0.5,0.3-0.9c0.1-0.4,0.2-0.8,0.2-1.2c0.1-0.9,0-2-0.1-3.1c-0.1-0.6-0.2-1.1-0.3-1.7
						c-0.1-0.6-0.3-1.2-0.5-1.7c-0.1-0.1-0.1-0.3-0.2-0.4l-0.1-0.2c0-0.1-0.1-0.2-0.1-0.2c-0.1-0.3-0.1-0.6-0.2-0.9
						c-0.1-0.6-0.1-1.2,0-1.8c0-1.1,0.1-2.2,0.2-3.1c0.2-1.8,0.4-3,0.4-3L28.3,34.2z"/>
					<path fill="#505050" d="M38.5,32.4c0,0,0,0,0,0.1c0,0.1,0,0.2,0.1,0.4c0,0.2,0,0.3,0.1,0.6c0,0.2,0,0.5,0,0.7
						c0,0.1,0,0.3,0,0.4c0,0.1,0,0.3,0,0.4c0,0.2,0,0.3,0,0.5c0,0.2,0,0.3-0.1,0.5c-0.1,0.3-0.1,0.7-0.2,1c-0.1,0.2-0.1,0.3-0.2,0.5
						L38,37.9c-0.1,0.3-0.3,0.6-0.5,0.9c0,0.1-0.1,0.2-0.1,0.2l-0.1,0.2c-0.1,0.1-0.2,0.3-0.3,0.4c-0.1,0.1-0.2,0.3-0.3,0.4
						c-0.1,0.1-0.2,0.2-0.3,0.3c-0.2,0.2-0.4,0.4-0.6,0.6c-0.2,0.2-0.4,0.3-0.5,0.5c-0.2,0.1-0.3,0.2-0.4,0.3
						c-0.2,0.2-0.4,0.3-0.4,0.3s0.1-0.1,0.4-0.3c0.1-0.1,0.3-0.2,0.4-0.3c0.2-0.1,0.3-0.3,0.5-0.5c0.2-0.2,0.4-0.4,0.6-0.6
						c0.1-0.1,0.2-0.2,0.3-0.4c0.1-0.1,0.2-0.2,0.3-0.4c0.1-0.1,0.2-0.3,0.3-0.4l0.1-0.2c0-0.1,0.1-0.1,0.1-0.2
						c0.1-0.3,0.3-0.6,0.4-0.9l0.2-0.5c0-0.2,0.1-0.3,0.1-0.5c0.1-0.3,0.1-0.6,0.2-1c0-0.2,0-0.3,0-0.5c0-0.2,0-0.3,0-0.4
						c0-0.1,0-0.3,0-0.4c0-0.1,0-0.3,0-0.4c0-0.3,0-0.5-0.1-0.7c0-0.2-0.1-0.4-0.1-0.5c0-0.1-0.1-0.3-0.1-0.3c0-0.1,0-0.1,0-0.1
						L38.5,32.4z"/>
					<path fill="#505050" d="M40.1,36.9c0,0-0.1,0.4-0.2,1.1c-0.2,0.7-0.4,1.7-0.8,2.8c-0.2,0.6-0.5,1.2-0.8,1.8
						c-0.3,0.6-0.7,1.3-1.2,1.9c-0.2,0.3-0.5,0.6-0.8,0.8L36,45.5l-0.2,0.2c-0.1,0.1-0.3,0.2-0.4,0.4c-0.2,0.3-0.5,0.6-0.6,1
						c-0.2,0.3-0.3,0.7-0.5,1.1c-0.5,1.5-0.8,3.1-0.8,4.6c-0.1,1.5,0.1,2.9,0.3,4.1c0.1,0.6,0.3,1.1,0.5,1.6
						c0.2,0.5,0.4,0.8,0.6,1.1c0.1,0.2,0.2,0.3,0.3,0.4c0.1,0.1,0.1,0.2,0.2,0.3c0.1,0.1,0.2,0.2,0.2,0.2s-0.1-0.1-0.2-0.2
						c-0.1-0.1-0.1-0.2-0.2-0.3c-0.1-0.1-0.2-0.2-0.3-0.4c-0.2-0.3-0.4-0.7-0.6-1.1c-0.2-0.5-0.4-1-0.5-1.6
						c-0.3-1.2-0.5-2.6-0.4-4.1c0-1.5,0.2-3.1,0.8-4.7c0.1-0.4,0.3-0.8,0.5-1.1c0.2-0.4,0.4-0.7,0.7-1c0.1-0.2,0.3-0.3,0.4-0.4
						l0.2-0.2l0.2-0.2c0.3-0.2,0.5-0.5,0.8-0.8c0.5-0.6,0.8-1.2,1.1-1.8c0.3-0.6,0.5-1.2,0.7-1.8c0.4-1.1,0.6-2.1,0.8-2.8
						c0.2-0.7,0.2-1.1,0.2-1.1L40.1,36.9z"/>
				</g>
				<g>
					<path fill="#505050" d="M65.7,21.5c0,0-0.1,0.3-0.3,0.7c-0.2,0.5-0.4,1.1-0.7,1.9c-0.3,0.8-0.6,1.7-0.8,2.7
						c-0.1,0.5-0.2,1-0.3,1.6c-0.1,0.5-0.2,1.1-0.2,1.6c-0.1,0.6-0.1,1.1-0.1,1.7c0,0.5,0,1.1,0.1,1.6c0,0.3,0.1,0.5,0.1,0.8
						c0,0.1,0.1,0.2,0.1,0.4c0,0.1,0.1,0.2,0.1,0.3c0.1,0.2,0.2,0.4,0.3,0.6c0.1,0.1,0.1,0.2,0.2,0.3c0.1,0.1,0.1,0.2,0.2,0.3
						c0.1,0.1,0.1,0.2,0.2,0.3c0.1,0.1,0.1,0.1,0.2,0.2c0.1,0.1,0.1,0.1,0.2,0.2c0.1,0.1,0.1,0.1,0.2,0.2c0.2,0.2,0.5,0.4,0.7,0.5
						c0.2,0.1,0.4,0.2,0.5,0.3c0.1,0.1,0.2,0.1,0.2,0.1s-0.1,0-0.2-0.1c-0.1-0.1-0.3-0.1-0.5-0.2c-0.2-0.1-0.5-0.3-0.7-0.5
						c-0.1-0.1-0.1-0.1-0.2-0.2c-0.1-0.1-0.1-0.1-0.2-0.2c-0.1-0.1-0.1-0.1-0.2-0.2c-0.1-0.1-0.1-0.2-0.2-0.3
						c-0.1-0.1-0.1-0.2-0.2-0.3c-0.1-0.1-0.1-0.2-0.2-0.3c-0.1-0.2-0.2-0.4-0.3-0.6c-0.1-0.1-0.1-0.2-0.1-0.3c0-0.1-0.1-0.2-0.1-0.4
						c-0.1-0.2-0.1-0.5-0.2-0.8c-0.1-0.5-0.1-1.1-0.2-1.6c0-0.6,0-1.1,0-1.7c0-0.6,0.1-1.1,0.2-1.7c0.1-0.5,0.2-1.1,0.3-1.6
						c0.2-1,0.5-2,0.7-2.8c0.3-0.8,0.5-1.5,0.7-1.9c0.2-0.5,0.3-0.7,0.3-0.7L65.7,21.5z"/>
					<path fill="#505050" d="M72.4,32.5c0,0-0.3,2.2-0.9,4.4c-0.3,1.1-0.6,2.2-0.9,3c-0.2,0.4-0.3,0.7-0.5,0.9
						C70,40.9,70,41,69.9,41c0,0-0.1,0.1-0.1,0.1s0,0,0.1-0.1c0,0,0.1-0.1,0.2-0.2c0.1-0.2,0.3-0.5,0.4-0.9c0.3-0.8,0.5-1.9,0.7-3
						c0.2-1.1,0.4-2.2,0.5-3.1c0.1-0.8,0.2-1.4,0.2-1.4L72.4,32.5z"/>
					<path fill="#505050" d="M60.6,30.5c0,0,0,0.1,0,0.3c0,0.2,0.1,0.5,0.1,0.9c0,0.2,0.1,0.4,0.1,0.6c0,0.2,0.1,0.5,0.2,0.8
						c0.1,0.3,0.1,0.6,0.2,0.9c0.1,0.3,0.2,0.6,0.3,0.9c0.1,0.3,0.2,0.7,0.3,1c0.1,0.3,0.3,0.7,0.4,1c0.2,0.3,0.3,0.7,0.5,1.1
						c0.1,0.2,0.2,0.4,0.3,0.5c0.1,0.2,0.2,0.4,0.3,0.5c0.4,0.7,1,1.4,1.5,2.1c0.6,0.7,1.3,1.3,1.9,1.9c0.7,0.6,1.2,1.4,1.5,2.3
						c0.3,0.9,0.4,1.8,0.4,2.6c0,0.9-0.2,1.7-0.4,2.5c-0.2,0.8-0.5,1.5-0.7,2.1c-0.5,1.3-1.1,2.2-1.6,2.9c-0.4,0.7-0.7,1-0.7,1
						s0.3-0.4,0.7-1c0.4-0.7,1-1.7,1.5-2.9c0.3-0.6,0.5-1.3,0.7-2.1c0.2-0.8,0.3-1.6,0.3-2.4c0-0.8-0.1-1.7-0.4-2.5
						c-0.3-0.8-0.9-1.6-1.5-2.2c-0.3-0.3-0.7-0.6-1-0.9c-0.4-0.3-0.6-0.6-1-1c-0.6-0.7-1.1-1.4-1.6-2.1c-0.1-0.2-0.2-0.4-0.3-0.5
						c-0.1-0.2-0.2-0.4-0.3-0.5c-0.2-0.4-0.4-0.7-0.5-1.1c-0.2-0.4-0.3-0.7-0.5-1.1c-0.1-0.4-0.3-0.7-0.4-1
						c-0.1-0.3-0.2-0.6-0.3-0.9c-0.1-0.3-0.2-0.6-0.2-0.9c-0.1-0.3-0.1-0.5-0.2-0.8c0-0.2-0.1-0.5-0.1-0.7c-0.1-0.4-0.1-0.7-0.1-0.9
						c0-0.2,0-0.3,0-0.3L60.6,30.5z"/>
					<path fill="#505050" d="M60,34.4c0,0,0,0.1,0,0.2c0,0.1,0,0.3,0.1,0.6c0.1,0.5,0.3,1.2,0.6,2.1c0.1,0.2,0.2,0.4,0.3,0.6
						c0.1,0.1,0.1,0.2,0.2,0.3c0.1,0.1,0.1,0.2,0.2,0.3c0.1,0.2,0.3,0.4,0.4,0.7c0.1,0.2,0.3,0.4,0.5,0.7c0.4,0.4,0.8,0.8,1.3,1.2
						c0.1,0.1,0.2,0.2,0.4,0.3c0.1,0.1,0.3,0.2,0.4,0.3c0.3,0.2,0.5,0.4,0.7,0.6c0.9,0.9,1.5,2,1.9,3c0.4,1.1,0.6,2.2,0.7,3.1
						c0,0.9-0.1,1.7-0.3,2.2c-0.1,0.2-0.2,0.4-0.3,0.5c-0.1,0.1-0.2,0.2-0.2,0.2s0.1-0.1,0.1-0.2c0.1-0.1,0.2-0.3,0.3-0.5
						c0.2-0.5,0.3-1.3,0.3-2.2c-0.1-0.9-0.3-2-0.7-3c-0.4-1-1.1-2.1-2-2.9c-0.2-0.2-0.5-0.4-0.7-0.6c-0.1-0.1-0.3-0.2-0.4-0.2
						c-0.1-0.1-0.3-0.2-0.4-0.2c-0.5-0.3-1-0.8-1.4-1.2c-0.2-0.2-0.4-0.4-0.5-0.7c-0.2-0.2-0.3-0.5-0.4-0.7
						c-0.1-0.1-0.1-0.2-0.2-0.3c-0.1-0.1-0.1-0.2-0.2-0.3c-0.1-0.2-0.2-0.4-0.3-0.7c-0.4-0.9-0.6-1.6-0.7-2.2
						c-0.1-0.3-0.1-0.5-0.1-0.6c0-0.1,0-0.2,0-0.2L60,34.4z"/>
				</g>
				<path fill="#505050" d="M44.3,55c0,0-0.1,0.3-0.3,0.7c-0.1,0.2-0.2,0.5-0.3,0.8c-0.1,0.3-0.3,0.6-0.5,1
					c-0.2,0.4-0.4,0.7-0.7,1.1c-0.1,0.2-0.3,0.4-0.4,0.6c-0.1,0.2-0.3,0.4-0.5,0.6c-0.2,0.2-0.3,0.4-0.5,0.6
					c-0.2,0.2-0.4,0.4-0.5,0.6c-0.2,0.2-0.4,0.4-0.6,0.6c-0.2,0.2-0.4,0.4-0.6,0.6c-0.2,0.2-0.4,0.3-0.6,0.5L38.6,63
					c-0.1,0.1-0.2,0.2-0.3,0.3c-0.3,0.4-0.6,0.8-0.8,1.3c-0.4,0.9-0.5,1.9-0.6,2.7c0,0.8,0,1.5,0.1,2c0.1,0.5,0.1,0.7,0.1,0.7
					s-0.1-0.3-0.1-0.7c-0.1-0.5-0.1-1.1-0.1-2c0-0.8,0.1-1.8,0.5-2.7c0.2-0.5,0.4-1,0.8-1.4c0.1-0.1,0.2-0.2,0.3-0.3l0.3-0.3
					c0.2-0.2,0.4-0.4,0.6-0.5c0.2-0.2,0.4-0.4,0.6-0.6c0.2-0.2,0.4-0.4,0.5-0.6c0.2-0.2,0.3-0.4,0.5-0.6c0.2-0.2,0.3-0.4,0.5-0.6
					c0.1-0.2,0.3-0.4,0.4-0.6c0.1-0.2,0.3-0.4,0.4-0.6c0.2-0.4,0.4-0.8,0.6-1.1c0.2-0.4,0.3-0.7,0.4-1c0.1-0.3,0.2-0.6,0.3-0.8
					c0.2-0.4,0.2-0.7,0.2-0.7L44.3,55z"/>
				<path fill="#505050" d="M44.4,54.9c0,0-0.1,0.3-0.2,0.9c-0.1,0.6-0.3,1.3-0.6,2.3c-0.3,0.9-0.7,2-1.3,3.1
					c-0.3,0.5-0.7,1.1-1.1,1.5c-0.1,0.1-0.2,0.2-0.4,0.3c-0.1,0.1-0.1,0.1-0.2,0.1l-0.2,0.1c-0.1,0.1-0.2,0.2-0.4,0.3
					c-0.1,0.1-0.2,0.2-0.3,0.3c-0.4,0.5-0.7,1-1,1.6c-0.2,0.6-0.4,1.2-0.5,1.8c-0.2,1.2-0.3,2.3-0.2,3.3c0.1,1,0.3,1.7,0.6,2.2
					c0.1,0.3,0.2,0.4,0.3,0.6c0.1,0.1,0.1,0.2,0.1,0.2s-0.1-0.1-0.1-0.2c-0.1-0.1-0.2-0.3-0.4-0.6c-0.3-0.5-0.5-1.3-0.6-2.2
					c-0.1-1-0.1-2.1,0.1-3.3c0.1-0.6,0.3-1.2,0.5-1.8c0.2-0.6,0.5-1.2,1-1.7c0.1-0.1,0.2-0.2,0.3-0.4c0.1-0.1,0.3-0.2,0.4-0.3
					l0.4-0.3c0.1-0.1,0.2-0.2,0.3-0.3c0.4-0.4,0.8-1,1.1-1.5c0.6-1,0.9-2.1,1.2-3c0.3-0.9,0.4-1.7,0.5-2.3c0.1-0.5,0.1-0.9,0.1-0.9
					L44.4,54.9z"/>
			</g>
		</g>
	</g>
</g>
</svg>
