<?xml version="1.0" encoding="utf-8"?>
<!-- Generator: Adobe Illustrator 18.0.0, SVG Export Plug-In . SVG Version: 6.00 Build 0)  -->
<svg version="1.2" baseProfile="tiny" id="Default_g_x2B__icon"
	 xmlns="http://www.w3.org/2000/svg" xmlns:xlink="http://www.w3.org/1999/xlink" x="0px" y="0px" viewBox="288 378 36 36"
	 xml:space="preserve">
<g>
	<path fill="#FFFFFF" d="M306.1,378.3c-10,0-18.1,8.1-18.1,18.1c0,8,5.2,14.8,12.4,17.2c0.9,0.2,1.2-0.4,1.2-0.9c0-0.4,0-1.8,0-3.3
		c-5.1,1.1-6.1-2.1-6.1-2.1c-0.8-2.1-2-2.6-2-2.6c-1.6-1.1,0.1-1.1,0.1-1.1c1.8,0.1,2.7,1.8,2.7,1.8c1.6,2.7,4.3,1.9,5.3,1.5
		c0.2-1.2,0.6-1.9,1.1-2.4c-4.1-0.5-8.3-2-8.3-8.9c0-2,0.7-3.5,1.8-4.9c-0.2-0.5-0.8-2.3,0.2-4.8c0,0,1.5-0.5,5,1.8
		c1.4-0.4,3-0.6,4.6-0.6s3.1,0.2,4.6,0.6c3.4-2.3,5-1.8,5-1.8c1,2.5,0.4,4.4,0.2,4.8c1.1,1.3,1.8,2.8,1.8,4.9c0,7-4.3,8.5-8.3,8.9
		c0.6,0.6,1.2,1.6,1.2,3.3c0,2.4,0,4.4,0,5c0,0.5,0.3,1,1.2,0.9c7.2-2.4,12.4-9.2,12.4-17.2C324.3,386.5,316.2,378.3,306.1,378.3z"
		/>
	<path fill="#FFFFFF" d="M294.9,404.3c0,0.1-0.2,0.1-0.3,0.1c-0.1-0.1-0.2-0.2-0.2-0.3c0-0.1,0.2-0.1,0.3-0.1
		C294.9,404.1,294.9,404.3,294.9,404.3L294.9,404.3z"/>
	<path fill="#FFFFFF" d="M295.6,405.2c-0.1,0.1-0.3,0-0.4-0.1s-0.1-0.3-0.1-0.4c0.1-0.1,0.2,0,0.4,0.1
		C295.7,405,295.7,405.2,295.6,405.2L295.6,405.2z"/>
	<path fill="#FFFFFF" d="M296.3,406.3c-0.1,0.1-0.3,0-0.4-0.2c-0.1-0.2-0.1-0.4,0-0.4c0.1-0.1,0.3,0,0.4,0.2
		C296.4,406,296.4,406.2,296.3,406.3L296.3,406.3z"/>
	<path fill="#FFFFFF" d="M297.3,407.3c-0.1,0.1-0.3,0.1-0.5-0.1c-0.2-0.1-0.2-0.3-0.1-0.5c0.1-0.1,0.3-0.1,0.5,0.1
		C297.3,407,297.4,407.2,297.3,407.3L297.3,407.3z"/>
	<path fill="#FFFFFF" d="M298.6,407.9c0,0.1-0.2,0.2-0.4,0.1c-0.2-0.1-0.3-0.2-0.3-0.4c0-0.1,0.2-0.2,0.4-0.1
		C298.5,407.5,298.7,407.7,298.6,407.9L298.6,407.9z"/>
	<path fill="#FFFFFF" d="M300.2,408c0,0.1-0.2,0.3-0.4,0.3c-0.2,0-0.4-0.1-0.4-0.3c0-0.1,0.2-0.3,0.4-0.3
		C300,407.7,300.2,407.8,300.2,408L300.2,408z"/>
	<path fill="#FFFFFF" d="M301.5,407.7c0,0.1-0.1,0.3-0.3,0.3c-0.2,0-0.4-0.1-0.4-0.2s0.1-0.3,0.3-0.3
		C301.3,407.5,301.5,407.6,301.5,407.7L301.5,407.7z"/>
</g>
</svg>
