<?xml version="1.0" encoding="utf-8"?>
<!-- Generator: Adobe Illustrator 18.0.0, SVG Export Plug-In . SVG Version: 6.00 Build 0)  -->
<svg version="1.2" baseProfile="tiny" id="Layer_1" xmlns="http://www.w3.org/2000/svg" xmlns:xlink="http://www.w3.org/1999/xlink"
	 x="0px" y="0px" viewBox="378 288 36 36" xml:space="preserve">
<polygon fill="#FFFFFF" points="406.7,311.1 406.7,299.3 409.2,299.3 409.2,311.1 406.7,311.1 "/>
<polygon fill="#FFFFFF" points="402,306.3 402,304 413.9,304 413.9,306.3 402,306.3 "/>
<path fill="#FFFFFF" d="M398.9,289.9h-2.8c1.1,0.9,3.3,2.6,3.3,6.2c0,3.5-2,5.1-4,6.7c-0.6,0.6-1.3,1.3-1.3,2.3c0,1,0.7,1.6,1.2,2
	l1.7,1.3c2.1,1.7,4,3.3,4,6.6c0,4.4-4.5,8.9-12.7,8.9c-6.9,0-10.1-3.3-10.1-6.8c0-1.7,0.9-4.1,3.7-5.8c3-1.8,7-2,9.1-2.2
	c-0.7-0.8-1.4-1.7-1.4-3.2c0-0.8,0.2-1.3,0.5-1.8c-0.5,0-1.1,0.1-1.5,0.1c-5.1,0-7.9-3.7-7.9-7.4c0-2.2,0.7-4.7,2.7-6.5
	c2.7-2.2,6.2-2.5,8.8-2.5l10,0L398.9,289.9L398.9,289.9z M386.4,311.4c-1.1,0.4-4.1,1.5-4.1,4.9c0,3.3,3.3,5.8,8.4,5.8
	c4.6,0,7-2.2,7-5.1c0-2.4-1.6-3.7-5.2-6.2c-0.4,0-0.6,0-1.1,0C391,310.6,388.4,310.7,386.4,311.4L386.4,311.4z M389.1,289.7
	c-1.2,0-2.6,0.5-3.4,1.4c-0.8,1-1.1,2.4-1.1,3.6c0,3.2,1.9,8.4,6,8.4c1.2,0,2.5-0.7,3.3-1.4c1.1-1.1,1.2-2.5,1.2-3.3
	C395.1,295,393.1,289.7,389.1,289.7L389.1,289.7z"/>
</svg>
