<?xml version="1.0" encoding="utf-8"?>
<!-- Generator: Adobe Illustrator 18.0.0, SVG Export Plug-In . SVG Version: 6.00 Build 0)  -->
<!DOCTYPE svg PUBLIC "-//W3C//DTD SVG 1.1//EN" "http://www.w3.org/Graphics/SVG/1.1/DTD/svg11.dtd">
<svg version="1.1" id="Layer_1" xmlns="http://www.w3.org/2000/svg" xmlns:xlink="http://www.w3.org/1999/xlink" x="0px" y="0px"
	 viewBox="0 0 100 100" enable-background="new 0 0 100 100" xml:space="preserve">
<g>
	<g>
		<g>
			<path fill="#B4B4B4" d="M78.8,81.4c0,0-6.5,19.5-41.6,8.1c-32.2-10.4,37.8-39,35.3-38l4.9,9.4L78.8,81.4z"/>
			<path fill="#979797" d="M62.2,58.4c0,0-0.2,28.1-2.2,37.4c-0.4,1.8-3,2.8-6.3,3.9c-3.3,1.1-4.1-1.3-3.7-3.5s4.1-5,4.1-5l0.7-29.7
				"/>
			<path fill="#979797" d="M62.7,4.7c0,0-0.9-4.1,6.2-4.2c4.5,0,8,5,8,5.5s2.2,4.4-2.5,7.3S61.9,6.9,61.9,6.9L62.7,4.7z"/>
			<path fill="#979797" d="M73.8,55.4c0,0,0.2,28.1,2.2,37.4c0.4,1.8,3,2.8,6.3,3.9s4.1-1.3,3.7-3.5c-0.4-2.2-4.1-5-4.1-5
				s-0.2-22.5-1-30.1"/>
			<path fill="#979797" d="M36.3,10l-6.5-8.7c0,0-4.7-3-8.7,0.2s-7.8,7-7.8,7s-2.8,4-0.6,7.6s4.7,4.3,4.7,4.3s4.8,3.7,7.3-2.4
				s4.6-4.7,4.6-4.7l1.1,1.3l4.6-2.3L36.3,10z"/>
			<path fill="#979797" d="M21.8,78.1c0,0-10.1-11.9-3.4-28.3C5.7,70,20.8,85.3,20.8,85.3"/>
			<path fill="#979797" d="M35.7,76.2c-1.8,1.5,3.3-8.6,3.3-8.6s3.9,15,0,18.9c5.2,2.6,7.2,3.4,5.5,8.9c-0.7,2.4-22.7-2.6-23.5-9.3
				c-0.8-6.7,4.3-60.5,4.3-60.5c0,1,2.2-15.5,17.9-20c12.1-3.5,17.9-1.6,26.4,3.6c5,3,6.1,3.7,12.3,7.8c7.5,5.1,5.2,11.3-3.1,18.3
				c1.2,10.1,2.8,30.4,2.6,32.8C81.4,68.2,72.1,45.9,35.7,76.2z"/>
			<path fill="#B4B4B4" d="M77.6,36.4c0,0-20,10.5-34.8,3.9S47,27.6,47,27.6s35.2-4,35.2,1.7C82.3,33,77.6,36.4,77.6,36.4z"/>
		</g>
		<path fill="#505050" d="M42.5,19.6c0.1,0.7,0.4,1.2,0.8,1.7c0.4,0.5,0.9,0.8,1.5,1.2c0.3,0.2,0.6,0.3,0.8,0.5l0.9,0.4
			c0.6,0.2,1.2,0.5,1.8,0.7c0.6,0.2,1.2,0.4,1.8,0.5c0.6,0.2,1.2,0.3,1.9,0.4c0.6,0.1,1.3,0.2,1.9,0.3c0.6,0.1,1.3,0.2,1.9,0.2
			c0.6,0,1.3,0.1,1.9,0.1c0.6,0,1.3,0,1.9-0.1l0.9-0.1l0.9-0.1c0.6-0.1,1.2-0.2,1.8-0.4c0.6-0.2,1.2-0.4,1.7-0.7
			c0.5-0.3,1-0.6,1.5-1c0.2-0.2,0.4-0.4,0.6-0.6c0.2-0.2,0.3-0.5,0.5-0.7c0.1-0.3,0.2-0.5,0.4-0.8l0.3-0.8l0,0
			c0.1-0.4,0.5-0.6,0.9-0.5c0.3,0.1,0.5,0.3,0.5,0.6c0,0.4,0,0.7,0.1,1.1c0,0.2,0.1,0.3,0.1,0.5c0.1,0.2,0.1,0.3,0.2,0.5
			c0.1,0.2,0.1,0.3,0.3,0.5c0.1,0.1,0.2,0.3,0.3,0.4c0.2,0.3,0.5,0.5,0.8,0.7c0.6,0.4,1.3,0.7,2,0.9c0.4,0.1,0.7,0.2,1.1,0.2
			c0.4,0,0.8,0.1,1.2,0.1c0.8,0,1.6,0,2.4-0.1c0.4,0,0.8-0.1,1.2-0.2c0.4-0.1,0.8-0.2,1.2-0.3c0.8-0.2,1.5-0.5,2.2-0.9
			c0.3-0.2,0.7-0.4,0.9-0.7c0.3-0.3,0.5-0.6,0.5-1.1c0,0.4-0.2,0.8-0.4,1.2c-0.2,0.4-0.6,0.6-0.9,0.9c-0.7,0.5-1.4,0.9-2.2,1.2
			c-0.8,0.3-1.6,0.6-2.4,0.7c-0.8,0.2-1.6,0.3-2.5,0.3c-0.4,0-0.8,0-1.3,0c-0.4,0-0.8-0.1-1.3-0.2c-0.4-0.1-0.8-0.2-1.3-0.4
			c-0.4-0.2-0.8-0.4-1.2-0.6c-0.4-0.2-0.7-0.5-1-0.9c-0.2-0.2-0.3-0.3-0.4-0.5c-0.1-0.2-0.3-0.4-0.4-0.6c-0.1-0.2-0.2-0.4-0.3-0.6
			c-0.1-0.2-0.2-0.4-0.2-0.7c-0.1-0.4-0.2-0.9-0.2-1.3l1.4,0.1l-0.3,1c-0.2,0.3-0.3,0.7-0.5,1c-0.2,0.3-0.4,0.6-0.6,0.9
			c-0.2,0.3-0.5,0.6-0.7,0.8c-1.1,1-2.4,1.6-3.7,2c-0.7,0.2-1.3,0.3-2,0.5l-1,0.1l-1,0.1c-0.7,0-1.3,0-2,0c-0.7,0-1.3-0.1-2-0.1
			c-2.6-0.3-5.2-0.9-7.7-2c-0.6-0.3-1.2-0.5-1.8-0.9c-0.3-0.2-0.6-0.3-0.9-0.5c-0.3-0.2-0.5-0.4-0.8-0.6c-0.5-0.4-1-0.8-1.4-1.4
			C42.7,20.9,42.4,20.2,42.5,19.6z"/>
		<polyline points="71.7,18.8 68.8,21.2 66.2,18.5 		"/>
		<g>
			<g>
				<path d="M46.9,13.1c0,2.9,3.9,5.2,8.7,5.2s8.7-2.3,8.7-5.2"/>
				<path d="M67.4,13.1c0,2.9,3.9,5.2,8.7,5.2s8.7-2.3,8.7-5.2"/>
				<rect x="39.2" y="11.2" width="45.6" height="1.9"/>
				<g>
					<path d="M37.8,14.6h-2c0-2,1.5-3.4,3.5-3.4v1.9C38.4,13.1,37.8,13.8,37.8,14.6z"/>
				</g>
			</g>
			<path fill="#EBFEFF" d="M70.6,13.6c0,0,2.3,0.6,2.6-0.1C73.6,12.8,69.6,13,70.6,13.6z"/>
			<path fill="#EBFEFF" d="M49.6,13.6c0,0,2.3,0.6,2.6-0.1C52.6,12.8,48.6,13,49.6,13.6z"/>
		</g>
	</g>
</g>
<circle fill="#505050" cx="53.8" cy="21.8" r="0.6"/>
<circle fill="#505050" cx="58.1" cy="21.8" r="0.6"/>
<circle fill="#505050" cx="55.9" cy="19.6" r="0.6"/>
<circle fill="#505050" cx="76.6" cy="21.8" r="0.6"/>
<circle fill="#505050" cx="80.9" cy="21.8" r="0.6"/>
<circle fill="#505050" cx="78.8" cy="19.6" r="0.6"/>
<path fill="#757575" d="M28.6,12.3c0,0-2.6-8.5-4.1-8.5c-1.4,0-15.1,7.3-12.1,12.6c0.7,1.2,7.6,7.3,10.6,2.7
	C24.4,17,24.1,11.9,28.6,12.3z"/>
</svg>
