<?xml version="1.0" encoding="utf-8"?>
<!-- Generator: Adobe Illustrator 19.1.0, SVG Export Plug-In . SVG Version: 6.00 Build 0)  -->
<svg version="1.2" baseProfile="tiny" id="Layer_1" xmlns="http://www.w3.org/2000/svg" xmlns:xlink="http://www.w3.org/1999/xlink"
	 x="0px" y="0px" viewBox="-265 346.8 79.9 101.2" xml:space="preserve">
<g>
	<circle fill="#404BBA" cx="-226.7" cy="395.8" r="37.1"/>
	<circle fill="#1D66C4" cx="-227.9" cy="396.5" r="37.1"/>
	<path fill="#FCCC81" d="M-220.1,407.8c-0.5-0.1-0.9,0.2-1,0.6c0,0.4,0.3,0.7,0.8,0.8l4.8,0.6c0.5,0.1,0.9-0.2,1-0.6
		s-0.3-0.7-0.8-0.8L-220.1,407.8z"/>
	<path fill="#E9DFFF" d="M-241.4,375.3l-5.2,1.8c0,0,2.2,5.3,2.9,6.9c0.2,0.4,0.2,0.7,1.6,1.1c2,0.5,3.6,1.1,5.2,1.5
		c1.6,0.4-0.1-1.9-0.1-1.9l-1.4-2.6l1.2-1.4L-241.4,375.3z"/>
	
		<rect x="-234" y="388.6" transform="matrix(-0.8497 0.5273 -0.5273 -0.8497 -205.6801 857.5088)" fill="#FFFFFF" width="17.9" height="21.7"/>
	<line fill="none" x1="-243.7" y1="386.5" x2="-228.5" y2="377"/>
	<line fill="none" x1="-243.5" y1="386.5" x2="-228.4" y2="377.1"/>
	
		<rect x="-238.5" y="377.2" transform="matrix(-0.5273 -0.8497 0.8497 -0.5273 -684.4366 391.6392)" fill="#FFA724" width="10.4" height="17.9"/>
	<circle fill="#FF8B00" cx="-233.3" cy="386.3" r="3.9"/>
	<polygon fill="#6B4436" points="-232.7,384.5 -234.8,385.8 -234.4,386.6 -232.2,385.1 	"/>
	<path fill="#1D66C4" d="M-232.9,384.4l0.8-0.5c0,0,0.2-0.1,0.2,0.1c0,0.2,0,0.2-0.1,0.2c-0.1,0.1-2.9,1.7-2.9,1.7s-0.3-0.4-0.4-0.6
		c-0.1-0.2-0.2-0.7,0.3-1c0.5-0.4,0.6-0.4,0.7-0.4C-234.1,383.7-233.3,383.4-232.9,384.4z"/>
	<path fill="#E1F5FC" d="M-230.4,389c-0.3-0.2-0.6-0.5-0.9-1c-0.4,0.7-1.5,0.9-2.1,1c0.1,0.5,0.2,0.9,0.2,1.2c0.7,0,1.3-0.2,1.9-0.6
		C-230.9,389.4-230.7,389.2-230.4,389z"/>
	<path fill="#E9DFFF" d="M-231.8,385.8c0,0-0.3-0.7-0.6-0.9c-0.4,0.3-1.5,0.4-1.5,0.4l-0.2,0.1l0.1,0.8c0,0-0.4-0.2-0.9-0.4
		c-0.5,0.2-0.1,0.6,0,0.7c0.5,0.2,1.3,0.4,1.3,1.4c0,0.4,0.1,0.8,0.1,1.1c0.6-0.1,1.6-0.3,2.1-1c-0.5-0.8-0.8-1.8-0.9-2.1
		C-232.1,385.9-231.8,385.8-231.8,385.8z"/>
	<rect x="-232.8" y="385.6" transform="matrix(-0.9737 -0.228 0.228 -0.9737 -547.3414 708.03)" width="0.1" height="0.1"/>
	<circle fill="#3B83F3" cx="-218.9" cy="399" r="2"/>
	<circle fill="#0080FF" cx="-231.1" cy="400.4" r="2"/>
	<path fill="#FFFFFF" d="M-231.6,399.5c-0.4,0.2-0.5,0.7-0.2,1c0.3,0.5,1.4,0.8,1.4,0.8s0.2-1.1-0.1-1.6
		C-230.8,399.4-231.3,399.3-231.6,399.5z M-231.1,400.4c-0.1,0.1-0.3,0-0.4-0.1c-0.1-0.1,0-0.3,0.1-0.4c0.1-0.1,0.3,0,0.4,0.1
		C-230.9,400.1-230.9,400.3-231.1,400.4z"/>
	<circle fill="#FFFFFF" cx="-219.8" cy="399.4" r="0.2"/>
	<circle fill="#FFFFFF" cx="-218.2" cy="398.4" r="0.2"/>
	<polygon fill="#FFFFFF" points="-219.2,398.6 -219.2,398.6 -219.2,398.6 -219.3,398 -219.3,398 -218.9,397.9 -218.8,397.9 
		-218.9,397.9 -219.3,398 -219.1,398.6 	"/>
	
		<rect x="-218.8" y="397.7" transform="matrix(0.9737 0.228 -0.228 0.9737 84.937 60.3369)" fill="#FFFFFF" width="0.3" height="0.3"/>
	
		<ellipse transform="matrix(-0.8497 0.5273 -0.5273 -0.8497 -194.2753 853.6763)" fill="#FFFFFF" cx="-218.8" cy="399.1" rx="1" ry="0.7"/>
	<path fill="#FFFFFF" d="M-219,399.6c0.1,0,0.3,0,0.4-0.1"/>
	<path d="M-218.6,399.5c-0.2,0.1-0.3,0.1-0.4,0.1l0,0l0,0C-218.9,399.6-218.8,399.6-218.6,399.5L-218.6,399.5L-218.6,399.5z"/>
	<path fill="#FFFFFF" d="M-218.4,399.2c0,0.1-0.1,0.2-0.2,0.3"/>
	<path d="M-218.6,399.5L-218.6,399.5L-218.6,399.5c0.1-0.1,0.2-0.2,0.2-0.3l0,0l0,0C-218.3,399.3-218.4,399.4-218.6,399.5z"/>
	
		<rect x="-219.3" y="399.1" transform="matrix(-0.2279 0.9737 -0.9737 -0.2279 119.566 703.6498)" fill="#FF4500" width="0.2" height="0.2"/>
	
		<rect x="-218.7" y="398.7" transform="matrix(-0.2279 0.9737 -0.9737 -0.2279 119.9746 702.5037)" fill="#FF4500" width="0.2" height="0.2"/>
	<circle fill="#3A589E" cx="-226.3" cy="397.6" r="2"/>
	<path fill="#FFFFFF" d="M-225.7,398.3c-0.2-0.2-0.3-0.5-0.5-0.7l0.2-0.1l0-0.1l-0.1-0.2l0,0l-0.2,0.1l-0.1,0l-0.1-0.2l0-0.2
		l0.2-0.1l0-0.1l-0.1-0.2c-0.2,0.1-0.3,0.2-0.4,0.3c-0.1,0.1-0.1,0.2,0,0.3c0,0.1,0.1,0.2,0.2,0.3l0,0l-0.2,0.2
		c0.1,0.1,0.1,0.2,0.2,0.3l0,0l0.2-0.1l0,0l0.4,0.7L-225.7,398.3z"/>
	<circle fill="#1076FF" cx="-229.1" cy="393.3" r="2"/>
	<polygon fill="#FFFFFF" points="-228.9,392.3 -230,393 -230.1,393.2 -229.3,394.4 -229.2,394 -228.2,393.4 -228.2,393.2 
		-228.7,392.4 	"/>
	<circle fill="#2A5B83" cx="-223.6" cy="401.9" r="2"/>
	<path fill="#895A4D" d="M-223.5,400.7l-1.3,0.8c-0.1,0.1-0.2,0.2-0.1,0.4l0.3,0.4l1.8-1.1l-0.3-0.4
		C-223.3,400.6-223.4,400.6-223.5,400.7z"/>
	<polygon fill="#FF3939" points="-225,401.6 -224.6,402.2 -224.5,402.1 -224.9,401.5 	"/>
	
		<rect x="-224.7" y="401.4" transform="matrix(0.8497 -0.5273 0.5273 0.8497 -245.6156 -58.0384)" fill="#FED049" width="0.1" height="0.8"/>
	
		<rect x="-224.6" y="401.3" transform="matrix(0.8496 -0.5275 0.5275 0.8496 -245.6648 -57.9856)" fill="#10DD76" width="0.1" height="0.8"/>
	
		<rect x="-224.4" y="401.3" transform="matrix(0.8497 -0.5273 0.5273 0.8497 -245.5105 -57.9428)" fill="#5FCCFF" width="0.1" height="0.8"/>
	<circle fill="#162838" cx="-223.4" cy="401.1" r="0.2"/>
	
		<rect x="-223.5" y="401" transform="matrix(0.9737 0.2279 -0.2279 0.9737 85.5221 61.4776)" fill="#2C4356" width="0.1" height="0.1"/>
	<rect x="-223.5" y="401" transform="matrix(0.9737 0.228 -0.228 0.9737 85.5545 61.5068)" fill="#47637A" width="0" height="0"/>
	<path fill="#E5E0DC" d="M-224.7,402.3l0.5,0.9c0.1,0.1,0.2,0.2,0.4,0.1l1.3-0.8c0.1-0.1,0.2-0.2,0.1-0.4l-0.5-0.9L-224.7,402.3z"/>
	<polygon fill="#75483D" points="-223.3,401.4 -223.5,401.4 -223.4,401.5 	"/>
	<path fill="#D0CBC5" d="M-223.6,401.6l-0.2,0.9l0.9,0.2l0.5-0.3c0.1-0.1,0.2-0.2,0.1-0.4l-0.3-0.5l-0.7-0.2L-223.6,401.6z"/>
	<circle fill="#DCD7D3" cx="-223.7" cy="402" r="0.6"/>
	<circle fill="#162838" cx="-223.7" cy="402" r="0.5"/>
	<circle fill="#2C4356" cx="-223.7" cy="402" r="0.3"/>
	
		<rect x="-223.7" y="401.9" transform="matrix(0.9737 0.2279 -0.2279 0.9737 85.7189 61.5482)" fill="#162838" width="0.2" height="0.2"/>
	
		<rect x="-223.7" y="401.7" transform="matrix(0.9737 0.2279 -0.2279 0.9737 85.6695 61.53)" fill="#47637A" width="0.1" height="0.1"/>
	<circle fill="#FFFA38" cx="-228.4" cy="404.8" r="2"/>
	<path fill="#020202" d="M-228.9,403.9L-228.9,403.9L-228.9,403.9c-0.1,0-0.2,0.1-0.2,0.2l-0.1,0.2l0,0.2c0,0.1,0.1,0.3,0.2,0.4l0,0
		l0,0l-0.1,0l0,0l0,0l0,0.1l0.1,0l0.1,0l0,0l0.1,0l0,0.1c0,0,0,0.1,0,0.2l-0.1,0.2l-0.1,0.2l0,0.1l0,0l0.1,0l0.2-0.1l0,0l0,0l0.1,0
		l0,0l0.1-0.1l0.1,0l0.2,0c0.1,0,0.2,0,0.3-0.1l0,0l0,0c0.1-0.1,0.2-0.2,0.2-0.3l0.1-0.1l0.1,0l0.1,0l0,0l0-0.1l0,0l0,0l0.1-0.2
		l0-0.1l0,0l-0.1,0c-0.3,0.1-0.5-0.1-0.5-0.1l0-0.1l0.1-0.1l0,0l0-0.1l0-0.1l-0.1,0l0,0l0,0l-0.1,0.1l0,0l0,0l0,0
		c-0.1-0.1-0.2-0.3-0.3-0.4l-0.2-0.1l-0.2,0C-228.8,403.8-228.8,403.9-228.9,403.9"/>
	<path fill="#FFFFFF" d="M-228.9,403.9c0.1,0,0.3-0.2,0.6,0c0.1,0.1,0.2,0.2,0.2,0.3l0,0.1l0,0l0,0l0.1,0l0.1-0.1l0,0l0,0l0,0l0,0.1
		l0,0l-0.1,0.2l0.1,0.1c0,0,0.3,0.2,0.6,0.1l0,0c0,0,0,0.1-0.2,0.2l0,0.1l0,0l0,0l0,0l-0.1,0.1l-0.1,0.1l-0.1,0.2
		c0,0.1-0.1,0.2-0.2,0.2l0,0l0,0c-0.1,0.1-0.2,0.1-0.3,0l-0.2,0l-0.1,0l-0.1,0.1l0,0l0,0l0,0l-0.1,0c-0.2,0.1-0.2,0.1-0.3,0.1l0,0
		c0.2-0.2,0.2-0.5,0.2-0.6l0-0.1l-0.2,0l0,0l-0.1,0l0-0.1l0,0l0.1,0l0.1-0.1l0,0l0,0l0-0.1c-0.1-0.1-0.2-0.3-0.2-0.4
		C-229.2,404.1-229,404-228.9,403.9L-228.9,403.9"/>
	<circle fill="#3A00D2" cx="-233.8" cy="396.1" r="2"/>
	<path fill="#FFFFFF" d="M-234.2,396.3c0.3,0.2,0.6,0.2,0.9,0.2l0.1-0.3l0.1-0.1c0.1,0,0.2-0.1,0.3-0.1l0.1,0l0.2,0.3l0,0.1
		c-0.8,0.5-1.8,0.2-2.2-0.5l0-0.1l0.3-0.2l0.1,0c0.1,0.1,0.1,0.2,0.2,0.3l0,0.1L-234.2,396.3z"/>
	<circle fill="#E04C40" cx="-224.4" cy="390.3" r="2"/>
	<path fill="#FFFFFF" d="M-224.1,389.2l-1.3,0.8l-0.1,0.3l0.6,1l0.3,0.1l1.3-0.8l0.1-0.3l-0.6-1L-224.1,389.2z M-223.9,389.6
		l-0.4,0.8l-0.9,0l-0.1-0.2l0.9,0l0.4-0.8L-223.9,389.6z"/>
	<circle fill="#28AAE1" cx="-221.6" cy="394.6" r="2"/>
	<path fill="#FFFFFF" d="M-221,393.5l-0.2,0.2c0-0.1,0.1-0.2,0-0.3l-0.2,0.2c-0.1,0-0.2,0-0.3,0.1c-0.2,0.1-0.3,0.4-0.1,0.6l0.1,0.1
		c-0.3,0.2-0.7,0.2-1,0.1l0.1,0.2c0.1,0.1,0.2,0.2,0.3,0.2l-0.2,0.1l0,0c0.1,0.2,0.3,0.2,0.5,0.2l-0.1,0.1l-0.1,0
		c0.1,0.1,0.3,0.1,0.5,0c-0.1,0.2-0.2,0.3-0.3,0.4l-0.1,0c0.2,0,0.4-0.1,0.6-0.2c0.7-0.4,0.7-1.2,0.4-1.6l0,0
		C-221,393.7-221,393.7-221,393.5z"/>
	<circle fill="#E52D27" cx="-225.7" cy="408.9" r="2"/>
	<path fill="#FFFFFF" d="M-225,407.9c0,0-0.1-0.1-0.2-0.2c-0.1,0-0.2,0-0.2,0c-0.3,0.1-0.7,0.4-0.7,0.4s-0.4,0.3-0.7,0.5
		c0,0-0.1,0.1-0.1,0.2c0,0.1,0,0.2,0,0.2s0.1,0.2,0.2,0.3l0.1,0.1c0.1,0.2,0.2,0.3,0.2,0.3s0.1,0.1,0.2,0.2c0.1,0,0.2,0,0.3-0.1
		c0.2-0.1,0.7-0.4,0.7-0.4s0.4-0.3,0.7-0.5c0,0,0.1-0.1,0.1-0.2c0-0.1,0-0.2,0-0.2s-0.1-0.2-0.2-0.3l-0.1-0.1
		C-224.9,408.1-225,407.9-225,407.9z M-225.8,409.3l-0.3-0.6l0.7-0.1L-225.8,409.3z"/>
	<circle fill="#0274B3" cx="-216.3" cy="403.2" r="2"/>
	<circle fill="#FC6520" cx="-221" cy="406.2" r="2"/>
	<path fill="#FFFFFF" d="M-222.2,406.8L-222.2,406.8l0.1,0.1l0.1,0.1l0,0l0,0l-0.1-0.1L-222.2,406.8L-222.2,406.8z M-222.2,406.6
		L-222.2,406.6L-222.2,406.6l0.1,0.2l0.1,0.2l0,0l0,0l-0.1-0.2L-222.2,406.6z M-221.9,406.2L-221.9,406.2l0.2,0.4l0.2,0.2l0,0l0,0
		l-0.1-0.2L-221.9,406.2L-221.9,406.2z M-222,406.5L-222,406.5l0.1,0.3l0.2,0.2l0,0l0,0l-0.1-0.2L-222,406.5L-222,406.5z
		 M-221.4,406.8L-221.4,406.8l-0.1-0.3l-0.3-0.5l0,0l0,0l0.3,0.5L-221.4,406.8L-221.4,406.8z M-221,406.5L-221,406.5l-0.1-0.3
		l-0.4-0.5l0,0l0,0l0.3,0.6L-221,406.5L-221,406.5z M-221.2,406.7L-221.2,406.7l-0.1-0.3l-0.3-0.5l0,0l0,0l0.3,0.5L-221.2,406.7
		L-221.2,406.7z M-221.6,406.9L-221.6,406.9l-0.1-0.3l-0.2-0.2l0,0l0,0l0.1,0.2L-221.6,406.9L-221.6,406.9z M-221.8,407L-221.8,407
		l-0.1-0.3l-0.2-0.2l0,0l0,0l0.1,0.2L-221.8,407L-221.8,407z M-221.6,405.9L-221.6,405.9l0.3,0.5l0.2,0.2l0,0l0,0l-0.1-0.2
		L-221.6,405.9L-221.6,405.9z M-221.5,406.8L-221.5,406.8l-0.1-0.3l-0.3-0.4l0,0l0,0l0.3,0.5L-221.5,406.8L-221.5,406.8z
		 M-221.3,406.7L-221.3,406.7l-0.1-0.2l-0.3-0.5l0,0l0,0l0.3,0.5L-221.3,406.7L-221.3,406.7L-221.3,406.7z M-220.4,405.4
		L-220.4,405.4c-0.3-0.1-0.6-0.2-0.8-0.1l-0.2,0.1l0,0l0.5,0.9l0,0l0.8-0.5c0.1-0.1,0.2-0.3,0.1-0.4
		C-220.1,405.4-220.3,405.3-220.4,405.4z M-221.5,405.6L-221.5,405.6l0.4,0.7l0.1,0.2l0,0l0,0l-0.1-0.2L-221.5,405.6L-221.5,405.6z"
		/>
	<path fill="#E9DFFF" d="M-234.9,383.7c0.2-0.2,0.2-0.6,0-0.8l-4.1-4.2c-0.2-0.2-0.6-0.2-0.8,0l-0.4,0.4c-0.2,0.2-0.2,0.6,0,0.8
		l4.1,4.2c0.2,0.2,0.6,0.2,0.8,0L-234.9,383.7z"/>
	<polygon fill="#E1F5FC" points="-240.1,346.8 -245,357.6 -241,375.2 -246.6,377.1 -253.4,358.2 -252.1,346.8 	"/>
	<circle fill="#FAFAFA" cx="-244.5" cy="412.8" r="8"/>
	<circle fill="#DCDCDC" cx="-245" cy="412.6" r="5.2"/>
	<circle fill="#8D6F64" cx="-245" cy="412.6" r="4"/>
	
		<ellipse transform="matrix(-0.6606 -0.7507 0.7507 -0.6606 -706.4091 498.2836)" fill="#DCDCDC" cx="-240.6" cy="408.8" rx="0.8" ry="1.5"/>
	<path fill="#93B9F9" d="M-208,407l-2.5,5.9l15.1,9.1c0,0,10.7,25.8,11.1,26c0.4,0.3-0.4-21.9-0.4-21.9s-4.8-10.4-5.4-10.4
		C-190.6,415.7-208,407-208,407z"/>
	<path fill="#689DF7" d="M-206.5,407.7l-2.5,6l2,1.2l2.6-6.2C-205.3,408.3-206,408-206.5,407.7z"/>
	<path fill="#689DF7" d="M-202.3,409.8l-2.7,6.4l2,1.2l2.8-6.6C-201,410.5-201.7,410.1-202.3,409.8z"/>
	<path fill="#689DF7" d="M-197.8,412l-2.9,6.8l2,1.2l2.9-7C-196.4,412.7-197.1,412.4-197.8,412z"/>
	<path fill="#689DF7" d="M-193.3,414.2l-3,7.2l0.9,0.5c0,0,0.2,0.6,0.7,1.6l3.5-8.4C-191.8,414.9-192.5,414.6-193.3,414.2z"/>
	<path fill="#689DF7" d="M-189,417.1l-4.2,10c0.4,0.9,0.8,1.9,1.2,2.9l4.4-10.4C-188.2,418.8-188.6,417.9-189,417.1z"/>
	<path fill="#689DF7" d="M-186.4,422.4l-4.5,10.6c0.4,1,0.8,2,1.2,2.9l4.5-10.8C-185.4,424.5-185.8,423.5-186.4,422.4z"/>
	<path fill="#689DF7" d="M-184.6,431.1l-3.5,8.3c0.4,1,0.9,2,1.2,2.9l2.3-5.4C-184.6,434.9-184.6,432.9-184.6,431.1z"/>
	<path fill="#A1887F" d="M-213.7,403.6l-2.8-2.5c-0.4-0.3-0.9-0.4-1.1-0.1c-0.3,0.3-0.2,0.8,0.2,1.1l2.1,1.8l-0.2,0l-3.5-2.4
		c-0.4-0.3-0.9-0.3-1.1,0.1c-0.2,0.3-0.1,0.8,0.3,1.1l3.1,2.2l-0.2,0.1l-4.1-2.1c-0.4-0.2-0.9-0.1-1.1,0.2c-0.2,0.3,0,0.8,0.5,1
		l4.2,2.1l0,0.1l-4.2-0.9c-0.5-0.1-0.9,0.1-1,0.5c-0.1,0.4,0.2,0.8,0.7,0.9l4.4,1c0,0,1,0.3,0,0.9c-1,0.5,2,1.4,2,1.4
		s-0.1-0.1,2.3-0.2c1.6-0.1,3,0.5,3,0.5l-0.1-2.9L-213.7,403.6z"/>
	<path fill="#FCCC81" d="M-213.7,403.1l-2.8-2.5c-0.4-0.3-0.9-0.4-1.1-0.1c-0.3,0.3-0.2,0.8,0.2,1.1l2.1,1.8l-0.2,0l-3.5-2.4
		c-0.4-0.3-0.9-0.3-1.1,0.1c-0.2,0.3-0.1,0.8,0.3,1.1l3.1,2.2l-0.2,0.1l-4.1-2.1c-0.4-0.2-0.9-0.1-1.1,0.2c-0.2,0.3,0,0.8,0.5,1
		l4.2,2.1l0,0.1l-4.2-0.9c-0.5-0.1-0.9,0.1-1,0.5c-0.1,0.4,0.2,0.8,0.7,0.9l4.4,1c0,0,1,0.3,0,0.9c-1,0.5-0.3,1.4-0.3,1.4
		s2.2,2.1,4.6,2.1c1.6-0.1,3,0.5,3,0.5l2.2-5.2L-213.7,403.1z"/>
	<path d="M-210.9,372.3c-1-0.4-2.2-0.2-2.2-0.2l-0.4-0.2l0,0l-0.2-0.1l-0.2-0.1l0,0l-0.4-0.2c0,0-0.8-0.9-1.7-1.4
		c-1-0.4-4.8-1.9-4.8-1.9l-0.5,1.2l0.5,0.2c0,0-1.6,3.1,2,4.3s4.4-1.7,4.4-1.7l0.3,0.1l0.6,0.2c0,0-1.3,2.6,2.1,4.2
		c3.4,1.6,4.3-1.8,4.3-1.8l0.5,0.2l0.5-1.2C-206.1,374.2-209.9,372.6-210.9,372.3z"/>
	<path fill="#2D3C55" d="M-209,373.6c0,0,1.6,0.6,0.7,2.3c-0.9,1.7-2.6,0.8-3,0.6c-0.3-0.1-2.2-0.5-1.7-2.6
		C-212.4,371.8-210.4,372.9-209,373.6z"/>
	<path fill="#2D3C55" d="M-218.3,369.9c0,0-1.5-0.6-2.1,1.2c-0.5,1.9,1.3,2.4,1.8,2.5c0.3,0.1,1.9,1.1,3-0.8
		C-214.6,371-216.7,370.4-218.3,369.9z"/>
	
		<ellipse transform="matrix(0.9308 0.3656 -0.3656 0.9308 122.4065 102.2463)" fill="#FFFFFF" cx="-208.8" cy="374.4" rx="0.4" ry="0.2"/>
	
		<ellipse transform="matrix(0.9308 0.3656 -0.3656 0.9308 120.845 104.7287)" fill="#FFFFFF" cx="-216.1" cy="371.5" rx="0.4" ry="0.2"/>
	<path d="M-233.4,385.9c0.1,0.1,0.3,0.1,0.5,0c0.2-0.1,0.3-0.3,0.3-0.4L-233.4,385.9z"/>
	<path d="M-231.7,385.1l-0.8,0.4c0.1,0.1,0.3,0.1,0.5,0C-231.8,385.4-231.7,385.2-231.7,385.1z"/>
	<polygon points="-231.8,385 -233.8,385.9 -233.8,386.2 -233.7,386.1 -233.7,386 -231.7,385.1 	"/>
	<path fill="#EBFEFF" d="M-232.3,385.4l0.1-0.1L-232.3,385.4z"/>
	<path fill="#EBFEFF" d="M-233.3,385.8l0.1-0.1L-233.3,385.8z"/>
</g>
</svg>
