<?xml version="1.0" encoding="utf-8"?>
<!-- Generator: Adobe Illustrator 18.0.0, SVG Export Plug-In . SVG Version: 6.00 Build 0)  -->
<svg version="1.2" baseProfile="tiny" id="Layer_1" xmlns="http://www.w3.org/2000/svg" xmlns:xlink="http://www.w3.org/1999/xlink"
	 x="0px" y="0px" viewBox="0 0 95.3577 101.2108" xml:space="preserve">
<g>
	<path fill="#006F4D" d="M75.2386,97.6891c0,1.9669,0.9586,3.5762,2.1303,3.5762c1.1717,0,2.1303-1.6093,2.1303-3.5762v-3.8335
		c0-1.9669-0.9586-3.5762-2.1303-3.5762c-1.1717,0-2.1303,1.6093-2.1303,3.5762V97.6891z"/>
	<path fill="#006F4D" d="M42.0841,97.6891c0,1.9669,0.9586,3.5762,2.1303,3.5762s2.1303-1.6093,2.1303-3.5762v-3.8335
		c0-1.9669-0.9586-3.5762-2.1303-3.5762s-2.1303,1.6093-2.1303,3.5762V97.6891z"/>
	<path fill="#006F4D" d="M50.6817,57.1985c0-2.1083,1.725-3.8334,3.8334-3.8334h36.5715c2.1084,0,3.8334,1.725,3.8334,3.8334V93.77
		c0,2.1083-1.725,3.8334-3.8334,3.8334H54.5151c-2.1084,0-3.8334-1.725-3.8334-3.8334V57.1985z"/>
	<path fill="#93C4B5" d="M37.3531,60.5559c0-3.9338,3.2186-7.1524,7.1524-7.1524h29.9335c3.9338,0,7.1524,3.2186,7.1524,7.1524
		v29.9335c0,3.9338-3.2186,7.1524-7.1524,7.1524H44.5056c-3.9338,0-7.1524-3.2186-7.1524-7.1524V60.5559z"/>
	<path fill="#003C33" d="M40.3809,63.5742c0-3.9338,3.2186-7.1524,7.1524-7.1524h24.0254c3.9338,0,7.1524,3.2186,7.1524,7.1524
		v24.0255c0,3.9338-3.2186,7.1524-7.1524,7.1524H47.5333c-3.9338,0-7.1524-3.2186-7.1524-7.1524V63.5742z"/>
	<path fill="#006F4D" d="M90.6593,97.6891c0,1.9669,0.9586,3.5762,2.1303,3.5762c1.1717,0,2.1303-1.6093,2.1303-3.5762v-3.8335
		c0-1.9669-0.9586-3.5762-2.1303-3.5762c-1.1717,0-2.1303,1.6093-2.1303,3.5762V97.6891z"/>
	<path fill="#D8EFE4" d="M32.0275,77.1174c-4.0135,0-7.2785-3.265-7.2785-7.2785h1.4305c0,3.2245,2.6235,5.848,5.848,5.848V77.1174z
		"/>
	<path fill="#D8EFE4" d="M22.552,83.0601h-1.4305c0-4.0679,3.3095-7.3775,7.3777-7.3775v1.4305
		C25.2198,77.1131,22.552,79.7809,22.552,83.0601z"/>
	<rect x="9.203" y="75.6276" fill="#D8EFE4" width="55.747" height="1.4305"/>
	<rect x="13.7539" y="51.869" fill="#D8EFE4" width="14.4913" height="1.4305"/>
	<path fill="#D8EFE4" d="M39.0844,77.1174c-3.5097,0-6.3651-2.8554-6.3651-6.3651h1.4305c0,2.7209,2.2137,4.9346,4.9346,4.9346
		V77.1174z"/>
	<path fill="#D8EFE4" d="M34.1255,58.2341h-1.4305c0-2.7209-2.2137-4.9346-4.9346-4.9346V51.869
		C31.2702,51.869,34.1255,54.7244,34.1255,58.2341z"/>
	<path fill="#D8EFE4" d="M21.9869,53.2739c-3.5097,0-6.365-2.8554-6.365-6.3651s2.8553-6.3651,6.365-6.3651v1.4305
		c-2.7209,0-4.9345,2.2137-4.9345,4.9346s2.2136,4.9346,4.9345,4.9346V53.2739z"/>
	<rect x="32.7193" y="58.0539" fill="#D8EFE4" width="1.4305" height="12.6985"/>
	<rect x="44.0102" y="31.484" fill="#D8EFE4" width="1.4305" height="22.3319"/>
	<rect x="61.2994" y="9.6077" fill="#D8EFE4" width="1.4305" height="22.3319"/>
	<rect x="15.4299" y="28.3562" fill="#D8EFE4" width="1.4305" height="18.7557"/>
	<path fill="#D8EFE4" d="M34.1517,64.7603h-1.4305c0-3.5097,2.8554-6.3651,6.3651-6.3651v1.4305
		C36.3654,59.8257,34.1517,62.0394,34.1517,64.7603z"/>
	<path fill="#D8EFE4" d="M39.0819,59.8301v-1.4305c2.7209,0,4.9346-2.2137,4.9346-4.9347h1.4305
		C45.447,56.9747,42.5916,59.8301,39.0819,59.8301z"/>
	<path fill="#D8EFE4" d="M56.3713,37.9538v-1.4305c2.7209,0,4.9344-2.2136,4.9344-4.9345h1.4305
		C62.7362,35.0984,59.8808,37.9538,56.3713,37.9538z"/>
	<path fill="#D8EFE4" d="M62.7362,24.8413h-1.4305c0-2.7209-2.2135-4.9346-4.9344-4.9346v-1.4305
		C59.8808,18.4763,62.7362,21.3316,62.7362,24.8413z"/>
	<path fill="#D8EFE4" d="M62.732,21.3128h-1.4305c0-3.5097,2.8554-6.3651,6.3649-6.3651v1.4305
		C64.9455,16.3782,62.732,18.5919,62.732,21.3128z"/>
	<path fill="#D8EFE4" d="M45.4426,42.884h-1.4305c0-3.5097,2.8554-6.3651,6.3652-6.3651v1.4305
		C47.6563,37.9494,45.4426,40.1631,45.4426,42.884z"/>
	<path fill="#D8EFE4" d="M45.447,31.5453h-1.4305c0-2.7209-2.2137-4.9346-4.9346-4.9346v-1.4305
		C42.5916,25.1802,45.447,28.0356,45.447,31.5453z"/>
	<path fill="#D8EFE4" d="M16.8667,41.1198h-1.4305c0-2.7209-2.2137-4.9346-4.9346-4.9346v-1.4305
		C14.0113,34.7548,16.8667,37.6102,16.8667,41.1198z"/>
	<rect x="50.3773" y="36.519" fill="#D8EFE4" width="20.4238" height="1.4305"/>
	<circle fill="#3A589E" cx="62.0148" cy="5.2817" r="5.1855"/>
	<path fill="#FFFFFF" d="M61.4631,7.7635c0.0003-0.7005-0.0008-1.401,0.0017-2.1015l-0.0918-0.095
		c-0.195,0.0043-0.3901-0.0007-0.5851,0.0025l-0.1006-0.0963c0.0051-0.2389,0.0049-0.478,0-0.7169l0.1002-0.0958
		c0.1922,0.0042,0.3846,0.0016,0.5769,0.0012l0.0989-0.0042l0.0002-0.1274c0.0098-0.2739-0.0049-0.5515,0.0355-0.8209
		c0.081-0.539,0.4918-0.8807,1.0418-0.892c0.2276-0.0047,0.4556,0.0119,0.6834,0.0164l0.1112,0.117
		c-0.0074,0.214-0.0045,0.4285-0.0011,0.6427l-0.0843,0.0862c-0.1427-0.0037-0.2857-0.0023-0.4285-0.0005l-0.155,0.014
		c-0.1633,0.037-0.2496,0.1333-0.2553,0.2985c-0.007,0.2031-0.0026,0.4065-0.0056,0.6097l0.0723,0.0612
		c0.2335-0.0013,0.467-0.0006,0.7005-0.0006h0.1115c-0.0156,0.131-0.0291,0.2522-0.0446,0.3732
		c-0.0192,0.1495-0.0444,0.2984-0.0582,0.4484l-0.0983,0.0858c-0.2005-0.0025-0.4011,0.0007-0.6016-0.0016L62.405,5.6474
		c0.0018,0.7115,0.0011,1.423,0.0014,2.1345"/>
	<circle fill="#1076FF" cx="21.6496" cy="86.0198" r="5.5315"/>
	<path fill="#FFFFFF" d="M23.5234,84.0624h-3.5979c-0.2474,0-0.4497,0.2024-0.4497,0.4497v4.0477l0.8995-0.8995h3.1482
		c0.2474,0,0.4497-0.2024,0.4497-0.4497v-2.6985C23.9731,84.2647,23.7708,84.0624,23.5234,84.0624z"/>
	<circle fill="#3A00D2" cx="8.9674" cy="76.2547" r="6.5433"/>
	<path fill="#FFFFFF" d="M7.4104,76.0789c0.45,0.8844,1.175,1.6063,2.0594,2.0594l0.6875-0.6875
		c0.0844-0.0844,0.2094-0.1125,0.3188-0.075c0.35,0.1156,0.7281,0.1781,1.1157,0.1781c0.1719,0,0.3125,0.1406,0.3125,0.3125v1.0906
		c0,0.1719-0.1406,0.3125-0.3125,0.3125c-2.9344,0-5.3126-2.3782-5.3126-5.3126c0-0.1719,0.1406-0.3125,0.3125-0.3125h1.0938
		c0.1719,0,0.3125,0.1406,0.3125,0.3125c0,0.3906,0.0625,0.7656,0.1781,1.1156c0.0344,0.1094,0.0094,0.2313-0.0781,0.3188
		L7.4104,76.0789z"/>
	<circle fill="#E04C40" cx="24.0806" cy="65.9957" r="5.5431"/>
	<path fill="#FFFFFF" d="M26.1732,63.9958h-4.2815c-0.2943,0-0.5325,0.2408-0.5325,0.5352l-0.0027,3.2112
		c0,0.2943,0.2408,0.5352,0.5352,0.5352h4.2815c0.2944,0,0.5352-0.2408,0.5352-0.5352v-3.2112
		C26.7084,64.2366,26.4676,63.9958,26.1732,63.9958z M26.1732,65.0661l-2.1407,1.338l-2.1408-1.338v-0.5352l2.1408,1.338
		l2.1407-1.338V65.0661z"/>
	<circle fill="#0080FF" cx="6.2791" cy="35.1215" r="5.9007"/>
	<path fill="#FFFFFF" d="M6.3304,31.9052c-1.2433,0-2.2489,1.0056-2.2489,2.2489c0,1.6867,2.2489,4.1765,2.2489,4.1765
		s2.2489-2.4898,2.2489-4.1765C8.5793,32.9107,7.5737,31.9052,6.3304,31.9052z M6.3304,34.9572
		c-0.4434,0-0.8032-0.3598-0.8032-0.8032s0.3598-0.8032,0.8032-0.8032s0.8032,0.3598,0.8032,0.8032S6.7737,34.9572,6.3304,34.9572z"
		/>
	<circle fill="#2A5B83" cx="35.2762" cy="25.8954" r="4.6909"/>
	<path fill="#895A4D" d="M37.0555,23.4738h-3.665c-0.3393,0-0.6108,0.2715-0.6108,0.6108v1.2216h4.8866v-1.2216
		C37.6664,23.7453,37.3949,23.4738,37.0555,23.4738z"/>
	<path fill="#FF3939" d="M33.0784,23.5689v1.7375h0.2986v-1.8325C33.282,23.4738,33.1734,23.501,33.0784,23.5689z"/>
	<rect x="33.3906" y="23.4738" fill="#FED049" width="0.2986" height="1.8325"/>
	<rect x="33.7028" y="23.4738" fill="#10DD76" width="0.2986" height="1.8325"/>
	<rect x="34.0014" y="23.4738" fill="#5FCCFF" width="0.2986" height="1.8325"/>
	<circle fill="#162838" cx="36.7433" cy="24.3969" r="0.4615"/>
	<circle fill="#2C4356" cx="36.7433" cy="24.3969" r="0.2308"/>
	
		<rect x="36.6857" y="24.3393" transform="matrix(-0.7071 -0.7071 0.7071 -0.7071 45.4736 67.6295)" fill="#47637A" width="0.1152" height="0.1152"/>
	<path fill="#E5E0DC" d="M32.7798,25.3063v2.4433c0,0.3394,0.2715,0.6108,0.6108,0.6108h3.665c0.3393,0,0.6108-0.2715,0.6108-0.6108
		v-2.4433H32.7798z"/>
	<polygon fill="#75483D" points="36.5533,25.3063 36.2004,24.9398 36.2004,25.3063 	"/>
	<path fill="#D0CBC5" d="M35.8339,25.3063l-1.5881,1.5881l1.466,1.466h1.3438c0.3394,0,0.6108-0.2715,0.6108-0.6108v-1.3302
		l-1.1131-1.1131H35.8339z"/>
	<circle fill="#DCD7D3" cx="35.2231" cy="25.9172" r="1.371"/>
	<circle fill="#162838" cx="35.2231" cy="25.9172" r="1.0723"/>
	<circle fill="#2C4356" cx="35.2231" cy="25.9172" r="0.6108"/>
	<circle fill="#162838" cx="35.2231" cy="25.9172" r="0.2986"/>
	<circle fill="#47637A" cx="35.6031" cy="25.5371" r="0.2308"/>
	<circle fill="#0274B3" cx="52.447" cy="19.0181" r="5.3643"/>
	<circle fill="#FFFA38" cx="16.1452" cy="24.7808" r="4.6909"/>
	<path fill="#020202" d="M16.1959,22.3876L16.1959,22.3876h-0.0973c-0.1112,0-0.3337,0.0139-0.5701,0.1252
		c-0.1391,0.0556-0.2642,0.139-0.3615,0.2364c-0.1252,0.1112-0.2225,0.2642-0.3059,0.431
		c-0.1112,0.2503-0.0834,0.6674-0.0695,1.0151v0.1112l-0.0695,0.0139l-0.2225-0.0556l-0.0834-0.0139l-0.153,0.0417l-0.1112,0.1391
		l0.0695,0.1808l0.1808,0.1112l0.0834,0.0139c0.0973,0.0278,0.2364,0.0695,0.2642,0.1669l-0.0278,0.1668
		c-0.0139,0.0139-0.0834,0.1947-0.2503,0.3893c-0.0973,0.1112-0.1947,0.1947-0.3059,0.2642
		c-0.139,0.0834-0.2781,0.1391-0.4311,0.1669l-0.0834,0.1252l0.0139,0.0556l0.1669,0.1391
		c0.1112,0.0556,0.2781,0.0973,0.4867,0.1251l0.0278,0.1112l0.0278,0.1112c0.0139,0.0417,0.0417,0.0974,0.139,0.0974l0.1112-0.0139
		c0.0695-0.0139,0.153-0.0278,0.2642-0.0278l0.1947,0.0139c0.1252,0.0139,0.2225,0.0973,0.3476,0.1808
		c0.1808,0.1252,0.3755,0.2642,0.6953,0.2642h0.0278h0.0417c0.3059,0,0.5145-0.139,0.6953-0.2642
		c0.1252-0.0834,0.2225-0.1669,0.3476-0.1808l0.1947-0.0139c0.1112,0,0.1947,0.0139,0.2642,0.0278l0.1113,0.0139l0.1251-0.0974
		l0.0278-0.1112l0.0278-0.1112c0.2086-0.0278,0.3754-0.0834,0.4867-0.1251l0.1669-0.1391l0.0139-0.0556l-0.0973-0.1252
		c-0.6674-0.1112-0.9734-0.7926-0.9872-0.8204l-0.0278-0.1668l0.2642-0.1669l0.0695-0.0278
		c0.0973-0.0417,0.153-0.0695,0.1947-0.1252l0.0556-0.1391c0-0.0834-0.0695-0.153-0.1668-0.1808l-0.1113-0.0139l-0.0973,0.0139
		l-0.2086,0.0556l-0.0695-0.0139v-0.0973v-0.0139c0.0278-0.3337,0.0417-0.7648-0.0695-1.0151
		c-0.0834-0.1668-0.1808-0.3198-0.3059-0.4449c-0.1112-0.0974-0.2225-0.1808-0.3615-0.2364
		C16.5296,22.4015,16.3071,22.3876,16.1959,22.3876"/>
	<path fill="#FFFFFF" d="M52.901,18.5782c0.3648-0.5348,1.0302-0.5285,1.443-0.3252c0.244,0.1202,0.3798,0.337,0.4285,0.5948
		c0.0437,0.2315,0.0674,0.4694,0.0727,0.705c0.0107,0.4774,0.0012,0.9552,0.0048,1.4329c0.0007,0.0901-0.0251,0.1208-0.1178,0.1184
		c-0.2339-0.0061-0.4682-0.0059-0.7021,0l-0.1137-0.1138c0.0027-0.4586,0.0023-0.9174,0-1.376
		c-0.0005-0.1008-0.0053-0.2028-0.022-0.3019c-0.0391-0.2327-0.1637-0.3522-0.3761-0.3744
		c-0.237-0.0247-0.4381,0.0789-0.5092,0.2901c-0.0436,0.1293-0.0655,0.2713-0.068,0.4081c-0.0082,0.4522-0.0056,0.9047-0.0012,1.357
		l-0.1137,0.1106c-0.2055-0.0052-0.4112-0.0002-0.6168-0.0021c-0.2068-0.002-0.1896,0.0342-0.1898-0.1945
		c-0.0008-0.8414-0.0003-1.6829-0.0003-2.5243l0.0005-0.1044l0.0791-0.0788c0.2435,0.0018,0.4871,0.0013,0.7307,0.0001
		l0.0722,0.0736C52.8993,18.3674,52.901,18.4617,52.901,18.5782z"/>
	<path fill="#FFFFFF" d="M50.5684,19.6512c0-0.4489,0.002-0.8979-0.0018-1.3468l0.1086-0.1062
		c0.237,0.0049,0.4742,0.0043,0.7113,0.0006l0.1021,0.096c-0.0014,0.9042-0.0015,1.8084-0.0008,2.7126l-0.0918,0.096
		c-0.2466-0.0037-0.4932-0.0038-0.7397,0l-0.0889-0.0959C50.5694,20.5554,50.5684,20.1032,50.5684,19.6512z"/>
	<path fill="#FFFFFF" d="M50.4944,17.3009c0.0002-0.2958,0.2436-0.5403,0.5353-0.5378c0.2891,0.0025,0.5322,0.2453,0.5335,0.5328
		c0.0013,0.29-0.249,0.5404-0.5382,0.5382C50.7355,17.8319,50.4941,17.5894,50.4944,17.3009z"/>
	<circle fill="#28AAE1" cx="27.7812" cy="41.3396" r="6.0795"/>
	<path fill="#FFFFFF" d="M31.2024,39.5221c-0.2297,0.1021-0.4723,0.1659-0.7275,0.2042c0.2553-0.166,0.4595-0.4084,0.5489-0.7148
		c-0.2425,0.1404-0.5233,0.2553-0.8041,0.3063c-0.2297-0.2425-0.5616-0.3957-0.9317-0.3957c-0.702,0-1.2764,0.5744-1.2764,1.2764
		c0,0.1021,0.0128,0.1915,0.0383,0.2936c-1.0594-0.0638-2.0039-0.5616-2.6293-1.3402c-0.1149,0.1914-0.1787,0.4084-0.1787,0.6382
		c0,0.4467,0.2297,0.8296,0.5616,1.0594c-0.2042-0.0128-0.4084-0.0638-0.5744-0.1532v0.0128c0,0.6127,0.434,1.136,1.0211,1.2509
		c-0.1021,0.0255-0.217,0.0383-0.3319,0.0383l-0.2425-0.0255c0.1659,0.5106,0.6382,0.8807,1.187,0.8807
		c-0.434,0.3446-0.9828,0.5489-1.5827,0.5489c-0.1021,0-0.2042,0-0.3063-0.0128c0.5616,0.3574,1.2381,0.5743,1.9529,0.5743
		c2.3485,0,3.6249-1.9401,3.6249-3.6249V40.173C30.8067,39.9943,31.0237,39.7773,31.2024,39.5221z"/>
	<circle fill="#20DC38" cx="9.6307" cy="52.7068" r="4.7831"/>
	<path fill="#FFFFFF" d="M7.3824,54.9551l0.3423-1.2112c-0.2106-0.3555-0.316-0.7636-0.316-1.1717
		c0-1.2903,1.0533-2.3567,2.3567-2.3567c0.632,0,1.2112,0.2502,1.6589,0.6978s0.6978,1.0401,0.6978,1.6589
		c0,1.2902-1.0533,2.3566-2.3567,2.3566c-0.395,0-0.7768-0.1053-1.1322-0.2896L7.3824,54.9551z M8.6858,54.2047l0.0658,0.0395
		c0.3028,0.1843,0.6451,0.2765,1.0006,0.2765c1.0796,0,1.9617-0.8821,1.9617-1.9617c0-0.5266-0.2106-1.0138-0.5793-1.3824
		c-0.3686-0.3687-0.8558-0.5661-1.3824-0.5661c-1.0796,0-1.9617,0.8689-1.9617,1.9485c0,0.3687,0.1053,0.7373,0.3028,1.0401
		l0.0526,0.0658L7.9485,54.389L8.6858,54.2047z"/>
	<path fill="#FFFFFF" d="M9.1426,51.5715c-0.0395-0.1053-0.0922-0.1053-0.1317-0.1053H8.9056l-0.158,0.0658
		C8.695,51.5978,8.537,51.7295,8.537,52.0323c0,0.2896,0.2107,0.5661,0.237,0.6056c0.0263,0.0395,0.4081,0.6583,1.0006,0.8953
		c0.5003,0.1975,0.5925,0.158,0.6978,0.1448c0.1053-0.0132,0.3423-0.1448,0.395-0.2765c0.0527-0.1317,0.0527-0.2633,0.0263-0.2765
		l-0.1053-0.0658l-0.395-0.1975l-0.1317,0.0263l-0.1843,0.2238l-0.1317,0.0132c-0.0658-0.0263-0.2501-0.0922-0.4739-0.2896
		c-0.1843-0.158-0.3028-0.3423-0.3292-0.4081l0.0263-0.1185l0.0922-0.1053l0.0658-0.1053v-0.1053
		C9.3006,51.9796,9.1953,51.69,9.1426,51.5715z"/>
	<circle fill="#E52D27" cx="71.3379" cy="15.4056" r="4.1616"/>
	<path fill="#FFFFFF" d="M73.7272,14.4349c0,0-0.0543-0.3394-0.1901-0.4887c-0.1901-0.19-0.3937-0.19-0.4887-0.2036
		c-0.6788-0.0543-1.7105-0.0543-1.7105-0.0543s-1.0317,0-1.7105,0.0543c-0.095,0.0136-0.2987,0.0136-0.4887,0.2036
		c-0.1493,0.1494-0.1901,0.4887-0.1901,0.4887s-0.0543,0.3937-0.0543,0.7874v0.3665c0,0.3937,0.0543,0.7874,0.0543,0.7874
		s0.0543,0.3394,0.1901,0.4887c0.1901,0.1901,0.4344,0.1901,0.543,0.2036c0.3937,0.0407,1.6562,0.0543,1.6562,0.0543
		s1.0317,0,1.7105-0.0543c0.095-0.0136,0.2986-0.0136,0.4887-0.2036c0.1493-0.1493,0.1901-0.4887,0.1901-0.4887
		s0.0543-0.3937,0.0543-0.7874v-0.3665C73.7815,14.8286,73.7272,14.4349,73.7272,14.4349z M70.8356,16.0504v-1.3711l1.3168,0.6924
		L70.8356,16.0504z"/>
	<circle fill="#2FD565" cx="73.7815" cy="37.5651" r="4.6491"/>
	<path fill="#181313" d="M73.2183,35.7259c0.2141,0.0165,0.4116,0.0165,0.6257,0.033l0.247,0.0164
		c0.1153,0.0165,0.2305,0.0329,0.3458,0.0329c0.0988,0.0165,0.1811,0.0329,0.2799,0.0494l0.247,0.0494l0.1811,0.0329
		c0.1317,0.0329,0.2634,0.0659,0.3787,0.0988c0.1153,0.0329,0.2141,0.0659,0.3293,0.1152l0.2635,0.1153
		c0.0988,0.0329,0.1976,0.0823,0.2799,0.1317c0.0988,0.0494,0.1976,0.0988,0.2964,0.1646c0.1317,0.0823,0.1976,0.2305,0.1646,0.3787
		c-0.0329,0.2305-0.2634,0.3951-0.4775,0.3293l-0.1646-0.0659l-0.2141-0.1153l-0.247-0.1153
		c-0.1317-0.0494-0.247-0.0988-0.3787-0.1317l-0.2141-0.0659l-0.214-0.0494c-0.1317-0.0329-0.2799-0.0659-0.4116-0.0823
		c-0.0988-0.0164-0.1976-0.0329-0.2964-0.0494c-0.2964-0.0494-0.5927-0.0494-0.8891-0.0659c-0.2635,0-0.5104,0-0.7574,0.0164
		l-0.2305,0.0165c-0.0988,0.0164-0.2141,0.0329-0.3128,0.0494l-0.2305,0.0329c-0.0988,0.0165-0.1976,0.0494-0.2964,0.0823
		c-0.1811,0.0659-0.3622,0.0164-0.4775-0.1317c-0.0988-0.1153-0.1153-0.2799-0.0329-0.4281
		c0.0659-0.1153,0.1646-0.1811,0.2964-0.2141c0.0988-0.0164,0.1811-0.0494,0.2799-0.0659l0.2305-0.0494
		c0.0988-0.0165,0.1811-0.0329,0.2799-0.0494c0.1646-0.0164,0.3293-0.0329,0.494-0.0494
		C72.8231,35.7424,73.0207,35.7259,73.2183,35.7259z"/>
	<path fill="#181313" d="M73.1689,37.1419c0.2141,0.0164,0.4446,0.0329,0.6751,0.0494c0.1317,0.0165,0.2634,0.0329,0.3787,0.0494
		c0.1153,0.0164,0.2305,0.0329,0.3458,0.0659c0.1317,0.0329,0.2635,0.0659,0.3952,0.1153c0.1317,0.0329,0.2634,0.0823,0.3951,0.1317
		l0.247,0.1152l0.2635,0.1317c0.0988,0.0494,0.214,0.1152,0.2964,0.1811c0.1317,0.1153,0.1482,0.2964,0.0329,0.4446
		c-0.0823,0.1152-0.1976,0.1482-0.3293,0.1152l-0.1482-0.0659c-0.1153-0.0659-0.2141-0.1152-0.3293-0.1811
		c-0.1317-0.0659-0.2799-0.1153-0.4116-0.1647l-0.1811-0.0659c-0.1482-0.0329-0.2964-0.0823-0.461-0.1153
		c-0.1482-0.0329-0.3128-0.0494-0.461-0.0823c-0.2141-0.0165-0.4116-0.0329-0.6257-0.0494c-0.2305-0.0164-0.4445,0-0.675,0.0329
		c-0.1482,0.0165-0.2964,0.033-0.4446,0.0659c-0.1152,0.0164-0.214,0.0494-0.3293,0.0823
		c-0.0988,0.0165-0.1976,0.0659-0.2964,0.0494c-0.1152-0.0165-0.1976-0.0988-0.247-0.2141
		c-0.0494-0.1317-0.0164-0.2305,0.0659-0.3458l0.1646-0.0988c0.1646-0.0494,0.3293-0.0823,0.494-0.1153
		c0.1976-0.0329,0.3951-0.0659,0.5927-0.0823C72.7737,37.1584,72.9548,37.1584,73.1689,37.1419z"/>
	<path fill="#181313" d="M73.2183,38.492c0.1646,0.0165,0.3622,0.0165,0.5433,0.0329c0.1811,0.0165,0.3622,0.0494,0.5434,0.0823
		c0.1646,0.0329,0.3293,0.0823,0.4775,0.1317c0.1482,0.0494,0.2799,0.1153,0.4281,0.1646c0.1317,0.0659,0.247,0.1153,0.3787,0.1976
		l0.1482,0.1152c0.0659,0.0988,0.0659,0.2305-0.0164,0.3128c-0.0823,0.0988-0.1811,0.1317-0.2964,0.0988l-0.1317-0.0659
		c-0.1152-0.0659-0.2141-0.1152-0.3293-0.1811c-0.1153-0.0494-0.2305-0.0988-0.3458-0.1317l-0.2305-0.0659
		c-0.1152-0.0329-0.247-0.0659-0.3622-0.0823c-0.0988-0.0165-0.2141-0.0329-0.3128-0.0329
		c-0.1976-0.0165-0.3952-0.033-0.6092-0.0165c-0.2305,0-0.461,0.0165-0.6915,0.0494c-0.1317,0.0164-0.2634,0.0329-0.4116,0.0659
		l-0.2635,0.0659c-0.1646,0.0329-0.3293-0.0988-0.3128-0.2799c0-0.1153,0.1153-0.2305,0.2305-0.2635
		c0.1317-0.0329,0.2634-0.0659,0.3951-0.0823c0.1976-0.033,0.4116-0.0659,0.6092-0.0823
		C72.8396,38.5085,73.0207,38.5085,73.2183,38.492z"/>
	<path fill="#93C4B5" d="M78.8423,87.5996c0,3.9338-3.2186,7.1524-7.1524,7.1524H57.7657c-3.9338,0-7.1524-3.2186-7.1524-7.1524
		V63.5742c0-3.9338,3.2186-7.1524,7.1524-7.1524h13.9243c3.9338,0,7.1524,3.2186,7.1524,7.1524V87.5996z"/>
	<path fill="#C9E1DA" d="M78.8423,87.5996c0,3.9338-3.2186,7.1524-7.1524,7.1524H59.7031c-3.9338,0-7.1524-3.2186-7.1524-7.1524
		V63.5742c0-3.9338,3.2186-7.1524,7.1524-7.1524h11.9868c3.9338,0,7.1524,3.2186,7.1524,7.1524V87.5996z"/>
	<path fill="#93C4B5" d="M63.3011,71.6173c-1.3142,1.8814-1.2461,5.0003,0.1522,6.9662c1.3983,1.9659,3.5972,2.0345,4.9114,0.153
		c1.3142-1.8814,1.2461-5.0003-0.1522-6.9662S64.6154,69.7359,63.3011,71.6173z"/>
	<path fill="#D1E5DF" d="M64.6451,71.85c-1.2297,1.7604-1.166,4.6786,0.1424,6.5181s3.3658,1.9036,4.5955,0.1432
		c1.2297-1.7604,1.166-4.6786-0.1424-6.5181S65.8748,70.0896,64.6451,71.85z"/>
	<path fill="#93C4B5" d="M67.9871,70.478c-0.1951-0.0272-0.3793,0.1075-0.4169,0.3093l-0.297,1.5932
		c-0.0392,0.2092,0.0939,0.4112,0.2965,0.4514c0.2068,0.0421,0.399-0.0969,0.4378-0.3058l0.297-1.5932
		c0.0392-0.2092-0.0939-0.4112-0.2965-0.4514L67.9871,70.478z"/>
	<path fill="#93C4B5" d="M67.0146,77.6458c-0.1955-0.0272-0.3794,0.1075-0.4169,0.3095l-0.3166,1.7
		c-0.0392,0.209,0.0939,0.411,0.2965,0.4512c0.2073,0.041,0.399-0.0968,0.4378-0.306l0.3166-1.7
		c0.0392-0.209-0.0939-0.411-0.2965-0.4512L67.0146,77.6458z"/>
	<path fill="#93C4B5" d="M68.9975,75.3444c-0.1828-0.0255-0.3604,0.0917-0.4105,0.2802c-0.0546,0.2053,0.0628,0.4175,0.2618,0.4738
		l1.2827,0.3622c0.1998,0.0561,0.4051-0.0646,0.4596-0.2699c0.0546-0.2054-0.0628-0.4175-0.2618-0.4738l-1.2827-0.3622
		L68.9975,75.3444z"/>
	<path fill="#93C4B5" d="M63.9662,73.924c-0.1828-0.0255-0.3603,0.0917-0.4105,0.2802c-0.0546,0.2055,0.0628,0.4175,0.2618,0.4738
		l1.2234,0.3454c0.1992,0.0572,0.4047-0.0646,0.4596-0.2699c0.0546-0.2055-0.0628-0.4175-0.2619-0.4738l-1.2233-0.3454
		L63.9662,73.924z"/>
	<path fill="#93C4B5" d="M65.3523,70.7553l-0.2624,0.0645c-0.1699,0.1209-0.2128,0.3609-0.0958,0.5362l0.4862,0.7274
		c0.1174,0.1754,0.3502,0.219,0.5203,0.0989c0.1699-0.1209,0.2128-0.3609,0.0958-0.5362l-0.4862-0.7274
		C65.548,70.8256,65.4529,70.7694,65.3523,70.7553z"/>
	<path fill="#93C4B5" d="M65.3524,76.6504c-0.0977-0.0136-0.2003,0.0124-0.2833,0.0807l-0.7044,0.5796
		c-0.1615,0.1329-0.1878,0.3754-0.0593,0.5419c0.1296,0.1666,0.3642,0.1934,0.5257,0.0607l0.7044-0.5796
		c0.1615-0.1329,0.1878-0.3754,0.0593-0.5418C65.532,76.7111,65.4443,76.6632,65.3524,76.6504z"/>
	<path fill="#93C4B5" d="M68.7721,77.594l-0.2563,0.0606c-0.1724,0.1175-0.2196,0.3565-0.1058,0.5342l0.4297,0.6694
		c0.1145,0.178,0.3463,0.2264,0.5183,0.1087c0.1724-0.1175,0.2196-0.3565,0.1058-0.5342l-0.4297-0.6694
		C68.9719,77.6668,68.8753,77.6083,68.7721,77.594z"/>
	<path fill="#93C4B5" d="M69.8408,72.6128l-0.2379,0.0489l-0.5704,0.342c-0.1784,0.107-0.2389,0.343-0.1351,0.5271
		c0.1037,0.1843,0.3326,0.2464,0.5114,0.1393l0.5704-0.342c0.1784-0.107,0.2389-0.343,0.1351-0.5271
		C70.0538,72.694,69.9512,72.6282,69.8408,72.6128z"/>
	<path fill="#93C4B5" d="M69.5421,71.7652c1.3951,1.9613,1.4597,5.0886,0.1447,6.9713c-0.7341,1.0505-1.7807,1.5659-2.8716,1.4139
		c-0.8759-0.122-1.7029-0.6742-2.3289-1.5545c-1.3952-1.9609-1.4597-5.0882-0.1447-6.9713
		c0.7341-1.0505,1.7807-1.5659,2.8716-1.4139C68.0891,70.3328,68.916,70.8849,69.5421,71.7652z M69.0794,78.286
		c1.1402-1.632,1.0772-4.3528-0.1404-6.065c-0.5051-0.7097-1.1536-1.1525-1.8261-1.2462c-0.8083-0.1126-1.5969,0.2885-2.1641,1.1003
		c-1.1403,1.6324-1.0773,4.3531,0.1404,6.065c0.5051,0.71,1.1536,1.1525,1.8261,1.2462
		C67.7236,79.499,68.5126,79.0979,69.0794,78.286z"/>
	<path fill="#FFFFFF" d="M16.1959,22.4988c0.1808,0,0.8343,0.0556,1.1402,0.737c0.0973,0.2225,0.0695,0.6257,0.0556,0.9594
		l-0.0139,0.153v0.0139l0.0139,0.0139c0,0,0.0556,0.0556,0.1669,0.0695l0.2503-0.0695l0.0556-0.0139l0.0695,0.0139l0.0834,0.0834
		c0,0.0139-0.0139,0.0695-0.1808,0.139l-0.0695,0.0278c-0.1113,0.0417-0.2781,0.0834-0.3476,0.2225
		c-0.0278,0.0834-0.0278,0.1669,0.0278,0.2642c0.0139,0.0417,0.3476,0.7787,1.0707,0.8899v0.0139
		c-0.0139,0.0278-0.0973,0.1251-0.584,0.2086c-0.0695,0.0139-0.0973,0.0974-0.1112,0.1947l-0.0278,0.1112l-0.0139,0.0139
		l-0.0973-0.0139c-0.0695-0.0139-0.1669-0.0278-0.292-0.0278l-0.2086,0.0139c-0.153,0.0278-0.2642,0.1112-0.4033,0.2086
		c-0.1668,0.1252-0.3476,0.2503-0.6257,0.2503h-0.0417h-0.0139c-0.2781,0-0.4449-0.1252-0.6257-0.2503
		c-0.1252-0.0973-0.2503-0.1808-0.4032-0.2086l-0.2086-0.0139c-0.1252,0-0.2225,0.0139-0.292,0.0278l-0.0556,0.0139l-0.0278-0.0139
		L14.4578,26.42c-0.0278-0.0973-0.0417-0.1808-0.1112-0.1947c-0.4867-0.0695-0.5701-0.1808-0.584-0.2086v-0.0139
		c0.7231-0.1252,1.0568-0.8482,1.0707-0.8899c0.0556-0.0973,0.0695-0.1947,0.0278-0.2642c-0.0556-0.139-0.2225-0.1947-0.3476-0.2225
		l-0.0695-0.0278c-0.153-0.0556-0.1947-0.1112-0.1808-0.153l0.139-0.0834h0.0417c0.0973,0.0417,0.1947,0.0695,0.2781,0.0695
		c0.1251,0,0.1808-0.0556,0.1947-0.0695l0.0139-0.0139v-0.0139l-0.0139-0.153c-0.0139-0.3337-0.0417-0.737,0.0556-0.9594
		c0.3059-0.6813,0.9456-0.737,1.1402-0.737L16.1959,22.4988"/>
</g>
</svg>
