<?xml version="1.0" encoding="utf-8"?>
<!-- Generator: Adobe Illustrator 18.0.0, SVG Export Plug-In . SVG Version: 6.00 Build 0)  -->
<svg version="1.2" baseProfile="tiny" id="Layer_1" xmlns="http://www.w3.org/2000/svg" xmlns:xlink="http://www.w3.org/1999/xlink"
	 x="0px" y="0px" viewBox="0 0 95.3577 101.2108" xml:space="preserve">
<g>
	<path fill="#0254BD" d="M53.0824,94.3378c0,0,1.4576-18.7105-1.0156-26.7482c0,0-3.9305,0.0064-7.3375-0.6025
		c2.9858,1.1317,4.9055,25.9177,3.7022,26.9525C50.5372,94.2263,53.0824,94.3378,53.0824,94.3378z"/>
	<path fill="#1D66C4" d="M41.3104,93.0256c1.236,1.7287,4.452,1.4028,4.452,1.4028s7.2596-15.7335,3.5541-26.7691
		c0,0-7.7083-1.9659-8.6562,0.2443C43.8754,74.1653,43.0275,86.4671,41.3104,93.0256z"/>
	<circle fill="#0274B3" cx="88.1351" cy="24.5751" r="6.3117"/>
	<circle fill="#0080FF" cx="12.141" cy="36.43" r="6.3117"/>
	<circle fill="#272726" cx="30.1558" cy="33.747" r="4.8852"/>
	<circle fill="#E4EEFF" cx="67.752" cy="8.3781" r="4.8929"/>
	<rect x="65.8375" y="6.7772" fill="#FFFFFF" width="3.7812" height="3.6238"/>
	<path fill="#3B83F3" d="M70.3575,9.557c-0.3388,0-0.6781,0.0001-1.0175,0c-0.1323,0-0.1138,0.0056-0.1139-0.1169
		C69.2257,8.7504,69.226,8.0607,69.226,7.371l-0.0852-0.0855l-0.1616,0.0869c-0.145,0.2179-0.3481,0.373-0.5799,0.4893
		l-0.0725,0.1227L68.3279,8.19c0.222-0.0862,0.4115-0.2009,0.5969-0.3536c0,0.6147,0,1.2148,0,1.8348l0.1236-0.1107l0.0043,0.0714
		c0.0005,0.4032-0.0004,0.8063,0.0021,1.2095l-0.0788,0.0799c-0.8513-0.0025-1.7027-0.0009-2.5541-0.0029
		c-0.64-0.0014-1.1237-0.4844-1.1249-1.1239c-0.0017-0.9394-0.0015-1.8788,0-2.8181c0.0008-0.5406,0.3457-0.9738,0.8714-1.0945
		l0.2435-0.0236c0.9435-0.0016,1.8869-0.0034,2.8304-0.0001c0.4979,0.0017,0.8918,0.2832,1.0565,0.7424
		c0.0469,0.1308,0.0593,0.2665,0.0591,0.4046c-0.0008,0.8002-0.0004,1.6004-0.0004,2.4006V9.557z M67.3728,8.4076l0.027-0.0171
		c0.3327-0.1782,0.37-0.5802,0.1513-0.8463c-0.165-0.2007-0.3891-0.2689-0.6422-0.2504c-0.3363,0.0245-0.5805,0.2378-0.6531,0.5671
		l-0.0067,0.061l0.2112,0.0401l0.1018-0.0663c0.063-0.2593,0.2308-0.3777,0.4873-0.3523c0.1518,0.015,0.2831,0.1297,0.3167,0.2765
		c0.04,0.1747-0.0215,0.3309-0.1635,0.4141C67.107,8.29,67.0038,8.3181,66.8926,8.3179l-0.054,0.0147l-0.0337,0.2216
		c0.1071,0,0.2018-0.0105,0.2932,0.002c0.2587,0.0352,0.4142,0.2532,0.381,0.537c-0.0234,0.2008-0.1386,0.3414-0.3311,0.4028
		c-0.1846,0.059-0.3635,0.036-0.4907-0.1235c-0.0603-0.0756-0.092-0.1757-0.1281-0.2681l-0.073-0.0512l-0.1946,0.0255L66.219,9.1364
		c0.0247,0.1512,0.0828,0.2866,0.189,0.3987c0.3513,0.3708,1.0085,0.3043,1.2865-0.1299c0.243-0.3795,0.1029-0.8227-0.3119-0.9866
		L67.3728,8.4076z M66.4464,6.7072c0.1179,0.0018,0.2199-0.0971,0.223-0.216c0.0031-0.1193-0.1-0.2241-0.221-0.2247
		c-0.1171-0.0006-0.219,0.1014-0.2194,0.2195C66.2286,6.6051,66.3272,6.7054,66.4464,6.7072z M69.3222,6.4847
		c-0.0015-0.118-0.1028-0.2179-0.2213-0.2183c-0.1171-0.0003-0.2188,0.1017-0.2191,0.2199
		c-0.0003,0.1214,0.1029,0.2231,0.2239,0.2208C69.224,6.7049,69.3236,6.6026,69.3222,6.4847z"/>
	<path fill="#FFFFFF" d="M67.3728,8.4076l0.0097,0.0109c0.4148,0.1639,0.5549,0.6071,0.3119,0.9866
		c-0.278,0.4342-0.9352,0.5008-1.2865,0.1299c-0.1061-0.1121-0.1643-0.2474-0.189-0.3987l0.0429-0.0577l0.1946-0.0255l0.073,0.0512
		c0.036,0.0924,0.0678,0.1925,0.1281,0.2681c0.1272,0.1595,0.306,0.1825,0.4907,0.1235c0.1924-0.0615,0.3076-0.202,0.3311-0.4028
		c0.0331-0.2838-0.1224-0.5017-0.381-0.537c-0.0915-0.0125-0.1861-0.002-0.2932-0.002l0.0337-0.2216l0.054-0.0147
		C67.0038,8.3181,67.107,8.29,67.2027,8.234c0.142-0.0831,0.2036-0.2394,0.1635-0.4141c-0.0337-0.1469-0.165-0.2615-0.3167-0.2765
		c-0.2565-0.0254-0.4243,0.093-0.4873,0.3523l-0.1018,0.0663l-0.2112-0.0401l0.0067-0.061
		c0.0726-0.3293,0.3167-0.5426,0.6531-0.5671c0.253-0.0184,0.4772,0.0497,0.6422,0.2504c0.2187,0.2661,0.1814,0.6682-0.1513,0.8463
		L67.3728,8.4076z"/>
	<path fill="#FFFFFF" d="M66.4464,6.7072c-0.1192-0.0018-0.2179-0.1021-0.2174-0.2212c0.0004-0.1181,0.1023-0.2201,0.2194-0.2195
		c0.121,0.0006,0.2242,0.1054,0.221,0.2247C66.6663,6.6101,66.5643,6.709,66.4464,6.7072z"/>
	<path fill="#FFFFFF" d="M69.3222,6.4847c0.0015,0.1178-0.0982,0.2202-0.2166,0.2224c-0.121,0.0023-0.2242-0.0994-0.2239-0.2208
		c0.0003-0.1181,0.102-0.2202,0.2191-0.2199C69.2194,6.2668,69.3207,6.3667,69.3222,6.4847z"/>
	<path fill="#FFFFFF" d="M29.3519,36.1368c0-0.0688,0-0.3094,0-0.5673c-0.8767,0.1891-1.0486-0.361-1.0486-0.361
		c-0.1375-0.361-0.3438-0.4469-0.3438-0.4469c-0.275-0.1891,0.0172-0.1891,0.0172-0.1891c0.3094,0.0172,0.4641,0.3094,0.4641,0.3094
		c0.275,0.4641,0.7392,0.3266,0.9111,0.2578c0.0344-0.2063,0.1031-0.3266,0.1891-0.4125c-0.7048-0.086-1.4268-0.3438-1.4268-1.5299
		c0-0.3438,0.1203-0.6017,0.3094-0.8423c-0.0344-0.0859-0.1375-0.3954,0.0344-0.8251c0,0,0.2578-0.0859,0.8595,0.3094
		c0.2407-0.0688,0.5157-0.1031,0.7907-0.1031c0.275,0,0.5329,0.0344,0.7907,0.1031c0.5844-0.3954,0.8595-0.3094,0.8595-0.3094
		c0.1719,0.4297,0.0688,0.7563,0.0344,0.8251c0.1891,0.2235,0.3094,0.4813,0.3094,0.8423c0,1.2033-0.7392,1.4611-1.4268,1.5299
		c0.1031,0.1031,0.2063,0.275,0.2063,0.5673c0,0.4125,0,0.7563,0,0.8595c0,0,0.0002,0.0841-0.8016,0.0841
		C29.346,36.2382,29.3519,36.1368,29.3519,36.1368z"/>
	<polygon points="28.2002,34.6929 28.1486,34.7101 28.1143,34.6585 28.1658,34.6413 	"/>
	<polygon points="28.3205,34.8476 28.2518,34.8304 28.2346,34.7617 28.3033,34.7788 	"/>
	<polygon points="28.4409,35.0367 28.3721,35.0023 28.3721,34.9336 28.4409,34.9679 	"/>
	<polygon points="28.6128,35.2086 28.5268,35.1914 28.5096,35.1055 28.5956,35.1227 	"/>
	<polygon points="28.8362,35.3117 28.7675,35.3289 28.7159,35.2602 28.7847,35.243 	"/>
	<polygon points="29.1113,35.3289 29.0425,35.3805 28.9738,35.3289 29.0425,35.2773 	"/>
	<polygon points="29.3347,35.2773 29.2832,35.3289 29.2144,35.2946 29.266,35.243 	"/>
	<circle fill="#2FD565" cx="33.7145" cy="22.3645" r="3.6913"/>
	<path fill="#181313" d="M33.2673,20.9042c0.17,0.0131,0.3268,0.0131,0.4968,0.0262l0.1961,0.0131
		c0.0915,0.0131,0.183,0.0261,0.2745,0.0261l0.2222,0.0392l0.1961,0.0392l0.1438,0.0261c0.1046,0.0262,0.2092,0.0523,0.3007,0.0785
		c0.0915,0.0261,0.17,0.0523,0.2615,0.0915l0.2092,0.0915l0.2222,0.1046l0.2353,0.1307c0.1046,0.0654,0.1569,0.183,0.1307,0.3007
		c-0.0262,0.183-0.2092,0.3138-0.3791,0.2615l-0.1307-0.0523l-0.17-0.0915l-0.1961-0.0915
		c-0.1046-0.0392-0.1961-0.0784-0.3007-0.1046l-0.17-0.0523L34.64,21.7017c-0.1046-0.0261-0.2223-0.0523-0.3268-0.0653
		l-0.2353-0.0392c-0.2353-0.0392-0.4706-0.0392-0.7059-0.0523c-0.2092,0-0.4053,0-0.6013,0.0131l-0.183,0.0131l-0.2484,0.0392
		l-0.183,0.0262l-0.2353,0.0654c-0.1438,0.0523-0.2876,0.0131-0.3791-0.1046c-0.0784-0.0915-0.0915-0.2223-0.0261-0.3399
		c0.0523-0.0915,0.1307-0.1438,0.2353-0.17l0.2223-0.0523l0.183-0.0392l0.2223-0.0392c0.1307-0.0131,0.2614-0.0261,0.3922-0.0392
		C32.9536,20.9173,33.1104,20.9042,33.2673,20.9042z"/>
	<path fill="#181313" d="M33.2281,22.0285c0.1699,0.0131,0.353,0.0262,0.536,0.0392c0.1046,0.0131,0.2092,0.0262,0.3007,0.0392
		c0.0915,0.0131,0.183,0.0262,0.2745,0.0523c0.1046,0.0262,0.2092,0.0523,0.3138,0.0915c0.1046,0.0262,0.2092,0.0654,0.3138,0.1046
		l0.1961,0.0915l0.2092,0.1046l0.2353,0.1438c0.1046,0.0915,0.1176,0.2353,0.0262,0.353c-0.0654,0.0915-0.1569,0.1176-0.2615,0.0915
		l-0.1176-0.0523c-0.0915-0.0523-0.17-0.0915-0.2615-0.1438c-0.1046-0.0523-0.2222-0.0915-0.3268-0.1307l-0.1438-0.0523
		c-0.1177-0.0262-0.2353-0.0654-0.3661-0.0915c-0.1176-0.0262-0.2484-0.0392-0.366-0.0654c-0.17-0.0131-0.3268-0.0261-0.4968-0.0392
		c-0.183-0.0131-0.353,0-0.536,0.0262c-0.1176,0.0131-0.2353,0.0262-0.353,0.0523c-0.0915,0.0131-0.17,0.0392-0.2615,0.0653
		l-0.2353,0.0392c-0.0915-0.0131-0.1569-0.0784-0.1961-0.1699c-0.0392-0.1046-0.0131-0.183,0.0523-0.2745l0.1307-0.0785
		c0.1307-0.0392,0.2615-0.0653,0.3922-0.0915c0.1569-0.0262,0.3138-0.0523,0.4706-0.0654
		C32.9144,22.0416,33.0582,22.0416,33.2281,22.0285z"/>
	<path fill="#181313" d="M33.2673,23.1005c0.1307,0.0131,0.2876,0.0131,0.4314,0.0262c0.1438,0.0131,0.2876,0.0392,0.4314,0.0653
		c0.1307,0.0262,0.2615,0.0654,0.3791,0.1046c0.1177,0.0392,0.2223,0.0915,0.3399,0.1307c0.1046,0.0523,0.1961,0.0915,0.3007,0.1569
		l0.1176,0.0915l-0.0131,0.2484c-0.0654,0.0784-0.1438,0.1046-0.2353,0.0784l-0.1046-0.0523
		c-0.0915-0.0523-0.17-0.0915-0.2614-0.1438c-0.0915-0.0392-0.183-0.0784-0.2745-0.1046l-0.183-0.0523
		c-0.0915-0.0262-0.1961-0.0523-0.2876-0.0654l-0.2484-0.0262c-0.1569-0.0131-0.3138-0.0262-0.4837-0.0131
		c-0.183,0-0.3661,0.0131-0.5491,0.0392c-0.1046,0.0131-0.2092,0.0262-0.3268,0.0523l-0.2092,0.0523
		c-0.1307,0.0261-0.2615-0.0785-0.2484-0.2223c0-0.0915,0.0915-0.183,0.183-0.2092c0.1046-0.0262,0.2092-0.0523,0.3138-0.0654
		c0.1569-0.0262,0.3268-0.0523,0.4837-0.0654C32.9666,23.1136,33.1104,23.1136,33.2673,23.1005z"/>
	<circle fill="#20B038" cx="83.4589" cy="11.67" r="4.8928"/>
	<path fill="#FFFFFF" d="M81.159,13.9699l0.3502-1.239c-0.2155-0.3636-0.3232-0.7811-0.3232-1.1986
		c0-1.3199,1.0774-2.4107,2.4107-2.4107c0.6465,0,1.239,0.2559,1.697,0.7138c0.4579,0.4579,0.7138,1.064,0.7138,1.697
		c0,1.3198-1.0774,2.4107-2.4107,2.4107c-0.404,0-0.7946-0.1077-1.1582-0.2963L81.159,13.9699z M82.4923,13.2022l0.0673,0.0404
		c0.3098,0.1885,0.6599,0.2828,1.0236,0.2828c1.1044,0,2.0067-0.9023,2.0067-2.0067c0-0.5387-0.2155-1.037-0.5926-1.4141
		c-0.3771-0.3771-0.8754-0.5791-1.4141-0.5791c-1.1043,0-2.0067,0.8889-2.0067,1.9932c0,0.3771,0.1077,0.7542,0.3098,1.064
		l0.0539,0.0673l-0.202,0.7407L82.4923,13.2022z"/>
	<path fill="#FFFFFF" d="M82.9597,10.5087c-0.0404-0.1077-0.0943-0.1077-0.1347-0.1077h-0.1077l-0.1616,0.0673
		c-0.0539,0.0674-0.2155,0.202-0.2155,0.5118c0,0.2963,0.2155,0.5791,0.2424,0.6195c0.0269,0.0404,0.4175,0.6734,1.0235,0.9158
		c0.5118,0.202,0.606,0.1616,0.7138,0.1482c0.1077-0.0135,0.3502-0.1482,0.404-0.2828s0.0539-0.2693,0.0269-0.2828l-0.1078-0.0674
		l-0.404-0.202l-0.1347,0.0269l-0.1886,0.2289l-0.1347,0.0135c-0.0673-0.0269-0.2559-0.0943-0.4848-0.2963
		c-0.1885-0.1616-0.3098-0.3502-0.3367-0.4175l0.0269-0.1212l0.0943-0.1077l0.0674-0.1077v-0.1078
		C83.1213,10.9262,83.0135,10.6299,82.9597,10.5087z"/>
	<circle fill="#314358" cx="18.5238" cy="22.2062" r="6.3363"/>
	<path fill="#FFFFFF" d="M19.8385,24.0375c-0.1209,0.0518-0.3283,0.1037-0.501,0.1037c-0.4838,0.0173-0.5874-0.3456-0.5874-0.6047
		v-1.9178h1.2267v-0.933H18.75v-1.555h-0.8984l-0.0518,0.0518c-0.0518,0.4838-0.2764,1.3131-1.2094,1.6586v0.7948h0.622v2.0042
		c0,0.6911,0.5011,1.6586,1.8487,1.6414c0.4492,0,0.9503-0.1901,1.0712-0.3628L19.8385,24.0375"/>
	<circle fill="#272726" cx="53.9323" cy="6.3935" r="6.3364"/>
	<path fill="#FFFFFF" d="M56.7598,4.8143h-0.2241l-0.2011,0.1969v2.7793l0.2011,0.1822h0.2241v0.6598h-2.0274V7.9727h0.4231V5.051
		h-0.021l-0.9906,3.5815h-0.7666L52.3992,5.051h-0.0251v2.9217h0.4272v0.6598h-1.6965V7.9727h0.2178
		c0.0901,0,0.2073-0.1047,0.2073-0.1822V5.0112c0-0.0775-0.1173-0.1969-0.2073-0.1969h-0.2178V4.1546h2.1216l0.6974,2.5929h0.0188
		l0.7016-2.5929h2.1154V4.8143"/>
	<circle fill="#4997CF" cx="5.0579" cy="21.5419" r="4.8929"/>
	<path fill="#FFFFFF" d="M7.0422,19.3388C7.2084,19.62,7.285,19.9011,7.285,20.259c0,1.1502-0.9841,2.6328-1.7765,3.6808H3.6938
		l-0.7285-4.3454L4.55,19.441l0.3834,3.0929c0.3578-0.5879,0.8052-1.5081,0.8052-2.1343c0-0.3451-0.0639-0.5751-0.1534-0.7668
		L7.0422,19.3388z"/>
	<circle fill="#0080FF" cx="58.8061" cy="18.6966" r="4.8738"/>
	<path fill="#FFFFFF" d="M58.8485,16.0401c-1.0269,0-1.8575,0.8306-1.8575,1.8575c0,1.3931,1.8575,3.4496,1.8575,3.4496
		s1.8575-2.0565,1.8575-3.4496C60.706,16.8706,59.8754,16.0401,58.8485,16.0401z M58.8485,18.561
		c-0.3662,0-0.6634-0.2972-0.6634-0.6634c0-0.3662,0.2972-0.6634,0.6634-0.6634c0.3662,0,0.6634,0.2972,0.6634,0.6634
		C59.5119,18.2638,59.2147,18.561,58.8485,18.561z"/>
	<circle fill="#FFFFFF" cx="9.1677" cy="36.1614" r="0.7173"/>
	<circle fill="#FFFFFF" cx="15.0587" cy="36.1614" r="0.7173"/>
	<polygon fill="#FFFFFF" points="12.1241,35.0528 12.1024,35.0528 12.0371,34.9441 12.5588,33.2703 12.6675,33.2051 
		14.1022,33.5529 14.1674,33.6616 14.0588,33.7268 12.711,33.4007 12.211,34.9876 	"/>
	<circle fill="#FFFFFF" cx="14.6892" cy="33.7485" r="0.5652"/>
	<ellipse fill="#FFFFFF" cx="12.1024" cy="37.1396" rx="3.2607" ry="2.1303"/>
	<path fill="#FFFFFF" d="M10.972,38.1179c0.2826,0.2826,0.7391,0.3478,1.1304,0.3478"/>
	<path d="M12.1024,38.5526c-0.5652,0-0.9347-0.1304-1.1956-0.3695v-0.1304h0.1304c0.2174,0.2174,0.5652,0.3043,1.0652,0.3043
		l0.0869,0.087L12.1024,38.5526z"/>
	<path fill="#FFFFFF" d="M13.2327,38.1179c-0.2826,0.2826-0.7391,0.3478-1.1304,0.3478"/>
	<path d="M12.1024,38.5526l-0.0869-0.0869l0.0869-0.0869c0.5,0,0.8478-0.1087,1.0652-0.3043h0.1304v0.1304
		C13.0588,38.4439,12.6675,38.5526,12.1024,38.5526z"/>
	<path fill="#FF4500" d="M10.9236,36.1711c-0.2736,0-0.5471,0.2736-0.5471,0.5471s0.2736,0.5471,0.5471,0.5471
		c0.2736,0,0.5471-0.2736,0.5471-0.5471S11.1972,36.1711,10.9236,36.1711z"/>
	<path fill="#FF4500" d="M13.3857,36.1711c-0.2736,0-0.5471,0.2736-0.5471,0.5471s0.2736,0.5471,0.5471,0.5471
		s0.5471-0.2736,0.5471-0.5471S13.6593,36.1711,13.3857,36.1711z"/>
	<circle fill="#3A589E" cx="84.7686" cy="63.5737" r="4.8852"/>
	<path fill="#FFFFFF" d="M84.2433,65.9998l0.0054-0.0879c0.0003-0.6599-0.0007-1.3199,0.0016-1.9798l-0.0865-0.0895
		c-0.1837,0.004-0.3675-0.0007-0.5512,0.0023l-0.0947-0.0907c0.0047-0.225,0.0046-0.4503,0-0.6754l0.0944-0.0902
		c0.1811,0.0039,0.3623,0.0015,0.5435,0.0012l0.0932-0.0039l0.0002-0.12c0.0092-0.2581-0.0046-0.5196,0.0334-0.7733
		c0.0763-0.5078,0.4633-0.8297,0.9814-0.8404c0.2144-0.0044,0.4292,0.0113,0.6438,0.0155l0.1048,0.1102
		c-0.007,0.2016-0.0042,0.4037-0.0011,0.6055l-0.0794,0.0812c-0.1345-0.0034-0.2691-0.0022-0.4037-0.0005l-0.146,0.0132
		c-0.1538,0.0348-0.2351,0.1256-0.2406,0.2812c-0.0066,0.1913-0.0025,0.383-0.0052,0.5744l0.0681,0.0576
		c0.22-0.0012,0.44-0.0005,0.6599-0.0005h0.1051c-0.0146,0.1234-0.0274,0.2376-0.042,0.3516
		c-0.018,0.1408-0.0418,0.2811-0.0548,0.4224l-0.0926,0.0808c-0.1889-0.0024-0.3778,0.0007-0.5667-0.0015l-0.0774,0.075
		c0.0017,0.6703,0.001,1.3406,0.0013,2.0109l0.006,0.0664"/>
	<circle fill="#1076FF" cx="72.7873" cy="59.9709" r="4.278"/>
	<path fill="#FFFFFF" d="M74.2365,58.4571h-2.7826c-0.1913,0-0.3478,0.1565-0.3478,0.3478v3.1304l0.6956-0.6956h2.4348
		c0.1913,0,0.3478-0.1565,0.3478-0.3478V58.805C74.5843,58.6136,74.4278,58.4571,74.2365,58.4571z"/>
	<circle fill="#2A5B83" cx="8.4011" cy="53.125" r="6.3117"/>
	<path fill="#895A4D" d="M10.7953,49.8666H5.864c-0.4566,0-0.8219,0.3653-0.8219,0.8219v1.6438h6.5751v-1.6438
		C11.6172,50.2319,11.2519,49.8666,10.7953,49.8666z"/>
	<path fill="#FF3939" d="M5.4439,49.9945v2.3378h0.4018v-2.4657C5.7179,49.8666,5.5717,49.9032,5.4439,49.9945z"/>
	<rect x="5.864" y="49.8667" fill="#FED049" width="0.4018" height="2.4657"/>
	<rect x="6.2841" y="49.8667" fill="#10DD76" width="0.4018" height="2.4657"/>
	<rect x="6.6859" y="49.8667" fill="#5FCCFF" width="0.4018" height="2.4657"/>
	<circle fill="#162838" cx="10.3752" cy="51.1086" r="0.621"/>
	<circle fill="#2C4356" cx="10.3752" cy="51.1086" r="0.3105"/>
	
		<rect x="10.2977" y="51.0311" transform="matrix(-0.7071 -0.7071 0.7071 -0.7071 -18.4276 94.5842)" fill="#47637A" width="0.155" height="0.155"/>
	<path fill="#E5E0DC" d="M5.0421,52.3323v3.2875c0,0.4566,0.3653,0.8219,0.8219,0.8219h4.9313c0.4566,0,0.8219-0.3653,0.8219-0.8219
		v-3.2875H5.0421z"/>
	<polygon fill="#75483D" points="10.1195,52.3323 9.6447,51.8392 9.6447,52.3323 	"/>
	<path fill="#D0CBC5" d="M9.1515,52.3323l-2.1369,2.1369l1.9725,1.9725h1.8081c0.4566,0,0.8219-0.3653,0.8219-0.8219V53.83
		l-1.4977-1.4977H9.1515z"/>
	<circle fill="#DCD7D3" cx="8.3296" cy="53.1542" r="1.8447"/>
	<circle fill="#162838" cx="8.3296" cy="53.1542" r="1.4429"/>
	<circle fill="#2C4356" cx="8.3296" cy="53.1542" r="0.8219"/>
	<circle fill="#162838" cx="8.3296" cy="53.1542" r="0.4018"/>
	<circle fill="#47637A" cx="8.841" cy="52.6428" r="0.3105"/>
	<circle fill="#FFFA38" cx="76.2489" cy="37.3152" r="6.3117"/>
	<path fill="#020202" d="M76.3171,34.0951L76.3171,34.0951h-0.131c-0.1497,0-0.449,0.0187-0.7671,0.1684
		c-0.1871,0.0749-0.3555,0.1871-0.4865,0.3181c-0.1684,0.1497-0.2993,0.3555-0.4116,0.58
		c-0.1497,0.3368-0.1122,0.8981-0.0935,1.3658v0.1497l-0.0936,0.0187c-0.0935,0-0.1871-0.0187-0.2993-0.0748l-0.1122-0.0187
		l-0.2058,0.0561l-0.1497,0.1871c0,0.0561,0,0.1497,0.0936,0.2432c0.0561,0.0561,0.1497,0.0935,0.2432,0.1497l0.1122,0.0187
		c0.131,0.0374,0.3181,0.0936,0.3555,0.2245c0.0187,0.0562,0.0187,0.131-0.0374,0.2245c-0.0187,0.0187-0.1122,0.2619-0.3368,0.5239
		c-0.131,0.1497-0.2619,0.2619-0.4116,0.3555c-0.1871,0.1122-0.3742,0.1871-0.58,0.2245l-0.1123,0.1684l0.0187,0.0749
		c0.0374,0.0748,0.1122,0.131,0.2245,0.1871c0.1497,0.0748,0.3742,0.131,0.6548,0.1684l0.0374,0.1497l0.0374,0.1497
		c0.0187,0.0562,0.0562,0.131,0.1871,0.131l0.1497-0.0187c0.0935-0.0187,0.2058-0.0374,0.3555-0.0374
		c0.0749,0,0.1684,0,0.2619,0.0187c0.1684,0.0187,0.2994,0.131,0.4677,0.2432c0.2432,0.1684,0.5052,0.3555,0.9355,0.3555h0.0374
		h0.0561c0.4116,0,0.6923-0.1871,0.9355-0.3555c0.1684-0.1123,0.2993-0.2245,0.4677-0.2432
		c0.0935-0.0187,0.1684-0.0187,0.2619-0.0187c0.1497,0,0.2619,0.0187,0.3555,0.0374l0.1497,0.0187
		c0.0936,0,0.1497-0.0561,0.1684-0.131l0.0374-0.1497l0.0374-0.1497c0.2806-0.0374,0.5052-0.1122,0.6548-0.1684
		c0.1122-0.0562,0.1871-0.1123,0.2245-0.1871l0.0187-0.0749l-0.131-0.1684c-0.898-0.1497-1.3097-1.0665-1.3284-1.1039
		c-0.0374-0.0935-0.0561-0.1684-0.0374-0.2245c0.0561-0.1122,0.2432-0.1684,0.3555-0.2245l0.0936-0.0374
		c0.131-0.0561,0.2058-0.0935,0.2619-0.1684l0.0748-0.1871c0-0.1123-0.0935-0.2058-0.2245-0.2432l-0.1497-0.0187l-0.131,0.0187
		c-0.1123,0.0561-0.2058,0.0748-0.2806,0.0748l-0.0936-0.0187v-0.131v-0.0187c0.0374-0.449,0.0562-1.029-0.0935-1.3658
		c-0.1122-0.2245-0.2432-0.4303-0.4116-0.5987c-0.1497-0.131-0.2993-0.2432-0.4865-0.3181
		C76.7661,34.1138,76.4668,34.0951,76.3171,34.0951"/>
	<path fill="#FFFFFF" d="M76.3171,34.2447c0.2432,0,1.1226,0.0748,1.5342,0.9916c0.131,0.2993,0.0935,0.8419,0.0748,1.291
		l-0.0187,0.2058v0.0187l0.0187,0.0187c0,0,0.0748,0.0749,0.2245,0.0936c0.1122,0,0.2245-0.0374,0.3368-0.0936l0.0749-0.0187
		l0.0935,0.0187l0.1122,0.1123c0,0.0187-0.0187,0.0935-0.2432,0.1871l-0.0935,0.0374c-0.1497,0.0561-0.3742,0.1122-0.4677,0.2993
		c-0.0374,0.1123-0.0374,0.2245,0.0374,0.3555c0.0187,0.0562,0.4677,1.0478,1.4406,1.1974v0.0187
		c-0.0187,0.0374-0.131,0.1684-0.7858,0.2807c-0.0935,0.0187-0.131,0.131-0.1497,0.2619l-0.0374,0.1497L78.45,39.6892l-0.131-0.0187
		c-0.0936-0.0187-0.2245-0.0374-0.3929-0.0374c-0.0935,0-0.1871,0-0.2806,0.0187c-0.2058,0.0374-0.3555,0.1497-0.5426,0.2806
		c-0.2245,0.1684-0.4677,0.3368-0.8419,0.3368h-0.0561h-0.0187c-0.3742,0-0.5987-0.1684-0.8419-0.3368
		c-0.1684-0.131-0.3368-0.2432-0.5426-0.2806c-0.0935-0.0187-0.1871-0.0187-0.2806-0.0187c-0.1684,0-0.2993,0.0187-0.3929,0.0374
		l-0.0748,0.0187l-0.0374-0.0187l-0.0374-0.1497c-0.0374-0.131-0.0561-0.2432-0.1497-0.2619
		c-0.6548-0.0936-0.7671-0.2432-0.7858-0.2807v-0.0187c0.9729-0.1684,1.4219-1.1413,1.4406-1.1974
		c0.0748-0.131,0.0935-0.2619,0.0374-0.3555c-0.0748-0.1871-0.2993-0.2619-0.4677-0.2993l-0.0935-0.0374
		c-0.2058-0.0749-0.2619-0.1497-0.2432-0.2058l0.1871-0.1123h0.0561c0.131,0.0562,0.2619,0.0936,0.3742,0.0936
		c0.1684,0,0.2432-0.0749,0.2619-0.0936l0.0187-0.0187v-0.0187l-0.0187-0.2058c-0.0187-0.449-0.0561-0.9916,0.0749-1.291
		c0.4116-0.9168,1.2722-0.9916,1.5342-0.9916L76.3171,34.2447"/>
	<circle fill="#3A00D2" cx="72.7938" cy="21.0649" r="6.3117"/>
	<path fill="#FFFFFF" d="M71.2919,20.8953c0.4341,0.8531,1.1334,1.5494,1.9865,1.9865l0.6632-0.6632
		c0.0814-0.0814,0.202-0.1085,0.3075-0.0723c0.3376,0.1115,0.7024,0.1718,1.0762,0.1718c0.1658,0,0.3015,0.1357,0.3015,0.3015v1.052
		c0,0.1658-0.1357,0.3015-0.3015,0.3015c-2.8306,0-5.1246-2.294-5.1246-5.1246c0-0.1658,0.1357-0.3015,0.3015-0.3015h1.0551
		c0.1658,0,0.3015,0.1357,0.3015,0.3015c0,0.3768,0.0603,0.7385,0.1718,1.0761c0.0331,0.1055,0.009,0.2231-0.0754,0.3075
		L71.2919,20.8953z"/>
	<circle fill="#E04C40" cx="24.8262" cy="62.5421" r="6.3117"/>
	<path fill="#FFFFFF" d="M27.209,60.2649h-4.8752c-0.3352,0-0.6064,0.2742-0.6064,0.6094l-0.0031,3.6564
		c0,0.3352,0.2742,0.6094,0.6094,0.6094h4.8752c0.3352,0,0.6094-0.2742,0.6094-0.6094v-3.6564
		C27.8184,60.5391,27.5442,60.2649,27.209,60.2649z M27.209,61.4837l-2.4376,1.5235l-2.4376-1.5235v-0.6094l2.4376,1.5235
		l2.4376-1.5235V61.4837z"/>
	<circle fill="#28AAE1" cx="39.6511" cy="9.9288" r="6.3117"/>
	<path fill="#FFFFFF" d="M43.2029,8.0419c-0.2385,0.106-0.4903,0.1723-0.7553,0.212c0.265-0.1723,0.477-0.424,0.5698-0.7421
		c-0.2518,0.1458-0.5433,0.265-0.8348,0.318c-0.2385-0.2518-0.583-0.4108-0.9673-0.4108c-0.7288,0-1.3251,0.5963-1.3251,1.3251
		c0,0.106,0.0132,0.1988,0.0397,0.3047c-1.0998-0.0663-2.0804-0.583-2.7297-1.3914c-0.1193,0.1988-0.1855,0.424-0.1855,0.6626
		c0,0.4638,0.2385,0.8613,0.583,1.0998c-0.212-0.0132-0.424-0.0663-0.5963-0.159v0.0132c0,0.636,0.4506,1.1794,1.0601,1.2986
		c-0.106,0.0265-0.2253,0.0397-0.3445,0.0397l-0.2518-0.0265c0.1723,0.5301,0.6625,0.9143,1.2324,0.9143
		c-0.4506,0.3578-1.0204,0.5698-1.6432,0.5698c-0.106,0-0.212,0-0.318-0.0132c0.583,0.371,1.2854,0.5963,2.0274,0.5963
		c2.4382,0,3.7633-2.0142,3.7633-3.7633V8.7177C42.7921,8.5322,43.0174,8.3069,43.2029,8.0419z"/>
	<circle fill="#E52D27" cx="83.4589" cy="49.8666" r="6.3117"/>
	<path fill="#FFFFFF" d="M87.0826,48.3945c0,0-0.0823-0.5147-0.2882-0.7412c-0.2882-0.2882-0.5971-0.2882-0.7412-0.3088
		c-1.0295-0.0824-2.5943-0.0824-2.5943-0.0824s-1.5648,0-2.5943,0.0824c-0.1441,0.0206-0.453,0.0206-0.7412,0.3088
		c-0.2265,0.2265-0.2883,0.7412-0.2883,0.7412s-0.0823,0.5971-0.0823,1.1942v0.5559c0,0.5971,0.0823,1.1942,0.0823,1.1942
		s0.0824,0.5147,0.2883,0.7412c0.2882,0.2882,0.6589,0.2882,0.8236,0.3088c0.5971,0.0618,2.5119,0.0823,2.5119,0.0823
		s1.5648,0,2.5943-0.0823c0.1441-0.0206,0.453-0.0206,0.7412-0.3088c0.2265-0.2265,0.2882-0.7412,0.2882-0.7412
		s0.0824-0.5971,0.0824-1.1942v-0.5559C87.165,48.9916,87.0826,48.3945,87.0826,48.3945z M82.6971,50.8446v-2.0795l1.9972,1.05
		L82.6971,50.8446z"/>
	<path fill="#FFFFFF" d="M88.6692,24.0575c0.4293-0.6292,1.2122-0.6219,1.6978-0.3827c0.287,0.1414,0.4468,0.3965,0.5041,0.6999
		c0.0515,0.2724,0.0792,0.5522,0.0855,0.8295c0.0127,0.5617,0.0014,1.124,0.0056,1.6859c0.0008,0.106-0.0295,0.1422-0.1386,0.1393
		c-0.2752-0.0072-0.5509-0.007-0.8261-0.0001c-0.105,0.0027-0.1344-0.0339-0.1338-0.1339c0.0032-0.5396,0.0027-1.0793-0.0001-1.619
		c-0.0006-0.1186-0.0062-0.2386-0.0258-0.3552c-0.0461-0.2738-0.1926-0.4144-0.4425-0.4405
		c-0.2788-0.0291-0.5154,0.0928-0.5991,0.3413c-0.0512,0.1522-0.0771,0.3192-0.08,0.4802
		c-0.0097,0.5321-0.0066,1.0645-0.0014,1.5966c0.001,0.1059-0.0339,0.1327-0.1338,0.1301
		c-0.2418-0.0061-0.4838-0.0002-0.7257-0.0025c-0.2433-0.0023-0.2231,0.0403-0.2234-0.2289
		c-0.001-0.9901-0.0004-1.9801-0.0004-2.9702l0.0006-0.1228l0.093-0.0927c0.2866,0.0021,0.5732,0.0015,0.8598,0.0002l0.085,0.0866
		C88.6672,23.8095,88.6692,23.9205,88.6692,24.0575z"/>
	<path fill="#FFFFFF" d="M85.9247,25.32c0-0.5282,0.0024-1.0565-0.0022-1.5846c-0.0009-0.1,0.0313-0.127,0.1277-0.125
		c0.2789,0.0058,0.558,0.0051,0.8369,0.0007l0.1201,0.1129c-0.0016,1.0639-0.0017,2.1277-0.0009,3.1916l-0.108,0.1129
		c-0.2901-0.0044-0.5803-0.0045-0.8704,0l-0.1046-0.1128C85.9259,26.3839,85.9247,25.852,85.9247,25.32z"/>
	<path fill="#FFFFFF" d="M85.8376,22.5547c0.0003-0.3481,0.2866-0.6357,0.6299-0.6328c0.3401,0.0029,0.6262,0.2886,0.6277,0.6269
		c0.0016,0.3412-0.293,0.6358-0.6332,0.6333C86.1213,23.1795,85.8373,22.8942,85.8376,22.5547z"/>
	<circle fill="#FC6520" cx="23.0004" cy="7.0162" r="4.8738"/>
	<path fill="#FFFFFF" d="M19.7196,6.6965l-0.0176,0.0176l-0.053,0.3531l0.053,0.3531l0.0176,0.0177l0.0176-0.0177l0.053-0.3531
		l-0.053-0.3531L19.7196,6.6965z M19.9844,6.5023l-0.0177-0.0177l-0.0176,0.0177l-0.0706,0.5649l0.0706,0.5649l0.0176,0.0177
		l0.0177-0.0177l0.0706-0.5649L19.9844,6.5023z M20.9729,5.9727l-0.053,0.053L20.867,7.0672L20.92,7.738l0.053,0.0529l0.0529-0.0529
		l0.0529-0.6708l-0.0529-1.0415L20.9729,5.9727z M20.461,6.3434l-0.0353,0.0353l-0.0529,0.6884l0.0529,0.6708l0.0353,0.0353
		l0.0353-0.0353l0.0706-0.6708l-0.0706-0.6884L20.461,6.3434z M21.4849,7.8086l0.0529-0.0529l0.053-0.6708l-0.053-1.3946
		l-0.0529-0.0529l-0.053,0.0529l-0.0353,1.3946l0.0353,0.6708L21.4849,7.8086z M22.544,7.8086l0.0883-0.0883l0.0353-0.6532
		l-0.0353-1.6064L22.544,5.3725l-0.0883,0.0883l-0.0353,1.6064l0.0353,0.6532L22.544,7.8086z M22.0144,7.8086l0.0706-0.0706
		l0.0353-0.6531l-0.0353-1.4122L22.0144,5.602l-0.0706,0.0706l-0.0353,1.4122l0.0353,0.6531L22.0144,7.8086z M20.7081,7.791
		l0.0353-0.0353l0.0529-0.6708l-0.0529-0.6532l-0.0353-0.0353l-0.0353,0.0353l-0.0529,0.6532l0.0529,0.6708L20.7081,7.791z
		 M20.1962,7.7556l0.0353-0.0353l0.0706-0.6532l-0.0706-0.6708l-0.0353-0.0353l-0.0353,0.0353l-0.0529,0.6708l0.0529,0.6532
		L20.1962,7.7556z M22.2792,5.6549l-0.0706,0.0706l-0.0353,1.3593l0.0353,0.6531l0.0706,0.0706l0.0706-0.0706l0.0353-0.6531
		l-0.0353-1.3593L22.2792,5.6549z M21.2201,7.8086l0.0529-0.0529l0.053-0.6708l-0.053-1.2887l-0.0529-0.053l-0.0529,0.053
		l-0.053,1.2887l0.053,0.6708L21.2201,7.8086z M21.8026,7.738L21.8026,7.738l0.0529-0.6708l-0.0529-1.4475L21.732,5.549
		l-0.0706,0.0706l-0.0353,1.4475l0.0353,0.6708l0.0706,0.0706L21.8026,7.738z M25.2273,6.2551c-0.1059,0-0.2119,0.0177-0.3001,0.053
		c-0.0706-0.7061-0.6531-1.2534-1.3769-1.2534c-0.1765,0-0.3531,0.0353-0.4943,0.0883l-0.0706,0.0883v2.4891l0.0883,0.0883h2.1713
		c0.4237,0,0.7767-0.3531,0.7767-0.7767S25.6509,6.2551,25.2273,6.2551z M22.8088,5.2313l-0.0883,0.0883l-0.0353,1.7653
		l0.0353,0.6355l0.0883,0.0883l0.0883-0.0883l0.0353-0.6355l-0.0353-1.7653L22.8088,5.2313z"/>
	<circle fill="#FFE200" cx="22.064" cy="47.8931" r="4.873"/>
	<path fill="#FFFFFF" d="M20.5252,50.8276h-0.2641c0.024-0.096,0.048-0.192,0.072-0.2761l0.06-0.2521
		c0.024-0.096,0.036-0.192,0.06-0.2881l0.024-0.192l0.024-0.2281l0.012-0.144l0.012-0.2401c0.012-0.108,0.012-0.2161,0.024-0.3361
		c0.012-0.144,0.024-0.2881,0.024-0.4321c0.012-0.2281,0.012-0.4561,0.012-0.6842c0-0.132-0.012-0.2641-0.024-0.3961l-0.024-0.2521
		c-0.024-0.12-0.048-0.2401-0.06-0.3721c-0.012-0.096-0.036-0.192-0.048-0.2761l-0.024-0.204l0.036-0.2281
		c0.06-0.2761,0.2521-0.4561,0.4801-0.5881c0.192-0.108,0.3841-0.1801,0.5881-0.2521c0.12-0.036,0.2401-0.072,0.3721-0.084
		l0.2401-0.024c0.2281,0,0.4321,0.06,0.6122,0.204c0.12,0.096,0.2401,0.204,0.3481,0.3001c0.096,0.084,0.1801,0.18,0.2761,0.2641
		c0.096,0.084,0.204,0.156,0.3241,0.192l0.1801,0.048c0.096,0.036,0.192,0.084,0.2401,0.18l0.036,0.144l-0.024,0.156
		c-0.024,0.144-0.096,0.2641-0.2161,0.3481c-0.096,0.06-0.192,0.12-0.2761,0.1801c-0.096,0.06-0.204,0.096-0.3121,0.132
		c-0.084,0.024-0.1681,0.036-0.2641,0.06l-0.132,0.012c-0.12,0.012-0.228,0.012-0.3481,0.024l-0.072,0.012l-0.084,0.108
		c-0.024,0.108-0.036,0.2161-0.036,0.3241c0,0.108,0,0.2161,0.012,0.3241c0.012,0.2281,0.084,0.4441,0.18,0.6482
		c0.096,0.216,0.2041,0.4321,0.2881,0.6481c0.084,0.2041,0.168,0.4081,0.2401,0.6122c0.048,0.12,0.072,0.2521,0.108,0.3721
		c0.036,0.132,0.06,0.2761,0.048,0.4081v0.048"/>
	<path d="M22.9937,50.8244c0.0139-0.0921,0.0076-0.1836-0.0134-0.2731c-0.0292-0.1258-0.0572-0.2522-0.094-0.3754
		c-0.0381-0.1258-0.0845-0.2496-0.1309-0.3729c-0.0483-0.1283-0.0984-0.2566-0.1531-0.3824
		c-0.0883-0.2014-0.1804-0.4015-0.2732-0.6009c-0.0553-0.1194-0.108-0.2395-0.1391-0.3672
		c-0.0235-0.0978-0.0388-0.1982-0.0489-0.2986c-0.0114-0.1162-0.0172-0.2338-0.0178-0.3513c0-0.0959,0.0057-0.1925,0.0203-0.2871
		l0.0743-0.2592c0.0489-0.0927,0.1277-0.1436,0.2249-0.1639c0.0915-0.019,0.1848-0.0273,0.2782-0.0362
		c0.1029-0.0102,0.2065-0.0127,0.3094-0.0235l0.1639-0.0324l0.0159-0.0083l-0.1588-0.0654l-0.2014-0.1061L22.821,46.759
		l0.0495-0.047l0.0502,0.0127c0.0991,0.0584,0.2026,0.1074,0.3106,0.1448l0.169,0.0496l0.0591-0.0133
		c0.1137-0.0546,0.2172-0.1245,0.3182-0.2001l0.0038-0.0305l-0.141-0.2534l-0.0515-0.1347l-0.0216-0.0241
		c-0.1181-0.0394-0.221-0.1067-0.3151-0.1842c-0.0984-0.0813-0.1867-0.1741-0.282-0.2592
		c-0.1308-0.1181-0.2592-0.2395-0.3976-0.3481c-0.1308-0.1023-0.2858-0.1474-0.4542-0.1505
		c-0.1645-0.0032-0.3221,0.0305-0.4777,0.0794c-0.2077,0.0654-0.4084,0.148-0.5996,0.2522
		c-0.1131,0.0616-0.2147,0.1391-0.2871,0.2484c-0.0534,0.0807-0.0788,0.1702-0.0896,0.2655
		c-0.0114,0.1023-0.0006,0.2026,0.0146,0.3024l0.0508,0.2566c0.0184,0.1017,0.0343,0.2033,0.0489,0.3055l0.0292,0.2325
		c0.0089,0.1023,0.0152,0.2046,0.019,0.3068c0.0045,0.1131,0.0089,0.2261,0.0076,0.3392c-0.0019,0.1848-0.0076,0.3697-0.014,0.5552
		c-0.0051,0.1353-0.0127,0.27-0.0216,0.4053c-0.0121,0.1779-0.0247,0.3564-0.04,0.5342c-0.0108,0.1302-0.0222,0.2611-0.0381,0.3907
		c-0.014,0.1131-0.0337,0.2249-0.0533,0.3373c-0.0184,0.1054-0.0362,0.2115-0.0591,0.3163
		c-0.026,0.1181-0.0572,0.2344-0.0858,0.3519l-0.0013,0.0248H20.261c0.0241-0.094,0.0489-0.1874,0.0712-0.2814l0.0546-0.2503
		c0.019-0.0946,0.0381-0.1893,0.0546-0.2846l0.0247-0.188l0.0299-0.2223l0.014-0.148l0.0178-0.2369
		c0.0076-0.1105,0.0146-0.2211,0.021-0.3322c0.0083-0.1442,0.0184-0.2884,0.0235-0.4332c0.0076-0.2293,0.0153-0.4586,0.0159-0.6879
		c0.0006-0.134-0.0114-0.2681-0.0197-0.4015l-0.0248-0.2522c-0.0184-0.1226-0.0432-0.2446-0.0648-0.3665
		c-0.0165-0.0934-0.0337-0.1861-0.047-0.2801l-0.0197-0.2071l0.0305-0.2274c0.0654-0.2738,0.2497-0.4523,0.4834-0.5888
		c0.1861-0.1086,0.3869-0.1855,0.5914-0.2528c0.1201-0.0394,0.242-0.0731,0.3684-0.0851l0.2331-0.0204
		c0.2242,0.0045,0.4345,0.0616,0.613,0.2033c0.1213,0.0966,0.2369,0.2001,0.3519,0.3043c0.0947,0.0858,0.1804,0.1817,0.277,0.2649
		c0.0972,0.0832,0.202,0.1595,0.3297,0.1944l0.1791,0.0495c0.0972,0.0356,0.1868,0.0845,0.2439,0.1766l0.033,0.1461l-0.019,0.1531
		c-0.0229,0.1455-0.0921,0.263-0.216,0.3449c-0.0934,0.0616-0.1861,0.1239-0.282,0.1804c-0.0991,0.0584-0.2065,0.1004-0.3176,0.1283
		l-0.2585,0.0546l-0.1353,0.0133c-0.115,0.0083-0.2293,0.0146-0.3443,0.0229L22.497,47.33l-0.0858,0.1061
		c-0.0254,0.1067-0.0406,0.216-0.0406,0.3259c0,0.1067,0.0019,0.2134,0.0076,0.3195c0.0127,0.2306,0.0832,0.4446,0.1817,0.6524
		c0.101,0.2122,0.1988,0.4262,0.2897,0.6422c0.0845,0.2014,0.1626,0.4066,0.2357,0.6124c0.0432,0.1226,0.0724,0.2496,0.1061,0.3754
		c0.0362,0.134,0.0546,0.2706,0.054,0.4097l-0.0038,0.0502L22.9937,50.8244z"/>
	<path d="M21.6089,50.8244c-0.0476-0.115-0.1016-0.2274-0.1416-0.3449c-0.0349-0.1029-0.0413-0.2122-0.0394-0.3214
		c0.0013-0.1105,0.0165-0.2191,0.0489-0.3233c0.0318-0.1017,0.0756-0.1995,0.115-0.2986l0.0534-0.1099l0.061-0.0381l0.0533,0.0425
		l-0.0038,0.0419c-0.0432,0.0997-0.0934,0.1976-0.1308,0.2998l-0.0642,0.2528l-0.0133,0.2077c0,0.134,0.0406,0.2585,0.0972,0.3792
		l0.0908,0.2134L21.6089,50.8244z"/>
	<path d="M22.1552,50.8244l-0.0095-0.2426l0.0349-0.2401l0.0394-0.256c0.0114-0.1004,0.0172-0.2014,0.026-0.3024l0.0629-0.0584
		l0.0553,0.061c-0.0057,0.0978-0.0121,0.1956-0.0222,0.2935l-0.0369,0.2497l-0.0337,0.2083l-0.0013,0.2274l-0.0006,0.0597H22.1552z"
		/>
	<path d="M20.9019,46.3251c0.007-0.176,0.0902-0.3068,0.2236-0.4104l0.2236-0.1035c0.1169-0.0235,0.2249-0.0019,0.3259,0.0565
		c0.1239,0.0724,0.2141,0.176,0.2643,0.3119l0.014,0.0483l-0.0318,0.0654l-0.0667-0.033c-0.0432-0.1061-0.1207-0.181-0.216-0.2395
		c-0.129-0.0788-0.2567-0.0737-0.3818,0.0102c-0.0794,0.0533-0.1429,0.1201-0.174,0.2134
		c-0.0337,0.1023-0.0134,0.1969,0.0349,0.2884l0.1626,0.1868l0.0178,0.075l-0.0731,0.0133
		c-0.1448-0.0718-0.2446-0.1836-0.2916-0.3398L20.9019,46.3251z"/>
	<path d="M22.6012,46.2108l-0.0102-0.1626c0.0311-0.0883,0.1378-0.1461,0.2293-0.127l0.1429,0.0896
		c0.0692,0.1029,0.0197,0.2458-0.0984,0.2839l-0.1925-0.0159l-0.033-0.007l-0.1042-0.0044l-0.0298-0.0337l0.0381-0.0216
		L22.6012,46.2108z"/>
	<circle cx="90.4725" cy="38.7329" r="4.8852"/>
	<path fill="#FFFFFF" d="M90.44,41.8515h-0.0359c-1.5093-0.018-2.7312-0.9883-3.1085-2.4976
		c-0.0539-0.1617,0.0539-0.3414,0.2156-0.3773c0.1617-0.0359,0.3414,0.0539,0.3773,0.2336c0.1617,0.6289,0.5031,1.15,0.9703,1.5093
		c0.4312,0.3234,0.9703,0.5031,1.5453,0.5031c0.9703,0.018,2.264-0.5211,2.6953-2.0663c0.0539-0.1617,0.2156-0.2695,0.3773-0.2156
		c0.1617,0.0539,0.2695,0.2156,0.2156,0.3773c-0.2156,0.7906-0.6648,1.4554-1.2937,1.9046
		C91.8416,41.6359,91.1588,41.8515,90.44,41.8515z"/>
	<path fill="#E1F5FC" d="M63.0851,51.0333c0,0-6.3963,4.0206-11.1479,4.7516c-4.7516,0.731-1.9493-5.6653-1.9493-5.6653
		s6.1526,1.0356,12.0616-1.7666C62.7196,50.0587,63.0851,51.0333,63.0851,51.0333z"/>
	<path fill="#E9DFFF" d="M63.7552,48.8403l1.8884,0.1523c0,0-1.325,1.9037-2.5585,2.0407
		c-0.4121-0.7703-0.9509-2.4645-0.9509-2.4645L63.7552,48.8403z"/>
	<polygon fill="#434448" points="62.5938,51.1677 64.7668,51.8502 67.5882,43.3301 65.0448,43.331 	"/>
	<polygon fill="#5A626C" points="67.787,44.0098 67.5882,43.3301 64.7668,51.8502 65.3832,51.5812 	"/>
	<polygon fill="#E1F5FC" points="65.182,43.9071 66.9842,44.0013 64.6595,51.3426 63.0433,50.89 	"/>
	<path fill="#E9DFFF" d="M63.6069,47.5656l-1.4796,1.0748l0.5655,0.7784l1.4796-1.0747c0,0,0.2727-0.3043,0.0101-0.6658
		C64.011,47.4421,63.6069,47.5656,63.6069,47.5656z"/>
	<polygon fill="#351C36" points="54.0743,31.8929 42.9574,31.8929 42.9574,35.6447 54.525,35.2643 	"/>
	<path fill="#1D66C4" d="M53.5485,30.9637h4.244c0,0,1.0516,0.0751,0.676,0.7511c-0.3756,0.676-0.2253,0.7511-0.8638,0.7136
		c-0.6385-0.0376-14.7411-0.5258-14.7411-0.5258s-0.1628-2.411,0-3.1924c0.16-0.7676,0.7532-2.967,3.5784-3.1548
		c2.8251-0.1878,3.2007-0.0751,3.7265,0C50.6942,25.6306,54.2621,26.1564,53.5485,30.9637z"/>
	<path fill="#FFFFFF" d="M40.8996,47c-4.4773,7.8248,0,20.9036,0,20.9036l11.9731-0.3476
		c-2.9621-6.7441-2.2024-14.0388-1.8255-19.477C47.7892,49.5672,43.1662,47.9743,40.8996,47z"/>
	<path fill="#E1F5FC" d="M40.8996,47c-3.9744,9.1891-0.2393,20.9036-0.2393,20.9036s6.7305,0.7204,5.8261-0.3476
		C41.0748,61.1659,42.4718,51.7526,40.8996,47z"/>
	<path fill="#E9DFFF" d="M54.525,38.7756c0,0,0.4517-3.2274-0.1127-4.8448c-2.2159,0.0751-6.4504-1.8028-6.4504-1.8028
		l-0.9333-0.0161l-1.6863,3.3399c0,0-1.0704-1.5492-2.4788-3.5492c-2.3203-0.174-2.0052,2.025-1.5774,2.6196
		c1.2669,1.7609,3.8398,4.3783,1.7464,8.1405c-0.8456,1.5198-1.5482,2.9786-2.1329,4.3373
		c2.2665,0.9743,6.8896,2.5671,10.1476,1.079c0.0573-4.0426,1.1152-8.5115,1.6187-9.7542
		C53.1441,38.3195,54.525,38.7756,54.525,38.7756z"/>
	<circle cx="51.0766" cy="35.7779" r="0.4063"/>
	<path fill="#E1F5FC" d="M48.2901,95.9286l-0.4273,3.7409c0,0,6.6279,0.5511,8.9587,0.595c0.945,0.0178,1.9833-1.8025,0.1846-2.4633
		c-2.4426-0.9691-4.6121-2.094-4.6121-2.094L48.2901,95.9286z"/>
	<polygon fill="#E9DFFF" points="48.503,93.7936 48.2901,95.9286 52.394,95.7072 52.5473,93.989 	"/>
	<path fill="#FFFFFF" d="M40.7386,94.9358l-1.2328,3.5577c0,0,6.3481,1.9833,8.6133,2.5345
		c0.9184,0.2234,2.3287-1.3265,0.7174-2.3637c-2.1725-1.4785-4.0444-3.0494-4.0444-3.0494L40.7386,94.9358z"/>
	<polygon fill="#E9DFFF" points="41.412,92.8987 40.7386,94.9358 44.792,95.6148 45.3163,93.9713 	"/>
	<path fill="#E1F5FC" d="M44.3721,53.3073c0,0-1.7923,7.7148,3.259,14.3278c-3.4192-0.1852-4.1941-1.6264-4.1941-1.6264
		s-7.8673-1.7975-1.9639-16.5491"/>
	<path fill="#FFFFFF" d="M44.3721,53.3073c0,0-3.6443,4.3565,1.5116,10.45c-2.5078,2.4384-2.9677,2.8205-2.9677,2.8205
		s-8.8047-4.6424-1.8558-18.9312"/>
	<path fill="#E9DFFF" d="M45.3546,69.1148c0.4132,0.4033,2.8036-0.2749,2.4948-0.9229c-0.5646-1.1847-1.1686-2.3748-1.1686-2.3748
		s0.4115-0.0407,0.6729,0.0861c0.2226,0.108,0.6735,0.0497,0.5681-0.4835c-0.0337-0.1702-0.251-0.2877-0.4985-0.4667
		c-0.3335-0.2412-1.5395-1.1958-1.5395-1.1958l-3.0676,2.7121C42.8161,66.4693,44.4722,68.3254,45.3546,69.1148z"/>
	<polyline fill="#A1C4FF" points="70.3575,9.557 69.0547,9.557 69.0547,10.9299 	"/>
	<polyline fill="#2757A1" points="67.752,10.9299 69.0548,10.9299 69.0548,9.557 	"/>
	<path d="M48.59,35.0869c-0.0938,0.6457,0.7083,1.2968,1.7916,1.4541c1.0833,0.1574,2.0375-0.2385,2.1313-0.8842"/>
	<path d="M53.2206,35.7596c-0.0938,0.6457,0.7083,1.2968,1.7916,1.4542c1.0833,0.1574,2.0375-0.2385,2.1313-0.8842"/>
	<rect x="46.8253" y="35.1488" transform="matrix(0.9896 0.1438 -0.1438 0.9896 5.6253 -7.1128)" width="10.4055" height="0.4353"/>
	<path d="M46.48,35.122l-0.4615-0.067c0.0641-0.4411,0.4511-0.7159,0.8922-0.6519l-0.0626,0.4308
		C46.6615,34.8067,46.5071,34.9354,46.48,35.122z"/>
	<path fill="#EBFEFF" d="M53.9212,35.9752c0,0,0.5049,0.2092,0.6018,0.058S53.7147,35.8,53.9212,35.9752z"/>
	<path fill="#EBFEFF" d="M49.1851,35.2871c0,0,0.5049,0.2092,0.6018,0.058C49.8837,35.1938,48.9785,35.1119,49.1851,35.2871z"/>
</g>
</svg>
