<?xml version="1.0" encoding="utf-8"?>
<!-- Generator: Adobe Illustrator 19.1.0, SVG Export Plug-In . SVG Version: 6.00 Build 0)  -->
<svg version="1.2" baseProfile="tiny" id="Layer_1" xmlns="http://www.w3.org/2000/svg" xmlns:xlink="http://www.w3.org/1999/xlink"
	 x="0px" y="0px" viewBox="-204 318.4 173.4 147.1" xml:space="preserve">
<g>
	<circle fill="#27A9E0" cx="-100" cy="396.1" r="69.4"/>
	<path fill="#C8C0C3" d="M-149,430.5c0,0-14.1-37-50.4-21.7c-7.2,3-4-5-3-6c10.4-10.2,40.6-11.6,59.6,16.4"/>
	<path fill="#E6E1DF" d="M-148.2,381.2c-9.8-12.7-2.7-44.9-2.7-44.9s19.2,4.3,32.8,8.8c6.4-7.5,25.3-5.1,25.3-5.1s8-11.2,17.6-21.6
		C-61.4,332.4-54,376-54,376l7.3,3.6l-3.7,4l3.7,3.7c0,0-28.3,32.5-47.2,28.3C-112.8,411.4-132.2,402-148.2,381.2z"/>
	<path fill="#C8C0C3" d="M-68.1,421.6l-68.1,12.6l14.9,28c6.7,2.2,13.9,3.3,21.3,3.3c8.2,0,16.1-1.4,23.5-4.1
		c6.2-5.1,6.9-11.7,6.9-11.7s1.2,3.5,3,7.2c3.7-2.1,7.3-4.5,10.6-7.1c-2.8-9.3-10.4-16.6-11.1-18.5
		C-68.2,428.8-68.1,421.6-68.1,421.6z"/>
	<path fill="#E6E1DF" d="M-86.6,448.1l1.7-0.1c0,0,22.9-7.6,15.4-32.1s-74-8.5-74-8.5l-9,13.7c0,0-3.2,7-3.1,16.4
		c10.8,14.5,27.1,24.6,45.7,27.3c-0.2-0.4-0.4-0.7-0.7-1.1c-4.2-6.3-12.5-6.2-12.5-6.2s10.3-7,6.7-13.7l12.5,4.3
		c4.1,9.3,6.6,14.4,8.7,17.3c3.5-0.2,6.9-0.7,10.3-1.5C-84.7,457.5-86.6,448.1-86.6,448.1z"/>
	<path fill="#C8C0C3" d="M-133.3,399.2l3.3-2.2c0,0-17.5-19.6-1-40.4c-17.2,1.9-15.4-13.8-15.4-13.8l-4.5-6.4c0,0-9.3,32.2,3.2,47.4
		C-135.2,398.9-133.3,399.2-133.3,399.2z"/>
	<path fill="#C8C0C3" d="M-150.6,392.9l4.3,4.5l-5.3,3.2c0,0,49.1,46.6,82.1,15.3c-3.1-6.1-3.1-6.1-3.1-6.1s-42.1,11-77.1-31.1
		c2.7,5.9,3.2,7.6,2.3,10C-148,390-150.6,392.9-150.6,392.9z"/>
	<path fill="#F26F5B" d="M-127.3,351l-20-8.7c0,0-3.9,22,0,27.2c3.3-3.6,10.8-8.7,10.8-8.7l-4.7-0.8l7.1-3.5l-1.1-3.1L-127.3,351z"
		/>
	<path fill="#F26F5B" d="M-80.9,343.2l6.5-22.1c0,0,11.6,19.6,12.1,33.1c-4.4-2.4-6.7-3.6-6.7-3.6l1.9-2.9l-4.5-0.5l1.1-6.3
		l-6.8,4.1L-80.9,343.2z"/>
	<path fill="#5B3F35" d="M-102.3,389.6c0.5,0.1,0.9,0.2,1.4,0.3s0.9,0.1,1.3,0.2h0.7c0.2,0,0.4,0,0.6,0s0.4,0,0.6-0.1
		s0.4-0.1,0.5-0.2l0.2-0.1l0.2-0.2c0.1-0.1,0.2-0.2,0.3-0.4c0.1-0.1,0.1-0.3,0.2-0.5c0.1-0.2,0.1-0.4,0.1-0.5c0-0.2,0.1-0.4,0.1-0.6
		c0-0.2,0-0.4,0-0.6c0-0.4,0-0.8,0-1.4c0-0.5,0.4-1,0.9-1s0.9,0.3,0.9,0.8l0,0c0.2,0.8,0.5,1.6,0.9,2.4c0.2,0.4,0.4,0.7,0.7,1.1
		c0.3,0.3,0.5,0.6,0.8,0.8c0.2,0.1,0.3,0.2,0.5,0.3c0.2,0.1,0.4,0.2,0.5,0.2c0.2,0,0.4,0.1,0.6,0.2c0.2,0,0.4,0.1,0.6,0.1h0.7
		c0.2,0,0.4-0.1,0.7-0.1c0.2,0,0.5-0.1,0.7-0.2l0.7-0.2c-0.4,0.3-0.8,0.6-1.2,0.8c-0.2,0.1-0.4,0.2-0.7,0.3l-0.7,0.2
		c-0.3,0.1-0.5,0.1-0.8,0.1s-0.5,0-0.8,0s-0.5-0.1-0.8-0.2c-0.3-0.1-0.5-0.2-0.8-0.3c-0.2-0.1-0.5-0.3-0.7-0.4
		c-0.2-0.2-0.4-0.4-0.6-0.6c-0.4-0.4-0.7-0.8-1-1.3c-0.6-0.9-0.9-1.9-1.1-2.9l2.1-0.1c0,0.4,0,0.9,0,1.4s-0.1,1-0.3,1.6
		c-0.1,0.3-0.2,0.5-0.3,0.8c-0.2,0.3-0.3,0.5-0.5,0.7c-0.2,0.2-0.4,0.5-0.6,0.6c-0.1,0.1-0.2,0.2-0.4,0.3l-0.4,0.2
		c-0.3,0.1-0.6,0.2-0.8,0.2c-0.3,0.1-0.6,0-0.8,0c-0.3,0-0.5,0-0.8-0.1l-0.7-0.2c-0.2-0.1-0.5-0.2-0.7-0.3c-0.2-0.1-0.5-0.2-0.7-0.3
		C-101.5,390.1-101.9,389.9-102.3,389.6z"/>
	<path fill="#F26F5B" d="M-88.9,380l-11.9,0.6c0,0-0.2,3.9,5.7,3.5C-89.2,383.8-89.7,382.9-88.9,380z"/>
	<circle fill="#5B3F35" cx="-98.7" cy="384.7" r="0.4"/>
	<circle fill="#5B3F35" cx="-100.3" cy="383.8" r="0.4"/>
	<circle fill="#5B3F35" cx="-100.6" cy="385.5" r="0.4"/>
	<circle fill="#5B3F35" cx="-88.5" cy="383.6" r="0.4"/>
	<circle fill="#5B3F35" cx="-90.1" cy="384.7" r="0.4"/>
	<circle fill="#5B3F35" cx="-88.7" cy="385.7" r="0.4"/>
	<circle fill="#F26F5B" cx="-95.1" cy="384" r="1.5"/>
	<circle cx="-68.2" cy="375.3" r="2.1"/>
	<circle cx="-122.1" cy="380.5" r="2.1"/>
</g>
</svg>
