<?xml version="1.0" encoding="utf-8"?>
<!-- Generator: Adobe Illustrator 18.0.0, SVG Export Plug-In . SVG Version: 6.00 Build 0)  -->
<svg version="1.2" baseProfile="tiny" id="Layer_1" xmlns="http://www.w3.org/2000/svg" xmlns:xlink="http://www.w3.org/1999/xlink"
	 x="0px" y="0px" viewBox="0 0 80.3748 101.2108" xml:space="preserve">
<g>
	<circle fill="#404BBA" cx="38.254" cy="48.9916" r="37.0636"/>
	<circle fill="#1D66C4" cx="37.0636" cy="49.7059" r="37.0636"/>
	<path fill="#FCCC81" d="M44.8507,61.0128c-0.4895-0.0629-0.9298,0.1951-0.9784,0.5734c-0.0486,0.3783,0.3121,0.7392,0.8017,0.8021
		l4.7535,0.6107c0.4895,0.0629,0.9298-0.1951,0.9784-0.5734c0.0486-0.3783-0.3122-0.7392-0.8017-0.8021L44.8507,61.0128z"/>
	<path fill="#E9DFFF" d="M23.5829,28.5271L18.426,30.33c0,0,2.1944,5.271,2.913,6.8924c0.1937,0.4372,0.2003,0.6858,1.5855,1.0698
		c1.9825,0.5496,3.6208,1.0641,5.1843,1.4647c1.5635,0.4006-0.1371-1.9035-0.1371-1.9035L26.5995,35.22l1.2444-1.3989
		L23.5829,28.5271z"/>
	
		<rect x="30.9604" y="41.817" transform="matrix(0.8497 -0.5273 0.5273 0.8497 -21.7577 28.9734)" fill="#FFFFFF" width="17.9486" height="21.6566"/>
	<line fill="#15606C" x1="21.339" y1="39.664" x2="36.5281" y2="30.2372"/>
	<line fill="#15606C" x1="21.4581" y1="39.7568" x2="36.6472" y2="30.33"/>
	
		<rect x="26.5227" y="30.444" transform="matrix(0.5273 0.8497 -0.8497 0.5273 48.4878 -8.3241)" fill="#FFA724" width="10.4057" height="17.9486"/>
	<circle fill="#FF8B00" cx="31.7393" cy="39.4963" r="3.8948"/>
	<polygon fill="#6B4436" points="32.3358,37.7325 30.1971,39.0598 30.6451,39.7816 32.8251,38.3272 	"/>
	<path fill="#1D66C4" d="M32.1237,37.6165l0.8165-0.5067c0,0,0.2113-0.1111,0.2197,0.0638c0.0085,0.1749,0.0464,0.1714-0.081,0.2404
		c-0.1273,0.069-2.8987,1.6589-2.8987,1.6589s-0.3192-0.4444-0.3812-0.6141c-0.0609-0.1668-0.2094-0.6607,0.3117-1.0342
		s0.6068-0.3966,0.7169-0.4449C30.9379,36.9313,31.687,36.6064,32.1237,37.6165z"/>
	<path fill="#E1F5FC" d="M34.5711,42.1711c-0.3228-0.1614-0.6254-0.5313-0.885-0.9632c-0.4491,0.6753-1.5287,0.9208-2.0811,1.004
		c0.0696,0.4637,0.1605,0.8609,0.2471,1.1772c0.6653-0.0186,1.3347-0.2072,1.941-0.5835
		C34.0856,42.6241,34.3452,42.4099,34.5711,42.1711z"/>
	<path fill="#E9DFFF" d="M33.2444,39.0027c0,0-0.2985-0.6748-0.6002-0.9186c-0.4173,0.279-1.4562,0.4234-1.4562,0.4234
		l-0.1815,0.1083l0.0744,0.8439c0,0-0.3909-0.1702-0.9006-0.3868c-0.4672,0.2436-0.144,0.629,0.0093,0.6923
		c0.454,0.1875,1.2615,0.3839,1.308,1.3576c0.0188,0.3933,0.0578,0.7579,0.1075,1.0891c0.5524-0.0832,1.632-0.3287,2.0811-1.004
		c-0.4716-0.7845-0.8017-1.7706-0.8532-2.0698C32.9242,39.0799,33.2444,39.0027,33.2444,39.0027z"/>
	<rect x="32.158" y="38.7727" transform="matrix(0.9737 0.228 -0.228 0.9737 9.7034 -6.3238)" width="0.1301" height="0.1301"/>
	<circle fill="#3B83F3" cx="46.0732" cy="52.1619" r="1.9901"/>
	<circle fill="#0080FF" cx="33.9415" cy="53.6515" r="1.9901"/>
	<path fill="#FFFFFF" d="M33.3841,52.7207c-0.3563,0.2211-0.4656,0.6881-0.2445,1.0444c0.3,0.4833,1.3872,0.7969,1.3872,0.7969
		s0.2016-1.1135-0.0984-1.5968C34.2074,52.6089,33.7404,52.4996,33.3841,52.7207z M33.9269,53.5953
		c-0.127,0.0789-0.2942,0.0397-0.373-0.0873s-0.0397-0.2942,0.0873-0.373c0.127-0.0788,0.2942-0.0397,0.373,0.0873
		C34.0931,53.3494,34.054,53.5164,33.9269,53.5953z"/>
	<circle fill="#FFFFFF" cx="45.2319" cy="52.5843" r="0.2262"/>
	<circle fill="#FFFFFF" cx="46.8102" cy="51.6047" r="0.2262"/>
	<polygon fill="#FFFFFF" points="45.8397,51.7957 45.8338,51.7993 45.7983,51.781 45.6597,51.2458 45.678,51.2103 46.1202,51.0649 
		46.1558,51.0832 46.1375,51.1188 45.7222,51.2555 45.8521,51.7638 	"/>
	
		<rect x="46.184" y="50.8938" transform="matrix(-0.9737 -0.228 0.228 -0.9737 79.7673 111.2547)" fill="#FFFFFF" width="0.252" height="0.252"/>
	
		<ellipse transform="matrix(-0.5273 -0.8497 0.8497 -0.5273 26.0456 119.2063)" fill="#FFFFFF" cx="46.1808" cy="52.3584" rx="0.6717" ry="1.0281"/>
	<path fill="#FFFFFF" d="M46.0406,52.8084c0.1227,0.0287,0.2558-0.0297,0.3607-0.0948"/>
	<path d="M46.4157,52.7369c-0.1514,0.094-0.2721,0.1205-0.3817,0.0998l-0.0217-0.0349l0.0349-0.0217
		c0.0944,0.0221,0.202-0.0125,0.336-0.0956l0.0378,0.0089L46.4157,52.7369z"/>
	<path fill="#FFFFFF" d="M46.6463,52.4325c-0.0287,0.1227-0.1402,0.2161-0.245,0.2811"/>
	<path d="M46.4157,52.7369l-0.0378-0.0089l0.0089-0.0378c0.1339-0.0831,0.209-0.1701,0.2347-0.2586l0.0349-0.0217l0.0217,0.0349
		C46.6539,52.5488,46.5672,52.6429,46.4157,52.7369z"/>
	
		<rect x="45.673" y="52.3195" transform="matrix(0.2279 -0.9737 0.9737 0.2279 -15.7026 85.081)" fill="#FF4500" width="0.244" height="0.244"/>
	
		<rect x="46.3326" y="51.9101" transform="matrix(0.2279 -0.9737 0.9737 0.2279 -14.7956 85.4055)" fill="#FF4500" width="0.244" height="0.244"/>
	<circle fill="#3A589E" cx="38.655" cy="50.7917" r="1.9901"/>
	<path fill="#FFFFFF" d="M39.3011,51.5504c-0.1533-0.247-0.3046-0.4908-0.4593-0.7401l0.1801-0.1132l0.0346-0.1199l-0.0863-0.1931
		l-0.0271-0.0479l-0.2412,0.1498l-0.0724-0.016l-0.0988-0.1628l0.0287-0.1699l0.1665-0.1085l0.015-0.0568l-0.1489-0.2402
		c-0.1566,0.0904-0.3327,0.1516-0.4202,0.3282c-0.052,0.105-0.0564,0.2148-0.0061,0.3193c0.049,0.1021,0.1102,0.1984,0.1661,0.2972
		l0.0155,0.0269l-0.25,0.1586c0.0586,0.094,0.1142,0.1845,0.1721,0.2736l0.0368,0.0044l0.1846-0.113l0.0433-0.0246l0.413,0.7319
		L39.3011,51.5504z"/>
	<circle fill="#1076FF" cx="35.8983" cy="46.4692" r="1.9901"/>
	<polygon fill="#FFFFFF" points="36.0998,45.5153 34.9999,46.1979 34.9478,46.4207 35.7157,47.6581 35.82,47.2124 36.7824,46.6151 
		36.8346,46.3923 36.3226,45.5674 	"/>
	<circle fill="#2A5B83" cx="41.3583" cy="55.1474" r="1.9901"/>
	<path fill="#895A4D" d="M41.4579,53.8764l-1.3211,0.8199c-0.1223,0.0759-0.1595,0.2345-0.0835,0.3568l0.2733,0.4404l1.7615-1.0933
		l-0.2733-0.4404C41.7389,53.8376,41.5803,53.8005,41.4579,53.8764z"/>
	<polygon fill="#FF3939" points="40.0456,54.8004 40.4343,55.4267 40.5419,55.3599 40.132,54.6994 	"/>
	
		<rect x="40.3323" y="54.6045" transform="matrix(-0.8497 0.5273 -0.5273 -0.8497 103.7178 80.4167)" fill="#FED049" width="0.1267" height="0.7774"/>
	
		<rect x="40.4448" y="54.5346" transform="matrix(-0.8496 0.5275 -0.5275 -0.8496 103.8944 80.2152)" fill="#10DD76" width="0.1267" height="0.7775"/>
	
		<rect x="40.5525" y="54.4678" transform="matrix(-0.8497 0.5273 -0.5273 -0.8497 104.0531 80.0479)" fill="#5FCCFF" width="0.1267" height="0.7775"/>
	<circle fill="#162838" cx="41.5519" cy="54.279" r="0.1958"/>
	
		<rect x="41.4827" y="54.2098" transform="matrix(-0.9737 -0.2279 0.2279 -0.9737 69.6381 116.6003)" fill="#2C4356" width="0.1384" height="0.1384"/>
	
		<rect x="41.5275" y="54.2545" transform="matrix(-0.9737 -0.228 0.228 -0.9737 69.6363 116.601)" fill="#47637A" width="0.0489" height="0.0489"/>
	<path fill="#E5E0DC" d="M40.3266,55.4936l0.5466,0.8807c0.0759,0.1223,0.2345,0.1595,0.3568,0.0835l1.3211-0.8199
		c0.1223-0.0759,0.1595-0.2345,0.0835-0.3568l-0.5466-0.8807L40.3266,55.4936z"/>
	<polygon fill="#75483D" points="41.6869,54.6493 41.4777,54.5962 41.5597,54.7283 	"/>
	<path fill="#D0CBC5" d="M41.4276,54.8103l-0.2172,0.9278l0.8564,0.2005l0.4844-0.3006c0.1223-0.0759,0.1595-0.2345,0.0835-0.3569
		l-0.2976-0.4795l-0.6502-0.1522L41.4276,54.8103z"/>
	<circle fill="#DCD7D3" cx="41.344" cy="55.1671" r="0.5816"/>
	<circle fill="#162838" cx="41.344" cy="55.1671" r="0.4549"/>
	<circle fill="#2C4356" cx="41.344" cy="55.1671" r="0.2591"/>
	
		<rect x="41.2544" y="55.0775" transform="matrix(-0.9737 -0.2279 0.2279 -0.9737 69.0263 118.3053)" fill="#162838" width="0.1792" height="0.1792"/>
	
		<rect x="41.3268" y="54.8758" transform="matrix(-0.9737 -0.2279 0.2279 -0.9737 69.1817 117.8779)" fill="#47637A" width="0.1385" height="0.1384"/>
	<circle fill="#FFFA38" cx="36.6404" cy="57.9678" r="1.9901"/>
	<path fill="#020202" d="M36.1233,57.0938L36.1233,57.0938l-0.0351,0.0218c-0.0401,0.0249-0.1172,0.0797-0.1775,0.1726
		l-0.0775,0.1661l-0.0138,0.2238c0.0159,0.1151,0.1192,0.2592,0.202,0.3815l0.0249,0.0401l-0.0219,0.0206L35.9317,58.15
		l-0.0332,0.0136l-0.0458,0.0493l-0.009,0.075l0.0655,0.0496l0.0901-0.0003l0.0332-0.0136l0.1326,0.001l0.0273,0.0664
		c-0.0019,0.0081,0.0135,0.0888-0.0031,0.1964l-0.0512,0.1637l-0.118,0.1566l-0.0021,0.0638l0.0175,0.0169l0.0913,0.0128
		l0.2034-0.0638l0.0349,0.0339l0.0349,0.0339l0.0719,0.004l0.037-0.0299l0.089-0.0691l0.0733-0.0385l0.1657-0.0126
		c0.0932,0.0047,0.1945,0.0112,0.3097-0.0603l0.01-0.0062l0.015-0.0093c0.1103-0.0685,0.1543-0.1652,0.1915-0.2508l0.0849-0.1429
		l0.0671-0.0486l0.1014-0.0491l0.0432-0.0199l0.0233-0.0631l-0.0149-0.0463l-0.0149-0.0463l0.1474-0.154l0.029-0.0875
		l-0.0074-0.0232l-0.0631-0.0233c-0.2655,0.1092-0.5282-0.068-0.5394-0.0749l-0.0474-0.0539l0.0579-0.1193l0.0188-0.0256
		l0.0422-0.0887l-0.011-0.0626l-0.1006-0.0278l-0.0432,0.0199l-0.032,0.0268l-0.0627,0.0667l-0.0282,0.0106l-0.0218-0.0351
		l-0.0031-0.005c-0.0646-0.1265-0.156-0.285-0.2521-0.3503l-0.2098-0.092l-0.1832-0.0043
		C36.2467,57.0241,36.1634,57.0689,36.1233,57.0938"/>
	<path fill="#FFFFFF" d="M36.1481,57.1339c0.0652-0.0404,0.3132-0.1666,0.5759,0.0106c0.0849,0.0584,0.1651,0.21,0.2347,0.3334
		l0.0292,0.0583l0.0031,0.005l0.0081,0.0019l0.0757-0.0123l0.0746-0.0811l0.017-0.0175l0.0282-0.0106l0.0487,0.0114l-0.0341,0.0906
		l-0.0188,0.0256l-0.0756,0.158l0.0692,0.089c0.0143,0.0119,0.2995,0.2029,0.5851,0.0813l0.0031,0.005
		c0.0012,0.0131-0.0071,0.0669-0.1639,0.2058l0.0034,0.0951l0.0149,0.0463l-0.0019,0.0081l-0.0382,0.0168l-0.1115,0.0553
		l-0.0721,0.0517l-0.0987,0.1654c-0.0322,0.0825-0.0693,0.168-0.1696,0.2302l-0.015,0.0093l-0.005,0.0031
		c-0.1003,0.0622-0.1884,0.0544-0.2816,0.0497l-0.192,0.015l-0.0783,0.0417l-0.0991,0.0753l-0.0169,0.0175l-0.0131,0.0012
		l-0.0349-0.0339l-0.0836-0.0453c-0.191,0.0838-0.2459,0.0624-0.2572,0.0555l-0.0031-0.005
		c0.2326-0.2069,0.1912-0.5422,0.1869-0.5603l-0.0491-0.1015l-0.1751-0.0024l-0.0313,0.0055l-0.0994-0.0147l0.0315-0.0612
		l0.015-0.0093l0.1158-0.0372l0.0546-0.0686l0.0019-0.0081l-0.0031-0.005l-0.0392-0.052c-0.0797-0.1172-0.1799-0.2563-0.1946-0.3583
		c-0.0422-0.314,0.176-0.4772,0.2461-0.5208L36.1481,57.1339"/>
	<circle fill="#3A00D2" cx="31.21" cy="49.3212" r="1.9901"/>
	<path fill="#FFFFFF" d="M30.7794,49.5255c0.2581,0.1564,0.5613,0.2267,0.8625,0.2019l0.0674-0.2879l0.0703-0.0705
		c0.109-0.0262,0.2168-0.0707,0.3169-0.1329l0.1309,0.0306l0.1749,0.2819l-0.0306,0.1309c-0.7583,0.4706-1.7543,0.2375-2.225-0.5208
		l0.0306-0.1309l0.2827-0.1754l0.1309,0.0306c0.0627,0.101,0.1389,0.1878,0.2249,0.2597l0.0309,0.0949L30.7794,49.5255z"/>
	<circle fill="#E04C40" cx="40.6389" cy="43.4614" r="1.9901"/>
	<path fill="#FFFFFF" d="M40.8987,42.4551l-1.3061,0.8106l-0.0611,0.2641l0.6071,0.9801l0.2646,0.062l1.3061-0.8106l0.0619-0.2646
		l-0.6079-0.9796L40.8987,42.4551z M41.1013,42.7816l-0.3997,0.8134l-0.9063-0.0028l-0.1013-0.1633l0.9064,0.0028L41,42.6183
		L41.1013,42.7816z"/>
	<circle fill="#28AAE1" cx="43.4012" cy="47.8568" r="1.9901"/>
	<path fill="#FFFFFF" d="M44.0391,46.7607l-0.1671,0.1824c0.0424-0.0902,0.0573-0.1929,0.0293-0.2935l-0.1707,0.224
		c-0.1058-0.0278-0.2245-0.0131-0.3275,0.0508c-0.1953,0.1212-0.2559,0.3801-0.1347,0.5753l0.0613,0.075
		c-0.3057,0.1651-0.6543,0.1897-0.9626,0.0811l0.0605,0.2083c0.0771,0.1243,0.2071,0.1911,0.3391,0.1977l-0.1862,0.0565
		l0.0022,0.0035c0.1057,0.1704,0.3168,0.2411,0.4999,0.1717l-0.0857,0.0679l-0.0719,0.0348c0.1343,0.1133,0.3295,0.1348,0.4822,0.04
		c-0.0612,0.1708-0.1786,0.3223-0.3455,0.4259l-0.0874,0.0493c0.2179,0.0024,0.4435-0.054,0.6423-0.1773
		c0.6532-0.4054,0.6733-1.1653,0.3825-1.6339l-0.0287-0.0462C44.0105,46.9603,44.0334,46.8625,44.0391,46.7607z"/>
	<circle fill="#E52D27" cx="39.2678" cy="62.151" r="1.9901"/>
	<path fill="#FFFFFF" d="M39.9938,61.1541c0,0-0.1076-0.1242-0.2005-0.1506c-0.1251-0.0293-0.2079,0.0221-0.2499,0.0405
		c-0.2895,0.1491-0.7087,0.4093-0.7087,0.4093s-0.4192,0.2602-0.6813,0.4534c-0.0352,0.0295-0.1179,0.0808-0.1472,0.206
		c-0.023,0.0983,0.046,0.2465,0.046,0.2465s0.0772,0.1737,0.1765,0.3336l0.0924,0.149c0.0993,0.1599,0.2206,0.3062,0.2206,0.3062
		s0.1077,0.1242,0.2005,0.1507c0.1252,0.0293,0.2245-0.0323,0.272-0.0542c0.1702-0.0827,0.6866-0.3956,0.6866-0.3956
		s0.4192-0.2602,0.6813-0.4534c0.0352-0.0295,0.1179-0.0808,0.1472-0.206c0.023-0.0983-0.046-0.2465-0.046-0.2465
		s-0.0772-0.1736-0.1765-0.3336l-0.0924-0.1489C40.1152,61.3004,39.9938,61.1541,39.9938,61.1541z M39.2263,62.5397l-0.3458-0.5571
		l0.7097-0.0508L39.2263,62.5397z"/>
	<circle fill="#0274B3" cx="48.71" cy="56.4105" r="1.9901"/>
	<circle fill="#FC6520" cx="43.9858" cy="59.3796" r="1.9901"/>
	<path fill="#FFFFFF" d="M42.7787,59.9751l-0.0023,0.0099l0.0576,0.1339l0.0944,0.1111l0.0099,0.0023l0.0023-0.0099l-0.0576-0.1339
		l-0.0944-0.1111L42.7787,59.9751z M42.8288,59.8507l-0.0099-0.0023l-0.0023,0.0099l0.0971,0.2112l0.1461,0.1808l0.0099,0.0023
		l0.0023-0.0099l-0.0971-0.2112L42.8288,59.8507z M43.0577,59.4541l-0.007,0.0298l0.2059,0.3727l0.1628,0.2213l0.0298,0.007
		l0.007-0.0298l-0.1261-0.2441l-0.2426-0.3499L43.0577,59.4541z M42.96,59.693l-0.0046,0.0198l0.1299,0.2503l0.1628,0.2213
		l0.0198,0.0047l0.0046-0.0199l-0.1199-0.2479l-0.1727-0.2237L42.96,59.693z M43.6307,59.9809l0.007-0.0298l-0.1261-0.2441
		l-0.3186-0.4724l-0.0298-0.007l-0.007,0.0298l0.2881,0.4914l0.1567,0.2252L43.6307,59.9809z M43.9981,59.7528l0.0116-0.0497
		l-0.1284-0.2342l-0.3582-0.5497l-0.0496-0.0116l-0.0116,0.0496l0.3336,0.5649l0.1529,0.219L43.9981,59.7528z M43.8144,59.8668
		l0.0093-0.0397l-0.1284-0.2342l-0.3163-0.4824l-0.0397-0.0093L43.33,59.141l0.2918,0.4976l0.1529,0.219L43.8144,59.8668z
		 M43.3574,60.142l0.0046-0.0199L43.236,59.878l-0.159-0.2152l-0.0199-0.0047l-0.0046,0.0199l0.1223,0.238l0.1628,0.2213
		L43.3574,60.142z M43.1722,60.24l0.0046-0.0198l-0.1161-0.2418l-0.1689-0.2175l-0.0199-0.0046l-0.0046,0.0198l0.1261,0.2441
		l0.159,0.2152L43.1722,60.24z M43.4425,59.0626l-0.0093,0.0397l0.2804,0.4792l0.1529,0.219l0.0397,0.0093l0.0093-0.0397
		l-0.1284-0.2342l-0.3049-0.464L43.4425,59.0626z M43.5388,60.0379l0.007-0.0298l-0.1261-0.2441l-0.2958-0.4357l-0.0298-0.007
		l-0.007,0.0298l0.2591,0.4585l0.1628,0.2213L43.5388,60.0379z M43.7257,59.8879L43.7257,59.8879l-0.1261-0.2441l-0.33-0.4908
		l-0.0397-0.0093l-0.0093,0.0397l0.2994,0.5098l0.1567,0.2251l0.0397,0.0093L43.7257,59.8879z M44.5946,58.6361l-0.0927,0.083
		c-0.1765-0.2298-0.4965-0.2942-0.7476-0.1383l-0.1525,0.1371l-0.0055,0.0458l0.5359,0.8636l0.0496,0.0116l0.7533-0.4675
		c0.147-0.0912,0.1935-0.2897,0.1022-0.4367C44.9462,58.5875,44.7416,58.5448,44.5946,58.6361z M43.5351,58.8016l-0.0116,0.0496
		l0.3679,0.6201l0.1491,0.2129l0.0496,0.0116l0.0116-0.0496l-0.1246-0.2281l-0.3924-0.6049L43.5351,58.8016z"/>
	<path fill="#E9DFFF" d="M30.0587,36.9587c0.2268-0.2196,0.2329-0.5852,0.0136-0.8123l-4.0671-4.2127
		c-0.2193-0.2271-0.5842-0.2333-0.811-0.0136l-0.4439,0.4299c-0.2268,0.2196-0.2329,0.5852-0.0136,0.8123l4.0671,4.2127
		c0.2193,0.2271,0.5842,0.2332,0.811,0.0136L30.0587,36.9587z"/>
	<polygon fill="#E1F5FC" points="24.9269,0 19.9895,10.8074 23.9669,28.39 18.426,30.33 11.596,11.3834 12.8852,0 	"/>
	<circle fill="#FAFAFA" cx="20.5381" cy="65.9964" r="8.0095"/>
	<circle fill="#DCDCDC" cx="20.0444" cy="65.8044" r="5.2117"/>
	<circle fill="#8D6F64" cx="20.0307" cy="65.7906" r="4.0459"/>
	
		<ellipse transform="matrix(0.7507 -0.6606 0.6606 0.7507 -34.8875 31.5995)" fill="#DCDCDC" cx="24.4275" cy="62.0278" rx="1.5186" ry="0.7664"/>
	<path fill="#93B9F9" d="M56.9957,60.1806l-2.4949,5.9278l15.0915,9.0549c0,0,10.6808,25.7731,11.1158,26.045
		c0.4351,0.2719-0.3667-21.9244-0.3667-21.9244s-4.7941-10.4291-5.3651-10.4019C74.4053,68.9092,56.9957,60.1806,56.9957,60.1806z"
		/>
	<path fill="#689DF7" d="M58.4916,60.9288l-2.5478,6.0455l1.9554,1.1732l2.6169-6.2094
		C59.7384,61.551,59.0497,61.2074,58.4916,60.9288z"/>
	<path fill="#689DF7" d="M62.6665,63.0065l-2.6914,6.3865l1.9554,1.1732l2.7631-6.5565
		C64.0016,63.668,63.3206,63.3308,62.6665,63.0065z"/>
	<path fill="#689DF7" d="M67.192,65.2394l-2.8537,6.7714l1.9554,1.1732l2.9299-6.9522
		C68.567,65.9126,67.8846,65.5791,67.192,65.2394z"/>
	<path fill="#689DF7" d="M71.7307,67.4408l-3.0292,7.188l0.8908,0.5345c0,0,0.2448,0.5949,0.6595,1.5999l3.5255-8.3654
		C73.2348,68.1523,72.5354,67.8245,71.7307,67.4408z"/>
	<path fill="#689DF7" d="M75.9731,70.3454l-4.2275,10.0312c0.3766,0.9092,0.7863,1.8971,1.2153,2.9294l4.3621-10.3506
		C76.8387,71.9813,76.3679,71.0629,75.9731,70.3454z"/>
	<path fill="#689DF7" d="M78.6346,75.6507l-4.4573,10.5767c0.4047,0.97,0.8147,1.9506,1.2202,2.9177l4.5312-10.7518
		C79.6167,77.7237,79.1545,76.738,78.6346,75.6507z"/>
	<path fill="#689DF7" d="M80.3687,84.3161l-3.5037,8.3137c0.4378,1.0341,0.8533,2.0099,1.2317,2.8906l2.2751-5.3984
		C80.3774,88.1113,80.3745,86.0743,80.3687,84.3161z"/>
	<path fill="#A1887F" d="M51.2578,56.8062l-2.8164-2.4928c-0.3695-0.3271-0.8787-0.3611-1.1315-0.0755
		c-0.2527,0.2856-0.1572,0.7868,0.2124,1.114l2.0639,1.8268l-0.1853,0.0413l-3.489-2.403c-0.4065-0.2799-0.916-0.252-1.1323,0.0621
		c-0.2163,0.3141-0.0608,0.8001,0.3457,1.08l3.1472,2.1676l-0.1547,0.1243l-4.0847-2.0598
		c-0.4407-0.2222-0.9417-0.1254-1.1134,0.2151c-0.1717,0.3405,0.0483,0.801,0.489,1.0232l4.1897,2.1128l-0.0175,0.0502
		l-4.235-0.9429c-0.4818-0.1072-0.9437,0.1096-1.0266,0.4818c-0.0829,0.3723,0.2435,0.7646,0.7252,0.8718l4.4475,0.9901
		c0,0,1.0197,0.347,0,0.8699c-1.0197,0.5229,2.0021,1.3654,2.0021,1.3654s-0.0851-0.1225,2.301-0.2041
		c1.5903-0.0544,2.9979,0.5302,2.9979,0.5302l-0.055-2.9225L51.2578,56.8062z"/>
	<path fill="#FCCC81" d="M51.2578,56.3546l-2.8164-2.4928c-0.3695-0.3271-0.8787-0.3611-1.1315-0.0755
		c-0.2527,0.2856-0.1572,0.7868,0.2124,1.114l2.0639,1.8268l-0.1853,0.0413l-3.489-2.403c-0.4065-0.2799-0.916-0.252-1.1323,0.0621
		c-0.2163,0.3141-0.0608,0.8001,0.3457,1.08l3.1472,2.1676l-0.1547,0.1243l-4.0847-2.0598
		c-0.4407-0.2222-0.9417-0.1254-1.1134,0.2151c-0.1717,0.3405,0.0483,0.801,0.489,1.0232l4.1897,2.1128l-0.0175,0.0502
		l-4.235-0.9429c-0.4818-0.1072-0.9437,0.1096-1.0266,0.4818c-0.0829,0.3723,0.2435,0.7646,0.7252,0.8718l4.4475,0.9901
		c0,0,1.0197,0.347,0,0.8699c-1.0197,0.5229-0.2554,1.3654-0.2554,1.3654s2.1725,2.1351,4.5586,2.0535
		c1.5903-0.0544,2.9979,0.5302,2.9979,0.5302l2.2025-5.18L51.2578,56.3546z"/>
	<path d="M54.1171,25.4973c-0.9982-0.3529-2.1966-0.1964-2.1966-0.1964l-0.4336-0.1935l0.0054-0.0139l-0.1552-0.053l-0.1505-0.0671
		l-0.0055,0.0139l-0.4493-0.1534c0,0-0.7714-0.9302-1.743-1.3511c-0.9716-0.4208-4.7886-1.8811-4.7886-1.8811L43.72,22.8242
		l0.5434,0.2135c0,0-1.6066,3.0931,1.9543,4.2567c3.5609,1.1636,4.3564-1.66,4.3564-1.66l0.3057,0.1201l0.6113,0.2402
		c0,0-1.339,2.6102,2.0618,4.1813c3.4008,1.5712,4.329-1.7885,4.329-1.7885l0.5434,0.2135l0.4803-1.2227
		C58.9056,27.3784,55.1153,25.8502,54.1171,25.4973z"/>
	<path fill="#2D3C55" d="M56.0492,26.7659c0,0,1.5756,0.5797,0.6647,2.2997s-2.591,0.8073-3.0383,0.649
		c-0.3437-0.1216-2.1944-0.5013-1.6504-2.5848C52.5694,25.0461,54.561,26.0637,56.0492,26.7659z"/>
	<path fill="#2D3C55" d="M46.7098,23.0971c0,0-1.5489-0.6477-2.0522,1.2323c-0.5033,1.88,1.3488,2.355,1.7842,2.5434
		c0.3346,0.1448,1.9489,1.1264,2.9684-0.7704C50.4298,24.2056,48.2781,23.5956,46.7098,23.0971z"/>
	
		<ellipse transform="matrix(-0.3656 0.9308 -0.9308 -0.3656 102.4114 -14.6785)" fill="#FFFFFF" cx="56.2078" cy="27.56" rx="0.1581" ry="0.3892"/>
	
		<ellipse transform="matrix(-0.3656 0.9308 -0.9308 -0.3656 89.7113 -11.7862)" fill="#FFFFFF" cx="48.8721" cy="24.6783" rx="0.1581" ry="0.3892"/>
	<path d="M31.6185,39.0703c0.061,0.1241,0.2792,0.1419,0.4876,0.0396c0.2083-0.1023,0.3278-0.2859,0.2668-0.41L31.6185,39.0703z"/>
	<path d="M33.2634,38.2625L32.509,38.633c0.061,0.1241,0.2792,0.1419,0.4876,0.0396
		C33.2049,38.5703,33.3243,38.3867,33.2634,38.2625z"/>
	<polygon points="33.2231,38.1795 31.2428,39.1519 31.1649,39.3729 31.2536,39.3293 31.2834,39.2347 33.2637,38.2623 	"/>
	<path fill="#EBFEFF" d="M32.6573,38.5867l0.1122-0.062L32.6573,38.5867z"/>
	<path fill="#EBFEFF" d="M31.7465,39.034l0.1122-0.062L31.7465,39.034z"/>
</g>
</svg>
