<?xml version="1.0" encoding="utf-8"?>
<!-- Generator: Adobe Illustrator 19.1.0, SVG Export Plug-In . SVG Version: 6.00 Build 0)  -->
<svg version="1.2" baseProfile="tiny"
	 id="Layer_1" xmlns:inkscape="http://www.inkscape.org/namespaces/inkscape" xmlns:sodipodi="http://sodipodi.sourceforge.net/DTD/sodipodi-0.dtd" xmlns:svg="http://www.w3.org/2000/svg" xmlns:cc="http://creativecommons.org/ns#" xmlns:rdf="http://www.w3.org/1999/02/22-rdf-syntax-ns#" xmlns:dc="http://purl.org/dc/elements/1.1/"
	 xmlns="http://www.w3.org/2000/svg" xmlns:xlink="http://www.w3.org/1999/xlink" x="0px" y="0px" viewBox="185 369.6 41.2 48"
	 xml:space="preserve">
<g id="g4140">
	<path id="path12727-1" fill="#FFFFFF" d="M205.6,369.9c-1,0-2.1,0-2.8,0.2c-8.9,1.2-15.9,8.3-17.3,17.2c-0.7,4.7,0.3,9.6,2.7,13.6
		c1.6,2.6,3.8,4.9,6.3,6.5c3,2,6.2,3,10,3.3l1,0.1v3.2c0,1.8,0,3.2,0.1,3.3c0.1,0.1,0.4,0.1,1.4-0.4c4-2,7.7-4.7,10.8-7.8
		c4.5-4.6,7.1-9.7,8-15.9c0.2-1.3,0.2-4.5,0-5.8c-1.4-9-8.4-16-17.3-17.2C207.7,370,206.6,369.9,205.6,369.9z M196,384.3h6.6
		c0.7,0,1.2,0.5,1.2,1.2v7.7c0,0.1,0,0.2,0,0.2c-0.1,1.2-0.2,1.7-0.6,2.5c-0.9,1.8-2.6,3.1-4.5,3.3c-0.3,0-0.5,0-0.6-0.2
		c-0.2-0.2-0.2-0.3-0.2-1.3c0-1.3,0-1.3,1-1.6c0.5-0.2,1.1-0.5,1.3-0.8c0.3-0.4,0.6-1.2,0.6-1.6v-0.4c-1.6,0-3.2,0-4.8,0
		c-0.7,0-1.2-0.5-1.2-1.2v-6.6C194.8,384.9,195.3,384.3,196,384.3L196,384.3z M208.6,384.3h6.6c0.7,0,1.2,0.5,1.2,1.2v7.7
		c0,0.1,0,0.2,0,0.2c-0.1,1.2-0.2,1.7-0.6,2.5c-0.9,1.8-2.6,3.1-4.5,3.3c-0.3,0-0.5,0-0.6-0.2c-0.2-0.2-0.2-0.3-0.2-1.3
		c0-1.3,0-1.3,1-1.6c0.5-0.2,1.1-0.5,1.3-0.8c0.3-0.4,0.6-1.2,0.6-1.6v-0.4c-1.6,0-3.2,0-4.8,0c-0.7,0-1.2-0.5-1.2-1.2v-6.6
		C207.4,384.9,207.9,384.3,208.6,384.3L208.6,384.3z"/>
</g>
</svg>
