<?xml version="1.0" encoding="utf-8"?>
<!-- Generator: Adobe Illustrator 19.1.0, SVG Export Plug-In . SVG Version: 6.00 Build 0)  -->
<svg version="1.2" baseProfile="tiny" id="Layer_1" xmlns="http://www.w3.org/2000/svg" xmlns:xlink="http://www.w3.org/1999/xlink"
	 x="0px" y="0px" viewBox="-277 377 40 40" xml:space="preserve">
<path fill="none" d="M-281,373h48v48h-48V373z"/>
<path d="M-259,407h4v-12h-4V407z M-257,377c-11,0-20,9-20,20s9,20,20,20s20-9,20-20S-246,377-257,377z M-257,413
	c-8.8,0-16-7.2-16-16s7.2-16,16-16s16,7.2,16,16S-248.2,413-257,413z M-259,391h4v-4h-4V391z"/>
</svg>
