<?xml version="1.0" encoding="utf-8"?>
<!-- Generator: Adobe Illustrator 18.0.0, SVG Export Plug-In . SVG Version: 6.00 Build 0)  -->
<svg version="1.2" baseProfile="tiny" id="Layer_1" xmlns="http://www.w3.org/2000/svg" xmlns:xlink="http://www.w3.org/1999/xlink"
	 x="0px" y="0px" viewBox="0 0 103.8 99.8" xml:space="preserve">
<g>
	<path fill="#007CB9" d="M44.3,99.8c0.7,0,1.4,0,2.1-0.1c0.1,0,0.2,0,0.3,0c0.7,0,1.3-0.1,2-0.1c0.1,0,0.3,0,0.4,0
		c0.7-0.1,1.3-0.2,2-0.2l0.2,0c0.6-0.1,1.2-0.2,1.9-0.3l0.2,0c0.6-0.1,1.3-0.3,1.9-0.4c0.1,0,0.2-0.1,0.4-0.1
		c0.6-0.2,1.2-0.3,1.8-0.5c0.1,0,0.2-0.1,0.3-0.1c0.6-0.2,1.2-0.4,1.8-0.6l0.1,0c0.6-0.2,1.2-0.5,1.8-0.7c0.1,0,0.2-0.1,0.3-0.1
		c0.6-0.2,1.1-0.5,1.7-0.8c0.1-0.1,0.2-0.1,0.3-0.2c0.6-0.3,1.1-0.6,1.7-0.9l0.1-0.1c0.5-0.3,1.1-0.6,1.6-0.9l0.2-0.1
		c0.5-0.3,1.1-0.7,1.6-1c0.1-0.1,0.2-0.1,0.3-0.2c0.5-0.3,1-0.7,1.5-1.1l0.2-0.2c0.5-0.4,1-0.8,1.5-1.1l0.1-0.1
		c0.5-0.4,1-0.8,1.4-1.2l0.3-0.2c0.5-0.4,0.9-0.8,1.3-1.3l0.2-0.2c0.4-0.4,0.9-0.9,1.3-1.4l0.1-0.1c0.4-0.5,0.8-0.9,1.2-1.4l0.2-0.2
		c6.3-7.7,10.1-17.5,10.1-28.1c0-24.5-19.9-44.3-44.3-44.3C19.9,11.1,0,31,0,55.4C0,79.9,19.9,99.8,44.3,99.8"/>
	<path fill="#F0D0B4" d="M66.4,49.9L66.4,49.9l0.1,0.2c0.1,0.1,0.4,0.3,0.7,0.6c0.6,0.6,1.7,1.4,3,2.3c1.3,0.9,3,1.9,4.9,2.9
		c0.9,0.5,1.9,1,2.9,1.4c0.5,0.2,1,0.5,1.5,0.7l0.2,0.1l0,0c-0.3-0.1-0.1,0-0.2-0.1l0,0l0,0l0.1,0l0.4,0.2c0.1,0,0.3,0.1,0.4,0.1
		l0.2,0c0.1,0,0.3,0.1,0.4,0.1c0.2,0,0.3,0.1,0.5,0.1c0.3,0,0.6,0,0.9,0c0.6-0.1,1.2-0.3,1.9-0.7c1.3-0.8,2.4-2.1,3.3-3.4
		c0.9-1.3,1.5-2.5,1.9-3.3c0.4-0.8,0.6-1.3,0.5-1.3c0.5-1.6,2.2-2.5,3.7-2s2.5,2.2,2,3.7c0,0.1-0.2,0.7-0.6,1.8
		c-0.4,1.1-1,2.6-2,4.4c-1,1.8-2.4,3.9-4.7,5.7c-1.2,0.9-2.6,1.7-4.3,2.2c-0.8,0.2-1.7,0.4-2.6,0.4c-0.4,0-0.9,0-1.3,0
		c-0.4,0-0.9-0.1-1.3-0.2l-0.7-0.1c-0.2-0.1-0.3-0.1-0.5-0.1l-0.4-0.1l-0.1,0l-0.3-0.1l-0.2-0.1c-0.6-0.2-1.2-0.4-1.8-0.6
		c-1.2-0.4-2.3-0.8-3.4-1.3c-2.2-0.9-4.2-1.8-5.9-2.8c-1.7-0.9-3.1-1.8-4.1-2.5c-0.5-0.4-0.9-0.6-1.2-0.9c-0.2-0.1-0.3-0.2-0.4-0.3
		L60,56.7l0,0c-2-1.7-2.2-4.7-0.5-6.6s4.7-2.2,6.6-0.5C66.2,49.7,66.3,49.8,66.4,49.9z"/>
	<path fill="#231F20" d="M66.3,60.5L60.7,57c-2.2-1.4-2.9-4.3-1.5-6.5c1.4-2.2,4.3-2.9,6.5-1.5c0.1,0.1,0.2,0.1,0.3,0.2l5.4,3.9"/>
	<path fill="#231F20" d="M66.6,60.1l-5.6-3.5c-1.3-0.8-2-2.2-2-3.6c0-0.8,0.2-1.5,0.6-2.2c0.8-1.3,2.2-2,3.6-2
		c0.8,0,1.5,0.2,2.2,0.6l0.3,0.2l0,0l5.4,3.9l0.6-0.8l-5.4-3.9l0,0c-0.1-0.1-0.2-0.1-0.3-0.2c-0.9-0.5-1.8-0.8-2.7-0.8
		c-1.7,0-3.4,0.9-4.4,2.5c-0.5,0.9-0.8,1.8-0.8,2.8c0,1.7,0.9,3.4,2.5,4.4L66,61L66.6,60.1L66.6,60.1z"/>
	<path fill="#FBB040" d="M99,26.2c-0.7,1.6-2.7,2.3-4.3,1.6c-1.6-0.7-2.3-2.7-1.6-4.3l-4.8-2.2l-10.1,22l4.8,2.2
		c0.7-1.6,2.7-2.3,4.3-1.6c1.6,0.7,2.3,2.7,1.6,4.3l4.8,2.2l10.1-22L99,26.2z M93.2,36.9l0.2,3.6l-2.9-2l-3.3,1.3l1-3.4l-2.2-2.8
		l3.6-0.1l2-3l1.2,3.4l3.4,0.9L93.2,36.9z"/>
	
		<ellipse transform="matrix(-0.6996 -0.7145 0.7145 -0.6996 121.3794 150.8647)" fill="#ECC19C" cx="92.4" cy="49.9" rx="0.9" ry="1.2"/>
	<path fill="#1C75BC" d="M60.4,95.8c-1.8,0.1-3.5,0.6-5.2,0.6c-3.7,0-7.5-0.2-11.2-0.7c-0.1,0-0.2,0-0.3,0c-7-1-13.5-3-20.8-3.2
		c-0.9,0-1.9,0-2.8,0.1c7,4.6,15.3,7.3,24.3,7.3c0.7,0,1.4,0,2.1-0.1c0.1,0,0.2,0,0.3,0c0.7,0,1.3-0.1,2-0.1c0.1,0,0.3,0,0.4,0
		c0.7-0.1,1.3-0.2,2-0.2l0.2,0c0.6-0.1,1.2-0.2,1.9-0.3l0.2,0c0.6-0.1,1.3-0.3,1.9-0.4c0.1,0,0.2-0.1,0.4-0.1
		c0.6-0.2,1.2-0.3,1.8-0.5c0.1,0,0.2-0.1,0.3-0.1c0.6-0.2,1.2-0.4,1.8-0.6l0.1,0c0.6-0.2,1.2-0.5,1.8-0.7c0.1,0,0.2-0.1,0.3-0.1
		c0.4-0.2,0.9-0.4,1.3-0.6C62.1,95.7,61.2,95.7,60.4,95.8z"/>
	<path fill="#16679E" d="M22.1,92.4c-0.7,0-1.4,0.1-2,0.2c3.1,2,6.5,3.7,10.1,4.9c-0.6-0.7-1.3-1.5-1.8-2.4
		C27.3,93.4,25.8,92.3,22.1,92.4z"/>
	<path fill="#414042" d="M71.1,76.9c-1-3.2-3.9-6.5-4.2-9.7c-0.2-2.1,0.1-4.4,0.1-6.6c0-10.1-11.8-18.2-26.2-18.2
		c-14.5,0-26.2,8.2-26.2,18.2c0,2.8,0.4,5.7,0.6,8.5c0.3,4.3,0.6,8.6,1,12.8c0.2,2.1,0.3,4.2,0.5,6.3c0,0.6,0.1,1.3,0.2,1.9
		c7.6,6,17.1,9.6,27.6,9.6c0.7,0,1.4,0,2.1-0.1c0.1,0,0.2,0,0.3,0c0.7,0,1.3-0.1,2-0.1c0.1,0,0.3,0,0.4,0c0.7-0.1,1.3-0.2,2-0.2
		l0.2,0c0.6-0.1,1.2-0.2,1.9-0.3l0.2,0c0.6-0.1,1.3-0.3,1.9-0.4c0.1,0,0.2-0.1,0.4-0.1c0.6-0.2,1.2-0.3,1.8-0.5
		c0.1,0,0.2-0.1,0.3-0.1c0.6-0.2,1.2-0.4,1.8-0.6l0.1,0c0.6-0.2,1.2-0.5,1.8-0.7c0.1,0,0.2-0.1,0.3-0.1c0.6-0.2,1.1-0.5,1.7-0.8
		c0.1-0.1,0.2-0.1,0.3-0.2c0.6-0.3,1.1-0.6,1.7-0.9l0.1-0.1c0.5-0.3,1.1-0.6,1.6-0.9l0.2-0.1c0.5-0.3,1.1-0.7,1.6-1
		c0.1-0.1,0.2-0.1,0.3-0.2c0.5-0.3,1-0.7,1.5-1.1l0.2-0.2l0.1-0.1C72.5,86.3,72.5,81.4,71.1,76.9"/>
	<path fill="#231F20" d="M23,83.1c-0.1-1.5,0-2.6,0.6-4c0.6-1.3,1-2.9,1.1-4.3c0.1-2.6-1.2-5-1.7-7.6c-0.4-2.4-0.2-5-0.2-7.5
		c0-0.4,0-0.8-0.2-1.2c-0.4-0.8-1.3-1-2.2-1c-1.2-0.1-2.5-0.1-3.7,0.4c-3.1,1.2-2.2,4-2,6.7c0.3,3.1,0.5,6.2,0.8,9.3
		c0,3.7,0.6,7.5,0.9,11.1c0.1,1.7,0.3,3.5,0.4,5.2c3.7,2.9,7.8,5.2,12.3,6.8c0.2,0,0.4,0,0.7-0.1C25.9,93.5,23.4,88.2,23,83.1"/>
	<path fill="#EAA03D" d="M28.3,22.5c-0.1-4.1-1.7-12.3,2.3-14.9c0.7-0.5,1.6-0.8,2.2-1.3s1.2-1.4,1-2.2c-3.5-0.4-7.2,0.4-10.3,2.1
		c-0.9,0.5-1.7,1.1-2.6,1.7c-4.1,2.8-4.2,8.6-4.7,13.2c-0.3,2.8,0.7,6,2.2,8.3c2.3,3.4,10.1,7.4,9.9,0.5
		C28.4,27.5,28.4,25,28.3,22.5z"/>
	<path fill="#EFC7B0" d="M32.3,16.7L32.4,35c0,9.7,5.1,15.7,11.4,15.7S55.4,44.7,55.4,35V16.7H32.3z"/>
	<path fill="#FBB040" d="M57.5,5.1c-3,1,7.7,14.8,9.8,16c0.6-0.8,0.8-1.8,1.2-2.9c0.6-1.8,1.1-3.8,0.8-5.7c-0.3-1.5-1.1-2.7-2-3.9
		c-0.7-0.8-1.4-1.7-2.2-2.3C63,4.8,60.1,4.3,57.5,5.1z"/>
	<ellipse fill="#F0D0B4" cx="45.2" cy="22.2" rx="23" ry="22.2"/>
	<path fill="#EFC7B0" d="M68.2,22.2c0,6.3-2.8,12.3-7.6,16.4c-2.7,2.3-6,4.2-9.3,5.2c-1.7,0.5-3.6,0.8-5.3,0.4
		c-1.8-0.4-2.4-1.7-3.5-2.9c3.4,0.1,6.5-0.2,9.6-1.6c1.8-0.9,3.4-2.1,5-3.3c3.6-2.9,6.9-6.5,7.9-10.9c0.3-1.4,0.4-2.9,0.5-4.4
		c0.1-3.8-0.7-8.1-3-11.2c-0.3-0.4-0.6-0.7-0.8-1.1c-0.2-0.4-0.3-0.9-0.1-1.3c1.1,0.5,1.9,1.4,2.6,2.4
		C66.7,13.5,68.2,17.6,68.2,22.2z"/>
	<path fill="#EFC7B0" d="M46.7,43.3c-0.6,2.4-7.3,0.4-8.8-0.1c-3-1-5.8-2.6-8.1-4.7c-4.7-4.1-7.5-10.1-7.5-16.4c0-4,1.2-8,3.3-11.4
		c1.9-3.1,4.8-6.3,8.5-7.3c0.5-0.1,1.1-0.2,1.4,0.3c0.2,0.3,0.1,0.8-0.1,1.1c-1,2.4-2.6,5.9-1.8,8.5c0.5,1.5,1.7,3.1,0.1,4.2
		c-1.6,1.1-3,1.4-3.7,3.5c-0.6,1.8-0.2,4.5,0.8,6.1c0.9,1.4,2.8,1.4,3.8,2.6c0.6,0.7,0.6,1.6,0.8,2.4c0.5,2.7,2.2,5.1,4.1,6.9
		C39.9,39.6,46.5,44.1,46.7,43.3z"/>
	<path fill="#FBB040" d="M19.4,15.9c0,0.9,0.3,2.7,1,3.4c0.3-0.3,0.8-0.5,1.3-0.5c0.1,0,0.3,0.1,0.4,0.1c0.2,0.1,0.3,0.3,0.4,0.6
		c0.5,1.4,0.7,2.9,0.5,4.4c1,0.1,1.2-0.1,1.9-0.5c0.6-0.3,1.2-0.5,1.8-0.3c-0.6-1.9-1.4-3.9-1.3-5.9c0-1.7,0.8-2.7,1.8-4
		c0.4-0.5,1.4-0.4,1.7-1c0.4-0.8-0.2-2.6-0.4-3.5c-0.4-1.4-1.4-2.9-2.9-3C21.6,5.6,19.4,13,19.4,15.9z"/>
	<path fill="#ECC19C" d="M22.7,25.6c-2,0-3.6-1.4-3.6-3.1s1.6-3.1,3.6-3.1"/>
	<path fill="#FBB040" d="M40.8,16.6l-0.4-0.3L40.8,16.6L40.8,16.6l-0.4-0.3L40.8,16.6c0,0,0.2-0.2,0.6-0.4c0.4-0.2,1-0.5,2-0.5
		c0.1,0,0.2,0,0.3,0c1.2,0.1,2,0.3,2.5,0.6c0.2,0.1,0.4,0.2,0.5,0.3l0.1,0.1l0,0l0.3-0.3l-0.3,0.3l0,0l0.3-0.3l-0.3,0.3
		c0.3,0.4,0.9,0.4,1.2,0.1c0.4-0.3,0.4-0.9,0.1-1.2c-0.1-0.1-1.4-1.4-4.3-1.5c-0.2,0-0.3,0-0.4,0c-1.3,0-2.3,0.4-3,0.7
		c-0.7,0.4-1,0.8-1,0.9c-0.3,0.4-0.2,0.9,0.2,1.2C40,17,40.5,17,40.8,16.6L40.8,16.6z"/>
	<circle fill="#231F20" cx="44.1" cy="20.3" r="1.3"/>
	<path fill="#CF9E76" d="M43.1,24.3h2.4c0.5,0,0.9-0.4,0.9-0.9c0-0.5-0.4-0.9-0.9-0.9h-2.4c-0.5,0-0.9,0.4-0.9,0.9
		C42.2,23.9,42.6,24.3,43.1,24.3"/>
	<path fill="#FBB040" d="M64,15.4c-0.1-0.1-0.4-0.5-1-0.9c-0.6-0.4-1.6-0.7-3-0.7c-0.1,0-0.3,0-0.4,0c-2.9,0.2-4.2,1.4-4.3,1.5
		c-0.3,0.4-0.3,0.9,0.1,1.2c0.4,0.3,0.9,0.3,1.2-0.1l-0.3-0.3l0.3,0.3l0,0l-0.3-0.3l0.3,0.3c0,0,0,0,0.2-0.1
		c0.3-0.2,1.2-0.7,2.9-0.8c0.1,0,0.2,0,0.3,0c1,0,1.7,0.3,2.1,0.5c0.2,0.1,0.3,0.2,0.4,0.3l0.1,0.1l0,0l0.3-0.3l-0.4,0.3l0,0
		l0.3-0.3l-0.4,0.3c0.3,0.4,0.8,0.5,1.2,0.2C64.2,16.3,64.2,15.8,64,15.4L64,15.4z"/>
	<circle fill="#231F20" cx="59.2" cy="20.1" r="1.3"/>
	<path fill="#CF9E76" d="M60.3,22.4h-2.4c-0.5,0-0.9,0.4-0.9,0.9c0,0.5,0.4,0.9,0.9,0.9h2.4c0.5,0,0.9-0.4,0.9-0.9
		C61.1,22.8,60.7,22.4,60.3,22.4"/>
	<path fill="#CF9E76" d="M46.3,39.9c0.5,0.6,1.3,1,2,1.1c0.4,0.1,0.7,0.1,1.1,0.1c0.3,0,0.7,0,1,0c0.2,0,0.5,0,0.8-0.2
		c0.3-0.2,0.4-0.5,0.5-0.6c0.1-0.2,0.2-0.3,0.2-0.3l-0.2-0.4l-0.2,0.4c1.3,0.6,2.6,1,4,1.1l0.2,0c0.1,0,0.3,0,0.4-0.1
		c0.3-0.2,0.5-0.4,0.6-0.6c0.3-0.5,0.5-1,0.7-1.6c0.1-0.2,0-0.5-0.3-0.6c-0.2-0.1-0.5,0-0.6,0.3c-0.2,0.5-0.4,1-0.7,1.4l-0.1,0.2
		l0,0l-0.1,0l-0.1,0c-1.3-0.1-2.6-0.4-3.7-1L51.6,39l-0.2,0.1c-0.3,0.2-0.4,0.4-0.5,0.6c-0.1,0.2-0.2,0.3-0.2,0.3
		c0,0-0.2,0.1-0.4,0.1c-0.3,0-0.7,0-1,0c-0.3,0-0.6,0-0.9-0.1c-0.6-0.1-1.1-0.4-1.5-0.8c-0.2-0.2-0.4-0.2-0.6-0.1
		C46.1,39.4,46.1,39.7,46.3,39.9L46.3,39.9z"/>
	<path fill="#FBB040" d="M42.8,28.7c-3,1.7-2.2,6.6-1.9,9.6c0.1,1.3,0.3,2.7,1.3,3.7c1.8,1.7,4.3,1.6,6.6,1.4
		c2.6-0.2,5.1,0.6,7.7-0.1c1.9-0.5,3.7-1.9,4.2-3.8c0.1-0.5,0.2-1,0.2-1.5c0.2-2.6,0.8-4.8,0.3-7.4c-0.1-0.4-0.2-0.8-0.4-1.1
		c-0.2-0.2-0.4-0.4-0.6-0.5c-1-0.8-2.2-0.8-3.5-0.7c-1.4,0.1-2.7,0.5-4,0.6c-1.1,0.1-2.1-0.3-3.2-0.6c-0.5-0.1-1-0.1-1.5-0.1
		C46.2,27.9,44.3,27.9,42.8,28.7z"/>
	<path fill="#F0D0B4" d="M21.2,59.4c0,0-0.3,0.5-0.9,1.5c-0.6,1-1.4,2.4-2.3,4.1c-0.9,1.7-2,3.8-3,6c-0.5,1.1-1,2.3-1.5,3.4
		c-0.5,1.2-1,2.4-1.4,3.6c-0.2,0.6-0.4,1.2-0.6,1.8l-0.2,0.5l0,0c0,0,0,0,0-0.1l0,0l0,0l0,0.1l0,0.1l-0.1,0.2l-0.1,0.2l-0.1,0.3
		C11,81.5,11,81.8,11,81.9c0,0.2,0,0.3,0.1,0.4c0.1,0.2,0.5,0.6,1.2,0.9c0.7,0.3,1.6,0.5,2.4,0.7c1.7,0.3,3.2,0.3,4.3,0.3
		c1.1,0,1.7-0.1,1.6-0.1c1.6-0.3,3.2,0.9,3.4,2.5c0.3,1.6-0.9,3.2-2.5,3.4c-0.1,0-0.8,0.2-2.1,0.3c-1.3,0.1-3.1,0.3-5.5,0.2
		c-1.2-0.1-2.5-0.3-4-0.7c-1.5-0.5-3.3-1.3-4.7-3.1c-0.7-0.9-1.2-2-1.5-3.1c-0.3-1.1-0.3-2.2-0.2-3.2c0-0.2,0.1-0.5,0.1-0.7l0.1-0.8
		l0.1-0.6L4,77.7c0.2-0.7,0.4-1.4,0.6-2.1c1.6-5.5,3.7-10.7,5.4-14.5c0.9-1.9,1.6-3.5,2.2-4.6c0.6-1.1,0.9-1.8,0.9-1.8
		c1.2-2.3,4-3.2,6.3-2c2.3,1.2,3.2,4,2,6.3c0,0.1-0.1,0.2-0.2,0.3L21.2,59.4"/>
	<path fill="#414042" d="M10.2,60.8l3-5.9c1.2-2.3,4-3.2,6.3-2c2.3,1.2,3.2,4,2,6.3c0,0.1-0.1,0.2-0.2,0.3L18,65.2"/>
	<path fill="#414042" d="M10.6,61l3-5.9c0.7-1.5,2.2-2.3,3.8-2.3c0.6,0,1.3,0.1,1.9,0.5c1.5,0.7,2.3,2.2,2.3,3.8
		c0,0.6-0.1,1.3-0.5,1.9L21,59.2l0,0l-3.5,5.7l0.9,0.5l3.5-5.7l0,0c0.1-0.1,0.1-0.2,0.2-0.3c0.4-0.8,0.6-1.6,0.6-2.4
		c0-1.9-1-3.7-2.8-4.6c-0.8-0.4-1.6-0.6-2.4-0.6c-1.9,0-3.7,1-4.6,2.8l-3,5.9L10.6,61L10.6,61z"/>
	<path fill="#CF9E76" d="M51.7,27c-0.1,0-0.2,0-0.4-0.1c-0.6-0.2-1-0.8-1-1.5c0.1-0.6,0.6-1.2,1.2-1.2c0.3-1.2,0.1-2.4,0.2-3.6
		c0-0.8,0.1-2.3,0.8-1.5c0.3,0.3,0.6,1.4,0.8,1.9c0.6,1.5,1.1,2.9,1.9,4.2c0.3,0.5,0.4,1.1,0.1,1.6c-0.4,0.5-1.1,0.5-1.7,0.4
		c-0.6,0-1.2-0.1-1.7-0.1L51.7,27z"/>
	<path fill="#EAA03D" d="M60,31.1c0,0.1,0,0.2,0,0.3c0.1,1.2,0.1,2.5,0.1,3.7C59.3,34,59,32.6,59,31.2c-0.5,0.5-0.5,1.4-0.4,2.1
		c0.1,1.5,0.3,3.1,0.4,4.6c-0.3-2-0.6-3.9-0.7-5.9C58,33.8,58,35.6,58,37.5c-0.2-0.8-0.4-1.5-0.6-2.3c-0.2,0.9,0.4,1.8,0.6,2.7
		c0.2,0.8-0.1,1.8,0.4,2.5c0-0.8,0.1-1.6,0.1-2.4c0.1,0.6,0.3,1.2,0.7,1.7c0.6-0.5,0.7-1.4,0.6-2.1c-0.1-0.7-0.3-1.5-0.3-2.2
		c0.7,1,0.7,2.4,0.7,3.7c-0.1,1.3-0.7,1.9-1.6,2.7c-0.8,0.7-1.9,0.9-2.9,1c-0.8,0-1.9-0.2-2.2-1c-0.1-0.4-0.3-0.9-0.6-0.8
		c0,0.2-0.1,0.3-0.1,0.5c-0.3-0.2-0.6-0.5-0.9-0.7c-0.1,0.3-0.1,0.7-0.2,1c-0.2-0.3-0.5-0.6-0.8-0.9c-0.1,0.2-0.3,0.4-0.6,0.5
		c0-0.2,0-0.4,0-0.7c0.1,0.7-0.5,1.4-1.1,1.7s-1.4,0.2-2.2,0.2c-0.9,0-1.9-0.1-2.8-0.4c-2.6-0.9-2.9-4-2.4-6.3
		c0,0.8,0.3,1.7,0.8,2.4c0.1-0.7,0.2-1.4,0.2-2.1c0,0.8,0,1.7,0.1,2.5c0.2-0.6,0.5-1.1,0.6-1.7c0.1,0.6,0.1,1.1,0.2,1.7
		c0.1-1.1,0.1-2.3,0.1-3.4c-0.1,0.4-0.3,0.8-0.6,1.1c0-0.7-0.1-1.3-0.2-2c-0.1,0.3-0.3,0.6-0.4,0.9c-0.1,0.2-0.2,0.4-0.4,0.3
		l-0.2-0.2c-1.4-2.5-0.2-4.3,1.9-5.7c0.5-0.3,0.9-0.6,1.5-0.8c0.4-0.1,0.9-0.1,1.3-0.1c0.8,0,1.6,0,2.3,0c-1.1,0.6-2.7,0.3-3.7,1.2
		c0.8-0.3,1.7-0.4,2.5-0.4c-0.3,0.3-0.6,0.5-1,0.6c0.7-0.2,1.8-0.1,2.6-0.2c1.2-0.2,2.7-0.5,3.9-0.1c0.4,0.1,0.7,0.3,1.1,0.4
		c0.4,0.1,0.8,0.1,1.2,0c-0.3-0.2-0.6-0.4-0.9-0.5c0.5,0,1,0,1.5,0c-0.7-0.1-1.4-0.3-2-0.7c0.6-0.1,1.2-0.1,1.7-0.1
		c-1-0.1-2-0.2-3-0.2c1.1-0.3,2.2-0.5,3.4-0.5c1,0,2.8,0.5,3.4,1.5C59.9,30.4,59.9,30.8,60,31.1z"/>
	<path fill="#FFFFFF" d="M56.2,32.3c0,0.3-2,4-4.9,4c-2.9,0-5.6-3.7-5.6-4H56.2z"/>
	<path fill="#F0D0B4" d="M56.2,32.3h-0.6H56l-0.4-0.1l0,0.1H56l-0.4-0.1l0,0l0,0l0,0l0,0l0,0c0,0.1-0.2,0.4-0.4,0.8
		c-0.4,0.6-0.9,1.3-1.6,1.8c-0.7,0.5-1.5,0.9-2.3,0.9c-0.6,0-1.2-0.2-1.8-0.5c-0.9-0.5-1.7-1.2-2.3-1.9c-0.3-0.3-0.5-0.6-0.7-0.9
		c-0.1-0.1-0.1-0.2-0.2-0.3l0-0.1l-0.3,0.2l0.4-0.1c0-0.1,0-0.1,0-0.1l-0.3,0.2l0.4-0.1l-0.6,0.1v0.6h10.5V32.3h-0.6H56.2v-0.6H45.7
		c-0.2,0-0.4,0.1-0.5,0.2C45.1,32,45,32.2,45,32.4c0,0.2,0.1,0.2,0.1,0.3c0.1,0.2,0.4,0.6,0.7,1c0.5,0.6,1.3,1.4,2.2,2.1
		c0.9,0.6,2,1.2,3.2,1.2c0.9,0,1.6-0.3,2.3-0.7c1-0.6,1.8-1.4,2.3-2.2c0.3-0.4,0.5-0.7,0.6-1c0.1-0.1,0.1-0.3,0.2-0.4l0.1-0.2
		c0-0.1,0-0.1,0-0.2c0-0.2-0.1-0.3-0.2-0.4c-0.1-0.1-0.3-0.2-0.4-0.2V32.3z"/>
	<path fill="#FBB040" d="M47,39.3c-0.1-0.6,0.3-1.2,0.8-1.3l0.3,0c0.2,0.1,0.3,0.3,0.4,0.5c0.2,0.3,0.6,0.3,0.9,0.3
		c0.7,0,1.4,0,2.1,0c0.6,0,1.2,0,1.7-0.2c0.5-0.2,0.9-0.7,1.3-1c0.1-0.1,0.2-0.1,0.3-0.1l0.2,0.2c0.1,0.3,0.3,0.6,0.4,0.8l0,0.2
		l-0.1,0.2c-0.4,0.4-1,0.4-1.5,0.5c-1.4,0-2.8,0.1-4.2,0.1C48.8,39.5,47.9,39.5,47,39.3"/>
	<path fill="#EAA03D" d="M24.9,22.2c0,0.1-0.1,0.3-0.2,0.4c-0.3,0.4-1.1,0.5-1.5,0.3c-0.4-0.3-0.3-1.1-0.3-1.6c0-0.7,0-1.5-0.6-1.8
		c-0.2-0.1-0.5-0.2-0.7-0.2c-1-0.1-1.9-0.3-2.9-0.4c-0.4-0.1-0.8-0.1-1-0.5c-0.1-0.3-0.1-0.6,0-0.8c0.5-2.1,0.9-4.2,1.4-6.4
		c0.2-1.1,0.5-2.1,1-3.1c0.7-1.3,3.1-3.1,4.5-1.9c1.6,1.2-2.3,3.5-2.9,4.8c1.1-0.6,2.2-1.2,3.4-1.5c-0.5,0.5-1.1,1-1.6,1.5
		c-0.4,0.4-0.8,0.8-0.9,1.4c0.6-0.4,1.3-0.7,2-0.9c-0.7,0.5-1.2,1.2-1.5,2c0.6-0.3,4-2.7,3.7-0.8c-0.1,0.6-1,1.1-1.3,1.6
		c-0.4,0.6-0.7,1.4-0.8,2.1c-0.3,1.8,0.1,3.6,0.1,5.4C24.9,21.9,24.9,22,24.9,22.2z"/>
	<path fill="#231F20" d="M63,70.3c1.7,0,3.3,1.1,4,2.6c0.3-0.9-0.1-1.9-0.8-2.4c-0.7-0.6-1.6-0.8-2.5-0.9c-0.9,0-1.8,0.1-2.7,0.1
		c0.4,0.4,0.9,0.7,1.5,0.8"/>
	<path fill="#F8B672" d="M19.4,91.4c0,0,3.7-12.1,6.5-11.3c2.8,0.8,1.8,1.3,1.3,1.5c-2.7,1.5-6.4,9.4-6.1,9.8
		C21.5,91.8,19.1,92.3,19.4,91.4"/>
	<path fill="#F6E8CD" d="M27.8,81.4c4.1,1.6,13.3,5.7,13.3,5.7s0.2,1.4-0.3,1.3c-0.6-0.1-0.4,0.8-1.1,0.7c-0.7-0.1-4.1,0.3-4.2,0.7
		s-4.4,1.1-4.4,0.7c0-0.4-2.5,0.4-2.8,0.6s-7.3,1.3-7.1,0.4C21.2,91.4,22.7,82.5,27.8,81.4z"/>
	<path fill="#EF4930" d="M31.1,84.4c0,0-3.4,1.8-0.4,3.1c0,0,2.9-0.1,3-2C33.9,83.6,31.1,84.4,31.1,84.4z"/>
	<path fill="#EF4930" d="M36.2,87.2c0,0,1.9,0,2.7-1.1c-0.9-0.4-2-0.9-3.2-1.4C34.9,85.4,34.3,86.4,36.2,87.2z"/>
	<path fill="#EF4930" d="M26.2,90.4c0.1-1.9-2.6-1.2-2.6-1.2s-2.6,1.4-1.3,2.6c0.9,0,2.2-0.1,3.3-0.3C25.9,91.3,26.2,90.9,26.2,90.4
		z"/>
	<path fill="#EF4930" d="M25.5,84.4c0,0-3.4,1.8-0.4,3.1c0,0,2.9-0.1,3-2C28.3,83.6,25.5,84.4,25.5,84.4z"/>
	<path fill="#EF4930" d="M31.4,82.9c-1.4-0.6-2.7-1.1-3.6-1.5c-0.1,0-0.2,0.1-0.3,0.1C26.9,84.6,30.8,83.1,31.4,82.9z"/>
	<path fill="#EF4930" d="M33.7,87.8c-1.5,0.5-1.6,2-1.5,2.8c1.3-0.1,3.2-0.5,3.3-0.8c0-0.1,0.4-0.3,0.9-0.4
		C36,88.6,35.1,87.3,33.7,87.8z"/>
	<path fill="#EF4930" d="M28.9,88.2c-3,0.9-2,3.1-2,3.1l1-0.1c0.2,0,0.3-0.1,0.3-0.1c0.2-0.1,1.8-0.6,2.5-0.7
		C31,89.4,31.2,87.5,28.9,88.2z"/>
</g>
</svg>
