<?xml version="1.0" encoding="utf-8"?>
<!-- Generator: Adobe Illustrator 19.1.0, SVG Export Plug-In . SVG Version: 6.00 Build 0)  -->
<svg version="1.2" baseProfile="tiny" id="Layer_1" xmlns="http://www.w3.org/2000/svg" xmlns:xlink="http://www.w3.org/1999/xlink"
	 x="0px" y="0px" viewBox="0 0 40 32" xml:space="preserve">
<path fill="none" d="M-4-8h48v48H-4V-8z"/>
<path fill="#010101" d="M36,16c0-2.2,1.8-4,4-4V4c0-2.2-1.8-4-4-4H4C1.8,0,0,1.8,0,4v8c2.2,0,4,1.8,4,4s-1.8,4-4,4v8
	c0,2.2,1.8,4,4,4h32c2.2,0,4-1.8,4-4v-8C37.8,20,36,18.2,36,16z M27.2,25.6L20,21l-7.2,4.6l2.2-8.2L8.4,12l8.5-0.5L20,3.6l3.1,7.9
	l8.5,0.5L25,17.4C25,17.4,27.2,25.6,27.2,25.6z"/>
</svg>
