<?xml version="1.0" encoding="utf-8"?>
<!-- Generator: Adobe Illustrator 19.1.0, SVG Export Plug-In . SVG Version: 6.00 Build 0)  -->
<svg version="1.2" baseProfile="tiny" id="Layer_1" xmlns="http://www.w3.org/2000/svg" xmlns:xlink="http://www.w3.org/1999/xlink"
	 x="0px" y="0px" viewBox="-505.1 697.8 46.2 47.5" xml:space="preserve">
<g>
	<g>
		<path fill="#007BB6" d="M-462.4,697.8h-39.3c-1.9,0-3.4,1.6-3.4,3.4v40.7c0,1.9,1.6,3.4,3.4,3.4h39.3c1.9,0,3.4-1.6,3.4-3.4v-40.7
			C-459,699.4-460.5,697.8-462.4,697.8z"/>
		<path fill="#FFFFFF" d="M-498.6,715.5h7v23.1h-7V715.5z M-495.1,704.1c2.2,0,4.1,1.9,4.1,4.2s-1.8,4.2-4.1,4.2
			c-2.2,0-4.1-1.9-4.1-4.2C-499.2,706-497.4,704.1-495.1,704.1"/>
		<path fill="#FFFFFF" d="M-487.3,715.5h6.7v3.2h0.1c0.9-1.8,3.2-3.7,6.6-3.7c7.1,0,8.4,4.8,8.4,11v12.7h-7v-11.3
			c0-2.7,0-6.1-3.6-6.1s-4.2,2.9-4.2,5.9v11.5h-7V715.5z"/>
	</g>
</g>
</svg>
