<?xml version="1.0" encoding="utf-8"?>
<!-- Generator: Adobe Illustrator 18.0.0, SVG Export Plug-In . SVG Version: 6.00 Build 0)  -->
<svg version="1.2" baseProfile="tiny" id="Layer_1" xmlns="http://www.w3.org/2000/svg" xmlns:xlink="http://www.w3.org/1999/xlink"
	 x="0px" y="0px" viewBox="-10.5 -10.5 45 45" xml:space="preserve">
<g>
	<path fill="#FFCF26" d="M31.7,18.6c-0.7,2-1.3,4.1-2,6.1c-1.1,2.9-2.4,5.8-3.7,8.7c-0.2,0.5-1,1.1-1.5,1.1c-11.3,0.1-22.6,0-33.9,0
		c-0.1,0-0.2-0.1-0.6-0.2c2-1.3,3.7-2.6,5.6-3.7c2-1.2,2.7-2.7,2.7-5C-2,16.1-2,6.6-1.9-2.9c0-1.8-0.5-3.2-2.1-4.2
		C-5.4-8-6.7-9.1-8.4-10.5c8.1,0,15.6,0,23.6,0c-0.8,0.7-1.4,1.3-2.1,1.8c-2.6,2-3.8,4.5-3.7,8c0.2,7.9,0.1,15.9,0.1,23.8
		c0,1.4,0.4,1.8,1.8,2c5.6,1.1,10.5-0.4,15.1-3.5c1.6-1.1,3.2-2.1,4.8-3.1C31.4,18.5,31.5,18.6,31.7,18.6z"/>
</g>
</svg>
