<?xml version="1.0" encoding="utf-8"?>
<!-- Generator: Adobe Illustrator 18.0.0, SVG Export Plug-In . SVG Version: 6.00 Build 0)  -->
<svg version="1.2" baseProfile="tiny"
	 id="Layer_1" sodipodi:docname="ic_meerkat.svg" inkscape:version="0.91 r13725" xmlns:inkscape="http://www.inkscape.org/namespaces/inkscape" xmlns:sodipodi="http://sodipodi.sourceforge.net/DTD/sodipodi-0.dtd" xmlns:dc="http://purl.org/dc/elements/1.1/" xmlns:rdf="http://www.w3.org/1999/02/22-rdf-syntax-ns#" xmlns:cc="http://creativecommons.org/ns#" xmlns:svg="http://www.w3.org/2000/svg"
	 xmlns="http://www.w3.org/2000/svg" xmlns:xlink="http://www.w3.org/1999/xlink" x="0px" y="0px" viewBox="0 0 32.4 47.9"
	 xml:space="preserve">
<path id="path11_1_" inkscape:connector-curvature="0" fill="#FFFFFF" d="M2.2,47.9H0c0.2-0.8,0.4-1.6,0.6-2.3
	c0.2-0.7,0.3-1.4,0.5-2.1c0.2-0.8,0.3-1.6,0.5-2.4c0.1-0.5,0.1-1,0.2-1.6c0.1-0.6,0.2-1.2,0.2-1.9c0-0.4,0.1-0.8,0.1-1.2
	c0.1-0.7,0.1-1.3,0.1-2c0.1-0.9,0.1-1.8,0.2-2.8c0.1-1.2,0.2-2.4,0.2-3.6c0.1-1.9,0.1-3.8,0.1-5.7c0-1.1-0.1-2.2-0.2-3.3
	c0-0.7-0.1-1.4-0.2-2.1c-0.2-1-0.4-2-0.5-3.1c-0.1-0.8-0.3-1.6-0.4-2.3c-0.1-0.6-0.2-1.2-0.2-1.7c0-0.6,0.1-1.3,0.3-1.9
	c0.5-2.3,2.1-3.8,4-4.9c1.6-0.9,3.2-1.5,4.9-2.1c1-0.3,2-0.6,3.1-0.7C14.2,0.1,14.8,0,15.5,0c1.9,0,3.6,0.5,5.1,1.7
	c1,0.8,2,1.7,2.9,2.5c0.8,0.7,1.5,1.5,2.3,2.2c0.8,0.7,1.7,1.3,2.7,1.6c0.5,0.1,1,0.2,1.5,0.4c0.8,0.3,1.6,0.7,2,1.5
	c0.2,0.4,0.3,0.8,0.3,1.2c0,0.4-0.1,0.9-0.2,1.3c-0.2,1.2-0.8,2.2-1.8,2.9c-0.8,0.5-1.6,1-2.3,1.5c-0.8,0.5-1.7,0.8-2.6,1.1
	c-0.7,0.2-1.4,0.3-2.2,0.5c-0.4,0.1-0.8,0.1-1.1,0.1c-1,0.1-1.9,0.1-2.9,0.2c-0.2,0-0.4,0.1-0.6,0.1c-0.5,0.1-0.6,0.5-0.7,0.9
	c-0.2,0.9-0.3,1.8-0.3,2.7c0,0.9,0,1.8,0.1,2.7c0.1,1.9,0.7,3.7,1.5,5.4c0.8,1.8,1.7,3.6,2.4,5.4c0.7,1.7,1.4,3.4,2,5.1
	c0.4,1,0.6,2.1,0.9,3.1c0.3,1.1,0.5,2.3,0.4,3.4c0,0.1,0,0.3,0,0.4"/>
<sodipodi:namedview  inkscape:pageshadow="2" fit-margin-right="0" inkscape:pageopacity="0" inkscape:window-width="916" inkscape:window-height="726" id="namedview12" inkscape:window-x="155" inkscape:window-y="88" inkscape:cx="20.203436" showgrid="false" pagecolor="#ffffff" fit-margin-left="0" guidetolerance="10" inkscape:cy="40.594182" inkscape:zoom="2.2487945" borderopacity="1" bordercolor="#666666" objecttolerance="10" gridtolerance="10" fit-margin-top="0" fit-margin-bottom="0" inkscape:current-layer="Layer_1" inkscape:window-maximized="0">
	</sodipodi:namedview>
<g id="g9" transform="matrix(0.052922,0,0,0.052922,-62.628789,-16.32147)">
	<path id="path11" inkscape:connector-curvature="0" d="M1613.6,1213c2.2-14.5,1.2-28.9-2.1-43c-4.6-19.8-9-39.7-14.8-59.1
		c-6-19.8-13.3-39.3-20.6-58.7c-7.6-20.2-15.5-40.4-24.1-60.2c-13.9-31.7-28.4-63.2-43-94.6c-8.7-18.8-17-37.7-21.9-57.8
		c-3.7-15.4-6.1-31.2-7.7-47c-1.8-18.3-2.7-36.8-2.8-55.3c0-15.1,0.9-30.3,3.2-45.2c2.1-13.9,5-27.9,11.7-40.8
		c7.7-14.6,20.1-22.6,35.4-25.8c14.4-3,29.1-4.3,43.8-5.7c16.2-1.6,32.5-2,48.7-3.7c8.7-0.9,17.2-3.3,25.8-5.1
		c0.7-0.1,1.4-0.7,2.5-1.3c-8.7-3.6-17.1-6.5-25-10.3c-10.7-5.2-21.2-10.9-31.7-16.7c-3.5-1.9-5.5-5.5-4.6-9.7
		c0.9-4,3.6-7.1,7.8-7.4c2.6-0.2,5.6,0.6,7.9,2c15.6,9.2,31.9,16.9,48.9,22.8c8.7,3,17.6,5.7,26.6,7.8c2.8,0.6,6.5-0.7,9.3-2.1
		c17.9-8.6,34.2-19.6,50.1-31.5c2.3-1.7,1.8-2.7,0.6-4.8c-7.6-13.2-15.2-26.4-22.2-39.9c-3.4-6.7-5.3-14.1-8.1-21.2
		c-0.6-1.5-2-3.4-3.4-3.8c-18.6-6.2-34.8-16.8-49.6-29c-15.5-12.8-29.4-27.4-44.4-40.8c-20.6-18.6-40.8-37.7-62.6-54.8
		c-20.6-16.1-45-23.2-71.5-23.7c-25.9-0.5-50.7,4.8-75.2,12.5c-32.7,10.3-64.3,23.3-94.4,39.7c-17.8,9.7-33.8,21.9-45.2,39.1
		c-8.4,12.7-12.4,26.8-14.1,41.8c-1.8,16.1-0.1,31.9,2.3,47.6c2,13.6,5.6,26.9,8,40.4c2.9,16,5.4,32,7.7,48.1
		c1.8,12.2,3.5,24.3,4.6,36.6c1.4,16.1,2.4,32.2,3,48.3c0.7,17.8,1.4,35.6,1.2,53.4c-0.3,29.1-1.2,58.2-2.2,87.4
		c-0.8,21.3-2,42.5-3.4,63.8c-1.9,28-3.9,56.1-6.3,84.1c-1.7,20.5-3.5,41.1-6,61.5c-2.2,17.8-5.3,35.4-8.4,53.1
		c-2.9,16.6-5.7,33.3-9.3,49.8c-4.1,18.6-9,36.9-13.5,55.4c-0.3,1.2-0.1,2.6-0.2,3.9h-41c3.8-14.8,7.7-29.5,11.2-44.3
		c3.1-13.1,5.9-26.2,8.6-39.4c3-14.9,6-29.8,8.6-44.8c1.7-9.8,2.6-19.7,3.9-29.6c1.5-11.7,3.2-23.3,4.7-35
		c0.9-7.8,1.6-15.5,2.2-23.3c1-12.4,1.9-24.9,2.8-37.3c1.2-17.4,2.3-34.8,3.3-52.3c1.3-22.7,2.9-45.4,3.7-68.2
		c1.2-36.1,2.4-72.2,2.5-108.3c0.1-21.1-1.8-42.2-3.1-63.2c-0.9-13.3-1.9-26.6-3.9-39.7c-2.9-19.3-6.8-38.5-10.2-57.7
		c-2.6-14.7-5.3-29.3-7.4-44.1c-1.6-10.8-3.4-21.8-3.1-32.6c0.3-12,2-24.1,4.8-35.8c10.3-43.1,39.3-71.2,76.1-92.7
		c29.3-17.1,60.9-29.2,93.1-39.8c18.9-6.2,38.1-11.5,58-13.4c12.2-1.2,24.5-3.4,36.7-3.2c35.3,0.7,68.4,9.7,96.5,32
		c19.1,15.2,37.3,31.5,55.4,47.9c14.9,13.5,28.4,28.6,43.6,41.7c15.3,13.1,31.8,25.1,51.9,30.6c9.4,2.6,19.1,4.4,28.2,7.8
		c15.3,5.6,29.4,13.3,38.4,27.8c4.4,7.1,5.4,15.1,5.2,23c-0.1,8.1-1.7,16.1-3,24.1c-3.6,22.9-14.5,41.4-34,54.3
		c-14.7,9.7-29.3,19.5-44.4,28.4c-15.6,9.2-32.5,15.8-50,20.2c-13.5,3.4-27.1,6.1-40.7,8.6c-7,1.3-14.2,1.6-21.3,2.1
		c-18.1,1.3-36.1,2.3-54.2,3.6c-4.1,0.3-8.1,1.5-12.1,2.4c-9,1.9-11.7,9.2-13.5,16.7c-4,16.8-6.4,34-6.4,51.3
		c0,16.8,0.3,33.6,1.2,50.3c2,36.3,13.1,70,28.6,102.7c15.9,33.4,31.3,67.1,45.6,101.1c13.3,31.7,25.6,64,37.1,96.4
		c6.8,19.3,11.4,39.3,16.7,59.1c5.7,21.1,8.6,42.6,8.5,64.5c0,2.6-0.4,5.3-0.6,7.9C1639.6,1213,1626.6,1213,1613.6,1213z"/>
	<path id="path13" inkscape:connector-curvature="0" d="M1395.6,1213c-7.5-18.1-16-35.8-22.3-54.3c-5.5-16.2-6.5-33.4-6.2-50.6
		c0.2-17.4,2.6-34.5,7.7-50.9c5-16,11.9-31.4,18.1-47c2.4-5.9,5.4-11.7,8.4-17.3c2-3.7,5.1-6.4,9.6-6c4.1,0.3,7.3,2.6,8.4,6.7
		c0.5,2,0.3,4.7-0.6,6.6c-6.8,15.7-14.7,31.1-20.6,47.2c-4.7,12.8-7.7,26.3-10.1,39.8c-1.9,10.7-2,21.8-2.1,32.7
		c0,21.1,6.4,40.7,15.3,59.7c5.1,11,9.6,22.4,14.3,33.6C1408.9,1213,1402.3,1213,1395.6,1213z"/>
	<path id="path15" inkscape:connector-curvature="0" d="M1481.6,1213c-0.6-12.7-2.1-25.5-1.5-38.2c0.7-12.7,3.6-25.2,5.5-37.8
		c2.1-13.4,4.7-26.8,6.2-40.3c1.8-15.8,2.7-31.7,4.1-47.6c0.5-5.6,4.6-9.3,9.9-9.2c4.9,0.2,9,4.1,8.7,9.6
		c-0.9,15.4-1.9,30.8-3.5,46.2c-1.4,13.2-3.7,26.2-5.8,39.3c-1.7,11-4.4,21.8-5.3,32.8c-0.9,11.9-0.2,23.8-0.2,35.8
		c0,3.1-0.1,6.3-0.1,9.4C1499.6,1213,1481.6,1213,1481.6,1213z"/>
	<path id="path17" inkscape:connector-curvature="0" d="M1284.3,504.7c1.1-27.7,14.2-48.3,35.2-64.6c10.4-8.1,22.1-13.6,35.2-16.3
		c18.4-3.7,35.4-0.3,51.3,8.9c19.5,11.4,33.7,27.7,41.6,49.1c0.9,2.5,1.6,5.1,2.2,7.6c0.9,4.1-1.6,9.1-5,10.3
		c-4.3,1.5-8.5-0.4-10.5-5.2c-6.8-16.7-19-28.5-34-37.7c-20.3-12.4-40.4-11.6-60.1,1.6c-12.5,8.4-22.5,18.9-27.4,33.6
		c-5.3,16.1-2.1,31,5.5,45.4c6.2,11.8,14.9,21.4,25.6,29.4c4.5,3.4,5.3,7.8,2.8,11.8c-2.3,3.6-6.6,4.5-11.5,2.1
		c-22.8-11.3-38.5-28.9-45.9-53.5C1286.9,519.9,1285.8,512.2,1284.3,504.7z"/>
	<path id="path19" inkscape:connector-curvature="0" d="M1551.8,486.7c-3.5-9-4.6-17.2-1.6-25.6c4.9-13.9,21.7-23,36.1-20
		c9.5,2,17.1,6.1,22.5,14.1c10.9,16.2,3.1,38.7-15.5,44.7c-10.4,3.4-20.5,2.9-30.3-2.5c-1.5-0.8-3.4-1-5.2-1.1
		c-5.5-0.3-11-0.2-16.4-0.7c-2.8-0.3-6.2-1.7-4.7-5.3c0.7-1.7,3.8-2.9,6-3.4C1545.4,486.3,1548.2,486.7,1551.8,486.7z"/>
</g>
</svg>
