<?xml version="1.0" encoding="utf-8"?>
<!-- Generator: Adobe Illustrator 18.0.0, SVG Export Plug-In . SVG Version: 6.00 Build 0)  -->
<svg version="1.2" baseProfile="tiny"
	 id="svg2" xmlns:dc="http://purl.org/dc/elements/1.1/" xmlns:rdf="http://www.w3.org/1999/02/22-rdf-syntax-ns#" xmlns:cc="http://creativecommons.org/ns#" xmlns:svg="http://www.w3.org/2000/svg"
	 xmlns="http://www.w3.org/2000/svg" xmlns:xlink="http://www.w3.org/1999/xlink" x="0px" y="0px" viewBox="62 45.3 36 36"
	 xml:space="preserve">
<g id="g10" transform="matrix(1.3333333,0,0,-1.3333333,0,126.66667)">
	<g id="g12" transform="scale(0.1)">
		<path id="path14" fill="#FFFFFF" d="M735,550.4h-10.7c-4,0-9.6-5.7-9.6-9.4V408.3c0-3.7,5.6-8.7,9.6-8.7H735v-31.5h-96.8v31.5
			h20.2v139.5h-1l-47.3-171h-36.6l-46.7,171h-1.2V399.6H546v-31.5h-81v31.5h10.4c4.3,0,9.9,5,9.9,8.7V541c0,3.7-5.6,9.4-9.9,9.4H465
			v31.5h101.3l33.3-123.8h0.9L634,581.9h101V550.4"/>
	</g>
</g>
</svg>
