<?xml version="1.0" encoding="utf-8"?>
<!-- Generator: Adobe Illustrator 18.0.0, SVG Export Plug-In . SVG Version: 6.00 Build 0)  -->
<svg version="1.2" baseProfile="tiny" id="Layer_1" xmlns="http://www.w3.org/2000/svg" xmlns:xlink="http://www.w3.org/1999/xlink"
	 x="0px" y="0px" viewBox="283.5 373.5 45 45" xml:space="preserve">
<g transform="translate(944.4714,634.2228)">
	<path fill="#FFFFFF" d="M-658.3-243.7c0-0.9,0.8-1.7,1.7-1.7h4.4c0.4,0,0.7-0.2,1-0.4c2.8-1.9,6.2-3,9.9-3
		c9.5,0,17.1,7.3,17.1,16.4v15c0,0.9-0.8,1.7-1.7,1.7h-5.6c-1,0-1.7-0.8-1.7-1.7v-15c0-4.3-3.6-7.7-8.1-7.7c-4.5,0-8.1,3.5-8.1,7.7
		v15c0,0.9-0.8,1.7-1.8,1.7h-5.6c-1,0-1.7-0.8-1.7-1.7L-658.3-243.7L-658.3-243.7z"/>
</g>
<g transform="translate(946.1819,637.7646)">
	<path fill="#FFFFFF" d="M-654.1-259.4c3.4-1.5,7.2-2.4,11.3-2.4c9.1,0,17.1,4.3,22,10.9c0.4,0.6,1.1,0.7,1.7,0.3
		c0.6-0.4,0.7-1.2,0.3-1.7c-5.3-7.2-14.1-11.9-23.9-11.9c-4.4,0-8.6,0.9-12.3,2.6c-0.6,0.3-0.9,1-0.6,1.6
		C-655.4-259.4-654.7-259.1-654.1-259.4"/>
</g>
<g transform="translate(954.7923,634.1957)">
	<path fill="#FFFFFF" d="M-633.1-243.6c-0.4,0-0.7-0.2-1-0.5c-4-5.4-10.5-8.6-17.4-8.6c-3.1,0-6.1,0.6-8.8,1.8
		c-0.6,0.3-1.3,0-1.6-0.6c-0.3-0.6,0-1.3,0.6-1.6c3.1-1.4,6.4-2,9.8-2c7.7,0,14.9,3.6,19.3,9.6c0.4,0.6,0.3,1.3-0.3,1.7
		C-632.6-243.7-632.9-243.6-633.1-243.6"/>
</g>
</svg>
