<?xml version="1.0" encoding="utf-8"?>
<!-- Generator: Adobe Illustrator 18.0.0, SVG Export Plug-In . SVG Version: 6.00 Build 0)  -->
<svg version="1.2" baseProfile="tiny" id="Layer_1" xmlns="http://www.w3.org/2000/svg" xmlns:xlink="http://www.w3.org/1999/xlink"
	 x="0px" y="0px" viewBox="0 0 94.6 105.6" xml:space="preserve">
<g>
	<path fill="#CC6B00" d="M44.3,99.1c0.7,0,1.4,0,2.1-0.1c0.1,0,0.2,0,0.3,0c0.7,0,1.3-0.1,2-0.1c0.1,0,0.3,0,0.4,0
		c0.7-0.1,1.3-0.2,2-0.2c0.1,0,0.1,0,0.2,0c0.6-0.1,1.2-0.2,1.9-0.3c0.1,0,0.2,0,0.2,0c0.6-0.1,1.3-0.3,1.9-0.4
		c0.1,0,0.2-0.1,0.4-0.1c0.6-0.2,1.2-0.3,1.8-0.5c0.1,0,0.2-0.1,0.3-0.1c0.6-0.2,1.2-0.4,1.8-0.6c0,0,0,0,0.1,0
		c0.6-0.2,1.2-0.5,1.8-0.7c0.1,0,0.2-0.1,0.3-0.1c0.6-0.2,1.1-0.5,1.7-0.8c0.1-0.1,0.2-0.1,0.3-0.2c0.6-0.3,1.1-0.6,1.7-0.9
		c0,0,0.1-0.1,0.1-0.1c0.5-0.3,1.1-0.6,1.6-0.9c0.1,0,0.2-0.1,0.2-0.1c0.5-0.3,1.1-0.7,1.6-1c0.1-0.1,0.2-0.1,0.3-0.2
		c0.5-0.3,1-0.7,1.5-1.1c0.1-0.1,0.2-0.1,0.2-0.2c0.5-0.4,1-0.8,1.5-1.1c0,0,0.1-0.1,0.1-0.1c0.5-0.4,1-0.8,1.4-1.2
		c0.1-0.1,0.2-0.2,0.3-0.2c0.5-0.4,0.9-0.8,1.3-1.3c0.1-0.1,0.2-0.2,0.2-0.2c0.4-0.4,0.9-0.9,1.3-1.4c0,0,0.1-0.1,0.1-0.1
		c0.4-0.5,0.8-0.9,1.2-1.4c0.1-0.1,0.1-0.1,0.2-0.2c6.3-7.7,10.1-17.5,10.1-28.1c0-24.5-19.9-44.3-44.3-44.3S0,30.3,0,54.8
		S19.9,99.1,44.3,99.1z"/>
</g>
<g>
	<path fill="#828282" d="M90.5,36.1c0,0,7.2,18.8-10.1,48.2c-7.7,13.7-10.4,8.7-11.1,7.3c-1.2-2.7,2-6.7,2-6.7s-8.8,1.9-3.8-8.1
		c-7,2.6-5.3-4.7-4.2-6.1C72.3,59.4,77.2,33,77.8,27.5"/>
	<g>
		<g>
			<path fill="#F4A33B" d="M53.5,87.6c-0.6,0-1.1,0.5-1.1,1.1v9.7c0.3,0,0.5-0.1,0.8-0.1c0.1,0,0.2,0,0.2,0c0.4-0.1,0.8-0.2,1.2-0.3
				v-9.2C54.6,88.1,54.1,87.6,53.5,87.6z"/>
		</g>
		<g>
			<path fill="#F4A33B" d="M47.1,88.8c-0.6,0-1.1,0.5-1.1,1.1v9.1c0.1,0,0.3,0,0.4,0c0.1,0,0.2,0,0.3,0c0.5,0,1-0.1,1.5-0.1v-9
				C48.3,89.3,47.8,88.8,47.1,88.8z"/>
		</g>
	</g>
	<g>
		<path fill="#FDEBCE" d="M77.7,46.7c0-7-1.3-13.6-3.7-19.8l17.4-2.5C92.4,65.6,74.1,83.1,56.4,90C69.4,80,77.7,64.3,77.7,46.7z"/>
		<path fill="#FBE3B7" d="M25.2,93.1c30.1-34.2,26.9-63.1,26.9-63.1L74,26.9c2.4,6.1,3.7,12.8,3.7,19.8c0,17.6-8.4,33.3-21.4,43.3
			C42.2,95.5,28.3,94.3,25.2,93.1z"/>
	</g>
	<g>
		<g>
			<path fill="#646464" d="M30.6,47C24.9,59.8,21.2,66.6,2,68.1C4.2,74.9,7.9,81,12.9,86c8.6,5.1,15.7,7.3,15.7,7.3L30.6,47z"/>
		</g>
		<path fill="#FBE3B7" d="M37.7,88.7c0,0-18-5.1-31.9-12c3,5.2,7,9.8,11.8,13.4c5.2,2.3,11.2,3.9,18.2,4
			C50.9,85.2,37.7,88.7,37.7,88.7z"/>
	</g>
	<path fill="#969696" d="M44.9,6c3.8-2.2,21.4-12.4,38.1,0.3c3.5,2.6,5.8,6.4,6.8,8c0.7,1.2-5.7,2.4-3.5,6.8l-34,8.9
		c0,0,3.8,29.7-27.9,65.1c-14.3,16.6-16.6,9.1-17.1,7c-0.9-4.1,4.6-8.6,4.6-8.6s-12.5,0.2-3-12c-10.3,1.6-6-7.8-4-9.5
		C20,59,35,22.3,37.3,14.9C38.2,12.1,40.2,8.7,44.9,6z"/>
	<g>
		<path fill="#969696" d="M81.5,10.3c-5.5-0.5-13,1.3-14.1,5.2c-2.7-3-8-4.4-13.4-3.1C46.7,14,44,19.3,43.7,25
			c-0.7,15.5,7.9,21.7,22,20.7c19.5-1.4,27.8-15,25.4-28C90.3,13.5,87.2,10.8,81.5,10.3z"/>
	</g>
	<polygon fill="#F4A33B" points="74.6,31.9 72.1,38.1 66.6,32.4 	"/>
	<g>
		<g>
			<path d="M45.9,26.8c0,3.7,5,6.7,11.2,6.7s11.2-3,11.2-6.7"/>
			<path d="M72.2,26.8c0,3.7,5,6.7,11.2,6.7c6.2,0,11.2-3,11.2-6.7"/>
			<rect x="35.9" y="24.3" width="58.7" height="2.5"/>
			<g>
				<path d="M34.1,28.7h-2.6c0-2.5,1.9-4.4,4.4-4.4v2.5C34.9,26.8,34.1,27.6,34.1,28.7z"/>
			</g>
		</g>
		<path fill="#EBFEFF" d="M76.3,27.4c0,0,3,0.8,3.4-0.2C80.1,26.3,75,26.6,76.3,27.4z"/>
		<path fill="#EBFEFF" d="M49.3,27.4c0,0,3,0.8,3.4-0.2C53.2,26.3,48,26.6,49.3,27.4z"/>
	</g>
</g>
</svg>
