<?xml version="1.0" encoding="utf-8"?>
<!-- Generator: Adobe Illustrator 18.0.0, SVG Export Plug-In . SVG Version: 6.00 Build 0)  -->
<!DOCTYPE svg PUBLIC "-//W3C//DTD SVG 1.1//EN" "http://www.w3.org/Graphics/SVG/1.1/DTD/svg11.dtd">
<svg version="1.1" id="Layer_1" xmlns="http://www.w3.org/2000/svg" xmlns:xlink="http://www.w3.org/1999/xlink" x="0px" y="0px"
	 viewBox="0 0 155.8 155.7" enable-background="new 0 0 155.8 155.7" xml:space="preserve">
<linearGradient id="SVGID_1_" gradientUnits="userSpaceOnUse" x1="58.3294" y1="62.3354" x2="123.2263" y2="127.2323">
	<stop  offset="0" style="stop-color:#000000;stop-opacity:0.25"/>
	<stop  offset="1" style="stop-color:#000000;stop-opacity:0"/>
</linearGradient>
<polygon opacity="0.35" fill="url(#SVGID_1_)" points="86.3,155.7 46.3,115.3 65.6,55.1 100.3,39 155.8,94.6 "/>
<g>
	<g>
		<g>
			<g>
				<g>
					<g>
						<g>
							<path fill="#424242" d="M53.3,118.1c-5.6,0-10.1-4.5-10.1-10.1V66.7c0-19.5,15.8-35.3,35.3-35.3s35.3,15.8,35.3,35.3
								S98,101.9,78.5,101.9c-3.9,0-7.6-0.6-11.3-1.8c-1.5-0.5-2.8-1.3-3.9-2.4v10.3C63.4,113.6,58.9,118.1,53.3,118.1z M78.5,51.5
								c-8.3,0-15.1,6.8-15.1,15.1v16.7C66,80.8,70,79.7,73.7,81c1.5,0.5,3.2,0.8,4.8,0.8c8.3,0,15.1-6.8,15.1-15.1
								S86.9,51.5,78.5,51.5z"/>
						</g>
					</g>
				</g>
			</g>
		</g>
	</g>
</g>
</svg>
