<?xml version="1.0" encoding="utf-8"?>
<!-- Generator: Adobe Illustrator 19.1.0, SVG Export Plug-In . SVG Version: 6.00 Build 0)  -->
<svg version="1.2" baseProfile="tiny" id="Layer_1" xmlns="http://www.w3.org/2000/svg" xmlns:xlink="http://www.w3.org/1999/xlink"
	 x="0px" y="0px" viewBox="-284 382 30 30" xml:space="preserve">
<path fill="none" d="M-287,379h36v36h-36V379z"/>
<path d="M-269,382c-8.3,0-15,6.7-15,15s6.7,15,15,15s15-6.7,15-15S-260.7,382-269,382z M-270.5,408.9c-5.9-0.7-10.5-5.8-10.5-11.9
	c0-0.9,0.1-1.8,0.3-2.7l7.2,7.2v1.5c0,1.6,1.4,3,3,3V408.9z M-260.1,405.1c-0.4-1.2-1.5-2.1-2.9-2.1h-1.5v-4.5
	c0-0.8-0.7-1.5-1.5-1.5h-9v-3h3c0.8,0,1.5-0.7,1.5-1.5v-3h3c1.6,0,3-1.4,3-3v-0.6c4.4,1.8,7.5,6.1,7.5,11.1
	C-257,400.1-258.2,403-260.1,405.1z"/>
</svg>
