<?xml version="1.0" encoding="utf-8"?>
<!-- Generator: Adobe Illustrator 18.0.0, SVG Export Plug-In . SVG Version: 6.00 Build 0)  -->
<svg version="1.2" baseProfile="tiny"
	 id="svg2" xmlns:svg="http://www.w3.org/2000/svg" xmlns:rdf="http://www.w3.org/1999/02/22-rdf-syntax-ns#" xmlns:cc="http://creativecommons.org/ns#" xmlns:dc="http://purl.org/dc/elements/1.1/"
	 xmlns="http://www.w3.org/2000/svg" xmlns:xlink="http://www.w3.org/1999/xlink" x="0px" y="0px" viewBox="283.5 373.5 45 45"
	 xml:space="preserve">
<g id="layer1" transform="translate(0,-817.36218)">
	<g id="g3244" transform="matrix(0.78491286,0,0,0.78491286,-972.12018,-72.845919)">
		<path id="path7-0-5" fill="#FFFFFF" d="M1630.5,1625.3l0,35.8l-9.1-3.1l-0.1-41.8l11.6,3.2c7.4,2.1,11.9,6.2,11.9,13.4
			c-0.1,8.3-4,11.6-10.5,8.5v-15.5C1634.2,1623.5,1630.5,1621.8,1630.5,1625.3L1630.5,1625.3z"/>
		<path id="path9" fill="#FFFFFF" d="M1619.4,1641.5l-1.4,0.4l-13.2,4.7c-2.8,1.3-5.1,2.1-5.1,4.2c0.1,2.6,4.2,3.9,10.2,4.9
			c3.2,0.6,6.5,0.2,9.3-0.4v-5c0,0-5.2,2-6.5,2.2l-2.5,0c-1.9,0-2.7-1.2-0.9-1.8l10-3.8L1619.4,1641.5L1619.4,1641.5z"/>
		<path id="path9-8" fill="#FFFFFF" d="M1642.9,1643.8c-3.5,0-8.3,0.9-10.7,2v5.6l6.3-2.3l5-1.6c5.2-0.9,7.2,1,2.2,2.5l-13.4,4.9
			l0,5.5l19.6-7.1c2.2-0.8,5.2-2.3,5.2-4.2c-0.5-2.9-4.9-4.6-11.7-5.3c-0.6-0.1-1.2-0.1-1.8-0.1
			C1643.4,1643.8,1643.1,1643.8,1642.9,1643.8L1642.9,1643.8z"/>
	</g>
</g>
</svg>
