<?xml version="1.0" encoding="utf-8"?>
<!-- Generator: Adobe Illustrator 19.1.0, SVG Export Plug-In . SVG Version: 6.00 Build 0)  -->
<svg version="1.2" baseProfile="tiny" id="Layer_1" xmlns="http://www.w3.org/2000/svg" xmlns:xlink="http://www.w3.org/1999/xlink"
	 x="0px" y="0px" viewBox="0 0 66.3 91" xml:space="preserve">
<path fill="#FFFFFF" d="M33.1,0C14.9,0,0,14.8,0,33.1v50.6c0,4,3.2,7.3,7.3,7.3s7.3-3.2,7.3-7.3V60.3c0.4,0.4,0.9,0.8,1.4,1.1
	c5.2,3.1,11.1,4.8,17.2,4.8c18.2,0,33.1-14.8,33.1-33.1S51.3,0,33.1,0z M33.1,51.7c-3.4,0-6.7-0.9-9.6-2.7s-6.6-1.2-8.9,1.1v-17
	c0-10.2,8.3-18.6,18.6-18.6s18.6,8.3,18.6,18.6C51.7,43.4,43.3,51.7,33.1,51.7z"/>
</svg>
