<?xml version="1.0" encoding="utf-8"?>
<!-- Generator: Adobe Illustrator 18.0.0, SVG Export Plug-In . SVG Version: 6.00 Build 0)  -->
<svg version="1.2" baseProfile="tiny" id="Layer_1" xmlns="http://www.w3.org/2000/svg" xmlns:xlink="http://www.w3.org/1999/xlink"
	 x="0px" y="0px" viewBox="459.1 145.1 36 36" xml:space="preserve">
<g>
	<path fill="#FFFFFF" d="M491.1,159.1c0,10.5-11.2,21.9-14.1,21.9S463,169.6,463,159.1c0-7.8,6.3-14.1,14.1-14.1
		S491.1,151.4,491.1,159.1z"/>
	<path fill="#DB5248" d="M477.1,150.7c-0.7,0-1.3,0.1-2,0.2c1.1,0.6,1.9,1.7,1.9,3.1c0,1.9-1.5,3.4-3.4,3.4c-1.8,0-3.3-1.4-3.4-3.2
		c-1,1.4-1.6,3.1-1.6,5c0,4.7,3.8,8.5,8.5,8.5s8.5-3.8,8.5-8.5C485.6,154.5,481.8,150.7,477.1,150.7z"/>
</g>
</svg>
