<?xml version="1.0" encoding="utf-8"?>
<!-- Generator: Adobe Illustrator 18.0.0, SVG Export Plug-In . SVG Version: 6.00 Build 0)  -->
<svg version="1.2" baseProfile="tiny" id="Layer_1" xmlns="http://www.w3.org/2000/svg" xmlns:xlink="http://www.w3.org/1999/xlink"
	 x="0px" y="0px" viewBox="13.6 307 583.3 180.2" xml:space="preserve">
<g>
	<g>
		<g>
			<path fill="#424242" d="M155,328.1c0-5.2,1.7-9.7,5.1-13.3c3.4-3.6,7.8-5.4,13.3-5.4c5,0,9,1.5,12,4.5s5.1,6,6.4,9.1
				c3.1-3.5,6.9-6.6,11.2-9.4s9.1-4.2,14.3-4.2c4.7,0,9,1.7,13,5c3.9,3.3,5.9,7.8,5.9,13.4c0,3-0.6,5.6-1.8,7.6s-2.8,3.7-4.8,5.1
				s-4.5,2.5-7.3,3.5s-5.9,1.9-9.2,2.8c-3.9,1.1-7.3,2.2-10,3.5c-2.8,1.3-5,2.9-6.6,4.8c-1.7,1.9-2.8,4.3-3.5,7.3
				c-0.7,2.9-1.1,6.7-1.1,11.2v43.1c0,5.1-1.7,9.5-5.1,13c-3.4,3.6-7.8,5.3-13.3,5.3s-10-1.8-13.3-5.4c-3.4-3.6-5.1-8-5.1-13.3
				L155,328.1L155,328.1z"/>
			<path fill="#424242" d="M320.6,314.3c7.6,3.3,14.2,7.7,19.6,13.4c5.4,5.6,9.6,12.3,12.6,19.9s4.5,15.9,4.5,24.6
				c0,8.8-1.5,17-4.5,24.6s-7.2,14.3-12.6,19.9s-12,10.1-19.6,13.4s-16.1,4.9-25.4,4.9s-17.7-1.6-25.4-4.9
				c-7.6-3.3-14.2-7.7-19.6-13.4c-5.4-5.6-9.6-12.3-12.6-19.9s-4.5-15.8-4.5-24.6c0-8.8,1.5-17,4.5-24.6s7.2-14.3,12.6-19.9
				c5.4-5.6,12-10.1,19.6-13.4s16.1-4.9,25.4-4.9S313,311.1,320.6,314.3z M284.4,347c-3.2,1.5-5.8,3.4-7.9,5.9s-3.7,5.4-4.8,8.7
				c-1.1,3.3-1.7,6.8-1.7,10.6c0,3.7,0.5,7.3,1.7,10.6c1.1,3.3,2.7,6.2,4.8,8.7c2.1,2.5,4.8,4.5,7.9,5.9c3.1,1.5,6.8,2.2,10.9,2.2
				s7.7-0.7,10.9-2.2c3.1-1.5,5.8-3.4,7.9-5.9s3.7-5.4,4.8-8.7c1.1-3.3,1.7-6.8,1.7-10.6c0-3.7-0.6-7.3-1.7-10.6
				c-1.1-3.3-2.7-6.2-4.8-8.7s-4.8-4.5-7.9-5.9c-3.2-1.5-6.8-2.2-10.9-2.2C291.1,344.8,287.5,345.6,284.4,347z"/>
			<path fill="#424242" d="M397.7,369l-19.1-19.9c-2.7-2.8-4.9-5.1-6.7-7c-1.8-1.9-3.3-3.7-4.4-5.2s-1.9-3-2.4-4.4s-0.7-2.8-0.7-4.4
				c0-5.9,1.8-10.4,5.5-13.7c3.7-3.3,7.8-5,12.2-5c4.2,0,7.7,0.6,10.3,1.9c2.6,1.3,5.2,3.6,7.9,7.1l19.6,24.3l19.6-24.3
				c2.7-3.5,5.3-5.8,7.9-7.1c2.6-1.3,6-1.9,10.3-1.9c4.4,0,8.5,1.7,12.2,5s5.5,7.9,5.5,13.7c0,1.5-0.2,3-0.7,4.4s-1.3,2.8-2.4,4.4
				c-1.1,1.5-2.6,3.3-4.4,5.2c-1.8,1.9-4.1,4.3-6.7,7L442.1,369l31.4,32.6c1.6,1.7,3.2,3.7,4.8,6.1c1.7,2.4,2.5,5.5,2.5,9.4
				c0,5.5-1.9,9.9-5.7,13.2s-8.2,4.8-13.2,4.8c-3.9,0-7.1-0.9-9.4-2.8c-2.4-1.9-4.6-4.1-6.8-6.6l-25.7-30l-25.7,30
				c-2.2,2.5-4.5,4.7-6.8,6.6c-2.4,1.9-5.5,2.8-9.4,2.8c-5,0-9.4-1.6-13.2-4.8s-5.7-7.6-5.7-13.2c0-3.8,0.8-7,2.5-9.4
				s3.3-4.4,4.8-6.1L397.7,369z"/>
			<path fill="#424242" d="M518.1,423.5l-31.4-74.2c-2.2-5-4.1-9.5-5.5-13.5c-1.5-4-2.2-7.1-2.2-9.3c0-5.5,1.8-9.7,5.5-12.6
				c3.7-3,7.8-4.5,12.4-4.5c9,0,15.3,4.6,18.9,13.8l21.7,55.7l20.5-49.7c2.4-5.6,5-10.3,8-14.2c3-3.8,7-5.7,12-5.7
				c5.7,0,10.2,1.7,13.7,5c3.5,3.4,5.2,7.8,5.2,13.5c0,2.7-0.5,5.4-1.5,8.3s-2,5.4-3,7.6l-54.5,126.2c-1.1,2.3-2.2,4.6-3.2,6.7
				s-2.2,3.9-3.7,5.5c-1.4,1.6-3.2,2.8-5.3,3.7c-2.1,0.9-4.8,1.4-7.9,1.4c-3.3,0-6.1-0.6-8.4-1.8c-2.3-1.2-4.2-2.6-5.7-4.2
				s-2.6-3.4-3.2-5.3s-0.9-3.6-0.9-5.2c0-3.1,0.5-6.1,1.4-8.8c0.9-2.7,2.5-6.5,4.7-11.4L518.1,423.5z"/>
		</g>
		<g>
			<g>
				<g>
					<g>
						<path fill="#424242" d="M32,485c-10.2,0-18.4-8.2-18.4-18.4v-95.1c0-35.7,28.9-64.5,64.2-64.5s64.5,28.9,64.5,64.5
							s-28.9,64.2-64.5,64.2c-7.1,0-13.9-1.1-20.7-3.4c-2.8-0.8-5.1-2.5-7.1-4.2v38.8C50.4,476.8,42.2,485,32,485z M77.8,343.8
							c-15.3,0-27.4,12.4-27.4,27.4v30.6c4.8-4.8,11.9-6.5,18.7-4.2c2.8,0.8,5.7,1.4,8.8,1.4c15.3,0,27.4-12.4,27.4-27.4
							C105.3,356.5,93.1,343.8,77.8,343.8z"/>
					</g>
				</g>
			</g>
		</g>
	</g>
</g>
</svg>
