<?xml version="1.0" encoding="utf-8"?>
<!-- Generator: Adobe Illustrator 18.0.0, SVG Export Plug-In . SVG Version: 6.00 Build 0)  -->
<svg version="1.2" baseProfile="tiny"
	 id="svg21775" sodipodi:docname="reddit-alien.svg" inkscape:version="0.48.3.1 r9886" xmlns:inkscape="http://www.inkscape.org/namespaces/inkscape" xmlns:sodipodi="http://sodipodi.sourceforge.net/DTD/sodipodi-0.dtd" xmlns:dc="http://purl.org/dc/elements/1.1/" xmlns:rdf="http://www.w3.org/1999/02/22-rdf-syntax-ns#" xmlns:cc="http://creativecommons.org/ns#" xmlns:svg="http://www.w3.org/2000/svg" inkscape:export-xdpi="184.19029" inkscape:export-ydpi="184.19029" inkscape:export-filename="/home/chromakode/Documents/code/reddit/reddit-about/reddit_about/public/static/about/assets/reddit-alien.png"
	 xmlns="http://www.w3.org/2000/svg" xmlns:xlink="http://www.w3.org/1999/xlink" x="0px" y="0px" viewBox="282 372 48 48"
	 xml:space="preserve">
<g id="ellipse21778">
	
		<ellipse sodipodi:cx="65.245003" sodipodi:ry="5.3239999" sodipodi:rx="4.4109998" sodipodi:cy="28.417999" fill="#FFFFFF" cx="311.4" cy="406.5" rx="5.4" ry="6.5">
	</ellipse>
	<path d="M311.4,413.4c-3.2,0-5.8-3.1-5.8-7s2.6-7,5.8-7c3.2,0,5.8,3.1,5.8,7S314.6,413.4,311.4,413.4z M311.4,400.4
		c-2.7,0-5,2.7-5,6.1c0,3.4,2.2,6.1,5,6.1c2.7,0,5-2.7,5-6.1C316.3,403.1,314.1,400.4,311.4,400.4z"/>
</g>
<g id="g21780">
	<g id="g21782">
		<g id="path21784">
			<path inkscape:connector-curvature="0" fill="#FFFFFF" d="M302.8,419.8c0.1-0.2,0.1-0.5,0.1-0.8c0-1.7-1.7-3-3.7-3
				c-2.1,0-3.7,1.4-3.7,3c0,0.3,0.1,0.5,0.1,0.8H302.8z"/>
			<path d="M303.2,420.2h-7.8l-0.1-0.3c-0.1-0.3-0.2-0.6-0.2-0.9c0-1.9,1.9-3.5,4.2-3.5c2.3,0,4.2,1.5,4.2,3.5c0,0.3,0,0.6-0.2,0.9
				L303.2,420.2z M296,419.4h6.5c0-0.1,0-0.2,0-0.3c0-1.4-1.5-2.6-3.3-2.6c-1.8,0-3.3,1.2-3.3,2.6C296,419.1,296,419.3,296,419.4z"
				/>
		</g>
	</g>
	<g id="g21786">
		<g id="path21788">
			<path inkscape:connector-curvature="0" fill="#FFFFFF" d="M302.8,419.8c0.1-0.2,0.1-0.5,0.1-0.8c0-1.7-1.7-3-3.7-3
				c-2.1,0-3.7,1.4-3.7,3c0,0.3,0.1,0.5,0.1,0.8H302.8z"/>
			<path d="M302.8,420.2h-7.2c-0.2,0-0.4-0.1-0.4-0.3c-0.1-0.3-0.2-0.6-0.2-0.9c0-1.9,1.9-3.5,4.2-3.5c2.3,0,4.2,1.5,4.2,3.5
				c0,0.3,0,0.6-0.2,0.9C303.2,420.1,303,420.2,302.8,420.2z M296,419.4h6.5c0-0.1,0-0.2,0-0.3c0-1.4-1.5-2.6-3.3-2.6
				c-1.8,0-3.3,1.2-3.3,2.6C296,419.1,296,419.3,296,419.4z"/>
		</g>
	</g>
</g>
<g id="g21790">
	<g id="g21792">
		<g id="path21794">
			<path inkscape:connector-curvature="0" fill="#FFFFFF" d="M315.9,419.8c0.1-0.2,0.1-0.5,0.1-0.8c0-1.7-1.7-3-3.7-3
				c-2.1,0-3.7,1.4-3.7,3c0,0.3,0,0.5,0.1,0.8H315.9z"/>
			<path d="M316.2,420.2h-7.8l-0.1-0.3c-0.1-0.3-0.2-0.6-0.2-0.9c0-1.9,1.9-3.5,4.2-3.5c2.3,0,4.2,1.5,4.2,3.5c0,0.3,0,0.6-0.2,0.9
				L316.2,420.2z M309,419.4h6.5c0-0.1,0-0.2,0-0.3c0-1.4-1.5-2.6-3.3-2.6c-1.8,0-3.3,1.2-3.3,2.6C309,419.1,309,419.3,309,419.4z"
				/>
		</g>
	</g>
	<g id="g21796">
		<g id="path21798">
			<path inkscape:connector-curvature="0" fill="#FFFFFF" d="M315.9,419.8c0.1-0.2,0.1-0.5,0.1-0.8c0-1.7-1.7-3-3.7-3
				c-2.1,0-3.7,1.4-3.7,3c0,0.3,0,0.5,0.1,0.8H315.9z"/>
			<path d="M315.9,420.2h-7.2c-0.2,0-0.4-0.1-0.4-0.3c-0.1-0.3-0.2-0.6-0.2-0.9c0-1.9,1.9-3.5,4.2-3.5c2.3,0,4.2,1.5,4.2,3.5
				c0,0.3,0,0.6-0.2,0.9C316.3,420.1,316.1,420.2,315.9,420.2z M309,419.4h6.5c0-0.1,0-0.2,0-0.3c0-1.4-1.5-2.6-3.3-2.6
				c-1.8,0-3.3,1.2-3.3,2.6C309,419.1,309,419.3,309,419.4z"/>
		</g>
	</g>
</g>
<g id="circle21800">
	
		<circle sodipodi:cx="49.683998" sodipodi:ry="2.7019999" sodipodi:rx="2.7019999" sodipodi:cy="11.836" fill="#FFFFFF" cx="292.3" cy="386.2" r="3.3">
	</circle>
	<path d="M292.3,389.9c-2.1,0-3.8-1.7-3.8-3.8s1.7-3.8,3.8-3.8c2.1,0,3.8,1.7,3.8,3.8S294.3,389.9,292.3,389.9z M292.3,383.3
		c-1.6,0-2.9,1.3-2.9,2.9c0,1.6,1.3,2.9,2.9,2.9c1.6,0,2.9-1.3,2.9-2.9C295.1,384.6,293.9,383.3,292.3,383.3z"/>
</g>
<g id="circle21802">
	
		<circle sodipodi:cx="71.786003" sodipodi:ry="2.7019999" sodipodi:rx="2.7019999" sodipodi:cy="11.836" fill="#FFFFFF" cx="319.4" cy="386.2" r="3.3">
	</circle>
	<path d="M319.4,389.9c-2.1,0-3.8-1.7-3.8-3.8s1.7-3.8,3.8-3.8s3.8,1.7,3.8,3.8S321.4,389.9,319.4,389.9z M319.4,383.3
		c-1.6,0-2.9,1.3-2.9,2.9c0,1.6,1.3,2.9,2.9,2.9s2.9-1.3,2.9-2.9C322.2,384.6,321,383.3,319.4,383.3z"/>
</g>
<g id="path21804">
	<path d="M305.9,381.1c0,0-0.1,0-0.1,0c-0.2-0.1-0.4-0.3-0.3-0.5l2.4-7.7c0.1-0.2,0.3-0.4,0.5-0.3l6.6,1.6c0.2,0.1,0.4,0.3,0.3,0.5
		c-0.1,0.2-0.3,0.4-0.5,0.3l-6.2-1.5l-2.3,7.3C306.3,381,306.1,381.1,305.9,381.1z"/>
</g>
<g id="ellipse21806">
	
		<ellipse sodipodi:cx="56.146" sodipodi:ry="5.3239999" sodipodi:rx="4.4109998" sodipodi:cy="28.417999" fill="#FFFFFF" cx="300.2" cy="406.5" rx="5.4" ry="6.5">
	</ellipse>
	<path d="M300.2,413.4c-3.2,0-5.8-3.1-5.8-7s2.6-7,5.8-7c3.2,0,5.8,3.1,5.8,7S303.4,413.4,300.2,413.4z M300.2,400.4
		c-2.7,0-5,2.7-5,6.1c0,3.4,2.2,6.1,5,6.1c2.7,0,5-2.7,5-6.1C305.2,403.1,302.9,400.4,300.2,400.4z"/>
</g>
<g id="circle21808">
	
		<circle sodipodi:cx="70.431" sodipodi:ry="2.1300001" sodipodi:rx="2.1300001" sodipodi:cy="2.789" fill="#FFFFFF" cx="317.7" cy="375.1" r="2.6">
	</circle>
	<path d="M317.7,378.1c-1.7,0-3-1.4-3-3s1.4-3,3-3c1.7,0,3,1.4,3,3S319.4,378.1,317.7,378.1z M317.7,372.9c-1.2,0-2.2,1-2.2,2.2
		c0,1.2,1,2.2,2.2,2.2c1.2,0,2.2-1,2.2-2.2C319.9,373.9,318.9,372.9,317.7,372.9z"/>
</g>
<g id="g21810">
	<g id="g21812">
		<g id="path21814">
			<path inkscape:connector-curvature="0" fill="#FFFFFF" d="M303.9,419.8h3.7c3.3-1.7,5.7-7.8,5.7-15c0-8.6-3.4-15.5-7.5-15.5
				c-4.1,0-7.5,6.9-7.5,15.5C298.2,412,300.7,418.1,303.9,419.8z"/>
			<path d="M307.7,420.2h-3.9l-0.1,0c-3.5-1.8-5.9-8.2-5.9-15.4c0-4.2,0.8-8.2,2.2-11.2c1.5-3.1,3.5-4.8,5.7-4.8
				c2.2,0,4.2,1.7,5.7,4.8c1.4,3,2.2,7,2.2,11.2C313.7,412,311.3,418.4,307.7,420.2L307.7,420.2z M304,419.4h3.4
				c1.5-0.8,2.8-2.6,3.8-5.1c1-2.7,1.6-6,1.6-9.5c0-4.1-0.8-7.9-2.2-10.8c-1.4-2.8-3.1-4.3-4.9-4.3c-1.8,0-3.6,1.5-4.9,4.3
				c-1.4,2.9-2.2,6.7-2.2,10.8c0,3.5,0.5,6.7,1.6,9.5C301.2,416.7,302.6,418.6,304,419.4z"/>
		</g>
	</g>
	<g id="g21816">
		<g id="path21818">
			<path inkscape:connector-curvature="0" fill="#FFFFFF" d="M303.9,419.8h3.7c3.3-1.7,5.7-7.8,5.7-15c0-8.6-3.4-15.5-7.5-15.5
				c-4.1,0-7.5,6.9-7.5,15.5C298.2,412,300.7,418.1,303.9,419.8z"/>
			<path d="M307.7,420.2h-3.9l-0.1,0c-3.5-1.8-5.9-8.2-5.9-15.4c0-4.2,0.8-8.2,2.2-11.2c1.5-3.1,3.5-4.8,5.7-4.8
				c2.2,0,4.2,1.7,5.7,4.8c1.4,3,2.2,7,2.2,11.2C313.7,412,311.3,418.4,307.7,420.2L307.7,420.2z M304,419.4h3.4
				c1.5-0.8,2.8-2.6,3.8-5.1c1-2.7,1.6-6,1.6-9.5c0-4.1-0.8-7.9-2.2-10.8c-1.4-2.8-3.1-4.3-4.9-4.3c-1.8,0-3.6,1.5-4.9,4.3
				c-1.4,2.9-2.2,6.7-2.2,10.8c0,3.5,0.5,6.7,1.6,9.5C301.2,416.7,302.6,418.6,304,419.4z"/>
		</g>
	</g>
</g>
<g id="ellipse21820">
	
		<ellipse sodipodi:cx="60.675999" sodipodi:ry="7.987" sodipodi:rx="12.238" sodipodi:cy="15.552" fill="#FFFFFF" cx="305.8" cy="390.7" rx="15" ry="9.8">
	</ellipse>
	<path d="M305.8,400.9c-4.1,0-8-1-10.9-2.9c-3-1.9-4.6-4.5-4.6-7.3c0-2.8,1.6-5.4,4.6-7.3c2.9-1.9,6.8-2.9,10.9-2.9
		c4.1,0,8,1,10.9,2.9c3,1.9,4.6,4.5,4.6,7.3c0,2.8-1.6,5.4-4.6,7.3C313.7,399.9,309.8,400.9,305.8,400.9z M305.8,381.3
		c-8,0-14.6,4.2-14.6,9.4c0,5.2,6.5,9.4,14.6,9.4c8,0,14.6-4.2,14.6-9.4C320.3,385.5,313.8,381.3,305.8,381.3z"/>
</g>
<g id="line21822">
	<line fill="none" x1="301.8" y1="419.8" x2="309.9" y2="419.8"/>
	<path d="M309.9,420.2h-8.1c-0.2,0-0.4-0.2-0.4-0.4c0-0.2,0.2-0.4,0.4-0.4h8.1c0.2,0,0.4,0.2,0.4,0.4
		C310.3,420,310.1,420.2,309.9,420.2z"/>
</g>
<g id="path21830">
	<path inkscape:connector-curvature="0" fill="#FFFFFF" d="M300.6,395.2c1.3,1.3,3.4,1.6,5.2,1.6"/>
	<path d="M305.8,397.2c-2.6,0-4.3-0.6-5.5-1.7c-0.2-0.2-0.2-0.4,0-0.6c0.2-0.2,0.4-0.2,0.6,0c1,1,2.6,1.4,4.9,1.4
		c0.2,0,0.4,0.2,0.4,0.4S306,397.2,305.8,397.2z"/>
</g>
<g id="path21832">
	<path inkscape:connector-curvature="0" fill="#FFFFFF" d="M311,395.2c-1.3,1.3-3.4,1.6-5.2,1.6"/>
	<path d="M305.8,397.2c-0.2,0-0.4-0.2-0.4-0.4s0.2-0.4,0.4-0.4c2.3,0,3.9-0.5,4.9-1.4c0.2-0.2,0.4-0.2,0.6,0c0.2,0.2,0.2,0.4,0,0.6
		C310.2,396.7,308.4,397.2,305.8,397.2z"/>
</g>
<g id="Layer_3" transform="translate(-56.49872,470.00082)">
</g>
<sodipodi:namedview  inkscape:pageshadow="2" fit-margin-right="0" inkscape:pageopacity="0" inkscape:window-width="1261" inkscape:window-height="900" id="namedview21835" inkscape:window-x="1950" inkscape:window-y="64" inkscape:cx="178.3494" showgrid="false" pagecolor="#ffffff" fit-margin-left="0" guidetolerance="10" inkscape:cy="235.80988" inkscape:zoom="1" borderopacity="1" bordercolor="#666666" objecttolerance="10" gridtolerance="10" fit-margin-top="0" fit-margin-bottom="0" inkscape:current-layer="svg21775" inkscape:window-maximized="0">
	</sodipodi:namedview>
<g id="Layer_2" transform="matrix(12.584949,0,0,12.584949,-584.34433,-1.3717583)">
	<g id="g21824">
		<g id="circle21826">
			<path inkscape:connector-curvature="0" fill="#FF4500" d="M70.3,30.8c-0.1,0-0.2,0.1-0.2,0.2s0.1,0.2,0.2,0.2s0.2-0.1,0.2-0.2
				S70.4,30.8,70.3,30.8z"/>
		</g>
		<g id="circle21828">
			<path inkscape:connector-curvature="0" fill="#FF4500" d="M71.2,30.8c-0.1,0-0.2,0.1-0.2,0.2s0.1,0.2,0.2,0.2s0.2-0.1,0.2-0.2
				S71.3,30.8,71.2,30.8z"/>
		</g>
	</g>
</g>
</svg>
