<?xml version="1.0" encoding="utf-8"?>
<!-- Generator: Adobe Illustrator 18.0.0, SVG Export Plug-In . SVG Version: 6.00 Build 0)  -->
<svg version="1.2" baseProfile="tiny" id="Layer_1" xmlns="http://www.w3.org/2000/svg" xmlns:xlink="http://www.w3.org/1999/xlink"
	 x="0px" y="0px" viewBox="283.5 373.5 45 45" xml:space="preserve">
<g>
	<path fill="#FFFFFF" d="M322.4,386.6c-3.3,0-6.1,2.7-6.1,6.1v0.1l-3.9,5.7c-0.6,0-1.3,0.1-1.9,0.3c-0.3,0.1-0.5,0.2-0.7,0.4
		l-17.6-7.3c-0.3-1.4-1.2-2.6-2.6-3.1c-2.2-0.9-4.9,0.1-5.8,2.4c-0.9,2.2,0.1,4.9,2.4,5.8c1.1,0.4,2.3,0.5,3.4,0
		c0.2-0.1,0.5-0.2,0.7-0.4l17.7,7.3c0.3,1.3,1.2,2.5,2.6,3.1c2.2,0.9,4.9-0.1,5.8-2.4c0.2-0.6,0.4-1.2,0.3-1.8l5.6-3.9h0.1
		c3.3,0,6.1-2.7,6.1-6.1C328.5,389.3,325.8,386.6,322.4,386.6z M289,390.5c-1.3-0.5-2.7,0.1-3.3,1.3c-0.5,1.3,0.1,2.7,1.3,3.3l2,0.8
		c-0.4,0.1-0.8,0.2-1.2,0.2s-0.9-0.1-1.3-0.3c-1.3-0.5-2.1-1.8-2.1-3.1c0-0.4,0.1-0.9,0.3-1.3c0.7-1.7,2.7-2.5,4.4-1.8
		c0.8,0.3,1.4,1,1.8,1.7L289,390.5z M315.5,404.2c-0.7,1.7-2.7,2.5-4.4,1.8c-0.8-0.3-1.4-0.9-1.7-1.7l2,0.8c0.3,0.1,0.6,0.2,1,0.2
		c1,0,1.9-0.6,2.3-1.5c0.5-1.3-0.1-2.7-1.3-3.3l-2-0.8c0.8-0.3,1.7-0.3,2.5,0c0.8,0.3,1.5,1,1.8,1.8
		C315.8,402.4,315.8,403.3,315.5,404.2z M322.4,396.7c-2.2,0-4-1.8-4-4s1.8-4,4-4s4,1.8,4,4C326.5,394.9,324.7,396.7,322.4,396.7z"
		/>
	<path fill="#FFFFFF" d="M322.4,389.6c-1.7,0-3,1.3-3,3s1.3,3,3,3s3-1.3,3-3S324.2,389.6,322.4,389.6z"/>
</g>
</svg>
