<?xml version="1.0" encoding="utf-8"?>
<!-- Generator: Adobe Illustrator 18.0.0, SVG Export Plug-In . SVG Version: 6.00 Build 0)  -->
<svg version="1.2" baseProfile="tiny" id="Layer_1" xmlns="http://www.w3.org/2000/svg" xmlns:xlink="http://www.w3.org/1999/xlink"
	 x="0px" y="0px" viewBox="288 378 36 36" xml:space="preserve">
<g>
	<path fill="#181313" d="M301.7,385.4c1.3,0.1,2.5,0.1,3.8,0.2c0.5,0,1,0,1.5,0.1c0.7,0.1,1.4,0.2,2.1,0.2c0.6,0.1,1.1,0.2,1.7,0.3
		c0.5,0.1,1,0.2,1.5,0.3c0.4,0.1,0.8,0.1,1.1,0.2c0.8,0.2,1.6,0.4,2.3,0.6c0.7,0.2,1.3,0.4,2,0.7c0.5,0.2,1.1,0.4,1.6,0.7
		c0.6,0.2,1.2,0.5,1.7,0.8c0.6,0.3,1.2,0.6,1.8,1c0.8,0.5,1.2,1.4,1,2.3c-0.2,1.4-1.6,2.4-2.9,2c-0.3-0.1-0.7-0.3-1-0.4
		c-0.4-0.2-0.9-0.5-1.3-0.7c-0.5-0.2-1-0.5-1.5-0.7c-0.8-0.3-1.5-0.6-2.3-0.8c-0.4-0.1-0.9-0.3-1.3-0.4c-0.4-0.1-0.9-0.2-1.3-0.3
		c-0.8-0.2-1.7-0.4-2.5-0.5c-0.6-0.1-1.2-0.2-1.8-0.3c-1.8-0.3-3.6-0.3-5.4-0.4c-1.6,0-3.1,0-4.6,0.1c-0.5,0-1,0.1-1.4,0.1
		c-0.6,0.1-1.3,0.2-1.9,0.3c-0.5,0.1-0.9,0.1-1.4,0.2c-0.6,0.1-1.2,0.3-1.8,0.5c-1.1,0.4-2.2,0.1-2.9-0.8c-0.6-0.7-0.7-1.7-0.2-2.6
		c0.4-0.7,1-1.1,1.8-1.3c0.6-0.1,1.1-0.3,1.7-0.4c0.5-0.1,0.9-0.2,1.4-0.3c0.6-0.1,1.1-0.2,1.7-0.3c1-0.1,2-0.2,3-0.3
		C299.3,385.5,300.5,385.4,301.7,385.4z"/>
	<path fill="#181313" d="M301.4,394c1.3,0.1,2.7,0.2,4.1,0.3c0.8,0.1,1.6,0.2,2.3,0.3c0.7,0.1,1.4,0.2,2.1,0.4
		c0.8,0.2,1.6,0.4,2.4,0.7c0.8,0.2,1.6,0.5,2.4,0.8c0.5,0.2,1,0.4,1.5,0.7c0.5,0.3,1.1,0.5,1.6,0.8c0.6,0.3,1.3,0.7,1.8,1.1
		c0.8,0.7,0.9,1.8,0.2,2.7c-0.5,0.7-1.2,0.9-2,0.7c-0.3-0.1-0.6-0.3-0.9-0.4c-0.7-0.4-1.3-0.7-2-1.1c-0.8-0.4-1.7-0.7-2.5-1
		c-0.4-0.1-0.7-0.3-1.1-0.4c-0.9-0.2-1.8-0.5-2.8-0.7c-0.9-0.2-1.9-0.3-2.8-0.5c-1.3-0.1-2.5-0.2-3.8-0.3c-1.4-0.1-2.7,0-4.1,0.2
		c-0.9,0.1-1.8,0.2-2.7,0.4c-0.7,0.1-1.3,0.3-2,0.5c-0.6,0.1-1.2,0.4-1.8,0.3c-0.7-0.1-1.2-0.6-1.5-1.3c-0.3-0.8-0.1-1.4,0.4-2.1
		c0.3-0.3,0.6-0.5,1-0.6c1-0.3,2-0.5,3-0.7c1.2-0.2,2.4-0.4,3.6-0.5C299,394.1,300.1,394.1,301.4,394z"/>
	<path fill="#181313" d="M301.7,402.2c1,0.1,2.2,0.1,3.3,0.2c1.1,0.1,2.2,0.3,3.3,0.5c1,0.2,2,0.5,2.9,0.8c0.9,0.3,1.7,0.7,2.6,1
		c0.8,0.4,1.5,0.7,2.3,1.2c0.4,0.2,0.7,0.4,0.9,0.7c0.4,0.6,0.4,1.4-0.1,1.9c-0.5,0.6-1.1,0.8-1.8,0.6c-0.3-0.1-0.5-0.3-0.8-0.4
		c-0.7-0.4-1.3-0.7-2-1.1c-0.7-0.3-1.4-0.6-2.1-0.8c-0.5-0.2-1-0.3-1.4-0.4c-0.7-0.2-1.5-0.4-2.2-0.5c-0.6-0.1-1.3-0.2-1.9-0.2
		c-1.2-0.1-2.4-0.2-3.7-0.1c-1.4,0-2.8,0.1-4.2,0.3c-0.8,0.1-1.6,0.2-2.5,0.4c-0.5,0.1-1.1,0.2-1.6,0.4c-1,0.2-2-0.6-1.9-1.7
		c0-0.7,0.7-1.4,1.4-1.6c0.8-0.2,1.6-0.4,2.4-0.5c1.2-0.2,2.5-0.4,3.7-0.5C299.4,402.3,300.5,402.3,301.7,402.2z"/>
</g>
</svg>
