<?xml version="1.0" encoding="utf-8"?>
<!-- Generator: Adobe Illustrator 18.0.0, SVG Export Plug-In . SVG Version: 6.00 Build 0)  -->
<svg version="1.2" baseProfile="tiny" id="Layer_1" xmlns="http://www.w3.org/2000/svg" xmlns:xlink="http://www.w3.org/1999/xlink"
	 x="0px" y="0px" viewBox="0 0 101.1 105.1" xml:space="preserve">
<g>
	<path fill="#A0AAAA" d="M53.5,47.6l-0.2-16.8c0-8.9-7.2-16.1-16.1-16.1c-8.9,0-16.1,7.2-16.1,16.1v16.8H53.5z"/>
	<path fill="#A0AAAA" d="M56.1,62.9v-6.3c9.7,0,17.6-7.9,17.6-17.6H80C80,52.2,69.3,62.9,56.1,62.9z"/>
	<path fill="#A0AAAA" d="M13.8,80.2c-7,0-12.6-5.7-12.6-12.6S6.8,55,13.8,55s12.6,5.7,12.6,12.6S20.7,80.2,13.8,80.2z M13.8,61.2
		c-3.5,0-6.3,2.8-6.3,6.3c0,3.5,2.8,6.3,6.3,6.3c3.5,0,6.3-2.8,6.3-6.3C20.1,64.1,17.3,61.2,13.8,61.2z"/>
	<path fill="#D2DCDC" d="M62.9,50.7c0-1.9-1.5-3.4-3.4-3.4H15.2c-1.9,0-3.4,1.5-3.4,3.4v30.9c0,1.9,1.5,3.4,3.4,3.4h44.3
		c1.9,0,3.4-1.5,3.4-3.4V50.7z"/>
	<rect x="20.1" y="85.1" fill="#A0AAAA" width="6.3" height="15.7"/>
	<rect x="49.4" y="85.1" fill="#A0AAAA" width="6.3" height="15.7"/>
	<path fill="#D2DCDC" d="M28.7,104.1c0-2.9-2.4-5.3-5.3-5.3c-2.9,0-5.3,2.4-5.3,5.3H28.7z"/>
	<path fill="#D2DCDC" d="M58,104.1c0-2.9-2.4-5.3-5.3-5.3c-2.9,0-5.3,2.4-5.3,5.3H58z"/>
	<rect x="42.8" y="69.4" fill="#A0AAAA" width="13.7" height="1.3"/>
	<rect x="42.8" y="72.3" fill="#A0AAAA" width="13.7" height="1.3"/>
	<rect x="42.8" y="75.3" fill="#A0AAAA" width="13.7" height="1.3"/>
	<rect x="42.8" y="78.2" fill="#A0AAAA" width="13.7" height="1.3"/>
	<circle fill="#FE513C" cx="54.8" cy="64.7" r="1.5"/>
	<circle fill="#FE513C" cx="54.8" cy="60.1" r="1.5"/>
	<circle fill="#FE513C" cx="54.8" cy="55" r="1.5"/>
	<rect x="15.7" y="54.2" fill="#A0AAAA" width="21.7" height="25.8"/>
	<circle fill="#5A6464" cx="33.6" cy="67.5" r="1.3"/>
	<rect x="36.3" y="6.2" fill="#5A6464" width="1.9" height="8.5"/>
	<circle fill="#FE513C" cx="37.3" cy="4.5" r="3"/>
	<path d="M27.7,28.9c0,2.1,2.8,3.7,6.3,3.7s6.3-1.7,6.3-3.7"/>
	<path d="M42.5,28.9c0,2.1,2.8,3.7,6.3,3.7c3.5,0,6.3-1.7,6.3-3.7"/>
	<rect x="22.1" y="27.5" width="32.9" height="1.4"/>
	<path d="M21.1,29.9h-1.5c0-1.4,1.1-2.4,2.5-2.4v1.4C21.5,28.9,21.1,29.3,21.1,29.9z"/>
	<path fill="#EBFEFF" d="M44.8,29.2c0,0,1.7,0.4,1.9-0.1C46.9,28.6,44,28.8,44.8,29.2z"/>
	<path fill="#EBFEFF" d="M29.6,29.2c0,0,1.7,0.4,1.9-0.1C31.8,28.6,28.9,28.8,29.6,29.2z"/>
	<path fill="#D2DCDC" d="M51,38.3c0-1.1-0.9-2-2-2H31.5c-1.1,0-2,0.9-2,2v0.5c0,1.1,0.9,2,2,2H49c1.1,0,2-0.9,2-2V38.3z"/>
	<path d="M47.8,39.2H32.4c-0.3,0-0.6-0.3-0.6-0.6S32,38,32.4,38h15.4c0.3,0,0.6,0.3,0.6,0.6S48.1,39.2,47.8,39.2z"/>
	<path fill="#D2DCDC" d="M76.2,39.5c2.4,1.7,5.7,1.1,7.4-1.4s1.1-5.7-1.4-7.4L76.2,39.5z"/>
	<circle fill="#FFFFFF" cx="81.3" cy="20" r="18.3"/>
	<path fill="#4285F4" d="M72.2,20c0-1.9,1.6-3.5,3.5-3.5h4.5v-2.1h-4.5c-3.1,0-5.6,2.5-5.6,5.6s2.5,5.6,5.6,5.6h4.5v-2.1h-4.5
		C73.8,23.5,72.2,21.9,72.2,20z M76.8,21.1h9v-2.2h-9V21.1z M86.9,14.4h-4.5v2.1h4.5c1.9,0,3.5,1.6,3.5,3.5s-1.6,3.5-3.5,3.5h-4.5
		v2.1h4.5c3.1,0,5.6-2.5,5.6-5.6S90,14.4,86.9,14.4z"/>
	<path fill="#D2DCDC" d="M75.2,29.9c-2.8,0.8-4.4,3.8-3.6,6.6s3.8,4.4,6.6,3.6L75.2,29.9z"/>
</g>
</svg>
