<?xml version="1.0" encoding="utf-8"?>
<!-- Generator: Adobe Illustrator 18.0.0, SVG Export Plug-In . SVG Version: 6.00 Build 0)  -->
<svg version="1.2" baseProfile="tiny" id="Layer_1" xmlns="http://www.w3.org/2000/svg" xmlns:xlink="http://www.w3.org/1999/xlink"
	 x="0px" y="0px" viewBox="0 0 36 36" xml:space="preserve">
<path fill="#FFFFFF" d="M18.2,34.5c-0.1,0-0.2,0-0.3,0c-0.1,0-0.1,0-0.2,0c-2.1,0-3.5-1-4.7-1.9c-0.9-0.6-1.7-1.2-2.7-1.4
	c-0.5-0.1-1-0.1-1.4-0.1c-0.8,0-1.5,0.1-2,0.2c-0.3,0.1-0.6,0.1-0.7,0.1c-0.2,0-0.5,0-0.6-0.4c-0.1-0.3-0.1-0.6-0.2-0.8
	c-0.1-0.7-0.2-1.1-0.5-1.1c-2.6-0.4-4.2-1-4.5-1.7c0-0.1-0.1-0.2-0.1-0.2c0-0.2,0.1-0.4,0.4-0.4c2.1-0.3,3.9-1.4,5.5-3.3
	c1.2-1.4,1.8-2.8,1.9-2.9c0,0,0,0,0,0c0.3-0.6,0.4-1.1,0.2-1.6c-0.3-0.8-1.5-1.2-2.2-1.4c-0.2-0.1-0.4-0.1-0.5-0.2
	c-0.7-0.3-1.7-0.8-1.6-1.6c0.1-0.6,0.8-0.9,1.4-0.9c0.2,0,0.3,0,0.4,0.1c0.7,0.3,1.3,0.5,1.8,0.5c0.6,0,1-0.2,1-0.3
	c0-0.3,0-0.7-0.1-1c0,0,0,0,0,0C8.5,11.7,8.3,8.7,9.1,7c2.3-5.1,7.1-5.5,8.6-5.5c0,0,0.6,0,0.6,0c0,0,0.1,0,0.1,0
	c1.4,0,6.3,0.4,8.6,5.5c0.8,1.7,0.6,4.7,0.4,7.1l0,0.1c0,0.3,0,0.6-0.1,0.9c0.1,0.1,0.4,0.3,0.9,0.3c0.5,0,1.1-0.2,1.7-0.5
	c0.2-0.1,0.4-0.1,0.5-0.1c0.2,0,0.4,0,0.6,0.1l0,0c0.5,0.2,0.9,0.6,0.9,1c0,0.4-0.3,0.9-1.6,1.4c-0.1,0.1-0.3,0.1-0.5,0.2
	c-0.7,0.2-1.9,0.6-2.2,1.4c-0.2,0.4-0.1,1,0.2,1.6c0,0,0,0,0,0c0.1,0.2,2.4,5.4,7.4,6.2c0.2,0,0.4,0.2,0.4,0.4c0,0.1,0,0.2-0.1,0.2
	c-0.3,0.7-1.9,1.3-4.5,1.7c-0.2,0-0.4,0.4-0.5,1.1c-0.1,0.3-0.1,0.5-0.2,0.8c-0.1,0.3-0.2,0.4-0.5,0.4h0c-0.2,0-0.4,0-0.7-0.1
	c-0.6-0.1-1.2-0.2-2-0.2c-0.5,0-0.9,0-1.4,0.1c-1,0.2-1.8,0.8-2.7,1.4C21.7,33.5,20.3,34.5,18.2,34.5"/>
<path fill="#020202" d="M18.3,1.9c1.3,0,6,0.4,8.2,5.3c0.7,1.6,0.5,4.5,0.4,6.9c0,0.4,0,0.7-0.1,1.1l0,0.1l0.1,0.1
	c0,0,0.4,0.4,1.2,0.5l0,0l0,0c0.6,0,1.2-0.2,1.8-0.5c0.1,0,0.2-0.1,0.4-0.1c0.2,0,0.3,0,0.5,0.1l0,0c0.4,0.1,0.6,0.4,0.6,0.6
	c0,0.1-0.1,0.5-1.3,1c-0.1,0-0.3,0.1-0.5,0.2c-0.8,0.3-2,0.6-2.5,1.6c-0.2,0.6-0.2,1.2,0.2,1.9c0.1,0.3,2.5,5.6,7.7,6.4
	c0,0,0,0.1,0,0.1c-0.1,0.2-0.7,0.9-4.2,1.5c-0.5,0.1-0.7,0.7-0.8,1.4c-0.1,0.3-0.1,0.5-0.2,0.8c0,0.1,0,0.1-0.1,0.1c0,0,0,0,0,0
	c-0.2,0-0.4,0-0.7-0.1c-0.5-0.1-1.2-0.2-2.1-0.2c-0.5,0-1,0-1.5,0.1c-1.1,0.2-1.9,0.8-2.9,1.5c-1.2,0.9-2.5,1.8-4.5,1.8
	c-0.1,0-0.2,0-0.3,0l0,0l0,0c0,0-0.1,0-0.1,0c-2,0-3.2-0.9-4.5-1.8c-0.9-0.7-1.8-1.3-2.9-1.5c-0.5-0.1-1-0.1-1.5-0.1
	c-0.9,0-1.6,0.1-2.1,0.2C6.6,31,6.4,31,6.2,31c-0.1,0-0.1,0-0.2-0.1c-0.1-0.3-0.1-0.5-0.2-0.8c-0.2-0.7-0.3-1.3-0.8-1.4
	c-3.5-0.5-4.1-1.3-4.2-1.5c0,0,0-0.1,0-0.1c5.2-0.9,7.6-6.1,7.7-6.4C8.9,20,9,19.3,8.7,18.8c-0.4-1-1.6-1.4-2.5-1.6
	c-0.2-0.1-0.3-0.1-0.5-0.2c-1.1-0.4-1.4-0.8-1.3-1.1c0.1-0.3,0.6-0.6,1-0.6c0.1,0,0.2,0,0.3,0c0.7,0.3,1.4,0.5,2,0.5
	c0.9,0,1.3-0.4,1.4-0.5l0.1-0.1l0-0.1c0-0.3,0-0.7-0.1-1.1c-0.1-2.4-0.3-5.3,0.4-6.9c2.2-4.9,6.8-5.3,8.2-5.3
	C17.7,1.9,18.3,1.9,18.3,1.9C18.3,1.9,18.3,1.9,18.3,1.9 M18.3,1.1L18.3,1.1C18.3,1.1,18.3,1.1,18.3,1.1c-0.3,0-0.7,0-0.7,0
	c-0.8,0-2.4,0.1-4.1,0.9c-1,0.4-1.9,1-2.6,1.7C10,4.5,9.3,5.6,8.7,6.8c-0.8,1.8-0.6,4.8-0.5,7.3l0,0c0,0.3,0,0.5,0,0.8
	C8.2,15,8,15,7.7,15c-0.5,0-1-0.1-1.6-0.4c-0.2-0.1-0.4-0.1-0.6-0.1c-0.4,0-0.7,0.1-1.1,0.3c-0.4,0.2-0.7,0.6-0.8,1
	c0,0.3,0,0.8,0.5,1.3c0.3,0.3,0.8,0.5,1.3,0.8C5.7,17.9,5.8,17.9,6,18c0.7,0.2,1.7,0.5,1.9,1.2c0.1,0.3,0.1,0.7-0.2,1.2c0,0,0,0,0,0
	c-0.1,0.1-0.6,1.4-1.8,2.8c-0.7,0.8-1.4,1.4-2.2,1.9c-1,0.6-2,1-3.1,1.2C0.3,26.4,0,26.8,0,27.2c0,0.1,0,0.2,0.1,0.4c0,0,0,0,0,0
	c0.2,0.4,0.6,0.7,1.2,1c0.8,0.4,2,0.7,3.5,0.9C4.9,29.7,5,30.1,5,30.3c0.1,0.3,0.1,0.6,0.2,0.8c0.1,0.3,0.3,0.7,1,0.7
	c0.2,0,0.5-0.1,0.8-0.1c0.5-0.1,1.1-0.2,1.9-0.2c0.4,0,0.9,0,1.4,0.1c0.9,0.1,1.6,0.7,2.5,1.3c1.3,0.9,2.7,1.9,5,1.9
	c0.1,0,0.1,0,0.2,0c0.1,0,0.2,0,0.3,0c2.2,0,3.7-1,5-1.9l0,0c0.9-0.6,1.6-1.2,2.5-1.3c0.5-0.1,0.9-0.1,1.4-0.1
	c0.8,0,1.4,0.1,1.9,0.2c0.3,0.1,0.6,0.1,0.8,0.1l0,0h0c0.5,0,0.8-0.3,0.9-0.7c0.1-0.3,0.1-0.6,0.2-0.8c0.1-0.2,0.1-0.6,0.2-0.8
	c1.5-0.2,2.7-0.6,3.5-0.9c0.6-0.3,1-0.6,1.2-1c0.1-0.1,0.1-0.2,0.1-0.4c0-0.4-0.3-0.8-0.7-0.9c-4.8-0.8-7-5.7-7.1-5.9c0,0,0,0,0,0
	c-0.2-0.5-0.3-0.9-0.2-1.2c0.3-0.6,1.3-0.9,1.9-1.2c0.2-0.1,0.4-0.1,0.5-0.2c0.7-0.3,1.1-0.5,1.4-0.9c0.4-0.4,0.4-0.7,0.4-1
	c0-0.6-0.5-1.1-1.2-1.3c-0.2-0.1-0.5-0.1-0.8-0.1c-0.2,0-0.5,0-0.7,0.1c-0.6,0.3-1.1,0.4-1.5,0.4c-0.2,0-0.4-0.1-0.5-0.1
	c0-0.2,0-0.5,0-0.7l0-0.1c0.2-2.4,0.3-5.5-0.5-7.3c-0.6-1.2-1.3-2.3-2.2-3.2c-0.8-0.7-1.6-1.3-2.6-1.7C20.7,1.2,19.1,1.1,18.3,1.1"
	/>
</svg>
