<?xml version="1.0" encoding="utf-8"?>
<!-- Generator: Adobe Illustrator 18.0.0, SVG Export Plug-In . SVG Version: 6.00 Build 0)  -->
<svg version="1.2" baseProfile="tiny" id="Layer_1" xmlns="http://www.w3.org/2000/svg" xmlns:xlink="http://www.w3.org/1999/xlink"
	 x="0px" y="0px" viewBox="288 378 36 36" xml:space="preserve">
<g>
	<g>
		<path fill="#E8A723" d="M311.3,380.2c-0.5-1.7-2.4-2.6-4-2.1c-1.7,0.5-2.6,2.4-2.1,4l8.3,25.5c0.6,1.6,2.3,2.5,3.9,2
			c1.7-0.5,2.7-2.3,2.2-4C319.6,405.7,311.3,380.2,311.3,380.2z"/>
		<path fill="#3EB890" d="M298.5,384.4c-0.5-1.7-2.4-2.6-4-2.1c-1.7,0.5-2.6,2.4-2.1,4l8.3,25.5c0.6,1.6,2.3,2.5,3.9,2
			c1.7-0.5,2.7-2.3,2.2-4C306.8,409.8,298.5,384.4,298.5,384.4z"/>
		<path fill="#E01765" d="M321.8,401.3c1.7-0.5,2.6-2.4,2.1-4c-0.5-1.7-2.4-2.6-4-2.1l-25.5,8.3c-1.6,0.6-2.5,2.3-2,3.9
			c0.5,1.7,2.3,2.7,4,2.2C296.3,409.6,321.8,401.3,321.8,401.3z"/>
		<path fill="#472A49" d="M299.6,408.6c1.7-0.5,3.8-1.2,6.1-2c-0.5-1.7-1.2-3.8-2-6.1l-6.1,2L299.6,408.6z"/>
		<path fill="#CC2027" d="M312.5,404.4c2.3-0.7,4.4-1.4,6.1-2c-0.5-1.7-1.2-3.8-2-6.1l-6.1,2L312.5,404.4z"/>
		<path fill="#70CADB" d="M317.6,388.5c1.7-0.5,2.6-2.4,2.1-4c-0.5-1.7-2.4-2.6-4-2.1l-25.5,8.3c-1.6,0.6-2.5,2.3-2,3.9
			c0.5,1.7,2.3,2.7,4,2.2C292.2,396.8,317.6,388.5,317.6,388.5z"/>
		<path fill="#1A937D" d="M295.4,395.7c1.7-0.5,3.8-1.2,6.1-2c-0.7-2.3-1.4-4.4-2-6.1l-6.1,2L295.4,395.7z"/>
		<path fill="#65863A" d="M308.3,391.5c2.3-0.7,4.4-1.4,6.1-2c-0.7-2.3-1.4-4.4-2-6.1l-6.1,2L308.3,391.5z"/>
	</g>
</g>
</svg>
