<?xml version="1.0" encoding="utf-8"?>
<!-- Generator: Adobe Illustrator 18.0.0, SVG Export Plug-In . SVG Version: 6.00 Build 0)  -->
<svg version="1.2" baseProfile="tiny" id="Layer_1" xmlns="http://www.w3.org/2000/svg" xmlns:xlink="http://www.w3.org/1999/xlink"
	 x="0px" y="0px" viewBox="234.6 234.8 45 45" xml:space="preserve">
<g>
	<path fill="#020202" d="M257.5,236.2L257.5,236.2c0,0-0.1,0-0.1,0c-0.3,0-0.7,0-0.8,0c-1,0-3,0.1-5.1,1.1c-1.2,0.5-2.3,1.3-3.3,2.2
		c-1.1,1.1-2.1,2.4-2.7,3.9c-1,2.3-0.8,6.1-0.6,9.1l0,0c0,0.3,0,0.7,0.1,1c-0.1,0.1-0.4,0.1-0.7,0.1c-0.6,0-1.2-0.2-2-0.5
		c-0.2-0.1-0.5-0.2-0.8-0.2c-0.5,0-0.9,0.1-1.3,0.4c-0.5,0.3-0.9,0.7-1,1.2c-0.1,0.3-0.1,0.9,0.6,1.6c0.4,0.4,0.9,0.7,1.7,1
		c0.2,0.1,0.4,0.1,0.7,0.2c0.8,0.3,2.1,0.7,2.4,1.4c0.2,0.4,0.1,0.9-0.2,1.5c0,0,0,0,0,0.1c-0.1,0.2-0.8,1.8-2.3,3.5
		c-0.8,1-1.8,1.8-2.7,2.4c-1.2,0.8-2.5,1.3-3.8,1.5c-0.5,0.1-0.9,0.6-0.9,1.1c0,0.2,0,0.3,0.1,0.5c0,0,0,0,0,0
		c0.2,0.5,0.7,0.9,1.5,1.3c1,0.5,2.5,0.8,4.4,1.1c0.1,0.2,0.2,0.7,0.3,1c0.1,0.3,0.1,0.7,0.3,1.1c0.1,0.4,0.4,0.9,1.2,0.9
		c0.3,0,0.6-0.1,1-0.1c0.6-0.1,1.4-0.3,2.4-0.3c0.5,0,1.1,0,1.7,0.1c1.1,0.2,2.1,0.9,3.2,1.6c1.6,1.1,3.4,2.4,6.2,2.4
		c0.1,0,0.2,0,0.2,0c0.1,0,0.2,0,0.3,0c2.8,0,4.6-1.3,6.2-2.4l0,0c1.1-0.8,2-1.4,3.2-1.6c0.6-0.1,1.1-0.1,1.7-0.1
		c0.9,0,1.7,0.1,2.4,0.3c0.4,0.1,0.8,0.1,1,0.1l0,0h0c0.6,0,1-0.3,1.2-0.9c0.1-0.4,0.2-0.7,0.3-1c0.1-0.3,0.2-0.8,0.3-1
		c1.9-0.3,3.4-0.7,4.4-1.1c0.8-0.4,1.3-0.8,1.5-1.3c0.1-0.2,0.1-0.3,0.1-0.5c0-0.5-0.3-1-0.9-1.1c-6-1-8.7-7.2-8.8-7.4
		c0,0,0,0,0-0.1c-0.3-0.6-0.4-1.1-0.2-1.5c0.3-0.8,1.6-1.2,2.4-1.4c0.2-0.1,0.5-0.1,0.7-0.2c0.8-0.3,1.4-0.7,1.8-1.1
		c0.5-0.5,0.6-0.9,0.5-1.2c0-0.7-0.6-1.4-1.4-1.7c-0.3-0.1-0.6-0.2-1-0.2c-0.2,0-0.6,0-0.9,0.2c-0.7,0.3-1.3,0.5-1.9,0.5
		c-0.3,0-0.5-0.1-0.6-0.1c0-0.3,0-0.6,0.1-0.9l0-0.1c0.2-3.1,0.4-6.9-0.6-9.1c-0.7-1.5-1.6-2.9-2.8-4c-1-0.9-2.1-1.6-3.3-2.2
		C260.5,236.3,258.5,236.2,257.5,236.2"/>
	<path fill="#FFFFFF" d="M278.6,268.9c-0.1,0.3-0.8,1.2-5.2,1.8c-0.7,0.1-0.9,0.9-1,1.8c-0.1,0.3-0.1,0.6-0.2,1c0,0.1,0,0.1-0.1,0.1
		c0,0,0,0-0.1,0c-0.2,0-0.5,0-0.8-0.1c-0.6-0.1-1.5-0.3-2.6-0.3c-0.6,0-1.2,0.1-1.9,0.2c-1.3,0.2-2.4,1-3.6,1.8
		c-1.6,1.1-3.2,2.2-5.6,2.2c-0.1,0-0.2,0-0.3,0l0,0l0,0c-0.1,0-0.1,0-0.2,0c-2.4,0-4.1-1.1-5.6-2.2c-1.2-0.8-2.2-1.6-3.6-1.8
		c-0.6-0.1-1.3-0.2-1.9-0.2c-1.1,0-1.9,0.2-2.6,0.3c-0.3,0.1-0.6,0.1-0.8,0.1c-0.2,0-0.2,0-0.2-0.1c-0.1-0.3-0.2-0.7-0.2-1
		c-0.2-0.9-0.4-1.7-1-1.8c-4.4-0.7-5.1-1.6-5.2-1.8c0,0,0-0.1,0-0.1c6.5-1.1,9.5-7.6,9.6-8.1c0.4-0.9,0.5-1.7,0.2-2.4
		c-0.5-1.2-2.1-1.7-3.1-2c-0.2-0.1-0.4-0.1-0.6-0.2c-1.3-0.5-1.7-1-1.7-1.4c0.1-0.4,0.7-0.7,1.3-0.7c0.1,0,0.2,0,0.3,0.1
		c0.9,0.4,1.7,0.6,2.5,0.6c1.1,0,1.6-0.5,1.7-0.6l0.1-0.1l0-0.2c0-0.4-0.1-0.9-0.1-1.3c-0.2-2.9-0.4-6.6,0.5-8.6
		c2.7-6.1,8.5-6.6,10.2-6.6c0,0,0.8,0,0.8,0c0,0,0.1,0,0.1,0c1.7,0,7.5,0.5,10.2,6.6c0.9,2,0.7,5.7,0.5,8.6c0,0.5-0.1,0.9-0.1,1.3
		l0,0.2l0.1,0.1c0.1,0.1,0.5,0.5,1.6,0.6l0,0l0,0c0.7,0,1.5-0.2,2.3-0.6c0.1-0.1,0.3-0.1,0.5-0.1c0.2,0,0.4,0,0.6,0.1l0,0
		c0.4,0.2,0.8,0.4,0.8,0.7c0,0.1-0.1,0.7-1.7,1.3c-0.2,0.1-0.4,0.1-0.6,0.2c-1,0.3-2.6,0.8-3.1,2c-0.3,0.7-0.2,1.5,0.2,2.4
		c0.2,0.4,3.1,7,9.6,8.1C278.6,268.8,278.6,268.9,278.6,268.9z"/>
</g>
</svg>
