<?xml version="1.0" encoding="utf-8"?>
<!-- Generator: Adobe Illustrator 18.0.0, SVG Export Plug-In . SVG Version: 6.00 Build 0)  -->
<svg version="1.2" baseProfile="tiny" id="Layer_1" xmlns="http://www.w3.org/2000/svg" xmlns:xlink="http://www.w3.org/1999/xlink"
	 x="0px" y="0px" viewBox="-2 -2 36 36" xml:space="preserve">
<g>
	<path fill="#FFFFFF" d="M33,19.8c0.3-1.2,0.4-2.4,0.4-3.6c0-9.3-7.7-16.9-17.2-16.9c-1,0-2,0.1-2.9,0.2C11.7-1.4,9.9-2,7.9-2
		C2.4-2-2,2.4-2,7.8c0,1.8,0.5,3.5,1.4,5C-0.9,13.9-1,15-1,16.2c0,9.3,7.7,16.9,17.2,16.9c1.1,0,2.1-0.1,3.1-0.3
		c1.4,0.7,3,1.2,4.7,1.2c5.5,0,10-4.4,10-9.8C34,22.6,33.6,21.1,33,19.8z M23.9,24.8c-0.7,1.1-1.8,2-3.1,2.6c-1.3,0.6-3,0.9-4.8,0.9
		c-2.2,0-4.1-0.4-5.5-1.3c-1-0.6-1.9-1.5-2.5-2.5c-0.7-1-1-2.1-1-3.1c0-0.6,0.2-1.2,0.6-1.6c0.4-0.4,1-0.7,1.6-0.7
		c0.5,0,1,0.2,1.4,0.5c0.4,0.3,0.7,0.8,0.9,1.5c0.3,0.7,0.6,1.3,0.9,1.7c0.3,0.4,0.7,0.8,1.3,1.1c0.6,0.3,1.3,0.4,2.2,0.4
		c1.3,0,2.3-0.3,3.1-0.9c0.8-0.6,1.1-1.3,1.1-2.1c0-0.7-0.2-1.2-0.6-1.6c-0.4-0.4-1-0.8-1.6-1c-0.7-0.2-1.6-0.5-2.8-0.8
		c-1.6-0.4-2.9-0.8-4-1.3c-1.1-0.5-2-1.2-2.6-2.1c-0.7-0.9-1-2.1-1-3.4c0-1.3,0.4-2.4,1-3.4c0.7-1,1.7-1.8,3-2.3
		c1.3-0.5,2.8-0.8,4.5-0.8c1.4,0,2.6,0.2,3.6,0.5c1,0.3,1.9,0.8,2.5,1.4c0.7,0.6,1.2,1.2,1.5,1.9c0.3,0.7,0.5,1.3,0.5,1.9
		c0,0.6-0.2,1.2-0.6,1.6c-0.4,0.5-0.9,0.7-1.6,0.7c-0.6,0-1-0.2-1.3-0.5c-0.3-0.3-0.6-0.7-0.9-1.3c-0.4-0.8-0.8-1.4-1.4-1.9
		c-0.5-0.4-1.4-0.7-2.6-0.7c-1.1,0-2,0.2-2.7,0.7c-0.6,0.5-1,1-1,1.6c0,0.4,0.1,0.7,0.3,1c0.2,0.3,0.5,0.6,0.9,0.8
		c0.4,0.2,0.8,0.4,1.2,0.5c0.4,0.1,1.1,0.3,2.1,0.6c1.2,0.3,2.4,0.6,3.4,1c1,0.4,1.9,0.8,2.6,1.3c0.7,0.5,1.3,1.2,1.7,2
		c0.4,0.8,0.6,1.8,0.6,3C25,22.4,24.6,23.7,23.9,24.8z"/>
</g>
</svg>
