<?xml version="1.0" encoding="utf-8"?>
<!-- Generator: Adobe Illustrator 19.1.0, SVG Export Plug-In . SVG Version: 6.00 Build 0)  -->
<svg version="1.2" baseProfile="tiny" id="Layer_1" xmlns="http://www.w3.org/2000/svg" xmlns:xlink="http://www.w3.org/1999/xlink"
	 x="0px" y="0px" viewBox="-273 375 32 44" xml:space="preserve">
<path d="M-257,381v-6l-8,8l8,8v-6c6.6,0,12,5.4,12,12c0,2-0.5,3.9-1.4,5.6l2.9,2.9c1.6-2.5,2.5-5.4,2.5-8.5
	C-241,388.2-248.2,381-257,381z M-257,409c-6.6,0-12-5.4-12-12c0-2,0.5-3.9,1.4-5.6l-2.9-2.9c-1.6,2.5-2.5,5.4-2.5,8.5
	c0,8.8,7.2,16,16,16v6l8-8l-8-8V409z"/>
<path fill="none" d="M-281,373h48v48h-48V373z"/>
</svg>
