<?xml version="1.0" encoding="utf-8"?>
<!-- Generator: Adobe Illustrator 19.1.0, SVG Export Plug-In . SVG Version: 6.00 Build 0)  -->
<svg version="1.2" baseProfile="tiny" id="Layer_1" xmlns="http://www.w3.org/2000/svg" xmlns:xlink="http://www.w3.org/1999/xlink"
	 x="0px" y="0px" viewBox="-282.5 382 27 29.9" xml:space="preserve">
<path fill="none" d="M-287,379h36v36h-36V379z"/>
<path d="M-260,403.1c-1.1,0-2.2,0.5-2.9,1.2l-10.7-6.2c0.1-0.3,0.1-0.7,0.1-1s-0.1-0.7-0.1-1l10.6-6.2c0.8,0.8,1.9,1.2,3.1,1.2
	c2.5,0,4.5-2,4.5-4.5s-2-4.5-4.5-4.5s-4.5,2-4.5,4.5c0,0.4,0.1,0.7,0.1,1l-10.6,6.2c-0.8-0.8-1.9-1.2-3.1-1.2c-2.5,0-4.5,2-4.5,4.5
	s2,4.5,4.5,4.5c1.2,0,2.2-0.5,3.1-1.2l10.7,6.2c-0.1,0.3-0.1,0.6-0.1,1c0,2.4,2,4.4,4.4,4.4s4.4-2,4.4-4.4S-257.6,403.1-260,403.1z"
	/>
</svg>
