<?xml version="1.0" encoding="utf-8"?>
<!-- Generator: Adobe Illustrator 18.0.0, SVG Export Plug-In . SVG Version: 6.00 Build 0)  -->
<svg version="1.2" baseProfile="tiny"
	 id="svg3384" xmlns:dc="http://purl.org/dc/elements/1.1/" xmlns:rdf="http://www.w3.org/1999/02/22-rdf-syntax-ns#" xmlns:cc="http://creativecommons.org/ns#" xmlns:svg="http://www.w3.org/2000/svg"
	 xmlns="http://www.w3.org/2000/svg" xmlns:xlink="http://www.w3.org/1999/xlink" x="0px" y="0px" viewBox="0 0 48.7 39.5"
	 xml:space="preserve">
<path id="path3386" fill="#FFFFFF" d="M48.7,4.7c-1.8,0.8-3.7,1.3-5.7,1.6C45,5,46.6,3.1,47.3,0.7c-1.9,1.1-4.1,2-6.3,2.4
	C39.2,1.2,36.6,0,33.7,0c-5.5,0-10,4.5-10,10c0,0.8,0.1,1.5,0.3,2.3C15.7,11.8,8.3,7.9,3.4,1.8C2.5,3.3,2,5,2,6.8
	c0,3.5,1.8,6.5,4.4,8.3c-1.6-0.1-3.2-0.5-4.5-1.2c0,0,0,0.1,0,0.1c0,4.8,3.4,8.9,8,9.8c-0.8,0.2-1.7,0.3-2.6,0.3
	c-0.6,0-1.3-0.1-1.9-0.2c1.3,4,5,6.9,9.3,6.9c-3.4,2.7-7.7,4.3-12.4,4.3c-0.8,0-1.6,0-2.4-0.1c4.4,2.8,9.7,4.5,15.3,4.5
	c18.4,0,28.4-15.2,28.4-28.4c0-0.4,0-0.9,0-1.3C45.6,8.4,47.3,6.7,48.7,4.7z"/>
</svg>
