<?xml version="1.0" encoding="utf-8"?>
<!-- Generator: Adobe Illustrator 18.0.0, SVG Export Plug-In . SVG Version: 6.00 Build 0)  -->
<svg version="1.2" baseProfile="tiny" id="WhatsApp_logo"
	 xmlns="http://www.w3.org/2000/svg" xmlns:xlink="http://www.w3.org/1999/xlink" x="0px" y="0px" viewBox="288 378 36 36"
	 xml:space="preserve">
<path id="shape_green" fill="#20B038" d="M288.7,413.5l2.5-8.9c-1.5-2.6-2.3-5.6-2.3-8.6c0-9.5,7.7-17.2,17.2-17.2
	c4.6,0,8.9,1.8,12.2,5c3.2,3.2,5,7.6,5,12.2c0,9.5-7.7,17.2-17.3,17.2l0,0l0,0c-2.9,0-5.7-0.8-8.3-2.1L288.7,413.5z"/>
<g id="shape">
	<g>
		<path fill="#FFFFFF" d="M288,414.1l2.6-9.2c-1.6-2.7-2.4-5.8-2.4-8.9c0-9.8,8-17.9,17.9-17.9c4.8,0,9.2,1.9,12.6,5.3
			c3.4,3.4,5.3,7.9,5.3,12.6c0,9.8-8,17.9-17.9,17.9l0,0l0,0c-3,0-5.9-0.8-8.6-2.2L288,414.1z M297.9,408.4l0.5,0.3
			c2.3,1.4,4.9,2.1,7.6,2.1l0,0c8.2,0,14.9-6.7,14.9-14.9c0-4-1.6-7.7-4.4-10.5c-2.8-2.8-6.5-4.3-10.5-4.3
			c-8.2,0-14.9,6.6-14.9,14.8c0,2.8,0.8,5.6,2.3,7.9l0.4,0.5l-1.5,5.5L297.9,408.4z"/>
	</g>
</g>
<g id="phone">
	<g>
		<path fill="#FFFFFF" d="M301.6,388.4c-0.3-0.8-0.7-0.8-1-0.8c-0.2,0-0.5,0-0.8,0s-0.8,0.1-1.2,0.5c-0.4,0.5-1.6,1.5-1.6,3.8
			c0,2.2,1.6,4.3,1.8,4.6c0.2,0.3,3.1,5,7.6,6.8c3.8,1.5,4.5,1.2,5.3,1.1c0.8-0.1,2.6-1.1,3-2.1s0.4-2,0.2-2.1
			c-0.1-0.2-0.4-0.3-0.8-0.5c-0.4-0.3-2.6-1.4-3-1.5c-0.4-0.2-0.7-0.2-1,0.2c-0.3,0.5-1.1,1.4-1.4,1.7s-0.5,0.3-1,0.1
			c-0.5-0.2-1.9-0.7-3.6-2.2c-1.4-1.2-2.3-2.6-2.5-3.1s0-0.7,0.2-0.9c0.2-0.2,0.5-0.5,0.7-0.8c0.2-0.2,0.3-0.5,0.5-0.8
			s0.1-0.5,0-0.8C302.8,391.5,302,389.3,301.6,388.4z"/>
	</g>
</g>
</svg>
