<?xml version="1.0" encoding="utf-8"?>
<!-- Generator: Adobe Illustrator 18.0.0, SVG Export Plug-In . SVG Version: 6.00 Build 0)  -->
<svg version="1.2" baseProfile="tiny" id="Layer_1" xmlns="http://www.w3.org/2000/svg" xmlns:xlink="http://www.w3.org/1999/xlink"
	 x="0px" y="0px" viewBox="283.5 373.5 45 45" xml:space="preserve">
<g>
	<path fill="#FFFFFF" d="M321.2,412.4c-0.1-0.3-0.2-0.6-0.2-1c-0.4-2.6-1.5-5-2.9-7.3c-2.3-3.7-5.2-6.8-8.4-9.7
		c-1.2-1.1-2.5-2.2-3.9-3.3c-1.3,1.1-2.5,2-3.7,3.1c-3.4,3-6.5,6.3-8.8,10.2c-1.3,2.3-2.4,4.6-2.8,7.3c-0.1,0.4,0.1,0.7,0.4,0.9
		c3.8,3.4,8.2,5.3,13.3,5.7c6.2,0.4,11.7-1.4,16.4-5.4C320.9,412.8,321,412.6,321.2,412.4c0.2-0.2,0.5-0.3,0.7-0.5
		c7-7.2,8.6-17.5,3.9-26.4c-1.2-2.3-2.8-4.4-4.7-6.1c-0.5,0.2-0.9,0.5-1.3,0.7c-2.1,1-4.3,2-6.2,3.4c-0.8,0.6-1.5,1.2-2,2.2
		c-0.2,0.3-0.2,0.6,0.1,0.9c2.5,2.6,4.8,5.4,6.6,8.5c1.9,3.2,3.5,6.5,3.9,10.3C322.6,407.7,322.4,410.1,321.2,412.4z M289.9,411.7
		c-0.2-1.3-0.6-2.5-0.7-3.8c-0.3-3,0.5-5.8,1.7-8.5c2.1-4.8,5.2-8.9,8.7-12.6c0.6-0.7,0.7-0.8,0.2-1.5c-0.6-0.7-1.3-1.5-2.1-2
		c-2.1-1.3-4.3-2.4-6.5-3.5c-0.4-0.2-0.6-0.2-0.8,0.1c-5.8,5.9-7.9,12.9-6.3,20.9C284.9,405,286.9,408.7,289.9,411.7z M319.6,378.1
		c-8.3-6.5-20.1-5.7-27-0.1c4.8-0.8,9.2,0,13.2,2.6C310,377.9,314.6,377.2,319.6,378.1z"/>
	<path fill="#FFFFFF" d="M321.2,412.4c-0.2,0.2-0.3,0.5-0.5,0.6c-4.7,4-10.2,5.9-16.4,5.4c-5.1-0.4-9.5-2.3-13.3-5.7
		c-0.3-0.3-0.4-0.5-0.4-0.9c0.4-2.6,1.4-5,2.8-7.3c2.3-3.9,5.4-7.2,8.8-10.2c1.2-1,2.4-2,3.7-3.1c1.3,1.1,2.6,2.2,3.9,3.3
		c3.2,2.9,6.1,6,8.4,9.7c1.4,2.3,2.5,4.6,2.9,7.3C321,411.7,321.1,412.1,321.2,412.4L321.2,412.4z"/>
	<path fill="#FFFFFF" d="M321.2,412.4c1.2-2.2,1.4-4.6,1.2-7.1c-0.4-3.8-2-7.1-3.9-10.3c-1.9-3.1-4.1-5.9-6.6-8.5
		c-0.3-0.3-0.3-0.5-0.1-0.9c0.4-0.9,1.2-1.6,2-2.2c1.9-1.4,4.1-2.4,6.2-3.4c0.4-0.2,0.9-0.4,1.3-0.7c1.9,1.7,3.5,3.8,4.7,6.1
		c4.6,8.9,3.1,19.3-3.9,26.4C321.7,412.1,321.4,412.2,321.2,412.4C321.2,412.4,321.2,412.4,321.2,412.4z"/>
	<path fill="#FFFFFF" d="M289.9,411.7c-3-3-5.1-6.7-5.9-11c-1.6-8.1,0.5-15.1,6.3-20.9c0.3-0.3,0.5-0.3,0.8-0.1
		c2.2,1.2,4.4,2.3,6.5,3.5c0.8,0.5,1.5,1.3,2.1,2c0.6,0.7,0.5,0.8-0.2,1.5c-3.5,3.8-6.6,7.9-8.7,12.6c-1.2,2.7-2,5.5-1.7,8.5
		C289.3,409.2,289.7,410.5,289.9,411.7z"/>
	<path fill="#FFFFFF" d="M319.6,378.1c-5-0.9-9.6-0.2-13.8,2.5c-4.1-2.6-8.5-3.3-13.2-2.6C299.5,372.4,311.3,371.6,319.6,378.1z"/>
</g>
</svg>
