<?xml version="1.0" encoding="utf-8"?>
<!-- Generator: Adobe Illustrator 18.0.0, SVG Export Plug-In . SVG Version: 6.00 Build 0)  -->
<svg version="1.2" baseProfile="tiny" id="Default_g_x2B__icon"
	 xmlns="http://www.w3.org/2000/svg" xmlns:xlink="http://www.w3.org/1999/xlink" x="0px" y="0px" viewBox="288 378 36 36"
	 xml:space="preserve">
<g id="Lozenge">
	<path fill="#FFFFFF" d="M323.6,388.7c0,0-0.4-2.5-1.4-3.6c-1.4-1.4-2.9-1.4-3.6-1.5c-5-0.4-12.6-0.4-12.6-0.4h0c0,0-7.6,0-12.6,0.4
		c-0.7,0.1-2.2,0.1-3.6,1.5c-1.1,1.1-1.4,3.6-1.4,3.6s-0.4,2.9-0.4,5.8v2.7c0,2.9,0.4,5.8,0.4,5.8s0.4,2.5,1.4,3.6
		c1.4,1.4,3.2,1.4,4,1.5c2.9,0.3,12.2,0.4,12.2,0.4s7.6,0,12.6-0.4c0.7-0.1,2.2-0.1,3.6-1.5c1.1-1.1,1.4-3.6,1.4-3.6
		s0.4-2.9,0.4-5.8v-2.7C324,391.6,323.6,388.7,323.6,388.7z M302.3,400.6l0-10.1l9.7,5.1L302.3,400.6z"/>
</g>
</svg>
