<?xml version="1.0" encoding="utf-8"?>
<!-- Generator: Adobe Illustrator 19.1.0, SVG Export Plug-In . SVG Version: 6.00 Build 0)  -->
<svg version="1.2" baseProfile="tiny" id="Layer_1" xmlns="http://www.w3.org/2000/svg" xmlns:xlink="http://www.w3.org/1999/xlink"
	 x="0px" y="0px" viewBox="716.4 385.1 49 33" xml:space="preserve">
<path fill="#9B5AB6" stroke="#9B5AB6" stroke-width="9.380000e-02" d="M716.5,385.2h48.9v32.9h-48.9V385.2z"/>
<path fill="#FFFFFF" stroke="#FFFFFF" stroke-width="9.380000e-02" d="M722.9,390.8c1.6,0,3.3,0,4.9,0c0.1,0,0.1,0.1,0.1,0.1
	c1.5,2.5,2.9,5,4.4,7.5c0.1-0.1,0.1-0.1,0.1-0.2c1.4-2.3,2.7-4.7,4.1-7c0.1-0.1,0.1-0.3,0.2-0.4c1.3,0,2.7,0,4,0c0.3,0,0.6,0,0.9,0
	c-2.4,4.1-4.7,8.3-7.1,12.4c0,2.2,0,4.4,0,6.6c0,0.5,0,1,0,1.5c-1.5,0-3,0-4.6,0c0-2.6,0-5.1,0-7.7c0-0.1,0-0.3,0-0.4
	c-2.3-4-4.6-8.1-6.9-12.1C723,390.9,723,390.9,722.9,390.8z"/>
<path fill="#FFFFFF" stroke="#FFFFFF" stroke-width="9.380000e-02" d="M748.9,395.3c0.9,0,1.9,0,2.8,0.3c1.6,0.4,3.1,1.4,4.1,2.6
	c1,1.1,1.6,2.5,1.8,4c0.1,0.6,0.1,1.2,0.1,1.8c-0.1,1.6-0.6,3.1-1.6,4.3c-0.9,1.2-2.1,2.1-3.5,2.7c-0.9,0.4-1.9,0.5-2.9,0.6
	c-1,0-2,0-3-0.3c-1.7-0.5-3.2-1.5-4.3-2.9c-0.6-0.7-1-1.6-1.3-2.5c-0.3-1-0.4-2-0.3-3c0.1-1.4,0.5-2.7,1.3-3.9
	c1-1.5,2.5-2.7,4.2-3.2C747.3,395.4,748.1,395.3,748.9,395.3z"/>
<path fill="#9B5AB6" stroke="#9B5AB6" stroke-width="9.380000e-02" d="M749,399c0.7-0.1,1.5,0,2.1,0.4c0.8,0.4,1.4,1.2,1.8,2
	c0.4,0.9,0.4,1.9,0.3,2.8c-0.1,0.7-0.4,1.5-0.8,2.1c-0.5,0.7-1.3,1.2-2.1,1.4c-0.5,0.1-1.1,0.1-1.6,0.1c-0.9-0.1-1.7-0.6-2.3-1.3
	c-0.4-0.5-0.7-1.1-0.8-1.7c-0.2-0.7-0.2-1.3-0.1-2c0.1-0.9,0.5-1.9,1.1-2.6C747.2,399.5,748.1,399.1,749,399z"/>
</svg>
